<?xml version="1.0" encoding="utf-8"?>
<!-- Generator: Adobe Illustrator 23.0.1, SVG Export Plug-In . SVG Version: 6.00 Build 0)  -->
<svg version="1.1" id="圖層_1" xmlns="http://www.w3.org/2000/svg" xmlns:xlink="http://www.w3.org/1999/xlink" x="0px" y="0px"
	 viewBox="0 0 18 13.1" style="enable-background:new 0 0 18 13.1;" xml:space="preserve">
<style type="text/css">
	.st0{clip-path:url(#SVGID_2_);fill:#E74846;}
</style>
<g>
	<defs>
		<rect id="SVGID_1_" y="0" width="18" height="13.1"/>
	</defs>
	<clipPath id="SVGID_2_">
		<use xlink:href="#SVGID_1_"  style="overflow:visible;"/>
	</clipPath>
	<path class="st0" d="M15.1,7.3h-0.3H1.2c-0.2,0-0.3,0-0.5,0C0.3,7.3,0,6.9,0,6.5c0-0.4,0.3-0.8,0.8-0.8c0.7,0,1.4,0,2.1,0
		c4,0,8,0,12,0h0.2c0,0,0-0.1,0.1-0.1c-0.1,0-0.1-0.1-0.2-0.1c-1.4-1.4-2.7-2.7-4.1-4.1c-0.3-0.3-0.4-0.6-0.2-0.9
		C10.8,0.2,11,0,11.4,0c0.3,0,0.5,0.1,0.7,0.3c1.2,1.2,2.4,2.4,3.6,3.6c0.7,0.7,1.3,1.3,2,2c0.4,0.4,0.4,0.8,0,1.2
		c-1.9,1.9-3.8,3.8-5.6,5.7c-0.2,0.2-0.5,0.3-0.9,0.2c-0.3-0.1-0.5-0.3-0.6-0.7c-0.1-0.3,0.1-0.5,0.3-0.8c1.1-1.1,2.3-2.3,3.4-3.4
		C14.5,8,14.7,7.8,15,7.5C15,7.5,15.1,7.4,15.1,7.3"/>
</g>
</svg>
