<?xml version="1.0" encoding="utf-8"?>
<!-- Generator: Adobe Illustrator 23.0.1, SVG Export Plug-In . SVG Version: 6.00 Build 0)  -->
<svg version="1.1" id="圖層_1" xmlns="http://www.w3.org/2000/svg" xmlns:xlink="http://www.w3.org/1999/xlink" x="0px" y="0px"
	 viewBox="0 0 527 527" style="enable-background:new 0 0 527 527;" xml:space="preserve">
<style type="text/css">
	.st0{fill:#ED534B;}
	.st1{fill:none;}
</style>
<path class="st0" d="M265.4,32C132.2,32,23.8,136.9,23.8,265.8c0,128.9,108.4,233.8,241.6,233.8S507,394.8,507,265.8
	C507,136.9,398.6,32,265.4,32 M265.4,458c-109.5,0-198.5-86.2-198.5-192.1c0-105.9,89.1-192.1,198.5-192.1
	c109.5,0,198.5,86.2,198.5,192.1C463.9,371.8,374.9,458,265.4,458"/>
<path class="st0" d="M342.9,311.3L218.4,190.8c-2.7-2.6-7-2.6-9.7,0l-20.7,20.1c-2.7,2.6-2.7,6.8,0,9.4l124.5,120.5
	c2.7,2.6,7,2.6,9.7,0l20.7-20.1C345.6,318.1,345.6,313.9,342.9,311.3"/>
<path class="st0" d="M312.4,190.8L187.9,311.3c-2.7,2.6-2.7,6.8,0,9.4l20.7,20.1c2.7,2.6,7,2.6,9.7,0l124.5-120.5
	c2.7-2.6,2.7-6.8,0-9.4l-20.7-20.1C319.4,188.2,315.1,188.2,312.4,190.8"/>
<rect x="23.8" y="32" class="st1" width="483.2" height="467.7"/>
</svg>
