<?xml version="1.0" encoding="utf-8"?>
<!-- Generator: Adobe Illustrator 23.0.1, SVG Export Plug-In . SVG Version: 6.00 Build 0)  -->
<svg version="1.1" id="Capa_1" xmlns="http://www.w3.org/2000/svg" xmlns:xlink="http://www.w3.org/1999/xlink" x="0px" y="0px"
	 viewBox="0 0 512 512" style="enable-background:new 0 0 512 512;" xml:space="preserve">
<style type="text/css">
	.st0{fill:#ED534B;}
	.st1{display:none;}
	.st2{display:inline;fill:#ED534B;}
</style>
<g>
	<path class="st0" d="M256,27.5C129.2,27.5,26,130,26,256s103.2,228.5,230,228.5c126.8,0,230-102.5,230-228.5S382.8,27.5,256,27.5z
		 M256,443.8c-104.2,0-189-84.2-189-187.8S151.8,68.2,256,68.2c104.2,0,189,84.2,189,187.8S360.2,443.8,256,443.8z"/>
	<path class="st0" d="M344.8,200H177.2c-3.6,0-6.5,2.9-6.5,6.5v27.8c0,3.6,2.9,6.5,6.5,6.5h167.6c3.6,0,6.5-2.9,6.5-6.5v-27.8
		C351.4,202.9,348.5,200,344.8,200z"/>
	<path class="st0" d="M344.8,286.3H177.2c-3.6,0-6.5,2.9-6.5,6.5v27.8c0,3.6,2.9,6.5,6.5,6.5h167.6c3.6,0,6.5-2.9,6.5-6.5v-27.8
		C351.4,289.2,348.5,286.3,344.8,286.3z"/>
</g>
<g class="st1">
	<path class="st2" d="M418.6,152.6L313,258.2l105.5,105.5c15.7,15.7,15.7,41.1,0,56.9c-7.8,7.8-18.1,11.8-28.4,11.8
		c-10.3,0-20.6-3.9-28.4-11.8L256.2,315L150.6,420.6c-7.8,7.8-18.1,11.8-28.4,11.8c-10.3,0-20.6-3.9-28.4-11.8
		c-15.7-15.7-15.7-41.1,0-56.9l105.5-105.5L93.8,152.6c-15.7-15.7-15.7-41.1,0-56.8c15.7-15.7,41.1-15.7,56.8,0l105.6,105.6
		L361.7,95.8c15.7-15.7,41.1-15.7,56.8,0C434.3,111.5,434.3,136.9,418.6,152.6z"/>
</g>
</svg>
