<?xml version="1.0" encoding="utf-8"?>
<!-- Generator: Adobe Illustrator 26.0.1, SVG Export Plug-In . SVG Version: 6.00 Build 0)  -->
<svg version="1.1" id="Artboard_30" xmlns="http://www.w3.org/2000/svg" xmlns:xlink="http://www.w3.org/1999/xlink" x="0px"
	 y="0px" viewBox="0 0 512 512" style="enable-background:new 0 0 512 512;" xml:space="preserve">
<style type="text/css">
	.st0{fill:#2D9739;}
	.st1{fill:#44BC59;}
	.st2{fill:#8FD79B;}
	.st3{fill:#0D8410;}
	.st4{fill:#393A3A;}
	.st5{fill:#5BC6E5;}
	.st6{fill:#88898D;}
	.st7{fill:#616161;}
	.st8{fill:#98FBFE;}
	.st9{fill:#212121;}
	.st10{fill-rule:evenodd;clip-rule:evenodd;fill:#ECB718;}
	
		.st11{clip-path:url(#SVGID_00000127723725692623290850000001129135129271515570_);fill-rule:evenodd;clip-rule:evenodd;fill:#F6DA7F;}
	.st12{fill:#040000;}
	.st13{fill-rule:evenodd;clip-rule:evenodd;fill:#DE9F1B;}
	
		.st14{clip-path:url(#SVGID_00000005966058827094790620000000794628174277957558_);fill-rule:evenodd;clip-rule:evenodd;fill:#F5CB45;}
	
		.st15{clip-path:url(#SVGID_00000001657538796237223280000010374370882724665505_);fill-rule:evenodd;clip-rule:evenodd;fill:#F9E8AF;}
	
		.st16{clip-path:url(#SVGID_00000026856482990146847290000001738494354058443689_);fill-rule:evenodd;clip-rule:evenodd;fill:#F9E8AF;}
	.st17{fill-rule:evenodd;clip-rule:evenodd;fill:#C18C12;}
	
		.st18{clip-path:url(#SVGID_00000112628170894472902230000011804760217444602290_);fill-rule:evenodd;clip-rule:evenodd;fill:#F4BD1B;}
	
		.st19{clip-path:url(#SVGID_00000160169616790893485570000013432916046939833490_);fill-rule:evenodd;clip-rule:evenodd;fill:#F8E093;}
	
		.st20{clip-path:url(#SVGID_00000105405287693338548660000008353205901814614964_);fill-rule:evenodd;clip-rule:evenodd;fill:#F6DA7F;}
	
		.st21{clip-path:url(#SVGID_00000060021570365747317120000014847613998260958369_);fill-rule:evenodd;clip-rule:evenodd;fill:#F5CB45;}
	
		.st22{clip-path:url(#SVGID_00000011749543626549152380000003496904406270551697_);fill-rule:evenodd;clip-rule:evenodd;fill:#F9E8AF;}
	
		.st23{clip-path:url(#SVGID_00000096748900721878590160000004602569374512127367_);fill-rule:evenodd;clip-rule:evenodd;fill:#F9E8AF;}
	
		.st24{clip-path:url(#SVGID_00000079444439034105442820000001845109965482157717_);fill-rule:evenodd;clip-rule:evenodd;fill:#F4BD1B;}
	
		.st25{clip-path:url(#SVGID_00000137125926616354885840000008028678986788712328_);fill-rule:evenodd;clip-rule:evenodd;fill:#F8E093;}
</style>
<g>
	<path class="st0" d="M105.2,53h282c0,0,28.2,211.8,28.2,212.4v196.5c0,7.8-6.3,14.1-14.1,14.1H91.1c-7.8,0-14.1-6.3-14.1-14.1
		V265.4C77,264.8,105.2,53,105.2,53z"/>
	<g>
		<path class="st1" d="M77,461.9c0,7.8,6.3,14.1,14.1,14.1h310.2c7.8,0,14.1-6.3,14.1-14.1V299.8H77V461.9z"/>
		<path class="st2" d="M373.1,447.8H119.3c-7.8,0-14.1-5.6-14.1-12.6v-94.6c0-7,6.3-12.6,14.1-12.6h253.8c7.8,0,14.1,5.6,14.1,18.9
			v94.6C387.2,442.2,380.9,447.8,373.1,447.8L373.1,447.8z"/>
		<path class="st3" d="M415.4,278.6l-42.3-54.3c-4.6-5.9-7.1-13.2-7.1-20.7V81.2c0-7.8-6.3-14.1-14.1-14.1H140.5
			c-7.8,0-14.1,6.3-14.1,14.1v122.4c0,7.5-2.5,14.8-7.1,20.7L77,278.6H415.4z"/>
		<path class="st4" d="M140.5,81.2H352v126.9H140.5V81.2z"/>
		<path class="st5" d="M161.6,102.3h141v84.6h-141V102.3z"/>
		<g>
			<path class="st6" d="M316.7,109.4h21.1v14.1h-21.1V109.4z"/>
		</g>
		<g>
			<path class="st6" d="M316.7,130.6h21.1v14.1h-21.1V130.6z"/>
		</g>
		<g>
			<path class="st6" d="M316.7,151.7h21.1v14.1h-21.1V151.7z"/>
		</g>
		<g>
			<path class="st6" d="M316.7,172.9h21.1v14.1h-21.1V172.9z"/>
		</g>
		<path class="st4" d="M133.4,229.2l-35.2,49.4h169.2v-49.4H133.4z"/>
		<path class="st7" d="M113.3,257.5h154.1v21.1H98.2L113.3,257.5z"/>
		<path class="st6" d="M288.5,278.6h105.8L359,229.2h-70.5V278.6z"/>
		<path class="st2" d="M77,278.6h338.4v21.1H77V278.6z"/>
		<path class="st8" d="M178.2,102.3c19.7,49.5,67.9,84.6,124.4,84.6v-84.6H178.2z"/>
	</g>
</g>
<g>
	<path class="st9" d="M181.1,409.4h-31.5l-6.6,19h-14.7L159,347h12.7l30.8,81.4h-14.8L181.1,409.4z M153.6,398h23.6l-11.8-33.8
		L153.6,398z"/>
	<path class="st9" d="M260.5,358.4h-25.4v70h-14v-70h-25.2V347h64.6V358.4z"/>
	<path class="st9" d="M286.1,347l23.5,62.4L333,347h18.3v81.4h-14.1v-26.9l1.4-35.9l-24.1,62.8h-10.1l-24-62.7l1.4,35.9v26.9h-14.1
		V347H286.1z"/>
</g>
<g>
	<path class="st10" d="M482.3,151L438,216.4c0,0,4.6,2.4,9.8,5.2c1.8,0.9,15.6,0.6,33-20.8c14.4-17.7,14.7-36.1,12.8-38.5
		C491.5,159.3,482.3,151,482.3,151z"/>
	<g>
		<g>
			<defs>
				<path id="SVGID_1_" d="M482.3,151c0,0,9.2,7.9,11.3,11c1.8,2.4,1.5,20.8-12.8,38.5c-17.4,21.4-30.9,21.7-33,20.8
					c-5.2-2.8-9.8-5.2-9.8-5.2L482.3,151L482.3,151z"/>
			</defs>
			<clipPath id="SVGID_00000127752668746183107250000004571233793490252431_">
				<use xlink:href="#SVGID_1_"  style="overflow:visible;"/>
			</clipPath>
			
				<path style="clip-path:url(#SVGID_00000127752668746183107250000004571233793490252431_);fill-rule:evenodd;clip-rule:evenodd;fill:#F6DA7F;" d="
				M478.3,185.6c-5.8,10.1-24.8,29.6-24.8,29.6s13.8-0.9,28.7-25.4c12.8-20.8,5.5-34.8,5.5-34.8C485.1,162.9,483.2,177,478.3,185.6z
				"/>
		</g>
	</g>
	<path class="st12" d="M483.2,150.1c-0.3-0.3-0.6-0.3-0.9-0.3s-0.6,0.3-0.9,0.6l-44.3,65.4c-0.3,0.3-0.3,0.6-0.3,0.9
		s0.3,0.6,0.6,0.9c0,0,4.9,2.4,9.8,5.2c0.3,0.3,0.9,0.3,1.5,0.3c2.1,0.3,5.5-0.3,10.4-2.4c5.2-2.4,13.4-7.6,22.6-19.3
		c14.4-17.7,15.3-36.7,12.8-40C492.4,158.4,483.5,150.7,483.2,150.1z M492.1,175.5c-1.2,5.8-4.6,15-12.2,24.4
		c-9.2,11.3-16.8,16.2-21.7,18.3c-5.8,2.8-9.2,2.1-9.8,2.1c-3.7-1.8-7-3.7-8.6-4.6l42.8-63c2.4,2.1,8.3,7.6,10.1,10.1
		C493,163.6,493.9,167.8,492.1,175.5z"/>
	
		<ellipse transform="matrix(0.6062 -0.7953 0.7953 0.6062 34.9892 437.6051)" class="st13" cx="459.4" cy="183.5" rx="39.7" ry="19.3"/>
	<g>
		<g>
			<defs>
				<path id="SVGID_00000119096746880028281170000000539931545942275726_" d="M483.5,151.9c8.6,6.4,4.6,26-8.6,43.1
					c-13.4,17.4-31.2,26.3-39.7,19.9s-4.6-26,8.6-43.1C457.3,154.4,475,145.5,483.5,151.9L483.5,151.9z"/>
			</defs>
			<clipPath id="SVGID_00000064352098801669611200000017274484359054128298_">
				<use xlink:href="#SVGID_00000119096746880028281170000000539931545942275726_"  style="overflow:visible;"/>
			</clipPath>
			
				<path style="clip-path:url(#SVGID_00000064352098801669611200000017274484359054128298_);fill-rule:evenodd;clip-rule:evenodd;fill:#F5CB45;" d="
				M482.9,151.6c-8.3-6.1-25.1,2.4-37.9,19.3c-12.8,16.8-16.5,35.1-8.6,41.3c8.3,6.1,25.1-2.4,37.9-19.3
				C487.2,176.4,491.2,157.8,482.9,151.6z"/>
		</g>
		<g>
			<defs>
				<path id="SVGID_00000121279938957823854940000016516351547992966039_" d="M483.5,151.9c8.6,6.4,4.6,26-8.6,43.1
					c-13.4,17.4-31.2,26.3-39.7,19.9s-4.6-26,8.6-43.1C457.3,154.4,475,145.5,483.5,151.9L483.5,151.9z"/>
			</defs>
			<clipPath id="SVGID_00000079468663180880156090000014451167963095358879_">
				<use xlink:href="#SVGID_00000121279938957823854940000016516351547992966039_"  style="overflow:visible;"/>
			</clipPath>
			
				<path style="clip-path:url(#SVGID_00000079468663180880156090000014451167963095358879_);fill-rule:evenodd;clip-rule:evenodd;fill:#F9E8AF;" d="
				M469.2,151c-20.5,8.6-31.8,30.6-31.8,30.6s18.3-23.8,31.5-28.1c21.1-7,18.3,17.7,18.3,17.7S493.9,140.9,469.2,151z"/>
		</g>
		<g>
			<defs>
				<path id="SVGID_00000062884975035071860680000003476384784715670196_" d="M483.5,151.9c8.6,6.4,4.6,26-8.6,43.1
					c-13.4,17.4-31.2,26.3-39.7,19.9s-4.6-26,8.6-43.1C457.3,154.4,475,145.5,483.5,151.9L483.5,151.9z"/>
			</defs>
			<clipPath id="SVGID_00000159453844672639905710000013085505348019390903_">
				<use xlink:href="#SVGID_00000062884975035071860680000003476384784715670196_"  style="overflow:visible;"/>
			</clipPath>
			
				<path style="clip-path:url(#SVGID_00000159453844672639905710000013085505348019390903_);fill-rule:evenodd;clip-rule:evenodd;fill:#F9E8AF;" d="
				M456.7,204.5c-17.1,10.4-21.1-4.3-21.1-4.3s1.8,18.9,21.4,5.8c16.5-11,20.8-26.6,20.8-26.6S467.3,198.1,456.7,204.5z"/>
		</g>
	</g>
	<path class="st12" d="M484.2,151c-4.6-3.4-11.3-3.1-19.3,0.9c-7.6,4-15.3,10.7-22,19.3c-6.4,8.3-10.7,17.7-12.5,26
		c-1.8,8.6-0.3,15.3,4.3,18.6c1.5,1.2,3.7,2.1,5.8,2.1c4,0.6,8.6-0.6,13.4-3.1c7.6-4,15.3-10.7,22-19.3c6.4-8.6,11-17.7,12.8-26.3
		C490.3,161.1,488.7,154.4,484.2,151z M486,169.1c-1.5,7.9-6.1,16.8-12.2,25.4c-6.4,8.3-13.8,15-21.1,18.6c-7,3.7-12.8,4-16.5,1.2
		c-3.7-2.8-4.9-8.6-3.4-16.2c1.5-7.9,6.1-16.8,12.2-25.4c6.4-8.3,13.8-15,21.1-18.6c4.6-2.4,8.6-3.4,11.9-2.8
		c1.8,0.3,3.4,0.9,4.6,1.8C486.3,155.6,487.5,161.4,486,169.1z"/>
	
		<ellipse transform="matrix(0.6062 -0.7953 0.7953 0.6062 35.5768 436.716)" class="st17" cx="458.8" cy="182.4" rx="31.5" ry="13.8"/>
	<g>
		<g>
			<defs>
				<path id="SVGID_00000089540915277961191400000006091393513351368366_" d="M477.7,157.4c6.1,4.6,2.4,19.6-8.3,33.3
					c-10.4,13.8-23.8,21.4-29.9,16.8c-6.1-4.6-2.4-19.6,8.3-33.3C458.5,160.5,471.6,152.9,477.7,157.4L477.7,157.4z"/>
			</defs>
			<clipPath id="SVGID_00000090265990063064437010000010329162186163965081_">
				<use xlink:href="#SVGID_00000089540915277961191400000006091393513351368366_"  style="overflow:visible;"/>
			</clipPath>
			
				<path style="clip-path:url(#SVGID_00000090265990063064437010000010329162186163965081_);fill-rule:evenodd;clip-rule:evenodd;fill:#F4BD1B;" d="
				M477.7,157.4c-5.5-4-17.7,3.1-27.8,16.2c-9.8,13.1-13.4,27.2-8.3,31.2c5.5,4,17.7-3.1,27.8-16.2
				C479.6,175.5,483.2,161.7,477.7,157.4z"/>
		</g>
		<g>
			<defs>
				<path id="SVGID_00000033354317657624672520000004321690170719330440_" d="M477.7,157.4c6.1,4.6,2.4,19.6-8.3,33.3
					c-10.4,13.8-23.8,21.4-29.9,16.8c-6.1-4.6-2.4-19.6,8.3-33.3C458.5,160.5,471.6,152.9,477.7,157.4L477.7,157.4z"/>
			</defs>
			<clipPath id="SVGID_00000126315797848750808930000001549221813700481668_">
				<use xlink:href="#SVGID_00000033354317657624672520000004321690170719330440_"  style="overflow:visible;"/>
			</clipPath>
			
				<path style="clip-path:url(#SVGID_00000126315797848750808930000001549221813700481668_);fill-rule:evenodd;clip-rule:evenodd;fill:#F8E093;" d="
				M475.3,155.6c-11.9-0.9-24.4,15-24.4,15s12.8-11.9,21.7-11.9c10.7,0,5.2,18.9,5.2,18.9S487.2,156.5,475.3,155.6z"/>
		</g>
	</g>
	<path class="st12" d="M478.3,156.5c-3.4-2.4-8.6-2.1-14.7,1.5c-5.5,3.1-11.6,8.6-16.8,15.3s-8.9,14.1-10.4,20.5
		c-1.5,6.7-0.9,11.9,2.4,14.4c1.2,1.2,2.4,1.5,4,1.8c7.3,0.9,18.3-6.4,27.8-18.3c5.2-6.7,8.9-14.1,10.4-20.5
		C482.6,164.2,481.7,159,478.3,156.5z M478.7,170.3c-1.5,6.1-5.2,13.1-10.1,19.6c-4.9,6.4-10.7,11.9-16.2,15
		c-5.2,2.8-9.5,3.4-11.9,1.5c-2.4-1.8-3.1-6.1-1.5-11.9c1.5-6.1,5.2-13.1,10.1-19.6c4.9-6.4,10.7-11.9,16.2-15
		c3.7-2.1,6.7-2.8,9.2-2.8c0.9,0,1.8,0.6,2.8,0.9C479.6,160.2,480.2,164.8,478.7,170.3z"/>
	<path class="st12" d="M475.3,206.7l-6.1-4c-0.6-0.3-1.2-0.3-1.8,0.3c-0.3,0.6-0.3,1.2,0.3,1.8l6.1,4c0.3,0,0.3,0.3,0.6,0.3
		s0.9,0,1.2-0.6S475.9,207,475.3,206.7z"/>
	<path class="st12" d="M469.8,211.5l-6.7-4.3c-0.6-0.3-1.2-0.3-1.8,0.3c-0.3,0.6-0.3,1.2,0.3,1.8l6.7,4.3c0.3,0,0.3,0.3,0.6,0.3
		s0.9,0,1.2-0.6C470.7,212.8,470.4,212.2,469.8,211.5z"/>
	<path class="st12" d="M463.4,215.2l-5.5-3.7c-0.6-0.3-1.2-0.3-1.8,0.3c-0.3,0.6-0.3,1.2,0.3,1.8l5.5,3.7c0.3,0,0.3,0.3,0.6,0.3
		s0.9,0,1.2-0.6S463.7,215.5,463.4,215.2z"/>
	<path class="st12" d="M487.5,188l-4.6-2.8c-0.6-0.3-1.2-0.3-1.8,0.3c-0.3,0.6-0.3,1.2,0.3,1.8l4.6,2.8c0.3,0,0.3,0.3,0.6,0.3
		c0.3,0,0.9,0,1.2-0.6C488.1,189.2,488.1,188.6,487.5,188z"/>
	<path class="st12" d="M490.6,181.6l-4.9-3.1c-0.6-0.3-1.2-0.3-1.8,0.3c-0.3,0.6-0.3,1.2,0.3,1.8l4.9,3.1c0.3,0,0.3,0.3,0.6,0.3
		s0.9,0,1.2-0.6S491.2,182.2,490.6,181.6z"/>
	<path class="st12" d="M484.8,194.7l-6.1-4c-0.6-0.3-1.2-0.3-1.8,0.3c-0.3,0.6-0.3,1.2,0.3,1.8l6.1,4c0.3,0,0.3,0.3,0.6,0.3
		s0.9,0,1.2-0.6C485.4,195.6,485.4,195,484.8,194.7z"/>
	<path class="st12" d="M480.2,200.8l-6.1-4c-0.6-0.3-1.2-0.3-1.8,0.3c-0.3,0.6-0.3,1.2,0.3,1.8l6.1,4c0.3,0,0.3,0.3,0.6,0.3
		s0.9,0,1.2-0.6C480.8,201.8,480.8,201.2,480.2,200.8z"/>
</g>
<g>
	<path class="st10" d="M140.8,306.5L28.5,245.2c0,0-3.2,7.8-6.8,16.6c-1.2,3.1,1.4,25.2,38.6,50c30.8,20.4,60.4,18,64.1,14.7
		C129,322.5,140.8,306.5,140.8,306.5z"/>
	<g>
		<g>
			<defs>
				<path id="SVGID_00000181808098179133738710000001943427594003129255_" d="M140.8,306.5c0,0-11.4,16-16,19.9
					c-3.7,3.3-33.3,5.7-64.1-14.7c-37.2-24.7-39.8-46.4-38.6-50c3.6-8.8,6.8-16.6,6.8-16.6L140.8,306.5L140.8,306.5z"/>
			</defs>
			<clipPath id="SVGID_00000023994502692493804570000013613606660217813387_">
				<use xlink:href="#SVGID_00000181808098179133738710000001943427594003129255_"  style="overflow:visible;"/>
			</clipPath>
			
				<path style="clip-path:url(#SVGID_00000023994502692493804570000013613606660217813387_);fill-rule:evenodd;clip-rule:evenodd;fill:#F6DA7F;" d="
				M84.5,305.4c-17.2-7.8-51.6-35.3-51.6-35.3s3.6,22,45.4,42.3c35.5,17.4,57,3.4,57,3.4C122,312.7,99.1,312,84.5,305.4z"/>
		</g>
	</g>
	<path class="st12" d="M142.4,307.8c0.4-0.5,0.4-1,0.3-1.5c0-0.5-0.6-0.9-1.1-1.4L29.3,243.7c-0.5-0.4-1-0.4-1.5-0.3
		c-0.5,0-0.9,0.6-1.4,1.1c0,0-3.2,8.3-6.8,16.6c-0.4,0.5-0.3,1.5-0.3,2.5c-0.2,3.5,1.4,8.8,5.6,16.4c4.8,8,14.4,20.5,34.6,33.4
		c30.8,20.4,61.5,18.9,66.5,14.4C130.6,323.9,141.5,308.4,142.4,307.8z M102.9,326c-9.6-1.1-24.9-5.1-41.3-15.9
		c-19.7-13-28.7-24.6-32.9-32.1c-5.3-8.9-4.9-14.4-5-15.4c2.4-6.2,4.8-11.9,6.1-14.5l108.2,59.1c-3.1,4.3-11,14.5-14.7,17.8
		C122.3,325.6,115.5,327.8,102.9,326z"/>
	<ellipse transform="matrix(0.5267 -0.85 0.85 0.5267 -193.1631 202.147)" class="st13" cx="85" cy="274.5" rx="31.2" ry="64.3"/>
	<g>
		<g>
			<defs>
				<path id="SVGID_00000141430937553836896550000009035815639141243581_" d="M139.5,308.6c-9,14.8-41.2,11.4-70.8-7.1
					c-30.2-19-47.2-46.1-38.2-60.9s41.2-11.4,70.8,7.1C131.5,266.6,148.6,293.8,139.5,308.6L139.5,308.6z"/>
			</defs>
			<clipPath id="SVGID_00000051356599794280392050000006293595860897027519_">
				<use xlink:href="#SVGID_00000141430937553836896550000009035815639141243581_"  style="overflow:visible;"/>
			</clipPath>
			
				<path style="clip-path:url(#SVGID_00000051356599794280392050000006293595860897027519_);fill-rule:evenodd;clip-rule:evenodd;fill:#F5CB45;" d="
				M139.9,307.5c8.6-14.3-7.9-40-36.9-58.1s-59.2-21.1-67.8-7.4c-8.6,14.3,7.9,40,36.9,58.1C100.7,318.3,131.4,321.8,139.9,307.5z"
				/>
		</g>
		<g>
			<defs>
				<path id="SVGID_00000010998720169109513030000004272739268863933111_" d="M139.5,308.6c-9,14.8-41.2,11.4-70.8-7.1
					c-30.2-19-47.2-46.1-38.2-60.9s41.2-11.4,70.8,7.1C131.5,266.6,148.6,293.8,139.5,308.6L139.5,308.6z"/>
			</defs>
			<clipPath id="SVGID_00000015340554525509331700000013378421768911850121_">
				<use xlink:href="#SVGID_00000010998720169109513030000004272739268863933111_"  style="overflow:visible;"/>
			</clipPath>
			
				<path style="clip-path:url(#SVGID_00000015340554525509331700000013378421768911850121_);fill-rule:evenodd;clip-rule:evenodd;fill:#F9E8AF;" d="
				M138.8,285.3c-17-31.7-54.2-46.5-54.2-46.5s41.3,25.8,50.2,46.4c14.6,32.9-25.7,32.3-25.7,32.3S158.9,323.6,138.8,285.3z"/>
		</g>
		<g>
			<defs>
				<path id="SVGID_00000157296941896670359220000006024933137371423379_" d="M139.5,308.6c-9,14.8-41.2,11.4-70.8-7.1
					c-30.2-19-47.2-46.1-38.2-60.9s41.2-11.4,70.8,7.1C131.5,266.6,148.6,293.8,139.5,308.6L139.5,308.6z"/>
			</defs>
			<clipPath id="SVGID_00000149377983090235994160000014072773861354899612_">
				<use xlink:href="#SVGID_00000157296941896670359220000006024933137371423379_"  style="overflow:visible;"/>
			</clipPath>
			
				<path style="clip-path:url(#SVGID_00000149377983090235994160000014072773861354899612_);fill-rule:evenodd;clip-rule:evenodd;fill:#F9E8AF;" d="
				M50.6,273.4c-19.4-26,3.6-34.7,3.6-34.7s-30.3,5.9-6,35.4c20.3,24.9,46.1,29.3,46.1,29.3S62.6,289.7,50.6,273.4z"/>
		</g>
	</g>
	<path class="st12" d="M141.1,309.4c4.7-7.9,3.2-18.7-4.5-30.9c-7.6-11.7-19.6-23-34.5-32.5c-14.3-9.1-30.2-14.5-43.8-16.1
		c-14.1-1.6-24.7,1.9-29.4,9.8c-1.7,2.7-2.9,6.2-2.5,9.7c-0.4,6.5,2.3,13.7,7,21.2c7.6,11.7,19.6,23,34.5,32.5
		c14.8,9,30.3,15,44.4,16.6C125.8,320.8,136.4,317.3,141.1,309.4z M112.3,315.2c-13-1.2-28-7.2-42.8-15.7
		c-14.3-9.1-26.3-19.8-33.3-31.1c-7-10.8-8.4-20.1-4.5-26.4c3.9-6.3,13-9.2,25.6-7.9c13,1.2,28,7.2,42.8,15.7
		c14.3,9.1,26.3,19.8,33.3,31.1c4.7,7,6.8,13.3,6.3,18.8c-0.2,3-1,5.6-2.2,7.7C134.1,313.6,124.9,316.4,112.3,315.2z"/>
	<ellipse transform="matrix(0.5267 -0.85 0.85 0.5267 -191.4508 202.9515)" class="st17" cx="86.5" cy="273.4" rx="22.3" ry="51"/>
	<g>
		<g>
			<defs>
				<path id="SVGID_00000062913479922934754480000002228484368806243250_" d="M129.8,300.1c-6.4,10.6-31.1,7-55-8.1
					C51,277.4,36.6,256.9,43,246.3s31.1-7,55,8.1S136.2,289.5,129.8,300.1L129.8,300.1z"/>
			</defs>
			<clipPath id="SVGID_00000148634318517146136020000016022481585337829557_">
				<use xlink:href="#SVGID_00000062913479922934754480000002228484368806243250_"  style="overflow:visible;"/>
			</clipPath>
			
				<path style="clip-path:url(#SVGID_00000148634318517146136020000016022481585337829557_);fill-rule:evenodd;clip-rule:evenodd;fill:#F4BD1B;" d="
				M129.8,300.1c5.5-9.5-7.7-28.1-30.4-42.3c-22.7-13.7-45.9-17.4-51.5-8.4c-5.5,9.5,7.7,28.1,30.4,42.3S123.7,309.6,129.8,300.1z"
				/>
		</g>
		<g>
			<defs>
				<path id="SVGID_00000038414208862423670170000017345277188063282098_" d="M129.8,300.1c-6.4,10.6-31.1,7-55-8.1
					C51,277.4,36.6,256.9,43,246.3s31.1-7,55,8.1S136.2,289.5,129.8,300.1L129.8,300.1z"/>
			</defs>
			<clipPath id="SVGID_00000178166973076883592700000017487660240485641369_">
				<use xlink:href="#SVGID_00000038414208862423670170000017345277188063282098_"  style="overflow:visible;"/>
			</clipPath>
			
				<path style="clip-path:url(#SVGID_00000178166973076883592700000017487660240485641369_);fill-rule:evenodd;clip-rule:evenodd;fill:#F8E093;" d="
				M132.3,295.8c-0.4-19.4-28-37.1-28-37.1s21.2,18.8,22.6,33.1c1.7,17.2-29.7,11.3-29.7,11.3S132.7,315.2,132.3,295.8z"/>
		</g>
	</g>
	<path class="st12" d="M131.3,300.9c3.4-5.8,2.1-14.1-4.8-23.4c-5.8-8.4-15.6-17.4-27.3-24.7c-11.6-7.3-24-12.1-34.6-13.6
		c-11.1-1.4-19.4,0.4-22.8,6.2c-1.8,2.2-2.1,4.2-2.3,6.7c-0.3,12,13.2,28.6,33.9,42c11.6,7.3,24,12.1,34.6,13.6
		C119.7,309,127.9,306.7,131.3,300.9z M109.2,303.5c-10.1-1.5-22-6.3-33.1-13.2C65,283.5,55.2,275,49.5,266.6
		c-5.2-7.9-6.9-14.7-4.3-19c2.6-4.2,9.4-5.9,19-4.3c10.1,1.5,22,6.3,33.1,13.2c11.1,6.9,20.9,15.4,26.7,23.8
		c4,5.6,5.5,10.4,5.9,14.3c0.1,1.5-0.7,3.1-1,4.6C125.6,303.4,118.3,305.1,109.2,303.5z"/>
	<path class="st12" d="M50.1,303.8l5.5-10.5c0.4-1,0.3-2-0.8-2.9c-1-0.4-2-0.3-2.9,0.8l-5.5,10.5c0,0.5-0.4,0.5-0.4,1
		c0,0.5,0.1,1.5,1.2,1.9C48.2,305,49.7,304.8,50.1,303.8z"/>
	<path class="st12" d="M41.3,295.7l5.8-11.5c0.4-1,0.3-2-0.8-2.9c-1-0.4-2-0.3-2.9,0.8l-5.8,11.5c0,0.5-0.4,0.5-0.4,1
		c0,0.5,0.1,1.5,1.2,1.9C39.5,297.4,40.4,296.8,41.3,295.7z"/>
	<path class="st12" d="M34.4,285.9l5.1-9.4c0.4-1,0.3-2-0.8-2.9c-1-0.4-2-0.3-2.9,0.8l-5.1,9.4c0,0.5-0.4,0.5-0.4,1s0.1,1.5,1.2,1.9
		C32.5,287.1,34,286.5,34.4,285.9z"/>
	<path class="st12" d="M82,320.6l3.7-7.8c0.4-1,0.3-2-0.8-2.9c-1-0.4-2-0.3-2.9,0.8l-3.7,7.8c0,0.5-0.4,0.5-0.4,1
		c0,0.5,0.1,1.5,1.2,1.9S81.1,321.7,82,320.6z"/>
	<path class="st12" d="M92.9,324.5l4.2-8.4c0.4-1,0.3-2-0.8-2.9c-1-0.4-2-0.3-2.9,0.8l-4.2,8.4c0,0.5-0.4,0.5-0.4,1
		c0,0.5,0.1,1.5,1.2,1.9C91,325.7,92,325.6,92.9,324.5z"/>
	<path class="st12" d="M70.8,317.2l5.5-10.5c0.4-1,0.3-2-0.8-2.9c-1-0.4-2-0.3-2.9,0.8l-5.5,10.5c0,0.5-0.4,0.5-0.4,1
		s0.1,1.5,1.2,1.9C69.4,318.3,70.4,318.2,70.8,317.2z"/>
	<path class="st12" d="M60.2,310.8l5.5-10.5c0.4-1,0.3-2-0.8-2.9c-1-0.4-2-0.3-2.9,0.8l-5.5,10.5c0,0.5-0.4,0.5-0.4,1
		c0,0.5,0.1,1.5,1.2,1.9C58.8,311.9,59.8,311.8,60.2,310.8z"/>
</g>
</svg>
