<?xml version="1.0" encoding="utf-8"?>
<!-- Generator: Adobe Illustrator 26.0.1, SVG Export Plug-In . SVG Version: 6.00 Build 0)  -->
<svg version="1.1" id="栝鍣_1" xmlns="http://www.w3.org/2000/svg" xmlns:xlink="http://www.w3.org/1999/xlink" x="0px" y="0px"
	 viewBox="0 0 417.6 241.7" style="enable-background:new 0 0 417.6 241.7;" xml:space="preserve">
<style type="text/css">
	.st0{fill:#FFFFFF;}
	.st1{fill:#F5F5F5;}
	.st2{fill:#E1E1E1;}
</style>
<rect x="196.3" y="54.4" class="st0" width="7.7" height="188.8"/>
<rect x="202.2" y="212.4" class="st0" width="177.8" height="7.7"/>
<rect x="-17.9" y="114.2" class="st0" width="443.8" height="7.7"/>
<rect x="21.4" y="-6.5" class="st0" width="11.4" height="171.8"/>
<rect x="-6.3" y="35" class="st0" width="114.7" height="7"/>
<g>
	<path class="st0" d="M48.4,156.4l-66.3,0v9.9l66.3,0.1c18.9,0,36.1,10.6,36.1,24.1v52.8h12v-52.4C96.5,171.8,75,156.4,48.4,156.4z"
		/>
</g>
<g>
	<path class="st0" d="M155,152.7c-7.3,0-13.2,5.9-13.2,13.2v13.2l0,1.3v28.7c0,3.9-3.2,7.1-7.1,7.1l-44.5,0v6.1l44.5,0
		c7.3,0,13.2-5.9,13.2-13.2l0-43.2c0-3.9,3.2-7.1,7.1-7.1h92.6v-6.1H155z"/>
</g>
<rect x="39.3" y="127.5" class="st0" width="31" height="19.1"/>
<rect x="42.7" y="50.8" class="st0" width="31" height="19.1"/>
<rect x="83.7" y="50.8" class="st0" width="17.8" height="19.1"/>
<rect x="43.8" y="87.2" class="st0" width="17.8" height="19.1"/>
<rect x="77" y="127.5" class="st0" width="31.3" height="9.1"/>
<rect x="116.4" y="127.5" class="st0" width="15.3" height="25.2"/>
<path class="st0" d="M263.9,145.5c0,3.9-3.2,7.1-7.1,7.1l-44.5,0v6.1l44.5,0c7.3,0,13.2-5.9,13.2-13.2l0-27.4h-6.1V145.5z"/>
<g>
	<path class="st0" d="M382.5,181.4c0-7.3-5.9-13.2-13.2-13.2h-13.2l-1.3,0h-28.7c-3.9,0-7.1-3.2-7.1-7.1l0-44.5h-6.1l0,44.5
		c0,7.3,5.9,13.2,13.2,13.2l43.2,0c3.9,0,7.1,3.2,7.1,7.1v61.9h6.1V181.4z"/>
</g>
<rect x="331.6" y="129" class="st0" width="29.9" height="17.1"/>
<rect x="295" y="98" class="st0" width="19.2" height="10.6"/>
<rect x="331" y="98" class="st0" width="34.1" height="10.6"/>
<rect x="385" y="98" class="st0" width="19.2" height="10.6"/>
<rect x="393.2" y="206.7" class="st0" width="23.3" height="26.8"/>
<rect x="393.2" y="129" class="st0" width="23.3" height="60.1"/>
<rect x="381.9" y="195.7" class="st0" width="44.1" height="6.1"/>
<g>
	<g>
		<path class="st1" d="M200,103.4c-10.6,0-19.2,6.8-19.2,15.3c0,8.4,8.6,15.3,19.2,15.3c10.6,0,19.2-6.8,19.2-15.3
			C219.2,110.2,210.6,103.4,200,103.4z M200,129.3c-7.4,0-13.5-4.8-13.5-10.7c0-5.9,6-10.7,13.5-10.7c7.4,0,13.4,4.8,13.4,10.7
			C213.4,124.5,207.4,129.3,200,129.3z"/>
		<path class="st2" d="M200,107.9c-7.4,0-13.5,4.8-13.5,10.7c0,5.9,6,10.7,13.5,10.7c7.4,0,13.4-4.8,13.4-10.7
			C213.4,112.7,207.4,107.9,200,107.9z M200,124.4c-4,0-7.3-2.6-7.3-5.8c0-3.2,3.2-5.8,7.3-5.8c4,0,7.3,2.6,7.3,5.8
			C207.2,121.8,204,124.4,200,124.4z"/>
	</g>
	<path class="st1" d="M207.6,118.6c0,3.4-3.4,6.1-7.6,6.1c-4.2,0-7.6-2.7-7.6-6.1c0-3.4,3.4-6.1,7.6-6.1
		C204.2,112.5,207.6,115.2,207.6,118.6z"/>
</g>
<path class="st0" d="M260.8,117.5h-4.4c0-0.9,0.1-21.6,8.9-31.2c7.4-8,10.2-19.4,10.4-27.3c0.6-19.6,1.7-46.9,1.8-47.1l4.4,0.3
	c0,0.3-1.2,27.5-1.7,47c-0.1,4.4-1.4,19.6-11.9,31.2C260.9,98.4,260.8,117.3,260.8,117.5z"/>
<path class="st0" d="M280.3,61.3l-4.1-2.4c0.4-1.4,5.4-14.2,40.5-17.1c6.4-0.5,13-1,19.3-1.4c26.3-1.7,53.4-3.5,59-13.2
	c6.7-11.5,5.5-18.4,5.5-18.4l4.3-1.6c0.2,0.9,1.8,9.7-6.3,23.6c-6.9,11.8-32.6,13.5-62.3,15.5c-6.3,0.4-12.9,0.8-19.3,1.4
	C285,50.4,280.4,61.2,280.3,61.3z"/>
<path class="st0" d="M116.2,109c-0.2-1.5-5.2-36.6,4.1-49.9c3-4.3,5.3-6.8,7.2-8.8c3.6-3.9,5.1-5.5,6.3-15.3c0.7-5.8,0-26.5,0-26.7
	l4.4-0.2c0,0.9,0.7,21.3,0,27.4c-1.3,10.8-3.2,13.3-7.5,17.8c-1.8,1.9-4,4.3-6.8,8.3c-8.3,11.9-3.4,46.4-3.3,46.7L116.2,109z"/>
<rect x="291.1" y="174.1" class="st0" width="3" height="42.2"/>
<rect x="264" y="184.4" class="st0" width="84.1" height="3.7"/>
<rect x="233.3" y="164.1" class="st0" width="18.5" height="13.4"/>
<rect x="281.8" y="127.3" class="st0" width="18.5" height="13.4"/>
<rect x="214.7" y="193.1" class="st0" width="37.1" height="13.4"/>
<rect x="153.7" y="167.4" class="st0" width="37.1" height="13.4"/>
<rect x="107.4" y="199.2" class="st0" width="22" height="13.4"/>
</svg>
