<?xml version="1.0" encoding="utf-8"?>
<!-- Generator: Adobe Illustrator 26.0.1, SVG Export Plug-In . SVG Version: 6.00 Build 0)  -->
<svg version="1.1" id="圖層_1" xmlns="http://www.w3.org/2000/svg" xmlns:xlink="http://www.w3.org/1999/xlink" x="0px" y="0px"
	 viewBox="0 0 512 512" style="enable-background:new 0 0 512 512;" xml:space="preserve">
<style type="text/css">
	.st0{fill:#1E1E1E;}
</style>
<g>
	<g>
		<path class="st0" d="M58,232.1c-13.3,0-24-10.9-24-24.3V72.3C34,58.9,44.8,48,58,48c13.3,0,24,10.9,24,24.3v135.4
			C82.1,221.2,71.3,232.1,58,232.1z"/>
	</g>
</g>
<g>
	<g>
		<path class="st0" d="M228,305c-4.1,0-8.2-1.1-12-3.3c-11.5-6.7-15.4-21.6-8.7-33.3l67.1-117.1c6.7-11.6,21.4-15.6,32.9-8.8
			c11.5,6.7,15.4,21.7,8.7,33.3l-67.1,117.1C244.4,300.7,236.3,305,228,305z"/>
	</g>
</g>
<g>
	<g>
		<path class="st0" d="M344.8,465.1c-8.8,0-17.2-4.9-21.4-13.3c-6-12-1.3-26.6,10.5-32.7L453,357.6c11.8-6.1,26.3-1.3,32.3,10.7
			c6,12,1.3,26.6-10.5,32.7l-119.2,61.4C352.2,464.2,348.5,465.1,344.8,465.1z"/>
	</g>
</g>
</svg>
