<?xml version="1.0" encoding="utf-8"?>
<!-- Generator: Adobe Illustrator 26.0.1, SVG Export Plug-In . SVG Version: 6.00 Build 0)  -->
<svg version="1.1" id="栝鍣_1" xmlns="http://www.w3.org/2000/svg" xmlns:xlink="http://www.w3.org/1999/xlink" x="0px" y="0px"
	 viewBox="0 0 377.5 492.5" style="enable-background:new 0 0 377.5 492.5;" xml:space="preserve">
<style type="text/css">
	.st0{fill:#FFFFFF;}
	.st1{fill:#1E1E1E;}
	.st2{fill:#FFC100;}
	.st3{display:none;}
	.st4{display:inline;}
</style>
<g>
	<g>
		<path class="st0" d="M123.6,191.7c0,0-21.6-71.9-41.6-97c-0.2-0.3-0.4-0.5-0.6-0.7c-14.7-17.7-42.7-0.3-33.5,20.8l75.9,174.5
			L123.6,191.7z"/>
	</g>
	<g>
		<path class="st1" d="M130.7,322.4l-89.1-205c-5.5-12.6-1.1-26.4,10.6-33.6c11.6-7.1,25.8-4.8,34.5,5.7l0.7,0.9
			c20.6,25.8,41.9,96.3,42.8,99.3l0.3,1l0,1L130.7,322.4z M64.8,93.6c-2,0.3-3.9,1-5.4,2c-4.5,2.8-8.6,8.7-5.2,16.4l62.7,144.1
			l-0.1-63.4c-2.6-8.5-22.3-71.5-40.1-93.8l-0.5-0.6C72.7,94.2,68.5,93.1,64.8,93.6z"/>
	</g>
</g>
<g>
	<g>
		<path class="st0" d="M127.2,179.9c0,0-9.7-74.5-25.3-102.5c-0.2-0.3-0.3-0.6-0.5-0.8c-11.6-19.8-42.1-7.2-36.5,15.1l46.6,184.5
			L127.2,179.9z"/>
	</g>
	<g>
		<path class="st1" d="M113,310.1L58.3,93.4C54.9,80.1,61.4,67.2,74.2,62c12.6-5.2,26.2-0.6,33.1,11.2l0.6,1
			C124,102.9,133.6,175.9,134,179l0.1,1l-0.2,1L113,310.1z M82.8,73.8c-1.2,0.2-2.4,0.5-3.5,0.9c-4.9,2-9.9,7.2-7.8,15.4l38.5,152.4
			l10.1-62.6c-1.2-8.8-10.5-74.2-24.4-99l-0.4-0.7C92.2,74.5,87.2,73.2,82.8,73.8z M127.2,179.9L127.2,179.9L127.2,179.9z"/>
	</g>
</g>
<g>
	<g>
		<path class="st0" d="M138.6,165.4c0,0,7-74.8-2.1-105.5c-0.1-0.3-0.2-0.6-0.3-0.9c-6.9-21.9-39.5-16.3-38.9,6.7l4.8,190.3
			L138.6,165.4z"/>
	</g>
</g>
<g>
	<g>
		<path class="st1" d="M103.1,262.7c-0.3,0-0.5,0.1-0.8,0.1c-3.8,0.1-6.9-2.9-7-6.7L90.5,65.8C90.2,52.1,99.4,41,113,38.7
			c0.3,0,0.5-0.1,0.8-0.1c13.1-1.8,25,5.6,29,18.3l0.3,1c9.4,31.7,2.6,105.1,2.3,108.2c-0.4,3.8-3.7,6.6-7.5,6.2
			c-3.8-0.4-6.5-3.7-6.2-7.5c0.1-0.7,6.8-73.8-1.8-102.9l-0.2-0.8c-2.5-7.9-9.5-9.7-14.5-8.8c-5.2,0.9-11.2,4.9-11,13.3l4.8,190.3
			C109.1,259.3,106.5,262.3,103.1,262.7z"/>
	</g>
</g>
<g>
	<g>
		<g>
			<g>
				<path class="st2" d="M342.9,259.5c0.3-0.1,0.6-0.2,0.9-0.3c4.5-13.1,5.5-27.6,1.8-42c-9.9-39.3-49.8-63.1-89.1-53.2
					c-34.8,8.8-57.4,41-55.3,75.5c0.3,4.5,1,9,2.1,13.6c9.9,39.3,49.8,63.1,89.1,53.2c19.1-4.8,34.5-16.7,44.2-32.1
					C334.4,268.4,337.5,262.2,342.9,259.5z"/>
			</g>
		</g>
		<g>
			<g>
				<path class="st1" d="M285.4,314.7c-18,2.5-36.2-1.2-52-10.6c-18.4-11-31.4-28.5-36.7-49.3c-1.2-4.9-2-9.9-2.3-14.8
					c-2.4-38.4,23.1-73.2,60.5-82.6c20.8-5.2,42.4-2.1,60.8,8.9c18.4,11,31.4,28.5,36.7,49.3c10.8,42.9-15.3,86.6-58.2,97.4
					C291.2,313.7,288.3,314.3,285.4,314.7z M265.4,169.3c-2.4,0.3-4.8,0.8-7.2,1.4c-31,7.8-52.1,36.6-50.1,68.5l0,0
					c0.3,4.1,0.9,8.2,1.9,12.3c4.3,17.2,15.1,31.7,30.4,40.8c15.3,9.1,33.1,11.7,50.4,7.4c35.6-9,57.2-45.2,48.2-80.8
					C330.6,185.7,298.5,164.7,265.4,169.3z"/>
			</g>
		</g>
	</g>
	<g>
		<g>
			<g>
				<path class="st1" d="M255.2,210l-3.5-7.7c-0.5-1.2,0-2.5,1.1-3l5.9-2.7c1.2-0.5,2.5,0,3,1.1l3.5,7.8c0.5,1,1.6,1.5,2.7,1.3
					c6.4-1.6,13.1-1.7,19-0.5c1.1,0.2,1.8,1.2,1.8,2.3l-0.3,8.5c-0.1,1.4-1.3,2.5-2.7,2.2c-7.1-1.5-15.3-0.9-20.2,1.3
					c-4.1,1.8-6,4.5-4.7,7.3c4.1,9,29.5-9.1,38,9.7c3.6,7.9,0.8,15.9-7,21.8c-0.9,0.7-1.2,1.8-0.8,2.8l3.3,7.3c0.5,1.2,0,2.5-1.1,3
					l-5.9,2.7c-1.2,0.5-2.5,0-3-1.1l-3.2-7.1c-0.5-1-1.6-1.6-2.7-1.2c-5.1,1.4-10.4,1.9-15.1,1.5c-1.2-0.1-2.1-1.1-2-2.3l0.2-8.8
					c0-1.3,1.1-2.3,2.4-2.3c6.4,0.3,13.4-0.5,17.3-2.2c3.3-1.5,5-3.7,3.9-6.1c-4-8.8-29.6,8.8-38.2-10.2c-3.9-8.7-0.1-16.9,7.8-22.5
					C255.3,212.2,255.6,211,255.2,210z"/>
			</g>
		</g>
	</g>
</g>
<g>
	<g>
		<path class="st0" d="M130.2,174.2c13.4-15.4,30.9-27.5,51.5-34.1c6.3-2,13.7-3.8,13.7-3.8c27.9-7.1,40.3,5.6,40.3,5.6
			c1.3,1.3,6.1,6.4,6.3,13.9c0.1,1.7,0,7.6-4.1,12.2c-4.1,4.6-10.2,5.3-13.4,5.7c-18.7,2.3-35,6.8-40,8.4c-15.5,5-25,16-28.2,19.6
			c-14.6,16.9-19.1,41.3-15.1,62.1c8.3,44.1,51.8,71.4,94.7,60.6c9-2.3,17.2-6,24.5-11c9-6.1,21.3-3.2,26.8,6.1
			c5.1,8.6,2.8,19.8-5.5,25.4c-8.8,6-18.6,10.9-29.2,14.3c-66.4,21.3-147.3-4-160.1-72.6c-3.1-16.5-1.6-51,12.7-64.5L130.2,174.2z"
			/>
	</g>
</g>
<g>
	<g>
		<path class="st1" d="M227.9,371.9c-33.7,4.7-68.2-1.3-94.7-17.1c-25.8-15.4-42.1-38.5-47.4-66.8c-2.8-15.2-3-54.1,14.8-70.8
			c2.8-2.6,7.1-2.5,9.7,0.3c2.6,2.8,2.5,7.1-0.3,9.7c-11.3,10.6-13.9,41.1-10.7,58.2c4.5,24.3,18.7,44.2,40.9,57.5
			c30.4,18.1,72.6,21.8,110.3,9.8c9.7-3.1,19-7.6,27.4-13.4c5.3-3.6,6.8-10.7,3.5-16.2c-1.7-2.9-4.5-4.9-7.9-5.7
			c-3.2-0.7-6.5-0.1-9.2,1.7c-8.1,5.5-17.1,9.5-26.6,11.9c-22.3,5.6-46.3,1.8-65.8-10.7c-19.7-12.6-33-32.2-37.3-55.3
			c-4.7-24.6,1.7-50.7,16.7-67.9c3.4-4,13.9-16.1,31.3-21.7c6.2-2,22.7-6.4,41.2-8.7c2.8-0.3,6.7-0.8,9.1-3.5
			c2.3-2.6,2.4-6.3,2.3-7.4c-0.1-4.1-2.5-7.4-4.4-9.3c-0.3-0.3-10.5-9.6-33.8-3.7c-0.1,0-7.3,1.8-13.3,3.7
			c-18.8,6-35.5,17.1-48.4,32c-2.5,2.9-6.8,3.2-9.7,0.7c-2.9-2.5-3.2-6.8-0.7-9.7c14.6-16.8,33.5-29.3,54.6-36.1
			c6.5-2.1,13.8-3.9,14.2-4c31.4-7.9,46.2,6.8,46.9,7.5c5.1,5.3,8.1,11.8,8.3,18.5c0.1,3-0.3,10.8-5.8,17
			c-5.8,6.5-13.7,7.5-17.5,7.9c-18.3,2.3-34.2,6.7-38.8,8.2c-13.7,4.4-22.3,14.3-25.1,17.6c-12.3,14.1-17.5,35.7-13.6,56.4
			c3.6,19.3,14.7,35.7,31.2,46.3c16.5,10.5,36,13.7,55,8.9c8-2,15.5-5.4,22.3-10c5.9-4,12.9-5.3,19.9-3.8c7,1.5,13,5.9,16.7,12.1
			c7,11.7,3.7,26.9-7.5,34.6c-9.6,6.5-20,11.6-31,15.2C246,368.6,237,370.7,227.9,371.9z"/>
	</g>
</g>
<g>
	<g>
		<path class="st0" d="M202.3,361.9c1.4,7.9,10.2,40.5,10.2,40.5l-64.8,17.4L94.3,294.2c0,0,30.1,5,40.7,13.8
			C145.5,316.9,202.3,361.9,202.3,361.9z"/>
	</g>
</g>
<g>
	<g>
		<path class="st1" d="M143.7,428L87.9,296.9c-1.5-3.5,0.1-7.5,3.6-9c3.5-1.5,7.5,0.1,9,3.6l51.1,120.1l52.4-14.1
			c-2.7-10-7.5-28.5-8.6-34.4c-0.7-3.7,1.8-7.3,5.5-8c3.8-0.6,7.3,1.8,8,5.5c1.1,6,7.1,28.7,10.1,39.9l1.8,6.6L143.7,428z"/>
	</g>
</g>
<g>
	<g>
		
			<rect x="130.7" y="410.1" transform="matrix(-0.9696 0.2447 -0.2447 -0.9696 478.3712 808.6664)" class="st1" width="116.5" height="47.8"/>
	</g>
	<g>
		<path class="st1" d="M133.4,479.8l-15.1-59.7l126.2-31.9l15.1,59.7L133.4,479.8z M135,430.1l8.3,33.1l99.6-25.1l-8.3-33.1
			L135,430.1z"/>
	</g>
</g>
<g>
	<g>
		<path class="st0" d="M152.3,443.3c0.9,3.6,4.5,5.8,8.1,4.9c3.6-0.9,5.8-4.5,4.9-8.1c-0.9-3.6-4.5-5.8-8.1-4.9
			C153.6,436.1,151.4,439.7,152.3,443.3z"/>
	</g>
	<g>
		<path class="st0" d="M160.7,455.1c-6.8,0.9-13.3-3.4-15-10.1l0,0c-1.8-7.3,2.6-14.6,9.8-16.5c3.5-0.9,7.2-0.4,10.3,1.5
			c3.1,1.9,5.3,4.8,6.2,8.3c0.9,3.5,0.4,7.2-1.5,10.3c-1.9,3.1-4.8,5.3-8.3,6.2C161.7,454.9,161.2,455,160.7,455.1z M158.8,441.5
			C158.8,441.5,158.8,441.5,158.8,441.5l-6.5,1.8l6.7-1.7C159,441.5,158.9,441.5,158.8,441.5z"/>
	</g>
</g>
<g class="st3">
	<g class="st4">
		<path class="st1" d="M280.4-171c-1.2,0-2.2-1-2.2-2.2v-12.4c0-1.2,1-2.2,2.2-2.2c1.2,0,2.2,1,2.2,2.2v12.4
			C282.6-172,281.6-171,280.4-171z"/>
	</g>
</g>
<g class="st3">
	<g class="st4">
		<path class="st1" d="M296.2-164.3c-0.4,0-0.8-0.1-1.1-0.3c-1.1-0.6-1.4-2-0.8-3.1l6.2-10.8c0.6-1.1,2-1.4,3.1-0.8
			c1.1,0.6,1.4,2,0.8,3.1l-6.2,10.8C297.7-164.7,296.9-164.3,296.2-164.3z"/>
	</g>
</g>
<g class="st3">
	<g class="st4">
		<path class="st1" d="M307-149.6c-0.8,0-1.6-0.4-2-1.2c-0.6-1.1-0.1-2.4,1-3l11.1-5.6c1.1-0.6,2.4-0.1,3,1c0.6,1.1,0.1,2.4-1,3
			l-11.1,5.6C307.7-149.7,307.4-149.6,307-149.6z"/>
	</g>
</g>
</svg>
