<?xml version="1.0" encoding="utf-8"?>
<!-- Generator: Adobe Illustrator 26.0.1, SVG Export Plug-In . SVG Version: 6.00 Build 0)  -->
<svg version="1.1" id="圖層_1" xmlns="http://www.w3.org/2000/svg" xmlns:xlink="http://www.w3.org/1999/xlink" x="0px" y="0px"
	 viewBox="0 0 512 512" style="enable-background:new 0 0 512 512;" xml:space="preserve">
<style type="text/css">
	.st0{fill:#FFFFFF;}
	.st1{fill:#9C150F;}
</style>
<ellipse class="st0" cx="228" cy="193.5" rx="136" ry="126.5"/>
<path class="st1" d="M223.5,6C121.2,6,38,89.9,38,193c0,146.5,168.1,297.8,175.2,304.1c2.9,2.6,6.6,3.9,10.3,3.9s7.3-1.3,10.3-3.9
	C240.9,490.7,409,339.5,409,193C409,89.9,325.8,6,223.5,6L223.5,6z M223.5,294.8c-56.8,0-103.1-46.3-103.1-103.1
	S166.7,88.5,223.5,88.5s103.1,46.3,103.1,103.1S280.3,294.8,223.5,294.8z"/>
</svg>
