<svg id="e6fd40d4-083c-47cd-858f-99393adf3dcd" data-name="天地" xmlns="http://www.w3.org/2000/svg" viewBox="0 0 85.76 25.27"><defs><style>.b0869867-b944-439e-958d-740913ed4da4{fill:#231815;}.ba616368-071c-47db-8b6e-012dfae3e005{fill:#e72410;}.f7b070a8-f9c3-447b-8a98-1bd1cc4fac3d{fill:#fff;}</style></defs><path class="b0869867-b944-439e-958d-740913ed4da4" d="M31.84,24.32a2,2,0,0,1-.65,1.61,2.65,2.65,0,0,1-1.79.56H27V19.66h2.42a2.34,2.34,0,0,1,1.48.36,1.28,1.28,0,0,1,.44,1,1.39,1.39,0,0,1-.27.91,1.36,1.36,0,0,1-.83.44A1.76,1.76,0,0,1,31.4,23,2,2,0,0,1,31.84,24.32Zm-1.93-2.91a.69.69,0,0,0-.22-.58,1,1,0,0,0-.65-.19H28.5v1.52h.55a.91.91,0,0,0,.67-.21A.73.73,0,0,0,29.91,21.41Zm.41,2.84a1.17,1.17,0,0,0-.31-.87,1.28,1.28,0,0,0-1-.32H28.5v2.45h.61a1.14,1.14,0,0,0,.93-.33A1.36,1.36,0,0,0,30.32,24.25Z" transform="translate(-1.28 -1.34)"/><path class="b0869867-b944-439e-958d-740913ed4da4" d="M37.22,26.49H35.86l0-.68a1.22,1.22,0,0,1-.56.54,1.92,1.92,0,0,1-.92.21,1.82,1.82,0,0,1-1.31-.44,1.8,1.8,0,0,1-.44-1.32v-.09a1.62,1.62,0,0,1,.59-1.34,2.47,2.47,0,0,1,1.59-.48,2.08,2.08,0,0,1,.6.09,1.23,1.23,0,0,1,.43.21v-.51a.56.56,0,0,0-.25-.46,1.12,1.12,0,0,0-.68-.18,3.22,3.22,0,0,0-.86.1,2.52,2.52,0,0,0-.64.27v-.89a4.92,4.92,0,0,1,.79-.24,4.7,4.7,0,0,1,1.07-.11,2.08,2.08,0,0,1,1.49.46,1.92,1.92,0,0,1,.48,1.45Zm-1.39-1.75V24.6a1,1,0,0,0-.22-.71.83.83,0,0,0-.66-.25.9.9,0,0,0-.64.23,1,1,0,0,0-.24.74v.14a.81.81,0,0,0,.25.71,1.08,1.08,0,0,0,.64.18,1,1,0,0,0,.6-.22A.81.81,0,0,0,35.83,24.74Z" transform="translate(-1.28 -1.34)"/><path class="b0869867-b944-439e-958d-740913ed4da4" d="M43,26.49H41.6V22.83a.54.54,0,0,0-.18-.38.65.65,0,0,0-.5-.18,1.1,1.1,0,0,0-.55.14,1.29,1.29,0,0,0-.4.33v3.75H38.52V21.28h1.39l0,.83a1.46,1.46,0,0,1,.61-.66,2,2,0,0,1,1.09-.28,1.33,1.33,0,0,1,1,.41A1.8,1.8,0,0,1,43,22.83Z" transform="translate(-1.28 -1.34)"/><path class="b0869867-b944-439e-958d-740913ed4da4" d="M49.2,26.49H47.5l-1.66-2.12v2.12H44.39V19.66h1.45v3.73l1.74-2.11h1.33l-2,2.31Z" transform="translate(-1.28 -1.34)"/><path class="b0869867-b944-439e-958d-740913ed4da4" d="M56.35,24.46a1.82,1.82,0,0,1-.73,1.6,3.36,3.36,0,0,1-2,.52,8.48,8.48,0,0,1-1.24-.08,4.2,4.2,0,0,1-.84-.22V25.11a2.81,2.81,0,0,0,.81.29,4.57,4.57,0,0,0,1.09.13,1.92,1.92,0,0,0,1-.2.74.74,0,0,0,.29-.66.76.76,0,0,0-.21-.53,3.38,3.38,0,0,0-1.16-.61,3.13,3.13,0,0,1-1.17-.79,1.9,1.9,0,0,1-.42-1.3,1.65,1.65,0,0,1,.67-1.33,2.9,2.9,0,0,1,1.86-.54,5.34,5.34,0,0,1,1,.09,4.74,4.74,0,0,1,.64.17v1l-.77-.16a4.21,4.21,0,0,0-.81-.07,1.57,1.57,0,0,0-.89.19.58.58,0,0,0-.27.48.73.73,0,0,0,.2.55,5,5,0,0,0,1.2.55,2.74,2.74,0,0,1,1.31.85A2,2,0,0,1,56.35,24.46Z" transform="translate(-1.28 -1.34)"/><path class="b0869867-b944-439e-958d-740913ed4da4" d="M58.78,20.11a.76.76,0,0,1-1.3.55.79.79,0,0,1,0-1.09.75.75,0,0,1,1.08,0A.73.73,0,0,1,58.78,20.11Zm0,6.38H57.3V21.28h1.44Z" transform="translate(-1.28 -1.34)"/><path class="b0869867-b944-439e-958d-740913ed4da4" d="M64.61,26.49H63.16V22.83a.53.53,0,0,0-.17-.38.67.67,0,0,0-.5-.18,1.1,1.1,0,0,0-.55.14,1.45,1.45,0,0,0-.41.33v3.75H60.09V21.28h1.39l0,.83a1.44,1.44,0,0,1,.6-.66,2,2,0,0,1,1.1-.28,1.35,1.35,0,0,1,1,.41,1.85,1.85,0,0,1,.37,1.25Z" transform="translate(-1.28 -1.34)"/><path class="b0869867-b944-439e-958d-740913ed4da4" d="M71,24a2.49,2.49,0,0,1-.7,1.89,3,3,0,0,1-3.83,0A2.5,2.5,0,0,1,65.74,24v-.33a2.51,2.51,0,0,1,.7-1.86,2.6,2.6,0,0,1,1.92-.71,2.53,2.53,0,0,1,1.92.72,2.5,2.5,0,0,1,.7,1.85Zm-1.5-.12v-.08a2.26,2.26,0,0,0-.33-1.44,1,1,0,0,0-.8-.39,1,1,0,0,0-.8.41,2.42,2.42,0,0,0-.32,1.42v.08a2.44,2.44,0,0,0,.31,1.46,1,1,0,0,0,.81.36,1.08,1.08,0,0,0,.8-.35A2.29,2.29,0,0,0,69.48,23.92Z" transform="translate(-1.28 -1.34)"/><path class="b0869867-b944-439e-958d-740913ed4da4" d="M76.64,22a1.62,1.62,0,0,1-.53,1.31,2.36,2.36,0,0,1-1.53.44h-.94v2.77H72.11V19.66h2.56a1.68,1.68,0,0,1,2,1.77Zm-1.58.1v-.65a.72.72,0,0,0-.22-.58,1.1,1.1,0,0,0-.71-.18h-.49v2.13h.57a1,1,0,0,0,.61-.19A.63.63,0,0,0,75.06,22.07Z" transform="translate(-1.28 -1.34)"/><path class="b0869867-b944-439e-958d-740913ed4da4" d="M81.82,26.49H80.46l0-.68a1.27,1.27,0,0,1-.56.54,1.92,1.92,0,0,1-.92.21,1.55,1.55,0,0,1-1.75-1.76v-.09a1.62,1.62,0,0,1,.59-1.34,2.43,2.43,0,0,1,1.59-.48A2.08,2.08,0,0,1,80,23a1.32,1.32,0,0,1,.43.21v-.51a.59.59,0,0,0-.25-.46,1.13,1.13,0,0,0-.69-.18,3.15,3.15,0,0,0-.85.1,2.76,2.76,0,0,0-.65.27v-.89a5.4,5.4,0,0,1,.8-.24,4.63,4.63,0,0,1,1.07-.11,2.08,2.08,0,0,1,1.49.46,1.92,1.92,0,0,1,.48,1.45Zm-1.39-1.75V24.6a1.06,1.06,0,0,0-.22-.71.83.83,0,0,0-.66-.25.92.92,0,0,0-.65.23,1.06,1.06,0,0,0-.23.74v.14a.81.81,0,0,0,.25.71,1.08,1.08,0,0,0,.64.18,1,1,0,0,0,.6-.22A.81.81,0,0,0,80.43,24.74Z" transform="translate(-1.28 -1.34)"/><path class="b0869867-b944-439e-958d-740913ed4da4" d="M87.05,26.21a2.81,2.81,0,0,1-1.4.4,2.93,2.93,0,0,1-2-.66,2.45,2.45,0,0,1-.74-2v-.22a2.54,2.54,0,0,1,.73-1.91,2.71,2.71,0,0,1,2-.72,3,3,0,0,1,.89.13,1.39,1.39,0,0,1,.55.27v.93a1.52,1.52,0,0,0-.52-.3,2,2,0,0,0-.7-.12,1.19,1.19,0,0,0-1,.47,2.18,2.18,0,0,0-.35,1.3v.1a2.23,2.23,0,0,0,.29,1.3,1,1,0,0,0,.91.39,2.62,2.62,0,0,0,.83-.13,1.76,1.76,0,0,0,.55-.26Z" transform="translate(-1.28 -1.34)"/><path class="b0869867-b944-439e-958d-740913ed4da4" d="M27.56,8.75h4.72l.35.46q-.45,3.25-4.65,5.92l-.9-1a12.91,12.91,0,0,0,2.42-1.55,7.93,7.93,0,0,0,1.33-1.51,3.78,3.78,0,0,0,.5-.92.19.19,0,0,0,0-.15.51.51,0,0,0-.3-.07H27.56Zm7.05,1.44v4.48A1.51,1.51,0,0,1,34,15.93a2.06,2.06,0,0,1-1.4.38A9.93,9.93,0,0,1,30.46,16l-.07-1.29a4.83,4.83,0,0,0,2.64.3,1,1,0,0,0,.35-.8V7.58c0-.12-.06-.19-.2-.19H27.92V6.22h6.31a.36.36,0,0,1,.38.42v.47a17.13,17.13,0,0,0,1.88,4.06A15.32,15.32,0,0,0,40,14.67l-1,.79A16.2,16.2,0,0,1,34.61,10.19ZM29.44,4.85l.18-1.2c.63.05,1.78.17,3.43.37a39.89,39.89,0,0,1,4.23.66L37,5.86A42.85,42.85,0,0,0,29.44,4.85Zm9.62,1.21.85.82A18.75,18.75,0,0,1,37.07,9.6l-.8-.88A18.78,18.78,0,0,0,39.06,6.06Z" transform="translate(-1.28 -1.34)"/><path class="b0869867-b944-439e-958d-740913ed4da4" d="M46.45,15.25l-.16-.36q-.18-.33-.27-.54H44.3c-.09,0-.13,0-.13-.14V12c0-.08,0-.12.13-.12h9.89c.09,0,.14,0,.14.12v2.2a.13.13,0,0,1-.14.14H52.42a6.56,6.56,0,0,1-.27.63,1.66,1.66,0,0,0-.13.27h3.65v.95H42.8v-.95Zm-3.32-4.82H55.4v.91H43.13Zm8.41-2.19H50.28V7.4h1.26V6.74H50.28V5.89h1.26V5.17H50.28V4.33h1.26V3.55h1v.78h1.13v.84H52.5v.72h1.08v.85H52.5V7.4h1.08v.84H52.5v.69H54a.16.16,0,0,0,.18-.18v-5h1.06V9.39a.39.39,0,0,1-.44.44h-11a.39.39,0,0,1-.43-.44V3.78h1.07v5c0,.12,0,.18.16.18H46V8.24H44.79V7.4H46V6.68H44.85V5.83H46V5.17H44.79V4.33H46V3.6h1v.73H48v.84H47v.66H48v.85H47V7.4h1.13v.84H47v.69h1.68V3.6H49.7V8.93h1.84Zm1.78,4.55H45.17s-.05,0,0,0v.56s0,0,0,.06h8.15s0,0,0-.06v-.56S53.36,12.79,53.32,12.79Zm-5.73,2.46h3.26l.44-.9H47.17Q47.3,14.61,47.59,15.25Z" transform="translate(-1.28 -1.34)"/><path class="b0869867-b944-439e-958d-740913ed4da4" d="M61.84,4.58A11.09,11.09,0,0,1,59.43,6.8l-1-.68A8.19,8.19,0,0,0,61.36,3.5h1.06l-.09.22,0,0a20.49,20.49,0,0,0,1.9,1.61l-.88.8A20.08,20.08,0,0,1,61.84,4.58Zm-3.3,6.89,1-.31a12,12,0,0,1,.7,2.6L59.22,14A12.3,12.3,0,0,0,58.54,11.47Zm2.28,3.16V10.52h-2V9.45h2V8H59.37V7h4.05V8H61.94V9.45h1.9v1.07h-1.9v3.86l1.7-.47L63.87,15a44.7,44.7,0,0,1-4.93,1.09L58.79,15C59.41,14.9,60.08,14.78,60.82,14.63Zm2.08-3.45.94.33c-.17.64-.38,1.29-.63,2l-.91-.4A12.2,12.2,0,0,0,62.9,11.18Zm5.56,1.25a18.19,18.19,0,0,0,2-1.74l.73.79A15.1,15.1,0,0,1,69,13.37a9.84,9.84,0,0,0,2.42,2.16l-1,.78a10.18,10.18,0,0,1-1.89-1.72,7,7,0,0,1-1.66-4.34H65.65v4.54c.76-.23,1.41-.46,1.95-.68L68,15.17a20.1,20.1,0,0,1-4,1.22l-.31-1.09.9-.21V4.24a.29.29,0,0,1,.32-.33h5.36a.29.29,0,0,1,.33.33V9.9c0,.23-.12.35-.35.35H68A6.93,6.93,0,0,0,68.46,12.43ZM65.65,6.55h3.78V5.23A.24.24,0,0,0,69.16,5H65.91c-.18,0-.27.1-.26.27Zm3.78,1.06H65.65V9.19h3.48a.27.27,0,0,0,.3-.3Z" transform="translate(-1.28 -1.34)"/><path class="b0869867-b944-439e-958d-740913ed4da4" d="M76.06,10.94q-.48.49-.9.87l-1-.76a10.43,10.43,0,0,0,3-4l1.06.48a18.06,18.06,0,0,1-1,1.87v6.89H76.06Zm.63-7.34L77.78,4a10.41,10.41,0,0,1-2.49,3.83l-1-.68A8.83,8.83,0,0,0,76.69,3.6Zm7,5H78.78V7.45H87V8.62H84.87V14.8A1.39,1.39,0,0,1,84.25,16c-.74.48-2.1.44-4.06-.14l0-1.22a16.33,16.33,0,0,0,2,.48,1.66,1.66,0,0,0,1.31-.23.49.49,0,0,0,.12-.38Zm-4.49-4.4h7.27V5.39H79.21Z" transform="translate(-1.28 -1.34)"/><path class="ba616368-071c-47db-8b6e-012dfae3e005" d="M20.59,11a9.66,9.66,0,1,1-9.65-9.65A9.66,9.66,0,0,1,20.59,11Z" transform="translate(-1.28 -1.34)"/><rect class="f7b070a8-f9c3-447b-8a98-1bd1cc4fac3d" x="10.72" y="3.49" width="2.41" height="2.41"/><polygon class="f7b070a8-f9c3-447b-8a98-1bd1cc4fac3d" points="2.15 10.19 2.15 12.34 4.29 12.34 4.29 14.48 6.44 14.48 6.44 10.19 2.15 10.19"/><polygon class="f7b070a8-f9c3-447b-8a98-1bd1cc4fac3d" points="2.68 5.9 2.68 8.04 8.58 8.04 8.58 14.48 10.72 14.48 10.72 5.9 2.68 5.9"/><polygon class="f7b070a8-f9c3-447b-8a98-1bd1cc4fac3d" points="12.87 8.04 12.87 14.48 15.02 14.48 15.02 10.19 17.7 10.19 17.7 8.04 12.87 8.04"/></svg>