<?xml version="1.0" encoding="utf-8"?>
<!-- Generator: Adobe Illustrator 26.0.1, SVG Export Plug-In . SVG Version: 6.00 Build 0)  -->
<svg version="1.1" id="圖層_1" xmlns="http://www.w3.org/2000/svg" xmlns:xlink="http://www.w3.org/1999/xlink" x="0px" y="0px"
	 viewBox="0 0 30 30" style="enable-background:new 0 0 30 30;" xml:space="preserve">
<style type="text/css">
	.st0{fill-rule:evenodd;clip-rule:evenodd;fill:#ECB718;}
	
		.st1{clip-path:url(#SVGID_00000130632257398703667250000011499281687409138614_);fill-rule:evenodd;clip-rule:evenodd;fill:#F6DA7F;}
	.st2{fill:#040000;}
	.st3{fill-rule:evenodd;clip-rule:evenodd;fill:#DE9F1B;}
	
		.st4{clip-path:url(#SVGID_00000022543513681364583770000014452413310158595475_);fill-rule:evenodd;clip-rule:evenodd;fill:#F5CB45;}
	
		.st5{clip-path:url(#SVGID_00000022543513681364583770000014452413310158595475_);fill-rule:evenodd;clip-rule:evenodd;fill:#F9E8AF;}
	.st6{fill-rule:evenodd;clip-rule:evenodd;fill:#C18C12;}
	
		.st7{clip-path:url(#SVGID_00000026844566177879410930000002108335163167172014_);fill-rule:evenodd;clip-rule:evenodd;fill:#F4BD1B;}
	
		.st8{clip-path:url(#SVGID_00000026844566177879410930000002108335163167172014_);fill-rule:evenodd;clip-rule:evenodd;fill:#F8E093;}
</style>
<g>
	<path class="st0" d="M22.4,3.7L7.9,25.1c0,0,1.5,0.8,3.2,1.7c0.6,0.3,5.1,0.2,10.8-6.8c4.7-5.8,4.8-11.8,4.2-12.6
		C25.4,6.4,22.4,3.7,22.4,3.7z"/>
	<g>
		<defs>
			<path id="SVGID_65_" d="M22.4,3.7c0,0,3,2.6,3.7,3.6c0.6,0.8,0.5,6.8-4.2,12.6c-5.7,7-10.1,7.1-10.8,6.8
				c-1.7-0.9-3.2-1.7-3.2-1.7L22.4,3.7L22.4,3.7z"/>
		</defs>
		<clipPath id="SVGID_00000054261256034243827130000011758956764890298501_">
			<use xlink:href="#SVGID_65_"  style="overflow:visible;"/>
		</clipPath>
		
			<path style="clip-path:url(#SVGID_00000054261256034243827130000011758956764890298501_);fill-rule:evenodd;clip-rule:evenodd;fill:#F6DA7F;" d="
			M21.1,15c-1.9,3.3-8.1,9.7-8.1,9.7s4.5-0.3,9.4-8.3C26.6,9.6,24.2,5,24.2,5C23.3,7.6,22.7,12.2,21.1,15z"/>
	</g>
	<path class="st2" d="M22.7,3.4c-0.1-0.1-0.2-0.1-0.3-0.1c-0.1,0-0.2,0.1-0.3,0.2L7.6,24.9c-0.1,0.1-0.1,0.2-0.1,0.3
		c0,0.1,0.1,0.2,0.2,0.3c0,0,1.6,0.8,3.2,1.7c0.1,0.1,0.3,0.1,0.5,0.1c0.7,0.1,1.8-0.1,3.4-0.8c1.7-0.8,4.4-2.5,7.4-6.3
		c4.7-5.8,5-12,4.2-13.1C25.7,6.1,22.8,3.6,22.7,3.4z M25.6,11.7c-0.4,1.9-1.5,4.9-4,8c-3,3.7-5.5,5.3-7.1,6c-1.9,0.9-3,0.7-3.2,0.7
		c-1.2-0.6-2.3-1.2-2.8-1.5l14-20.6c0.8,0.7,2.7,2.5,3.3,3.3C25.9,7.8,26.2,9.2,25.6,11.7z"/>
	<ellipse transform="matrix(0.6062 -0.7953 0.7953 0.6062 -5.5095 17.4962)" class="st3" cx="14.9" cy="14.3" rx="13" ry="6.3"/>
	<g>
		<defs>
			<path id="SVGID_67_" d="M22.8,4c2.8,2.1,1.5,8.5-2.8,14.1C15.6,23.8,9.8,26.7,7,24.6c-2.8-2.1-1.5-8.5,2.8-14.1
				C14.2,4.8,20,1.9,22.8,4L22.8,4z"/>
		</defs>
		<clipPath id="SVGID_00000103241500678178252440000010457409712417803169_">
			<use xlink:href="#SVGID_67_"  style="overflow:visible;"/>
		</clipPath>
		
			<path style="clip-path:url(#SVGID_00000103241500678178252440000010457409712417803169_);fill-rule:evenodd;clip-rule:evenodd;fill:#F5CB45;" d="
			M22.6,3.9c-2.7-2-8.2,0.8-12.4,6.3S4.8,21.7,7.4,23.7c2.7,2,8.2-0.8,12.4-6.3C24,12,25.3,5.9,22.6,3.9z"/>
		
			<path style="clip-path:url(#SVGID_00000103241500678178252440000010457409712417803169_);fill-rule:evenodd;clip-rule:evenodd;fill:#F9E8AF;" d="
			M18.1,3.7c-6.7,2.8-10.4,10-10.4,10S13.7,5.9,18,4.5c6.9-2.3,6,5.8,6,5.8S26.2,0.4,18.1,3.7z"/>
		
			<path style="clip-path:url(#SVGID_00000103241500678178252440000010457409712417803169_);fill-rule:evenodd;clip-rule:evenodd;fill:#F9E8AF;" d="
			M14,21.2c-5.6,3.4-6.9-1.4-6.9-1.4s0.6,6.2,7,1.9c5.4-3.6,6.8-8.7,6.8-8.7S17.5,19.1,14,21.2z"/>
	</g>
	<path class="st2" d="M23,3.7c-1.5-1.1-3.7-1-6.3,0.3c-2.5,1.3-5,3.5-7.2,6.3C7.4,13,6,16.1,5.4,18.8c-0.6,2.8-0.1,5,1.4,6.1
		c0.5,0.4,1.2,0.7,1.9,0.7c1.3,0.2,2.8-0.2,4.4-1c2.5-1.3,5-3.5,7.2-6.3c2.1-2.8,3.6-5.8,4.2-8.6C25,7,24.5,4.8,23,3.7z M23.6,9.6
		c-0.5,2.6-2,5.5-4,8.3c-2.1,2.7-4.5,4.9-6.9,6.1c-2.3,1.2-4.2,1.3-5.4,0.4c-1.2-0.9-1.6-2.8-1.1-5.3c0.5-2.6,2-5.5,4-8.3
		c2.1-2.7,4.5-4.9,6.9-6.1c1.5-0.8,2.8-1.1,3.9-0.9c0.6,0.1,1.1,0.3,1.5,0.6C23.7,5.2,24.1,7.1,23.6,9.6z"/>
	<ellipse transform="matrix(0.6062 -0.7953 0.7953 0.6062 -5.3473 17.1794)" class="st6" cx="14.7" cy="14" rx="10.3" ry="4.5"/>
	<g>
		<defs>
			<path id="SVGID_69_" d="M20.9,5.8c2,1.5,0.8,6.4-2.7,10.9c-3.4,4.5-7.8,7-9.8,5.5c-2-1.5-0.8-6.4,2.7-10.9
				C14.6,6.8,18.9,4.3,20.9,5.8L20.9,5.8z"/>
		</defs>
		<clipPath id="SVGID_00000009558979812775926780000011222107829407517314_">
			<use xlink:href="#SVGID_69_"  style="overflow:visible;"/>
		</clipPath>
		
			<path style="clip-path:url(#SVGID_00000009558979812775926780000011222107829407517314_);fill-rule:evenodd;clip-rule:evenodd;fill:#F4BD1B;" d="
			M20.9,5.8c-1.8-1.3-5.8,1-9.1,5.3C8.6,15.4,7.4,20,9.1,21.3c1.8,1.3,5.8-1,9.1-5.3C21.5,11.7,22.7,7.2,20.9,5.8z"/>
		
			<path style="clip-path:url(#SVGID_00000009558979812775926780000011222107829407517314_);fill-rule:evenodd;clip-rule:evenodd;fill:#F8E093;" d="
			M20.1,5.2c-3.9-0.3-8,4.9-8,4.9s4.2-3.9,7.1-3.9c3.5,0,1.7,6.2,1.7,6.2S24,5.5,20.1,5.2z"/>
	</g>
	<path class="st2" d="M21.1,5.5c-1.1-0.8-2.8-0.7-4.8,0.5C14.5,7,12.5,8.8,10.8,11c-1.7,2.2-2.9,4.6-3.4,6.7
		c-0.5,2.2-0.3,3.9,0.8,4.7C8.6,22.8,9,22.9,9.5,23c2.4,0.3,6-2.1,9.1-6c1.7-2.2,2.9-4.6,3.4-6.7C22.5,8,22.2,6.3,21.1,5.5z
		 M21.2,10c-0.5,2-1.7,4.3-3.3,6.4c-1.6,2.1-3.5,3.9-5.3,4.9c-1.7,0.9-3.1,1.1-3.9,0.5c-0.8-0.6-1-2-0.5-3.9c0.5-2,1.7-4.3,3.3-6.4
		c1.6-2.1,3.5-3.9,5.3-4.9c1.2-0.7,2.2-0.9,3-0.9c0.3,0,0.6,0.2,0.9,0.3C21.5,6.7,21.7,8.2,21.2,10z"/>
	<path class="st2" d="M20.1,21.9l-2-1.3c-0.2-0.1-0.4-0.1-0.6,0.1c-0.1,0.2-0.1,0.4,0.1,0.6l2,1.3c0.1,0,0.1,0.1,0.2,0.1
		c0.1,0,0.3,0,0.4-0.2C20.3,22.3,20.3,22,20.1,21.9z"/>
	<path class="st2" d="M18.3,23.5l-2.2-1.4c-0.2-0.1-0.4-0.1-0.6,0.1c-0.1,0.2-0.1,0.4,0.1,0.6l2.2,1.4c0.1,0,0.1,0.1,0.2,0.1
		c0.1,0,0.3,0,0.4-0.2C18.6,23.9,18.5,23.7,18.3,23.5z"/>
	<path class="st2" d="M16.2,24.7l-1.8-1.2c-0.2-0.1-0.4-0.1-0.6,0.1c-0.1,0.2-0.1,0.4,0.1,0.6l1.8,1.2c0.1,0,0.1,0.1,0.2,0.1
		c0.1,0,0.3,0,0.4-0.2C16.4,25.1,16.3,24.8,16.2,24.7z"/>
	<path class="st2" d="M24.1,15.8l-1.5-0.9c-0.2-0.1-0.4-0.1-0.6,0.1c-0.1,0.2-0.1,0.4,0.1,0.6l1.5,0.9c0.1,0,0.1,0.1,0.2,0.1
		c0.1,0,0.3,0,0.4-0.2C24.3,16.2,24.3,16,24.1,15.8z"/>
	<path class="st2" d="M25.1,13.7l-1.6-1c-0.2-0.1-0.4-0.1-0.6,0.1c-0.1,0.2-0.1,0.4,0.1,0.6l1.6,1c0.1,0,0.1,0.1,0.2,0.1
		c0.1,0,0.3,0,0.4-0.2C25.3,14.1,25.3,13.9,25.1,13.7z"/>
	<path class="st2" d="M23.2,18l-2-1.3c-0.2-0.1-0.4-0.1-0.6,0.1c-0.1,0.2-0.1,0.4,0.1,0.6l2,1.3c0.1,0,0.1,0.1,0.2,0.1
		c0.1,0,0.3,0,0.4-0.2C23.4,18.3,23.4,18.1,23.2,18z"/>
	<path class="st2" d="M21.7,20l-2-1.3c-0.2-0.1-0.4-0.1-0.6,0.1c-0.1,0.2-0.1,0.4,0.1,0.6l2,1.3c0.1,0,0.1,0.1,0.2,0.1
		c0.1,0,0.3,0,0.4-0.2C21.9,20.3,21.9,20.1,21.7,20z"/>
</g>
</svg>
