<?xml version="1.0" encoding="utf-8"?>
<!-- Generator: Adobe Illustrator 26.0.1, SVG Export Plug-In . SVG Version: 6.00 Build 0)  -->
<svg version="1.1" id="圖層_1" xmlns="http://www.w3.org/2000/svg" xmlns:xlink="http://www.w3.org/1999/xlink" x="0px" y="0px"
	 viewBox="0 0 43 9" style="enable-background:new 0 0 43 9;" xml:space="preserve">
<style type="text/css">
	.st0{fill:#FFF100;}
	.st1{fill:none;stroke:#000000;stroke-linecap:round;stroke-linejoin:round;stroke-miterlimit:10;}
	.st2{fill:#FFD200;}
</style>
<g>
	<g>
		<path class="st0" d="M2.4,3.4C2.2,3.6,2.1,3.7,1.9,3.9C1.8,3.6,1.6,3.3,1.4,3.1C2,2.6,2.7,1.8,3,0.9l0.6,0.4
			c0,0.1-0.1,0.2-0.2,0.4C3.9,2,4.4,2.5,4.7,2.8L4.3,3.5C4.2,3.4,4.1,3.3,4,3.2v0.6H2.4V3.4z M4.6,4.5C4.4,5.2,3.9,5.9,3.5,6.5
			C3.7,6.6,3.9,6.8,4,7L3.5,7.5C3.1,7.1,2.5,6.4,2,6l0.5-0.5C2.7,5.7,2.8,5.8,3,6c0.2-0.3,0.5-0.7,0.7-1H1.8V4.3H4l0.1,0L4.6,4.5z
			 M3.9,3.1C3.7,2.8,3.4,2.5,3.2,2.3C3,2.6,2.8,2.8,2.6,3.1H3.9z M6.2,6.6c-0.4,0.4-1,0.8-1.5,1C4.6,7.4,4.3,7.1,4.2,7
			c0.5-0.2,1.1-0.6,1.4-0.9L6.2,6.6z M7.8,6.1H4.8V2.4h1c0-0.2,0-0.3,0.1-0.5H4.5V1.2H8v0.7H6.8c0,0.2-0.1,0.3-0.1,0.5h1.2V6.1z
			 M7.1,3H5.5v0.4h1.5V3z M7.1,4H5.5v0.5h1.5V4z M7.1,5H5.5v0.5h1.5V5z M7.1,6.2c0.4,0.3,0.9,0.6,1.1,0.9L7.5,7.5
			c-0.2-0.3-0.7-0.7-1.1-1L7.1,6.2z"/>
		<path class="st0" d="M12.6,6.1l0,0.7c-0.8,0.2-1.7,0.4-2.4,0.5l-0.2-0.8c0.3,0,0.6-0.1,1-0.2V4.6h-0.9V3.9h0.9V3.4h-0.5V3.1
			c-0.1,0.1-0.2,0.2-0.3,0.3c0-0.2-0.2-0.7-0.3-0.9c0.5-0.4,1.1-1,1.4-1.6l0.6,0.3c0,0.1-0.1,0.2-0.1,0.3c0.4,0.2,0.8,0.6,1.1,0.8
			l-0.3,0.7c0,0-0.1-0.1-0.2-0.2v0.7h-0.6v0.5h0.8v0.7h-0.8v1.6L12.6,6.1z M10.7,4.9c0.1,0.4,0.2,0.9,0.3,1.2l-0.5,0.2
			c0-0.3-0.1-0.8-0.2-1.2L10.7,4.9z M12.3,2.7c-0.3-0.2-0.6-0.5-0.9-0.7c-0.1,0.2-0.3,0.5-0.5,0.7H12.3z M11.8,6
			c0.1-0.3,0.2-0.8,0.2-1.2L12.6,5c-0.1,0.4-0.3,0.9-0.4,1.2L11.8,6z M16.2,5.7c-0.2,0.3-0.6,0.6-0.9,0.8c0.2,0.2,0.4,0.3,0.6,0.3
			c0.2,0,0.2-0.1,0.3-0.6c0.1,0.1,0.4,0.2,0.6,0.3c-0.1,0.8-0.3,0.9-0.9,0.9c-0.4,0-0.8-0.2-1.2-0.6c-0.5,0.2-1,0.4-1.5,0.6
			c-0.1-0.2-0.3-0.5-0.5-0.6c0.5-0.1,1.1-0.3,1.5-0.5c-0.1-0.2-0.2-0.5-0.3-0.8L13,5.7l-0.1-0.7L13.7,5c-0.1-0.3-0.1-0.6-0.1-0.9
			c-0.1,0-0.2,0.1-0.3,0.1c-0.1-0.2-0.3-0.5-0.5-0.6c0.5-0.1,1-0.3,1.5-0.4C14.1,3,14,2.8,14,2.5l-1,0.1L12.9,2l0.8-0.1
			c-0.1-0.3-0.1-0.6-0.1-1h0.7c0,0.3,0.1,0.6,0.1,0.9l0.9-0.1c-0.2-0.1-0.5-0.3-0.7-0.4l0.4-0.4C15.4,1,15.8,1.2,16,1.4l-0.3,0.4
			l0.8-0.1l0.1,0.7l-1,0.1l0.6,0.2c-0.2,0.3-0.5,0.5-0.8,0.7c0.1,0.1,0.3,0.2,0.5,0.2C16,3.5,16,3.4,16,3c0.1,0.1,0.4,0.2,0.6,0.3
			c-0.1,0.7-0.3,0.8-0.8,0.8c-0.4,0-0.8-0.2-1.1-0.5c-0.2,0.1-0.5,0.2-0.8,0.3h0.4c0,0.3,0.1,0.6,0.1,0.9l1-0.1
			c-0.2-0.1-0.5-0.3-0.8-0.4L15,4c0.3,0.1,0.7,0.3,0.9,0.5l-0.3,0.4l0.9-0.1l0.1,0.6l-1.1,0.1L16.2,5.7z M14.6,5.6
			c0.1,0.2,0.1,0.3,0.2,0.5c0.2-0.2,0.4-0.3,0.6-0.5L14.6,5.6z M14.7,2.5c0.1,0.1,0.1,0.2,0.2,0.3c0.2-0.1,0.4-0.3,0.5-0.4L14.7,2.5
			z"/>
		<path class="st0" d="M21.2,3.1c0,0.7-0.1,1.6-0.5,2.4c0.3,0.3,0.6,0.6,0.9,0.9L21,7.1c-0.2-0.2-0.4-0.5-0.7-0.8
			c-0.3,0.4-0.7,0.9-1.2,1.2c-0.1-0.2-0.4-0.5-0.6-0.6c0.5-0.4,0.9-0.8,1.2-1.2c-0.4-0.3-0.7-0.7-1.1-1c0.1-0.4,0.2-1,0.3-1.5
			l-0.4,0l-0.1-0.8c0.2,0,0.4,0,0.6,0c0.1-0.5,0.1-1,0.2-1.5l0.8,0c0,0.4-0.1,0.9-0.2,1.4l0.5,0V1.9h0.8v0.4l0.4,0v0.8L21.2,3.1z
			 M19.8,3.2c-0.1,0.5-0.2,0.9-0.3,1.3C19.7,4.7,19.9,4.8,20,5c0.2-0.6,0.3-1.3,0.3-1.8L19.8,3.2z M25.1,4.6h-1.4v2
			c0,0.4-0.1,0.6-0.4,0.8c-0.3,0.1-0.7,0.1-1.2,0.1c0-0.2-0.2-0.6-0.3-0.8c0.4,0,0.8,0,0.9,0c0.1,0,0.2,0,0.2-0.1v-2h-1.5V3.8h1.5
			V3.2c0.3-0.3,0.6-0.7,0.9-1h-2.1V1.4h2.6l0.2,0L25,1.7c-0.3,0.5-0.8,1.1-1.3,1.6v0.5h1.4V4.6z"/>
		<path class="st0" d="M29.9,2.9c0,0.3,0,0.6-0.1,0.8h3c0,0,0,0.3,0,0.4c-0.1,1.9-0.3,2.7-0.6,3c-0.2,0.2-0.4,0.3-0.8,0.3
			c-0.3,0-0.7,0-1.2,0c0-0.2-0.1-0.6-0.3-0.8c0.5,0,1,0.1,1.2,0.1c0.2,0,0.2,0,0.3-0.1c0.2-0.2,0.3-0.8,0.4-2h-2.2
			c-0.2,1.2-0.8,2.3-2,3C27.5,7.3,27.2,7,27,6.9c1.7-0.9,1.8-2.5,1.9-4h-1.8V2.1h3c-0.1-0.3-0.3-0.6-0.4-0.9l0.8-0.3
			c0.2,0.3,0.4,0.7,0.5,1l-0.5,0.2h2.9v0.8H29.9z"/>
		<path class="st0" d="M40.1,5.3c-0.1,0.4-0.2,0.7-0.4,1c0.7,0.2,1.5,0.4,2.5,0.4c-0.2,0.2-0.4,0.6-0.5,0.8c-1-0.1-1.9-0.3-2.6-0.6
			c-0.3,0.3-0.8,0.5-1.4,0.7c-0.1-0.2-0.3-0.5-0.5-0.7c0.5-0.1,0.9-0.2,1.1-0.4C38,6.2,37.7,6,37.5,5.6l0.7-0.3
			c0.2,0.2,0.4,0.4,0.7,0.6c0.2-0.2,0.3-0.4,0.3-0.7h-1.5V2.4h1.6V2h-1.7V1.4c-0.2,0.4-0.4,0.9-0.6,1.3v4.8h-0.8V4
			c-0.1,0.2-0.2,0.3-0.4,0.5c-0.1-0.2-0.3-0.7-0.5-0.9C36,3,36.6,2,36.9,1l0.8,0.2l0,0.1h4.3V2h-1.8v0.4h1.6v2.8H40.1z M38.5,3.6
			h0.8V3.1h-0.8V3.6z M39.3,4.7c0-0.1,0-0.2,0-0.3V4.2h-0.8v0.5H39.3z M41,4.2h-0.8v0.3c0,0.1,0,0.2,0,0.3H41V4.2z M40.2,3.1v0.5H41
			V3.1H40.2z"/>
	</g>
	<g>
		<path class="st1" d="M2.4,3.4C2.2,3.6,2.1,3.7,1.9,3.9C1.8,3.6,1.6,3.3,1.4,3.1C2,2.6,2.7,1.8,3,0.9l0.6,0.4
			c0,0.1-0.1,0.2-0.2,0.4C3.9,2,4.4,2.5,4.7,2.8L4.3,3.5C4.2,3.4,4.1,3.3,4,3.2v0.6H2.4V3.4z M4.6,4.5C4.4,5.2,3.9,5.9,3.5,6.5
			C3.7,6.6,3.9,6.8,4,7L3.5,7.5C3.1,7.1,2.5,6.4,2,6l0.5-0.5C2.7,5.7,2.8,5.8,3,6c0.2-0.3,0.5-0.7,0.7-1H1.8V4.3H4l0.1,0L4.6,4.5z
			 M3.9,3.1C3.7,2.8,3.4,2.5,3.2,2.3C3,2.6,2.8,2.8,2.6,3.1H3.9z M6.2,6.6c-0.4,0.4-1,0.8-1.5,1C4.6,7.4,4.3,7.1,4.2,7
			c0.5-0.2,1.1-0.6,1.4-0.9L6.2,6.6z M7.8,6.1H4.8V2.4h1c0-0.2,0-0.3,0.1-0.5H4.5V1.2H8v0.7H6.8c0,0.2-0.1,0.3-0.1,0.5h1.2V6.1z
			 M7.1,3H5.5v0.4h1.5V3z M7.1,4H5.5v0.5h1.5V4z M7.1,5H5.5v0.5h1.5V5z M7.1,6.2c0.4,0.3,0.9,0.6,1.1,0.9L7.5,7.5
			c-0.2-0.3-0.7-0.7-1.1-1L7.1,6.2z"/>
		<path class="st1" d="M12.6,6.1l0,0.7c-0.8,0.2-1.7,0.4-2.4,0.5l-0.2-0.8c0.3,0,0.6-0.1,1-0.2V4.6h-0.9V3.9h0.9V3.4h-0.5V3.1
			c-0.1,0.1-0.2,0.2-0.3,0.3c0-0.2-0.2-0.7-0.3-0.9c0.5-0.4,1.1-1,1.4-1.6l0.6,0.3c0,0.1-0.1,0.2-0.1,0.3c0.4,0.2,0.8,0.6,1.1,0.8
			l-0.3,0.7c0,0-0.1-0.1-0.2-0.2v0.7h-0.6v0.5h0.8v0.7h-0.8v1.6L12.6,6.1z M10.7,4.9c0.1,0.4,0.2,0.9,0.3,1.2l-0.5,0.2
			c0-0.3-0.1-0.8-0.2-1.2L10.7,4.9z M12.3,2.7c-0.3-0.2-0.6-0.5-0.9-0.7c-0.1,0.2-0.3,0.5-0.5,0.7H12.3z M11.8,6
			c0.1-0.3,0.2-0.8,0.2-1.2L12.6,5c-0.1,0.4-0.3,0.9-0.4,1.2L11.8,6z M16.2,5.7c-0.2,0.3-0.6,0.6-0.9,0.8c0.2,0.2,0.4,0.3,0.6,0.3
			c0.2,0,0.2-0.1,0.3-0.6c0.1,0.1,0.4,0.2,0.6,0.3c-0.1,0.8-0.3,0.9-0.9,0.9c-0.4,0-0.8-0.2-1.2-0.6c-0.5,0.2-1,0.4-1.5,0.6
			c-0.1-0.2-0.3-0.5-0.5-0.6c0.5-0.1,1.1-0.3,1.5-0.5c-0.1-0.2-0.2-0.5-0.3-0.8L13,5.7l-0.1-0.7L13.7,5c-0.1-0.3-0.1-0.6-0.1-0.9
			c-0.1,0-0.2,0.1-0.3,0.1c-0.1-0.2-0.3-0.5-0.5-0.6c0.5-0.1,1-0.3,1.5-0.4C14.1,3,14,2.8,14,2.5l-1,0.1L12.9,2l0.8-0.1
			c-0.1-0.3-0.1-0.6-0.1-1h0.7c0,0.3,0.1,0.6,0.1,0.9l0.9-0.1c-0.2-0.1-0.5-0.3-0.7-0.4l0.4-0.4C15.4,1,15.8,1.2,16,1.4l-0.3,0.4
			l0.8-0.1l0.1,0.7l-1,0.1l0.6,0.2c-0.2,0.3-0.5,0.5-0.8,0.7c0.1,0.1,0.3,0.2,0.5,0.2C16,3.5,16,3.4,16,3c0.1,0.1,0.4,0.2,0.6,0.3
			c-0.1,0.7-0.3,0.8-0.8,0.8c-0.4,0-0.8-0.2-1.1-0.5c-0.2,0.1-0.5,0.2-0.8,0.3h0.4c0,0.3,0.1,0.6,0.1,0.9l1-0.1
			c-0.2-0.1-0.5-0.3-0.8-0.4L15,4c0.3,0.1,0.7,0.3,0.9,0.5l-0.3,0.4l0.9-0.1l0.1,0.6l-1.1,0.1L16.2,5.7z M14.6,5.6
			c0.1,0.2,0.1,0.3,0.2,0.5c0.2-0.2,0.4-0.3,0.6-0.5L14.6,5.6z M14.7,2.5c0.1,0.1,0.1,0.2,0.2,0.3c0.2-0.1,0.4-0.3,0.5-0.4L14.7,2.5
			z"/>
		<path class="st1" d="M21.2,3.1c0,0.7-0.1,1.6-0.5,2.4c0.3,0.3,0.6,0.6,0.9,0.9L21,7.1c-0.2-0.2-0.4-0.5-0.7-0.8
			c-0.3,0.4-0.7,0.9-1.2,1.2c-0.1-0.2-0.4-0.5-0.6-0.6c0.5-0.4,0.9-0.8,1.2-1.2c-0.4-0.3-0.7-0.7-1.1-1c0.1-0.4,0.2-1,0.3-1.5
			l-0.4,0l-0.1-0.8c0.2,0,0.4,0,0.6,0c0.1-0.5,0.1-1,0.2-1.5l0.8,0c0,0.4-0.1,0.9-0.2,1.4l0.5,0V1.9h0.8v0.4l0.4,0v0.8L21.2,3.1z
			 M19.8,3.2c-0.1,0.5-0.2,0.9-0.3,1.3C19.7,4.7,19.9,4.8,20,5c0.2-0.6,0.3-1.3,0.3-1.8L19.8,3.2z M25.1,4.6h-1.4v2
			c0,0.4-0.1,0.6-0.4,0.8c-0.3,0.1-0.7,0.1-1.2,0.1c0-0.2-0.2-0.6-0.3-0.8c0.4,0,0.8,0,0.9,0c0.1,0,0.2,0,0.2-0.1v-2h-1.5V3.8h1.5
			V3.2c0.3-0.3,0.6-0.7,0.9-1h-2.1V1.4h2.6l0.2,0L25,1.7c-0.3,0.5-0.8,1.1-1.3,1.6v0.5h1.4V4.6z"/>
		<path class="st1" d="M29.9,2.9c0,0.3,0,0.6-0.1,0.8h3c0,0,0,0.3,0,0.4c-0.1,1.9-0.3,2.7-0.6,3c-0.2,0.2-0.4,0.3-0.8,0.3
			c-0.3,0-0.7,0-1.2,0c0-0.2-0.1-0.6-0.3-0.8c0.5,0,1,0.1,1.2,0.1c0.2,0,0.2,0,0.3-0.1c0.2-0.2,0.3-0.8,0.4-2h-2.2
			c-0.2,1.2-0.8,2.3-2,3C27.5,7.3,27.2,7,27,6.9c1.7-0.9,1.8-2.5,1.9-4h-1.8V2.1h3c-0.1-0.3-0.3-0.6-0.4-0.9l0.8-0.3
			c0.2,0.3,0.4,0.7,0.5,1l-0.5,0.2h2.9v0.8H29.9z"/>
		<path class="st1" d="M40.1,5.3c-0.1,0.4-0.2,0.7-0.4,1c0.7,0.2,1.5,0.4,2.5,0.4c-0.2,0.2-0.4,0.6-0.5,0.8c-1-0.1-1.9-0.3-2.6-0.6
			c-0.3,0.3-0.8,0.5-1.4,0.7c-0.1-0.2-0.3-0.5-0.5-0.7c0.5-0.1,0.9-0.2,1.1-0.4C38,6.2,37.7,6,37.5,5.6l0.7-0.3
			c0.2,0.2,0.4,0.4,0.7,0.6c0.2-0.2,0.3-0.4,0.3-0.7h-1.5V2.4h1.6V2h-1.7V1.4c-0.2,0.4-0.4,0.9-0.6,1.3v4.8h-0.8V4
			c-0.1,0.2-0.2,0.3-0.4,0.5c-0.1-0.2-0.3-0.7-0.5-0.9C36,3,36.6,2,36.9,1l0.8,0.2l0,0.1h4.3V2h-1.8v0.4h1.6v2.8H40.1z M38.5,3.6
			h0.8V3.1h-0.8V3.6z M39.3,4.7c0-0.1,0-0.2,0-0.3V4.2h-0.8v0.5H39.3z M41,4.2h-0.8v0.3c0,0.1,0,0.2,0,0.3H41V4.2z M40.2,3.1v0.5H41
			V3.1H40.2z"/>
	</g>
	<g>
		<path class="st2" d="M2.4,3.4C2.2,3.6,2.1,3.7,1.9,3.9C1.8,3.6,1.6,3.3,1.4,3.1C2,2.6,2.7,1.8,3,0.9l0.6,0.4
			c0,0.1-0.1,0.2-0.2,0.4C3.9,2,4.4,2.5,4.7,2.8L4.3,3.5C4.2,3.4,4.1,3.3,4,3.2v0.6H2.4V3.4z M4.6,4.5C4.4,5.2,3.9,5.9,3.5,6.5
			C3.7,6.6,3.9,6.8,4,7L3.5,7.5C3.1,7.1,2.5,6.4,2,6l0.5-0.5C2.7,5.7,2.8,5.8,3,6c0.2-0.3,0.5-0.7,0.7-1H1.8V4.3H4l0.1,0L4.6,4.5z
			 M3.9,3.1C3.7,2.8,3.4,2.5,3.2,2.3C3,2.6,2.8,2.8,2.6,3.1H3.9z M6.2,6.6c-0.4,0.4-1,0.8-1.5,1C4.6,7.4,4.3,7.1,4.2,7
			c0.5-0.2,1.1-0.6,1.4-0.9L6.2,6.6z M7.8,6.1H4.8V2.4h1c0-0.2,0-0.3,0.1-0.5H4.5V1.2H8v0.7H6.8c0,0.2-0.1,0.3-0.1,0.5h1.2V6.1z
			 M7.1,3H5.5v0.4h1.5V3z M7.1,4H5.5v0.5h1.5V4z M7.1,5H5.5v0.5h1.5V5z M7.1,6.2c0.4,0.3,0.9,0.6,1.1,0.9L7.5,7.5
			c-0.2-0.3-0.7-0.7-1.1-1L7.1,6.2z"/>
		<path class="st2" d="M12.6,6.1l0,0.7c-0.8,0.2-1.7,0.4-2.4,0.5l-0.2-0.8c0.3,0,0.6-0.1,1-0.2V4.6h-0.9V3.9h0.9V3.4h-0.5V3.1
			c-0.1,0.1-0.2,0.2-0.3,0.3c0-0.2-0.2-0.7-0.3-0.9c0.5-0.4,1.1-1,1.4-1.6l0.6,0.3c0,0.1-0.1,0.2-0.1,0.3c0.4,0.2,0.8,0.6,1.1,0.8
			l-0.3,0.7c0,0-0.1-0.1-0.2-0.2v0.7h-0.6v0.5h0.8v0.7h-0.8v1.6L12.6,6.1z M10.7,4.9c0.1,0.4,0.2,0.9,0.3,1.2l-0.5,0.2
			c0-0.3-0.1-0.8-0.2-1.2L10.7,4.9z M12.3,2.7c-0.3-0.2-0.6-0.5-0.9-0.7c-0.1,0.2-0.3,0.5-0.5,0.7H12.3z M11.8,6
			c0.1-0.3,0.2-0.8,0.2-1.2L12.6,5c-0.1,0.4-0.3,0.9-0.4,1.2L11.8,6z M16.2,5.7c-0.2,0.3-0.6,0.6-0.9,0.8c0.2,0.2,0.4,0.3,0.6,0.3
			c0.2,0,0.2-0.1,0.3-0.6c0.1,0.1,0.4,0.2,0.6,0.3c-0.1,0.8-0.3,0.9-0.9,0.9c-0.4,0-0.8-0.2-1.2-0.6c-0.5,0.2-1,0.4-1.5,0.6
			c-0.1-0.2-0.3-0.5-0.5-0.6c0.5-0.1,1.1-0.3,1.5-0.5c-0.1-0.2-0.2-0.5-0.3-0.8L13,5.7l-0.1-0.7L13.7,5c-0.1-0.3-0.1-0.6-0.1-0.9
			c-0.1,0-0.2,0.1-0.3,0.1c-0.1-0.2-0.3-0.5-0.5-0.6c0.5-0.1,1-0.3,1.5-0.4C14.1,3,14,2.8,14,2.5l-1,0.1L12.9,2l0.8-0.1
			c-0.1-0.3-0.1-0.6-0.1-1h0.7c0,0.3,0.1,0.6,0.1,0.9l0.9-0.1c-0.2-0.1-0.5-0.3-0.7-0.4l0.4-0.4C15.4,1,15.8,1.2,16,1.4l-0.3,0.4
			l0.8-0.1l0.1,0.7l-1,0.1l0.6,0.2c-0.2,0.3-0.5,0.5-0.8,0.7c0.1,0.1,0.3,0.2,0.5,0.2C16,3.5,16,3.4,16,3c0.1,0.1,0.4,0.2,0.6,0.3
			c-0.1,0.7-0.3,0.8-0.8,0.8c-0.4,0-0.8-0.2-1.1-0.5c-0.2,0.1-0.5,0.2-0.8,0.3h0.4c0,0.3,0.1,0.6,0.1,0.9l1-0.1
			c-0.2-0.1-0.5-0.3-0.8-0.4L15,4c0.3,0.1,0.7,0.3,0.9,0.5l-0.3,0.4l0.9-0.1l0.1,0.6l-1.1,0.1L16.2,5.7z M14.6,5.6
			c0.1,0.2,0.1,0.3,0.2,0.5c0.2-0.2,0.4-0.3,0.6-0.5L14.6,5.6z M14.7,2.5c0.1,0.1,0.1,0.2,0.2,0.3c0.2-0.1,0.4-0.3,0.5-0.4L14.7,2.5
			z"/>
		<path class="st2" d="M21.2,3.1c0,0.7-0.1,1.6-0.5,2.4c0.3,0.3,0.6,0.6,0.9,0.9L21,7.1c-0.2-0.2-0.4-0.5-0.7-0.8
			c-0.3,0.4-0.7,0.9-1.2,1.2c-0.1-0.2-0.4-0.5-0.6-0.6c0.5-0.4,0.9-0.8,1.2-1.2c-0.4-0.3-0.7-0.7-1.1-1c0.1-0.4,0.2-1,0.3-1.5
			l-0.4,0l-0.1-0.8c0.2,0,0.4,0,0.6,0c0.1-0.5,0.1-1,0.2-1.5l0.8,0c0,0.4-0.1,0.9-0.2,1.4l0.5,0V1.9h0.8v0.4l0.4,0v0.8L21.2,3.1z
			 M19.8,3.2c-0.1,0.5-0.2,0.9-0.3,1.3C19.7,4.7,19.9,4.8,20,5c0.2-0.6,0.3-1.3,0.3-1.8L19.8,3.2z M25.1,4.6h-1.4v2
			c0,0.4-0.1,0.6-0.4,0.8c-0.3,0.1-0.7,0.1-1.2,0.1c0-0.2-0.2-0.6-0.3-0.8c0.4,0,0.8,0,0.9,0c0.1,0,0.2,0,0.2-0.1v-2h-1.5V3.8h1.5
			V3.2c0.3-0.3,0.6-0.7,0.9-1h-2.1V1.4h2.6l0.2,0L25,1.7c-0.3,0.5-0.8,1.1-1.3,1.6v0.5h1.4V4.6z"/>
		<path class="st2" d="M29.9,2.9c0,0.3,0,0.6-0.1,0.8h3c0,0,0,0.3,0,0.4c-0.1,1.9-0.3,2.7-0.6,3c-0.2,0.2-0.4,0.3-0.8,0.3
			c-0.3,0-0.7,0-1.2,0c0-0.2-0.1-0.6-0.3-0.8c0.5,0,1,0.1,1.2,0.1c0.2,0,0.2,0,0.3-0.1c0.2-0.2,0.3-0.8,0.4-2h-2.2
			c-0.2,1.2-0.8,2.3-2,3C27.5,7.3,27.2,7,27,6.9c1.7-0.9,1.8-2.5,1.9-4h-1.8V2.1h3c-0.1-0.3-0.3-0.6-0.4-0.9l0.8-0.3
			c0.2,0.3,0.4,0.7,0.5,1l-0.5,0.2h2.9v0.8H29.9z"/>
		<path class="st2" d="M40.1,5.3c-0.1,0.4-0.2,0.7-0.4,1c0.7,0.2,1.5,0.4,2.5,0.4c-0.2,0.2-0.4,0.6-0.5,0.8c-1-0.1-1.9-0.3-2.6-0.6
			c-0.3,0.3-0.8,0.5-1.4,0.7c-0.1-0.2-0.3-0.5-0.5-0.7c0.5-0.1,0.9-0.2,1.1-0.4C38,6.2,37.7,6,37.5,5.6l0.7-0.3
			c0.2,0.2,0.4,0.4,0.7,0.6c0.2-0.2,0.3-0.4,0.3-0.7h-1.5V2.4h1.6V2h-1.7V1.4c-0.2,0.4-0.4,0.9-0.6,1.3v4.8h-0.8V4
			c-0.1,0.2-0.2,0.3-0.4,0.5c-0.1-0.2-0.3-0.7-0.5-0.9C36,3,36.6,2,36.9,1l0.8,0.2l0,0.1h4.3V2h-1.8v0.4h1.6v2.8H40.1z M38.5,3.6
			h0.8V3.1h-0.8V3.6z M39.3,4.7c0-0.1,0-0.2,0-0.3V4.2h-0.8v0.5H39.3z M41,4.2h-0.8v0.3c0,0.1,0,0.2,0,0.3H41V4.2z M40.2,3.1v0.5H41
			V3.1H40.2z"/>
	</g>
</g>
</svg>
