<?xml version="1.0" encoding="utf-8"?>
<!-- Generator: Adobe Illustrator 26.0.1, SVG Export Plug-In . SVG Version: 6.00 Build 0)  -->
<svg version="1.1" id="圖層_1" xmlns="http://www.w3.org/2000/svg" xmlns:xlink="http://www.w3.org/1999/xlink" x="0px" y="0px"
	 viewBox="0 0 30 30" style="enable-background:new 0 0 30 30;" xml:space="preserve">
<style type="text/css">
	.st0{fill:#FFF100;}
	.st1{fill:none;stroke:#000000;stroke-width:2.27;stroke-linecap:round;stroke-linejoin:round;stroke-miterlimit:10;}
	.st2{fill:#E71A0F;}
</style>
<g>
	<g>
		<path class="st0" d="M11.9,13.3h2.5c1.2,0,2-0.3,2.6-0.9c0.6-0.6,0.8-1.4,0.8-2.3c0-0.4-0.1-0.8-0.2-1.2C17.4,8.6,17.3,8.2,17,8
			c-0.3-0.3-0.6-0.5-1-0.6c-0.4-0.1-0.9-0.2-1.4-0.2c-0.4,0-0.8,0.1-1.2,0.2s-0.7,0.3-1,0.5c-0.3,0.2-0.5,0.5-0.7,0.8
			c-0.2,0.3-0.2,0.7-0.2,1.1H6.9c0-1,0.2-1.8,0.6-2.6c0.4-0.8,0.9-1.4,1.6-2c0.7-0.5,1.5-1,2.4-1.3c0.9-0.3,1.9-0.5,3-0.5
			c1.2,0,2.2,0.1,3.2,0.4s1.8,0.7,2.5,1.3c0.7,0.6,1.2,1.3,1.6,2.1C22.2,8,22.4,9,22.4,10c0,0.5-0.1,1-0.2,1.5s-0.4,1-0.7,1.4
			s-0.7,0.8-1.1,1.2c-0.4,0.4-0.9,0.7-1.5,0.9c1.3,0.5,2.3,1.2,2.9,2.1c0.6,0.9,1,2,1,3.3c0,1.1-0.2,2.1-0.6,2.9s-1,1.6-1.7,2.1
			c-0.7,0.6-1.6,1-2.6,1.3c-1,0.3-2.1,0.5-3.3,0.5c-1,0-2-0.1-2.9-0.4c-0.9-0.3-1.8-0.7-2.5-1.2c-0.7-0.6-1.3-1.2-1.8-2.1
			c-0.5-0.8-0.7-1.8-0.7-3h4.6c0,0.4,0.1,0.8,0.3,1.2c0.2,0.4,0.4,0.7,0.7,0.9s0.7,0.5,1.1,0.6s0.9,0.2,1.4,0.2c0.5,0,1-0.1,1.5-0.2
			c0.4-0.1,0.8-0.4,1.1-0.6c0.3-0.3,0.5-0.6,0.7-1c0.2-0.4,0.2-0.8,0.2-1.3c0-0.6-0.1-1.1-0.3-1.6s-0.4-0.8-0.8-1.1
			c-0.3-0.3-0.7-0.5-1.2-0.6c-0.5-0.1-1-0.2-1.6-0.2h-2.5V13.3z"/>
	</g>
	<g>
		<path class="st1" d="M11.9,13.3h2.5c1.2,0,2-0.3,2.6-0.9c0.6-0.6,0.8-1.4,0.8-2.3c0-0.4-0.1-0.8-0.2-1.2C17.4,8.6,17.3,8.2,17,8
			c-0.3-0.3-0.6-0.5-1-0.6c-0.4-0.1-0.9-0.2-1.4-0.2c-0.4,0-0.8,0.1-1.2,0.2s-0.7,0.3-1,0.5c-0.3,0.2-0.5,0.5-0.7,0.8
			c-0.2,0.3-0.2,0.7-0.2,1.1H6.9c0-1,0.2-1.8,0.6-2.6c0.4-0.8,0.9-1.4,1.6-2c0.7-0.5,1.5-1,2.4-1.3c0.9-0.3,1.9-0.5,3-0.5
			c1.2,0,2.2,0.1,3.2,0.4s1.8,0.7,2.5,1.3c0.7,0.6,1.2,1.3,1.6,2.1C22.2,8,22.4,9,22.4,10c0,0.5-0.1,1-0.2,1.5s-0.4,1-0.7,1.4
			s-0.7,0.8-1.1,1.2c-0.4,0.4-0.9,0.7-1.5,0.9c1.3,0.5,2.3,1.2,2.9,2.1c0.6,0.9,1,2,1,3.3c0,1.1-0.2,2.1-0.6,2.9s-1,1.6-1.7,2.1
			c-0.7,0.6-1.6,1-2.6,1.3c-1,0.3-2.1,0.5-3.3,0.5c-1,0-2-0.1-2.9-0.4c-0.9-0.3-1.8-0.7-2.5-1.2c-0.7-0.6-1.3-1.2-1.8-2.1
			c-0.5-0.8-0.7-1.8-0.7-3h4.6c0,0.4,0.1,0.8,0.3,1.2c0.2,0.4,0.4,0.7,0.7,0.9s0.7,0.5,1.1,0.6s0.9,0.2,1.4,0.2c0.5,0,1-0.1,1.5-0.2
			c0.4-0.1,0.8-0.4,1.1-0.6c0.3-0.3,0.5-0.6,0.7-1c0.2-0.4,0.2-0.8,0.2-1.3c0-0.6-0.1-1.1-0.3-1.6s-0.4-0.8-0.8-1.1
			c-0.3-0.3-0.7-0.5-1.2-0.6c-0.5-0.1-1-0.2-1.6-0.2h-2.5V13.3z"/>
	</g>
	<g>
		<path class="st2" d="M11.9,13.3h2.5c1.2,0,2-0.3,2.6-0.9c0.6-0.6,0.8-1.4,0.8-2.3c0-0.4-0.1-0.8-0.2-1.2C17.4,8.6,17.3,8.2,17,8
			c-0.3-0.3-0.6-0.5-1-0.6c-0.4-0.1-0.9-0.2-1.4-0.2c-0.4,0-0.8,0.1-1.2,0.2s-0.7,0.3-1,0.5c-0.3,0.2-0.5,0.5-0.7,0.8
			c-0.2,0.3-0.2,0.7-0.2,1.1H6.9c0-1,0.2-1.8,0.6-2.6c0.4-0.8,0.9-1.4,1.6-2c0.7-0.5,1.5-1,2.4-1.3c0.9-0.3,1.9-0.5,3-0.5
			c1.2,0,2.2,0.1,3.2,0.4s1.8,0.7,2.5,1.3c0.7,0.6,1.2,1.3,1.6,2.1C22.2,8,22.4,9,22.4,10c0,0.5-0.1,1-0.2,1.5s-0.4,1-0.7,1.4
			s-0.7,0.8-1.1,1.2c-0.4,0.4-0.9,0.7-1.5,0.9c1.3,0.5,2.3,1.2,2.9,2.1c0.6,0.9,1,2,1,3.3c0,1.1-0.2,2.1-0.6,2.9s-1,1.6-1.7,2.1
			c-0.7,0.6-1.6,1-2.6,1.3c-1,0.3-2.1,0.5-3.3,0.5c-1,0-2-0.1-2.9-0.4c-0.9-0.3-1.8-0.7-2.5-1.2c-0.7-0.6-1.3-1.2-1.8-2.1
			c-0.5-0.8-0.7-1.8-0.7-3h4.6c0,0.4,0.1,0.8,0.3,1.2c0.2,0.4,0.4,0.7,0.7,0.9s0.7,0.5,1.1,0.6s0.9,0.2,1.4,0.2c0.5,0,1-0.1,1.5-0.2
			c0.4-0.1,0.8-0.4,1.1-0.6c0.3-0.3,0.5-0.6,0.7-1c0.2-0.4,0.2-0.8,0.2-1.3c0-0.6-0.1-1.1-0.3-1.6s-0.4-0.8-0.8-1.1
			c-0.3-0.3-0.7-0.5-1.2-0.6c-0.5-0.1-1-0.2-1.6-0.2h-2.5V13.3z"/>
	</g>
</g>
</svg>
