<?xml version="1.0" encoding="utf-8"?>
<!-- Generator: Adobe Illustrator 23.0.1, SVG Export Plug-In . SVG Version: 6.00 Build 0)  -->
<svg version="1.1" id="Layer_1" xmlns="http://www.w3.org/2000/svg" xmlns:xlink="http://www.w3.org/1999/xlink" x="0px" y="0px"
	 viewBox="0 0 564.7 492" style="enable-background:new 0 0 564.7 492;" xml:space="preserve">
<style type="text/css">
	.st0{fill:#D7992E;}
</style>
<g>
	<g>
		<path class="st0" d="M372.9,246l184-184c5.1-5.1,7.9-11.8,7.9-19c0-7.2-2.8-14-7.9-19L540.8,7.9c-5.1-5.1-11.8-7.9-19-7.9
			c-7.2,0-14,2.8-19,7.9l-184,183.9L134.8,7.9C129.7,2.8,123,0,115.8,0c-7.2,0-14,2.8-19,7.9L80.6,24c-10.5,10.5-10.5,27.6,0,38.1
			l184,184l-184,184c-5.1,5.1-7.9,11.8-7.9,19s2.8,14,7.9,19l16.1,16.1c5.1,5.1,11.8,7.9,19,7.9c7.2,0,14-2.8,19-7.9l184-184
			l184,184c5.1,5.1,11.8,7.9,19,7.9h0c7.2,0,14-2.8,19-7.9l16.1-16.1c5.1-5.1,7.9-11.8,7.9-19s-2.8-14-7.9-19L372.9,246z"/>
	</g>
</g>
</svg>
