<?xml version="1.0" encoding="utf-8"?>
<!-- Generator: Adobe Illustrator 23.0.1, SVG Export Plug-In . SVG Version: 6.00 Build 0)  -->
<svg version="1.1" id="Capa_1" xmlns="http://www.w3.org/2000/svg" xmlns:xlink="http://www.w3.org/1999/xlink" x="0px" y="0px"
	 viewBox="0 0 241.2 241.2" style="enable-background:new 0 0 241.2 241.2;" xml:space="preserve">
<style type="text/css">
	.st0{fill:#D7982C;}
</style>
<g>
	<path id="Close" class="st0" d="M138.1,120.8l99.1-98.6c4.8-4.7,4.8-12.3,0-17c-4.7-4.7-12.4-4.7-17.2,0l-99,98.5L21.1,3.7
		c-4.7-4.8-12.4-4.8-17.2,0c-4.7,4.8-4.7,12.5,0,17.2l99.9,99.9L3.6,220.5c-4.7,4.7-4.7,12.3,0,17c4.7,4.7,12.4,4.7,17.2,0
		l100.2-99.6l99.6,99.6c4.7,4.8,12.4,4.8,17.2,0c4.7-4.8,4.7-12.5,0-17.2L138.1,120.8z"/>
</g>
</svg>
