<?xml version="1.0" encoding="utf-8"?>
<!-- Generator: Adobe Illustrator 23.0.1, SVG Export Plug-In . SVG Version: 6.00 Build 0)  -->
<svg version="1.1" id="Capa_1" xmlns="http://www.w3.org/2000/svg" xmlns:xlink="http://www.w3.org/1999/xlink" x="0px" y="0px"
	 viewBox="0 0 512 512" style="enable-background:new 0 0 512 512;" xml:space="preserve">
<style type="text/css">
	.st0{fill:#F7F7F7;}
</style>
<path class="st0" d="M429.1,96.2H82.9c-22,0-39.9,17.9-39.9,39.9v239.6c0,22,17.9,39.9,39.9,39.9h346.1c22,0,39.9-17.9,39.9-39.9
	V136.2C469,114.2,451.1,96.2,429.1,96.2z M429.1,122.9c1.8,0,3.5,0.4,5.1,1L256,278.3L77.8,123.9c1.6-0.7,3.3-1,5.1-1L429.1,122.9z
	 M429.1,389.1H82.9c-7.3,0-13.3-6-13.3-13.3V152l177.7,154c2.5,2.2,5.6,3.3,8.7,3.3c3.1,0,6.2-1.1,8.7-3.3l177.7-154v223.8
	C442.4,383.2,436.4,389.1,429.1,389.1z"/>
</svg>
