<?xml version="1.0" encoding="utf-8"?>
<!-- Generator: Adobe Illustrator 23.0.1, SVG Export Plug-In . SVG Version: 6.00 Build 0)  -->
<svg version="1.1" id="圖層_1" xmlns="http://www.w3.org/2000/svg" xmlns:xlink="http://www.w3.org/1999/xlink" x="0px" y="0px"
	 viewBox="0 0 512 512" style="enable-background:new 0 0 512 512;" xml:space="preserve">
<style type="text/css">
	.st0{fill:#494949;}
</style>
<g id="Layer_13">
	<path class="st0" d="M48,96h416c8.8,0,16,7.2,16,16s-7.2,16-16,16H48c-8.8,0-16-7.2-16-16S39.2,96,48,96z"/>
	<path class="st0" d="M48,218h416c8.8,0,16,7.2,16,16c0,8.8-7.2,16-16,16H48c-8.8,0-16-7.2-16-16C32,225.2,39.2,218,48,218z"/>
	<path class="st0" d="M48,340h416c8.8,0,16,7.2,16,16s-7.2,16-16,16H48c-8.8,0-16-7.2-16-16S39.2,340,48,340z"/>
</g>
</svg>
