<?xml version="1.0" encoding="utf-8"?>
<!-- Generator: Adobe Illustrator 26.0.1, SVG Export Plug-In . SVG Version: 6.00 Build 0)  -->
<svg version="1.1" id="栝鍣_1" xmlns="http://www.w3.org/2000/svg" xmlns:xlink="http://www.w3.org/1999/xlink" x="0px" y="0px"
	 viewBox="0 0 570 532.2" style="enable-background:new 0 0 570 532.2;" xml:space="preserve">
<style type="text/css">
	.st0{fill:#B3B3B3;}
</style>
<g>
	<g>
		<g>
			<path class="st0" d="M505,262.6c-0.1,0.5-0.2,0.9-0.2,1.4c0,0.6,0.1,1.2,0.3,1.7C505.1,264.7,505,263.6,505,262.6z"/>
		</g>
	</g>
	<g>
		<g>
			<path class="st0" d="M478.2,174.6c2.3,0,4.2-1.6,4.7-3.8c-0.9-1.9-1.9-3.7-2.8-5.5c-0.6-0.2-1.2-0.4-1.9-0.4
				c-2.7,0-4.8,2.2-4.8,4.8C473.4,172.4,475.5,174.6,478.2,174.6z"/>
		</g>
	</g>
	<g>
		<g>
			<path class="st0" d="M478.2,196.4c-2.7,0-4.8,2.2-4.8,4.8c0,2.7,2.2,4.8,4.8,4.8c2.7,0,4.8-2.2,4.8-4.8
				C483,198.5,480.8,196.4,478.2,196.4z"/>
		</g>
	</g>
	<g>
		<g>
			<path class="st0" d="M478.2,227.8c-2.7,0-4.8,2.2-4.8,4.8c0,2.7,2.2,4.8,4.8,4.8c2.7,0,4.8-2.2,4.8-4.8
				C483,230,480.8,227.8,478.2,227.8z"/>
		</g>
	</g>
	<g>
		<g>
			<path class="st0" d="M478.2,259.2c-2.7,0-4.8,2.2-4.8,4.8c0,2.7,2.2,4.8,4.8,4.8c2.7,0,4.8-2.2,4.8-4.8
				C483,261.4,480.8,259.2,478.2,259.2z"/>
		</g>
	</g>
	<g>
		<g>
			<path class="st0" d="M478.2,290.6c-2.7,0-4.8,2.2-4.8,4.8c0,2.7,2.2,4.8,4.8,4.8c2.7,0,4.8-2.2,4.8-4.8
				C483,292.8,480.8,290.6,478.2,290.6z"/>
		</g>
	</g>
	<g>
		<g>
			<path class="st0" d="M478.2,322c-2.7,0-4.8,2.2-4.8,4.8c0,2.7,2.2,4.8,4.8,4.8c2.7,0,4.8-2.2,4.8-4.8
				C483,324.2,480.8,322,478.2,322z"/>
		</g>
	</g>
	<g>
		<g>
			<path class="st0" d="M478.2,353.5c-2.7,0-4.8,2.2-4.8,4.8c0,2.7,2.2,4.8,4.8,4.8c2.7,0,4.8-2.2,4.8-4.8
				C483,355.6,480.8,353.5,478.2,353.5z"/>
		</g>
	</g>
	<g>
		<g>
			<path class="st0" d="M446.8,133.5c-2.7,0-4.8,2.2-4.8,4.8s2.2,4.8,4.8,4.8c2.7,0,4.8-2.2,4.8-4.8S449.4,133.5,446.8,133.5z"/>
		</g>
	</g>
	<g>
		<g>
			<path class="st0" d="M446.8,165c-2.7,0-4.8,2.2-4.8,4.8c0,2.7,2.2,4.8,4.8,4.8c2.7,0,4.8-2.2,4.8-4.8
				C451.6,167.1,449.4,165,446.8,165z"/>
		</g>
	</g>
	<g>
		<g>
			<path class="st0" d="M446.8,196.4c-2.7,0-4.8,2.2-4.8,4.8c0,2.7,2.2,4.8,4.8,4.8c2.7,0,4.8-2.2,4.8-4.8
				C451.6,198.5,449.4,196.4,446.8,196.4z"/>
		</g>
	</g>
	<g>
		<g>
			<path class="st0" d="M446.8,227.8c-2.7,0-4.8,2.2-4.8,4.8c0,2.7,2.2,4.8,4.8,4.8c2.7,0,4.8-2.2,4.8-4.8
				C451.6,230,449.4,227.8,446.8,227.8z"/>
		</g>
	</g>
	<g>
		<g>
			<path class="st0" d="M446.8,259.2c-2.7,0-4.8,2.2-4.8,4.8c0,2.7,2.2,4.8,4.8,4.8c2.7,0,4.8-2.2,4.8-4.8
				C451.6,261.4,449.4,259.2,446.8,259.2z"/>
		</g>
	</g>
	<g>
		<g>
			<path class="st0" d="M446.8,290.6c-2.7,0-4.8,2.2-4.8,4.8c0,2.7,2.2,4.8,4.8,4.8c2.7,0,4.8-2.2,4.8-4.8
				C451.6,292.8,449.4,290.6,446.8,290.6z"/>
		</g>
	</g>
	<g>
		<g>
			<path class="st0" d="M446.8,322c-2.7,0-4.8,2.2-4.8,4.8c0,2.7,2.2,4.8,4.8,4.8c2.7,0,4.8-2.2,4.8-4.8
				C451.6,324.2,449.4,322,446.8,322z"/>
		</g>
	</g>
	<g>
		<g>
			<path class="st0" d="M446.8,353.5c-2.7,0-4.8,2.2-4.8,4.8c0,2.7,2.2,4.8,4.8,4.8c2.7,0,4.8-2.2,4.8-4.8
				C451.6,355.6,449.4,353.5,446.8,353.5z"/>
		</g>
	</g>
	<g>
		<g>
			<path class="st0" d="M446.8,384.9c-2.7,0-4.8,2.2-4.8,4.8c0,2.7,2.2,4.8,4.8,4.8c2.7,0,4.8-2.2,4.8-4.8
				C451.6,387,449.4,384.9,446.8,384.9z"/>
		</g>
	</g>
	<g>
		<g>
			<path class="st0" d="M441.9,421.1c0,1.1,0.4,2.2,1.1,3c2.2-2.3,4.3-4.6,6.4-7c-0.8-0.5-1.7-0.8-2.6-0.8
				C444.1,416.3,441.9,418.4,441.9,421.1z"/>
		</g>
	</g>
	<g>
		<g>
			<path class="st0" d="M415.3,102.1c-2.7,0-4.8,2.2-4.8,4.8c0,2.7,2.2,4.8,4.8,4.8c2.7,0,4.8-2.2,4.8-4.8
				C420.2,104.3,418,102.1,415.3,102.1z"/>
		</g>
	</g>
	<g>
		<g>
			<path class="st0" d="M415.3,133.5c-2.7,0-4.8,2.2-4.8,4.8s2.2,4.8,4.8,4.8c2.7,0,4.8-2.2,4.8-4.8S418,133.5,415.3,133.5z"/>
		</g>
	</g>
	<g>
		<g>
			<path class="st0" d="M415.3,165c-2.7,0-4.8,2.2-4.8,4.8c0,2.7,2.2,4.8,4.8,4.8c2.7,0,4.8-2.2,4.8-4.8
				C420.2,167.1,418,165,415.3,165z"/>
		</g>
	</g>
	<g>
		<g>
			<path class="st0" d="M415.3,196.4c-2.7,0-4.8,2.2-4.8,4.8c0,2.7,2.2,4.8,4.8,4.8c2.7,0,4.8-2.2,4.8-4.8
				C420.2,198.5,418,196.4,415.3,196.4z"/>
		</g>
	</g>
	<g>
		<g>
			<path class="st0" d="M415.3,227.8c-2.7,0-4.8,2.2-4.8,4.8c0,2.7,2.2,4.8,4.8,4.8c2.7,0,4.8-2.2,4.8-4.8
				C420.2,230,418,227.8,415.3,227.8z"/>
		</g>
	</g>
	<g>
		<g>
			<path class="st0" d="M415.3,259.2c-2.7,0-4.8,2.2-4.8,4.8c0,2.7,2.2,4.8,4.8,4.8c2.7,0,4.8-2.2,4.8-4.8
				C420.2,261.4,418,259.2,415.3,259.2z"/>
		</g>
	</g>
	<g>
		<g>
			<path class="st0" d="M415.3,290.6c-2.7,0-4.8,2.2-4.8,4.8c0,2.7,2.2,4.8,4.8,4.8c2.7,0,4.8-2.2,4.8-4.8
				C420.2,292.8,418,290.6,415.3,290.6z"/>
		</g>
	</g>
	<g>
		<g>
			<path class="st0" d="M415.3,322c-2.7,0-4.8,2.2-4.8,4.8c0,2.7,2.2,4.8,4.8,4.8c2.7,0,4.8-2.2,4.8-4.8
				C420.2,324.2,418,322,415.3,322z"/>
		</g>
	</g>
	<g>
		<g>
			<path class="st0" d="M415.3,353.5c-2.7,0-4.8,2.2-4.8,4.8c0,2.7,2.2,4.8,4.8,4.8c2.7,0,4.8-2.2,4.8-4.8
				C420.2,355.6,418,353.5,415.3,353.5z"/>
		</g>
	</g>
	<g>
		<g>
			<path class="st0" d="M415.3,384.9c-2.7,0-4.8,2.2-4.8,4.8c0,2.7,2.2,4.8,4.8,4.8c2.7,0,4.8-2.2,4.8-4.8
				C420.2,387,418,384.9,415.3,384.9z"/>
		</g>
	</g>
	<g>
		<g>
			<path class="st0" d="M415.3,416.3c-2.7,0-4.8,2.2-4.8,4.8c0,2.7,2.2,4.8,4.8,4.8c2.7,0,4.8-2.2,4.8-4.8
				C420.2,418.4,418,416.3,415.3,416.3z"/>
		</g>
	</g>
	<g>
		<g>
			<path class="st0" d="M410.6,452.3c2-1.4,4-2.9,6-4.4c-0.4-0.1-0.8-0.2-1.2-0.2C412.8,447.7,410.7,449.7,410.6,452.3z"/>
		</g>
	</g>
	<g>
		<g>
			<path class="st0" d="M383.9,70.7c-2.7,0-4.8,2.2-4.8,4.8c0,2.7,2.2,4.8,4.8,4.8c2.7,0,4.8-2.2,4.8-4.8
				C388.8,72.9,386.6,70.7,383.9,70.7z"/>
		</g>
	</g>
	<g>
		<g>
			<path class="st0" d="M383.9,102.1c-2.7,0-4.8,2.2-4.8,4.8c0,2.7,2.2,4.8,4.8,4.8c2.7,0,4.8-2.2,4.8-4.8
				C388.8,104.3,386.6,102.1,383.9,102.1z"/>
		</g>
	</g>
	<g>
		<g>
			<path class="st0" d="M383.9,133.5c-2.7,0-4.8,2.2-4.8,4.8s2.2,4.8,4.8,4.8c2.7,0,4.8-2.2,4.8-4.8S386.6,133.5,383.9,133.5z"/>
		</g>
	</g>
	<g>
		<g>
			<path class="st0" d="M383.9,165c-2.7,0-4.8,2.2-4.8,4.8c0,2.7,2.2,4.8,4.8,4.8c2.7,0,4.8-2.2,4.8-4.8
				C388.8,167.1,386.6,165,383.9,165z"/>
		</g>
	</g>
	<g>
		<g>
			<path class="st0" d="M383.9,196.4c-2.7,0-4.8,2.2-4.8,4.8c0,2.7,2.2,4.8,4.8,4.8c2.7,0,4.8-2.2,4.8-4.8
				C388.8,198.5,386.6,196.4,383.9,196.4z"/>
		</g>
	</g>
	<g>
		<g>
			<path class="st0" d="M383.9,227.8c-2.7,0-4.8,2.2-4.8,4.8c0,2.7,2.2,4.8,4.8,4.8c2.7,0,4.8-2.2,4.8-4.8
				C388.8,230,386.6,227.8,383.9,227.8z"/>
		</g>
	</g>
	<g>
		<g>
			<path class="st0" d="M383.9,259.2c-2.7,0-4.8,2.2-4.8,4.8c0,2.7,2.2,4.8,4.8,4.8c2.7,0,4.8-2.2,4.8-4.8
				C388.8,261.4,386.6,259.2,383.9,259.2z"/>
		</g>
	</g>
	<g>
		<g>
			<path class="st0" d="M383.9,290.6c-2.7,0-4.8,2.2-4.8,4.8c0,2.7,2.2,4.8,4.8,4.8c2.7,0,4.8-2.2,4.8-4.8
				C388.8,292.8,386.6,290.6,383.9,290.6z"/>
		</g>
	</g>
	<g>
		<g>
			<path class="st0" d="M383.9,322c-2.7,0-4.8,2.2-4.8,4.8c0,2.7,2.2,4.8,4.8,4.8c2.7,0,4.8-2.2,4.8-4.8
				C388.8,324.2,386.6,322,383.9,322z"/>
		</g>
	</g>
	<g>
		<g>
			<path class="st0" d="M383.9,353.5c-2.7,0-4.8,2.2-4.8,4.8c0,2.7,2.2,4.8,4.8,4.8c2.7,0,4.8-2.2,4.8-4.8
				C388.8,355.6,386.6,353.5,383.9,353.5z"/>
		</g>
	</g>
	<g>
		<g>
			<path class="st0" d="M383.9,384.9c-2.7,0-4.8,2.2-4.8,4.8c0,2.7,2.2,4.8,4.8,4.8c2.7,0,4.8-2.2,4.8-4.8
				C388.8,387,386.6,384.9,383.9,384.9z"/>
		</g>
	</g>
	<g>
		<g>
			<path class="st0" d="M383.9,416.3c-2.7,0-4.8,2.2-4.8,4.8c0,2.7,2.2,4.8,4.8,4.8c2.7,0,4.8-2.2,4.8-4.8
				C388.8,418.4,386.6,416.3,383.9,416.3z"/>
		</g>
	</g>
	<g>
		<g>
			<path class="st0" d="M383.9,447.7c-2.7,0-4.8,2.2-4.8,4.8c0,2.7,2.2,4.8,4.8,4.8c2.7,0,4.8-2.2,4.8-4.8
				C388.8,449.9,386.6,447.7,383.9,447.7z"/>
		</g>
	</g>
	<g>
		<g>
			<path class="st0" d="M352.5,70.7c-2.7,0-4.8,2.2-4.8,4.8c0,2.7,2.2,4.8,4.8,4.8c2.7,0,4.8-2.2,4.8-4.8
				C357.3,72.9,355.2,70.7,352.5,70.7z"/>
		</g>
	</g>
	<g>
		<g>
			<path class="st0" d="M352.5,102.1c-2.7,0-4.8,2.2-4.8,4.8c0,2.7,2.2,4.8,4.8,4.8c2.7,0,4.8-2.2,4.8-4.8
				C357.3,104.3,355.2,102.1,352.5,102.1z"/>
		</g>
	</g>
	<g>
		<g>
			<path class="st0" d="M352.5,133.5c-2.7,0-4.8,2.2-4.8,4.8s2.2,4.8,4.8,4.8c2.7,0,4.8-2.2,4.8-4.8S355.2,133.5,352.5,133.5z"/>
		</g>
	</g>
	<g>
		<g>
			<path class="st0" d="M352.5,165c-2.7,0-4.8,2.2-4.8,4.8c0,2.7,2.2,4.8,4.8,4.8c2.7,0,4.8-2.2,4.8-4.8
				C357.3,167.1,355.2,165,352.5,165z"/>
		</g>
	</g>
	<g>
		<g>
			<path class="st0" d="M352.5,196.4c-2.7,0-4.8,2.2-4.8,4.8c0,2.7,2.2,4.8,4.8,4.8c2.7,0,4.8-2.2,4.8-4.8
				C357.3,198.5,355.2,196.4,352.5,196.4z"/>
		</g>
	</g>
	<g>
		<g>
			<path class="st0" d="M352.5,227.8c-2.7,0-4.8,2.2-4.8,4.8c0,2.7,2.2,4.8,4.8,4.8c2.7,0,4.8-2.2,4.8-4.8
				C357.3,230,355.2,227.8,352.5,227.8z"/>
		</g>
	</g>
	<g>
		<g>
			<path class="st0" d="M352.5,259.2c-2.7,0-4.8,2.2-4.8,4.8c0,2.7,2.2,4.8,4.8,4.8c2.7,0,4.8-2.2,4.8-4.8
				C357.3,261.4,355.2,259.2,352.5,259.2z"/>
		</g>
	</g>
	<g>
		<g>
			<path class="st0" d="M352.5,290.6c-2.7,0-4.8,2.2-4.8,4.8c0,2.7,2.2,4.8,4.8,4.8c2.7,0,4.8-2.2,4.8-4.8
				C357.3,292.8,355.2,290.6,352.5,290.6z"/>
		</g>
	</g>
	<g>
		<g>
			<path class="st0" d="M352.5,322c-2.7,0-4.8,2.2-4.8,4.8c0,2.7,2.2,4.8,4.8,4.8c2.7,0,4.8-2.2,4.8-4.8
				C357.3,324.2,355.2,322,352.5,322z"/>
		</g>
	</g>
	<g>
		<g>
			<path class="st0" d="M352.5,353.5c-2.7,0-4.8,2.2-4.8,4.8c0,2.7,2.2,4.8,4.8,4.8c2.7,0,4.8-2.2,4.8-4.8
				C357.3,355.6,355.2,353.5,352.5,353.5z"/>
		</g>
	</g>
	<g>
		<g>
			<path class="st0" d="M352.5,384.9c-2.7,0-4.8,2.2-4.8,4.8c0,2.7,2.2,4.8,4.8,4.8c2.7,0,4.8-2.2,4.8-4.8
				C357.3,387,355.2,384.9,352.5,384.9z"/>
		</g>
	</g>
	<g>
		<g>
			<path class="st0" d="M352.5,416.3c-2.7,0-4.8,2.2-4.8,4.8c0,2.7,2.2,4.8,4.8,4.8c2.7,0,4.8-2.2,4.8-4.8
				C357.3,418.4,355.2,416.3,352.5,416.3z"/>
		</g>
	</g>
	<g>
		<g>
			<path class="st0" d="M352.5,447.7c-2.7,0-4.8,2.2-4.8,4.8c0,2.7,2.2,4.8,4.8,4.8c2.7,0,4.8-2.2,4.8-4.8
				C357.3,449.9,355.2,447.7,352.5,447.7z"/>
		</g>
	</g>
	<g>
		<g>
			<path class="st0" d="M347.7,483.7c2.8-0.9,5.7-1.9,8.5-2.9c-0.9-1-2.2-1.7-3.7-1.7C349.9,479.1,347.8,481.1,347.7,483.7z"/>
		</g>
	</g>
	<g>
		<g>
			<path class="st0" d="M321.1,48.9c1.2,0,2.3-0.5,3.2-1.2c-2.5-0.5-4.9-0.9-7.4-1.3C317.7,47.9,319.3,48.9,321.1,48.9z"/>
		</g>
	</g>
	<g>
		<g>
			<path class="st0" d="M321.1,70.7c-2.7,0-4.8,2.2-4.8,4.8c0,2.7,2.2,4.8,4.8,4.8s4.8-2.2,4.8-4.8
				C325.9,72.9,323.8,70.7,321.1,70.7z"/>
		</g>
	</g>
	<g>
		<g>
			<path class="st0" d="M321.1,102.1c-2.7,0-4.8,2.2-4.8,4.8c0,2.7,2.2,4.8,4.8,4.8s4.8-2.2,4.8-4.8
				C325.9,104.3,323.8,102.1,321.1,102.1z"/>
		</g>
	</g>
	<g>
		<g>
			<path class="st0" d="M321.1,133.5c-2.7,0-4.8,2.2-4.8,4.8s2.2,4.8,4.8,4.8s4.8-2.2,4.8-4.8S323.8,133.5,321.1,133.5z"/>
		</g>
	</g>
	<g>
		<g>
			<path class="st0" d="M321.1,165c-2.7,0-4.8,2.2-4.8,4.8c0,2.7,2.2,4.8,4.8,4.8s4.8-2.2,4.8-4.8C325.9,167.1,323.8,165,321.1,165z
				"/>
		</g>
	</g>
	<g>
		<g>
			<path class="st0" d="M321.1,196.4c-2.7,0-4.8,2.2-4.8,4.8c0,2.7,2.2,4.8,4.8,4.8s4.8-2.2,4.8-4.8
				C325.9,198.5,323.8,196.4,321.1,196.4z"/>
		</g>
	</g>
	<g>
		<g>
			<path class="st0" d="M321.1,227.8c-2.7,0-4.8,2.2-4.8,4.8c0,2.7,2.2,4.8,4.8,4.8s4.8-2.2,4.8-4.8
				C325.9,230,323.8,227.8,321.1,227.8z"/>
		</g>
	</g>
	<g>
		<g>
			<path class="st0" d="M321.1,259.2c-2.7,0-4.8,2.2-4.8,4.8c0,2.7,2.2,4.8,4.8,4.8s4.8-2.2,4.8-4.8
				C325.9,261.4,323.8,259.2,321.1,259.2z"/>
		</g>
	</g>
	<g>
		<g>
			<path class="st0" d="M321.1,290.6c-2.7,0-4.8,2.2-4.8,4.8c0,2.7,2.2,4.8,4.8,4.8s4.8-2.2,4.8-4.8
				C325.9,292.8,323.8,290.6,321.1,290.6z"/>
		</g>
	</g>
	<g>
		<g>
			<path class="st0" d="M321.1,322c-2.7,0-4.8,2.2-4.8,4.8c0,2.7,2.2,4.8,4.8,4.8s4.8-2.2,4.8-4.8C325.9,324.2,323.8,322,321.1,322z
				"/>
		</g>
	</g>
	<g>
		<g>
			<path class="st0" d="M321.1,353.5c-2.7,0-4.8,2.2-4.8,4.8c0,2.7,2.2,4.8,4.8,4.8s4.8-2.2,4.8-4.8
				C325.9,355.6,323.8,353.5,321.1,353.5z"/>
		</g>
	</g>
	<g>
		<g>
			<path class="st0" d="M321.1,384.9c-2.7,0-4.8,2.2-4.8,4.8c0,2.7,2.2,4.8,4.8,4.8s4.8-2.2,4.8-4.8
				C325.9,387,323.8,384.9,321.1,384.9z"/>
		</g>
	</g>
	<g>
		<g>
			<path class="st0" d="M321.1,416.3c-2.7,0-4.8,2.2-4.8,4.8c0,2.7,2.2,4.8,4.8,4.8s4.8-2.2,4.8-4.8
				C325.9,418.4,323.8,416.3,321.1,416.3z"/>
		</g>
	</g>
	<g>
		<g>
			<path class="st0" d="M321.1,447.7c-2.7,0-4.8,2.2-4.8,4.8c0,2.7,2.2,4.8,4.8,4.8s4.8-2.2,4.8-4.8
				C325.9,449.9,323.8,447.7,321.1,447.7z"/>
		</g>
	</g>
	<g>
		<g>
			<path class="st0" d="M321.1,479.1c-2.7,0-4.8,2.2-4.8,4.8c0,2.7,2.2,4.8,4.8,4.8s4.8-2.2,4.8-4.8
				C325.9,481.3,323.8,479.1,321.1,479.1z"/>
		</g>
	</g>
	<g>
		<g>
			<path class="st0" d="M284.9,43.4c0,0.2-0.1,0.5-0.1,0.7c0,2.7,2.2,4.8,4.8,4.8c2.7,0,4.8-2.2,4.8-4.8c0-0.1,0-0.2,0-0.3
				C291.3,43.6,288.1,43.5,284.9,43.4z"/>
		</g>
	</g>
	<g>
		<g>
			<path class="st0" d="M289.7,70.7c-2.7,0-4.8,2.2-4.8,4.8c0,2.7,2.2,4.8,4.8,4.8c2.7,0,4.8-2.2,4.8-4.8
				C294.5,72.9,292.3,70.7,289.7,70.7z"/>
		</g>
	</g>
	<g>
		<g>
			<path class="st0" d="M289.7,102.1c-2.7,0-4.8,2.2-4.8,4.8c0,2.7,2.2,4.8,4.8,4.8c2.7,0,4.8-2.2,4.8-4.8
				C294.5,104.3,292.3,102.1,289.7,102.1z"/>
		</g>
	</g>
	<g>
		<g>
			<path class="st0" d="M289.7,133.5c-2.7,0-4.8,2.2-4.8,4.8s2.2,4.8,4.8,4.8c2.7,0,4.8-2.2,4.8-4.8S292.3,133.5,289.7,133.5z"/>
		</g>
	</g>
	<g>
		<g>
			<path class="st0" d="M289.7,165c-2.7,0-4.8,2.2-4.8,4.8c0,2.7,2.2,4.8,4.8,4.8c2.7,0,4.8-2.2,4.8-4.8
				C294.5,167.1,292.3,165,289.7,165z"/>
		</g>
	</g>
	<g>
		<g>
			<path class="st0" d="M289.7,196.4c-2.7,0-4.8,2.2-4.8,4.8c0,2.7,2.2,4.8,4.8,4.8c2.7,0,4.8-2.2,4.8-4.8
				C294.5,198.5,292.3,196.4,289.7,196.4z"/>
		</g>
	</g>
	<g>
		<g>
			<path class="st0" d="M289.7,227.8c-2.7,0-4.8,2.2-4.8,4.8c0,2.7,2.2,4.8,4.8,4.8c2.7,0,4.8-2.2,4.8-4.8
				C294.5,230,292.3,227.8,289.7,227.8z"/>
		</g>
	</g>
	<g>
		<g>
			<path class="st0" d="M289.7,259.2c-2.7,0-4.8,2.2-4.8,4.8c0,2.7,2.2,4.8,4.8,4.8c2.7,0,4.8-2.2,4.8-4.8
				C294.5,261.4,292.3,259.2,289.7,259.2z"/>
		</g>
	</g>
	<g>
		<g>
			<path class="st0" d="M289.7,290.6c-2.7,0-4.8,2.2-4.8,4.8c0,2.7,2.2,4.8,4.8,4.8c2.7,0,4.8-2.2,4.8-4.8
				C294.5,292.8,292.3,290.6,289.7,290.6z"/>
		</g>
	</g>
	<g>
		<g>
			<path class="st0" d="M289.7,322c-2.7,0-4.8,2.2-4.8,4.8c0,2.7,2.2,4.8,4.8,4.8c2.7,0,4.8-2.2,4.8-4.8
				C294.5,324.2,292.3,322,289.7,322z"/>
		</g>
	</g>
	<g>
		<g>
			<path class="st0" d="M289.7,353.5c-2.7,0-4.8,2.2-4.8,4.8c0,2.7,2.2,4.8,4.8,4.8c2.7,0,4.8-2.2,4.8-4.8
				C294.5,355.6,292.3,353.5,289.7,353.5z"/>
		</g>
	</g>
	<g>
		<g>
			<path class="st0" d="M289.7,384.9c-2.7,0-4.8,2.2-4.8,4.8c0,2.7,2.2,4.8,4.8,4.8c2.7,0,4.8-2.2,4.8-4.8
				C294.5,387,292.3,384.9,289.7,384.9z"/>
		</g>
	</g>
	<g>
		<g>
			<path class="st0" d="M289.7,416.3c-2.7,0-4.8,2.2-4.8,4.8c0,2.7,2.2,4.8,4.8,4.8c2.7,0,4.8-2.2,4.8-4.8
				C294.5,418.4,292.3,416.3,289.7,416.3z"/>
		</g>
	</g>
	<g>
		<g>
			<path class="st0" d="M289.7,447.7c-2.7,0-4.8,2.2-4.8,4.8c0,2.7,2.2,4.8,4.8,4.8c2.7,0,4.8-2.2,4.8-4.8
				C294.5,449.9,292.3,447.7,289.7,447.7z"/>
		</g>
	</g>
	<g>
		<g>
			<path class="st0" d="M289.7,479.1c-2.7,0-4.8,2.2-4.8,4.8c0,2.7,2.2,4.8,4.8,4.8c2.7,0,4.8-2.2,4.8-4.8
				C294.5,481.3,292.3,479.1,289.7,479.1z"/>
		</g>
	</g>
	<g>
		<g>
			<path class="st0" d="M253.5,44.8c0.4,2.3,2.3,4.1,4.8,4.1c2.7,0,4.8-2.2,4.8-4.8c0-0.1,0-0.1,0-0.2
				C259.9,44.2,256.7,44.5,253.5,44.8z"/>
		</g>
	</g>
	<g>
		<g>
			<path class="st0" d="M258.3,70.7c-2.7,0-4.8,2.2-4.8,4.8c0,2.7,2.2,4.8,4.8,4.8c2.7,0,4.8-2.2,4.8-4.8
				C263.1,72.9,260.9,70.7,258.3,70.7z"/>
		</g>
	</g>
	<g>
		<g>
			<path class="st0" d="M258.3,102.1c-2.7,0-4.8,2.2-4.8,4.8c0,2.7,2.2,4.8,4.8,4.8c2.7,0,4.8-2.2,4.8-4.8
				C263.1,104.3,260.9,102.1,258.3,102.1z"/>
		</g>
	</g>
	<g>
		<g>
			<path class="st0" d="M258.3,133.5c-2.7,0-4.8,2.2-4.8,4.8s2.2,4.8,4.8,4.8c2.7,0,4.8-2.2,4.8-4.8S260.9,133.5,258.3,133.5z"/>
		</g>
	</g>
	<g>
		<g>
			<path class="st0" d="M258.3,165c-2.7,0-4.8,2.2-4.8,4.8c0,2.7,2.2,4.8,4.8,4.8c2.7,0,4.8-2.2,4.8-4.8
				C263.1,167.1,260.9,165,258.3,165z"/>
		</g>
	</g>
	<g>
		<g>
			<path class="st0" d="M258.3,196.4c-2.7,0-4.8,2.2-4.8,4.8c0,2.7,2.2,4.8,4.8,4.8c2.7,0,4.8-2.2,4.8-4.8
				C263.1,198.5,260.9,196.4,258.3,196.4z"/>
		</g>
	</g>
	<g>
		<g>
			<path class="st0" d="M258.3,227.8c-2.7,0-4.8,2.2-4.8,4.8c0,2.7,2.2,4.8,4.8,4.8c2.7,0,4.8-2.2,4.8-4.8
				C263.1,230,260.9,227.8,258.3,227.8z"/>
		</g>
	</g>
	<g>
		<g>
			<path class="st0" d="M258.3,259.2c-2.7,0-4.8,2.2-4.8,4.8c0,2.7,2.2,4.8,4.8,4.8c2.7,0,4.8-2.2,4.8-4.8
				C263.1,261.4,260.9,259.2,258.3,259.2z"/>
		</g>
	</g>
	<g>
		<g>
			<path class="st0" d="M258.3,290.6c-2.7,0-4.8,2.2-4.8,4.8c0,2.7,2.2,4.8,4.8,4.8c2.7,0,4.8-2.2,4.8-4.8
				C263.1,292.8,260.9,290.6,258.3,290.6z"/>
		</g>
	</g>
	<g>
		<g>
			<path class="st0" d="M258.3,322c-2.7,0-4.8,2.2-4.8,4.8c0,2.7,2.2,4.8,4.8,4.8c2.7,0,4.8-2.2,4.8-4.8
				C263.1,324.2,260.9,322,258.3,322z"/>
		</g>
	</g>
	<g>
		<g>
			<path class="st0" d="M258.3,353.5c-2.7,0-4.8,2.2-4.8,4.8c0,2.7,2.2,4.8,4.8,4.8c2.7,0,4.8-2.2,4.8-4.8
				C263.1,355.6,260.9,353.5,258.3,353.5z"/>
		</g>
	</g>
	<g>
		<g>
			<path class="st0" d="M258.3,384.9c-2.7,0-4.8,2.2-4.8,4.8c0,2.7,2.2,4.8,4.8,4.8c2.7,0,4.8-2.2,4.8-4.8
				C263.1,387,260.9,384.9,258.3,384.9z"/>
		</g>
	</g>
	<g>
		<g>
			<path class="st0" d="M258.3,416.3c-2.7,0-4.8,2.2-4.8,4.8c0,2.7,2.2,4.8,4.8,4.8c2.7,0,4.8-2.2,4.8-4.8
				C263.1,418.4,260.9,416.3,258.3,416.3z"/>
		</g>
	</g>
	<g>
		<g>
			<path class="st0" d="M258.3,447.7c-2.7,0-4.8,2.2-4.8,4.8c0,2.7,2.2,4.8,4.8,4.8c2.7,0,4.8-2.2,4.8-4.8
				C263.1,449.9,260.9,447.7,258.3,447.7z"/>
		</g>
	</g>
	<g>
		<g>
			<path class="st0" d="M258.3,479.1c-2.7,0-4.8,2.2-4.8,4.8c0,2.7,2.2,4.8,4.8,4.8c2.7,0,4.8-2.2,4.8-4.8
				C263.1,481.3,260.9,479.1,258.3,479.1z"/>
		</g>
	</g>
	<g>
		<g>
			<path class="st0" d="M226.9,70.7c-2.7,0-4.8,2.2-4.8,4.8c0,2.7,2.2,4.8,4.8,4.8c2.7,0,4.8-2.2,4.8-4.8
				C231.7,72.9,229.5,70.7,226.9,70.7z"/>
		</g>
	</g>
	<g>
		<g>
			<path class="st0" d="M226.9,102.1c-2.7,0-4.8,2.2-4.8,4.8c0,2.7,2.2,4.8,4.8,4.8c2.7,0,4.8-2.2,4.8-4.8
				C231.7,104.3,229.5,102.1,226.9,102.1z"/>
		</g>
	</g>
	<g>
		<g>
			<path class="st0" d="M226.9,133.5c-2.7,0-4.8,2.2-4.8,4.8s2.2,4.8,4.8,4.8c2.7,0,4.8-2.2,4.8-4.8S229.5,133.5,226.9,133.5z"/>
		</g>
	</g>
	<g>
		<g>
			<path class="st0" d="M226.9,165c-2.7,0-4.8,2.2-4.8,4.8c0,2.7,2.2,4.8,4.8,4.8c2.7,0,4.8-2.2,4.8-4.8
				C231.7,167.1,229.5,165,226.9,165z"/>
		</g>
	</g>
	<g>
		<g>
			<path class="st0" d="M226.9,196.4c-2.7,0-4.8,2.2-4.8,4.8c0,2.7,2.2,4.8,4.8,4.8c2.7,0,4.8-2.2,4.8-4.8
				C231.7,198.5,229.5,196.4,226.9,196.4z"/>
		</g>
	</g>
	<g>
		<g>
			<path class="st0" d="M226.9,227.8c-2.7,0-4.8,2.2-4.8,4.8c0,2.7,2.2,4.8,4.8,4.8c2.7,0,4.8-2.2,4.8-4.8
				C231.7,230,229.5,227.8,226.9,227.8z"/>
		</g>
	</g>
	<g>
		<g>
			<path class="st0" d="M226.9,259.2c-2.7,0-4.8,2.2-4.8,4.8c0,2.7,2.2,4.8,4.8,4.8c2.7,0,4.8-2.2,4.8-4.8
				C231.7,261.4,229.5,259.2,226.9,259.2z"/>
		</g>
	</g>
	<g>
		<g>
			<path class="st0" d="M226.9,290.6c-2.7,0-4.8,2.2-4.8,4.8c0,2.7,2.2,4.8,4.8,4.8c2.7,0,4.8-2.2,4.8-4.8
				C231.7,292.8,229.5,290.6,226.9,290.6z"/>
		</g>
	</g>
	<g>
		<g>
			<path class="st0" d="M226.9,322c-2.7,0-4.8,2.2-4.8,4.8c0,2.7,2.2,4.8,4.8,4.8c2.7,0,4.8-2.2,4.8-4.8
				C231.7,324.2,229.5,322,226.9,322z"/>
		</g>
	</g>
	<g>
		<g>
			<path class="st0" d="M226.9,353.5c-2.7,0-4.8,2.2-4.8,4.8c0,2.7,2.2,4.8,4.8,4.8c2.7,0,4.8-2.2,4.8-4.8
				C231.7,355.6,229.5,353.5,226.9,353.5z"/>
		</g>
	</g>
	<g>
		<g>
			<path class="st0" d="M226.9,384.9c-2.7,0-4.8,2.2-4.8,4.8c0,2.7,2.2,4.8,4.8,4.8c2.7,0,4.8-2.2,4.8-4.8
				C231.7,387,229.5,384.9,226.9,384.9z"/>
		</g>
	</g>
	<g>
		<g>
			<path class="st0" d="M226.9,416.3c-2.7,0-4.8,2.2-4.8,4.8c0,2.7,2.2,4.8,4.8,4.8c2.7,0,4.8-2.2,4.8-4.8
				C231.7,418.4,229.5,416.3,226.9,416.3z"/>
		</g>
	</g>
	<g>
		<g>
			<path class="st0" d="M226.9,447.7c-2.7,0-4.8,2.2-4.8,4.8c0,2.7,2.2,4.8,4.8,4.8c2.7,0,4.8-2.2,4.8-4.8
				C231.7,449.9,229.5,447.7,226.9,447.7z"/>
		</g>
	</g>
	<g>
		<g>
			<path class="st0" d="M226.9,479.1c-2.7,0-4.8,2.2-4.8,4.8c0,1.2,0.4,2.2,1.1,3c1.9,0.5,3.8,0.9,5.7,1.3c1.7-0.8,2.8-2.4,2.8-4.4
				C231.7,481.3,229.5,479.1,226.9,479.1z"/>
		</g>
	</g>
	<g>
		<g>
			<path class="st0" d="M195.4,70.7c-2.7,0-4.8,2.2-4.8,4.8c0,2.7,2.2,4.8,4.8,4.8s4.8-2.2,4.8-4.8
				C200.3,72.9,198.1,70.7,195.4,70.7z"/>
		</g>
	</g>
	<g>
		<g>
			<path class="st0" d="M195.4,102.1c-2.7,0-4.8,2.2-4.8,4.8c0,2.7,2.2,4.8,4.8,4.8s4.8-2.2,4.8-4.8
				C200.3,104.3,198.1,102.1,195.4,102.1z"/>
		</g>
	</g>
	<g>
		<g>
			<path class="st0" d="M195.4,133.5c-2.7,0-4.8,2.2-4.8,4.8s2.2,4.8,4.8,4.8s4.8-2.2,4.8-4.8S198.1,133.5,195.4,133.5z"/>
		</g>
	</g>
	<g>
		<g>
			<path class="st0" d="M195.4,165c-2.7,0-4.8,2.2-4.8,4.8c0,2.7,2.2,4.8,4.8,4.8s4.8-2.2,4.8-4.8C200.3,167.1,198.1,165,195.4,165z
				"/>
		</g>
	</g>
	<g>
		<g>
			<path class="st0" d="M195.4,196.4c-2.7,0-4.8,2.2-4.8,4.8c0,2.7,2.2,4.8,4.8,4.8s4.8-2.2,4.8-4.8
				C200.3,198.5,198.1,196.4,195.4,196.4z"/>
		</g>
	</g>
	<g>
		<g>
			<path class="st0" d="M195.4,227.8c-2.7,0-4.8,2.2-4.8,4.8c0,2.7,2.2,4.8,4.8,4.8s4.8-2.2,4.8-4.8
				C200.3,230,198.1,227.8,195.4,227.8z"/>
		</g>
	</g>
	<g>
		<g>
			<path class="st0" d="M195.4,259.2c-2.7,0-4.8,2.2-4.8,4.8c0,2.7,2.2,4.8,4.8,4.8s4.8-2.2,4.8-4.8
				C200.3,261.4,198.1,259.2,195.4,259.2z"/>
		</g>
	</g>
	<g>
		<g>
			<path class="st0" d="M195.4,290.6c-2.7,0-4.8,2.2-4.8,4.8c0,2.7,2.2,4.8,4.8,4.8s4.8-2.2,4.8-4.8
				C200.3,292.8,198.1,290.6,195.4,290.6z"/>
		</g>
	</g>
	<g>
		<g>
			<path class="st0" d="M195.4,322c-2.7,0-4.8,2.2-4.8,4.8c0,2.7,2.2,4.8,4.8,4.8s4.8-2.2,4.8-4.8C200.3,324.2,198.1,322,195.4,322z
				"/>
		</g>
	</g>
	<g>
		<g>
			<path class="st0" d="M195.4,353.5c-2.7,0-4.8,2.2-4.8,4.8c0,2.7,2.2,4.8,4.8,4.8s4.8-2.2,4.8-4.8
				C200.3,355.6,198.1,353.5,195.4,353.5z"/>
		</g>
	</g>
	<g>
		<g>
			<path class="st0" d="M195.4,384.9c-2.7,0-4.8,2.2-4.8,4.8c0,2.7,2.2,4.8,4.8,4.8s4.8-2.2,4.8-4.8
				C200.3,387,198.1,384.9,195.4,384.9z"/>
		</g>
	</g>
	<g>
		<g>
			<path class="st0" d="M195.4,416.3c-2.7,0-4.8,2.2-4.8,4.8c0,2.7,2.2,4.8,4.8,4.8s4.8-2.2,4.8-4.8
				C200.3,418.4,198.1,416.3,195.4,416.3z"/>
		</g>
	</g>
	<g>
		<g>
			<path class="st0" d="M195.4,447.7c-2.7,0-4.8,2.2-4.8,4.8c0,2.7,2.2,4.8,4.8,4.8s4.8-2.2,4.8-4.8
				C200.3,449.9,198.1,447.7,195.4,447.7z"/>
		</g>
	</g>
	<g>
		<g>
			<path class="st0" d="M159.8,77.9c0.8,1.5,2.4,2.5,4.2,2.5c2.7,0,4.8-2.2,4.8-4.8c0-1-0.3-1.9-0.8-2.6
				C165.3,74.5,162.5,76.1,159.8,77.9z"/>
		</g>
	</g>
	<g>
		<g>
			<path class="st0" d="M164,102.1c-2.7,0-4.8,2.2-4.8,4.8c0,2.7,2.2,4.8,4.8,4.8c2.7,0,4.8-2.2,4.8-4.8
				C168.8,104.3,166.7,102.1,164,102.1z"/>
		</g>
	</g>
	<g>
		<g>
			<path class="st0" d="M164,133.5c-2.7,0-4.8,2.2-4.8,4.8s2.2,4.8,4.8,4.8c2.7,0,4.8-2.2,4.8-4.8S166.7,133.5,164,133.5z"/>
		</g>
	</g>
	<g>
		<g>
			<path class="st0" d="M164,165c-2.7,0-4.8,2.2-4.8,4.8c0,2.7,2.2,4.8,4.8,4.8c2.7,0,4.8-2.2,4.8-4.8
				C168.8,167.1,166.7,165,164,165z"/>
		</g>
	</g>
	<g>
		<g>
			<path class="st0" d="M164,196.4c-2.7,0-4.8,2.2-4.8,4.8c0,2.7,2.2,4.8,4.8,4.8c2.7,0,4.8-2.2,4.8-4.8
				C168.8,198.5,166.7,196.4,164,196.4z"/>
		</g>
	</g>
	<g>
		<g>
			<path class="st0" d="M164,227.8c-2.7,0-4.8,2.2-4.8,4.8c0,2.7,2.2,4.8,4.8,4.8c2.7,0,4.8-2.2,4.8-4.8
				C168.8,230,166.7,227.8,164,227.8z"/>
		</g>
	</g>
	<g>
		<g>
			<path class="st0" d="M164,259.2c-2.7,0-4.8,2.2-4.8,4.8c0,2.7,2.2,4.8,4.8,4.8c2.7,0,4.8-2.2,4.8-4.8
				C168.8,261.4,166.7,259.2,164,259.2z"/>
		</g>
	</g>
	<g>
		<g>
			<path class="st0" d="M164,290.6c-2.7,0-4.8,2.2-4.8,4.8c0,2.7,2.2,4.8,4.8,4.8c2.7,0,4.8-2.2,4.8-4.8
				C168.8,292.8,166.7,290.6,164,290.6z"/>
		</g>
	</g>
	<g>
		<g>
			<path class="st0" d="M164,322c-2.7,0-4.8,2.2-4.8,4.8c0,2.7,2.2,4.8,4.8,4.8c2.7,0,4.8-2.2,4.8-4.8
				C168.8,324.2,166.7,322,164,322z"/>
		</g>
	</g>
	<g>
		<g>
			<path class="st0" d="M164,353.5c-2.7,0-4.8,2.2-4.8,4.8c0,2.7,2.2,4.8,4.8,4.8c2.7,0,4.8-2.2,4.8-4.8
				C168.8,355.6,166.7,353.5,164,353.5z"/>
		</g>
	</g>
	<g>
		<g>
			<path class="st0" d="M164,384.9c-2.7,0-4.8,2.2-4.8,4.8c0,2.7,2.2,4.8,4.8,4.8c2.7,0,4.8-2.2,4.8-4.8
				C168.8,387,166.7,384.9,164,384.9z"/>
		</g>
	</g>
	<g>
		<g>
			<path class="st0" d="M164,416.3c-2.7,0-4.8,2.2-4.8,4.8c0,2.7,2.2,4.8,4.8,4.8c2.7,0,4.8-2.2,4.8-4.8
				C168.8,418.4,166.7,416.3,164,416.3z"/>
		</g>
	</g>
	<g>
		<g>
			<path class="st0" d="M164,447.7c-2.7,0-4.8,2.2-4.8,4.8c0,2.7,2.2,4.8,4.8,4.8c2.7,0,4.8-2.2,4.8-4.8
				C168.8,449.9,166.7,447.7,164,447.7z"/>
		</g>
	</g>
	<g>
		<g>
			<path class="st0" d="M132.6,102.1c-2.7,0-4.8,2.2-4.8,4.8c0,2.7,2.2,4.8,4.8,4.8c2.7,0,4.8-2.2,4.8-4.8
				C137.4,104.3,135.3,102.1,132.6,102.1z"/>
		</g>
	</g>
	<g>
		<g>
			<path class="st0" d="M132.6,133.5c-2.7,0-4.8,2.2-4.8,4.8s2.2,4.8,4.8,4.8c2.7,0,4.8-2.2,4.8-4.8S135.3,133.5,132.6,133.5z"/>
		</g>
	</g>
	<g>
		<g>
			<path class="st0" d="M132.6,165c-2.7,0-4.8,2.2-4.8,4.8c0,2.7,2.2,4.8,4.8,4.8c2.7,0,4.8-2.2,4.8-4.8
				C137.4,167.1,135.3,165,132.6,165z"/>
		</g>
	</g>
	<g>
		<g>
			<path class="st0" d="M132.6,196.4c-2.7,0-4.8,2.2-4.8,4.8c0,2.7,2.2,4.8,4.8,4.8c2.7,0,4.8-2.2,4.8-4.8
				C137.4,198.5,135.3,196.4,132.6,196.4z"/>
		</g>
	</g>
	<g>
		<g>
			<path class="st0" d="M132.6,227.8c-2.7,0-4.8,2.2-4.8,4.8c0,2.7,2.2,4.8,4.8,4.8c2.7,0,4.8-2.2,4.8-4.8
				C137.4,230,135.3,227.8,132.6,227.8z"/>
		</g>
	</g>
	<g>
		<g>
			<path class="st0" d="M132.6,259.2c-2.7,0-4.8,2.2-4.8,4.8c0,2.7,2.2,4.8,4.8,4.8c2.7,0,4.8-2.2,4.8-4.8
				C137.4,261.4,135.3,259.2,132.6,259.2z"/>
		</g>
	</g>
	<g>
		<g>
			<path class="st0" d="M132.6,290.6c-2.7,0-4.8,2.2-4.8,4.8c0,2.7,2.2,4.8,4.8,4.8c2.7,0,4.8-2.2,4.8-4.8
				C137.4,292.8,135.3,290.6,132.6,290.6z"/>
		</g>
	</g>
	<g>
		<g>
			<path class="st0" d="M132.6,322c-2.7,0-4.8,2.2-4.8,4.8c0,2.7,2.2,4.8,4.8,4.8c2.7,0,4.8-2.2,4.8-4.8
				C137.4,324.2,135.3,322,132.6,322z"/>
		</g>
	</g>
	<g>
		<g>
			<path class="st0" d="M132.6,353.5c-2.7,0-4.8,2.2-4.8,4.8c0,2.7,2.2,4.8,4.8,4.8c2.7,0,4.8-2.2,4.8-4.8
				C137.4,355.6,135.3,353.5,132.6,353.5z"/>
		</g>
	</g>
	<g>
		<g>
			<path class="st0" d="M132.6,384.9c-2.7,0-4.8,2.2-4.8,4.8c0,2.7,2.2,4.8,4.8,4.8c2.7,0,4.8-2.2,4.8-4.8
				C137.4,387,135.3,384.9,132.6,384.9z"/>
		</g>
	</g>
	<g>
		<g>
			<path class="st0" d="M132.6,416.3c-2.7,0-4.8,2.2-4.8,4.8c0,2.7,2.2,4.8,4.8,4.8c2.7,0,4.8-2.2,4.8-4.8
				C137.4,418.4,135.3,416.3,132.6,416.3z"/>
		</g>
	</g>
	<g>
		<g>
			<path class="st0" d="M101.2,133.5c-0.9,0-1.7,0.2-2.4,0.6c-0.8,1.1-1.6,2.2-2.4,3.4c0,0.3-0.1,0.5-0.1,0.8c0,2.7,2.2,4.8,4.8,4.8
				c2.7,0,4.8-2.2,4.8-4.8S103.9,133.5,101.2,133.5z"/>
		</g>
	</g>
	<g>
		<g>
			<path class="st0" d="M101.2,165c-2.7,0-4.8,2.2-4.8,4.8c0,2.7,2.2,4.8,4.8,4.8c2.7,0,4.8-2.2,4.8-4.8
				C106,167.1,103.9,165,101.2,165z"/>
		</g>
	</g>
	<g>
		<g>
			<path class="st0" d="M101.2,196.4c-2.7,0-4.8,2.2-4.8,4.8c0,2.7,2.2,4.8,4.8,4.8c2.7,0,4.8-2.2,4.8-4.8
				C106,198.5,103.9,196.4,101.2,196.4z"/>
		</g>
	</g>
	<g>
		<g>
			<path class="st0" d="M101.2,227.8c-2.7,0-4.8,2.2-4.8,4.8c0,2.7,2.2,4.8,4.8,4.8c2.7,0,4.8-2.2,4.8-4.8
				C106,230,103.9,227.8,101.2,227.8z"/>
		</g>
	</g>
	<g>
		<g>
			<path class="st0" d="M101.2,259.2c-2.7,0-4.8,2.2-4.8,4.8c0,2.7,2.2,4.8,4.8,4.8c2.7,0,4.8-2.2,4.8-4.8
				C106,261.4,103.9,259.2,101.2,259.2z"/>
		</g>
	</g>
	<g>
		<g>
			<path class="st0" d="M101.2,290.6c-2.7,0-4.8,2.2-4.8,4.8c0,2.7,2.2,4.8,4.8,4.8c2.7,0,4.8-2.2,4.8-4.8
				C106,292.8,103.9,290.6,101.2,290.6z"/>
		</g>
	</g>
	<g>
		<g>
			<path class="st0" d="M101.2,322c-2.7,0-4.8,2.2-4.8,4.8c0,2.7,2.2,4.8,4.8,4.8c2.7,0,4.8-2.2,4.8-4.8
				C106,324.2,103.9,322,101.2,322z"/>
		</g>
	</g>
	<g>
		<g>
			<path class="st0" d="M101.2,353.5c-2.7,0-4.8,2.2-4.8,4.8c0,2.7,2.2,4.8,4.8,4.8c2.7,0,4.8-2.2,4.8-4.8
				C106,355.6,103.9,353.5,101.2,353.5z"/>
		</g>
	</g>
	<g>
		<g>
			<path class="st0" d="M101.2,384.9c-2.7,0-4.8,2.2-4.8,4.8c0,2.7,2.2,4.8,4.8,4.8c2.7,0,4.8-2.2,4.8-4.8
				C106,387,103.9,384.9,101.2,384.9z"/>
		</g>
	</g>
	<g>
		<g>
			<path class="st0" d="M69.8,196.4c-2.7,0-4.8,2.2-4.8,4.8c0,2.7,2.2,4.8,4.8,4.8c2.7,0,4.8-2.2,4.8-4.8
				C74.6,198.5,72.4,196.4,69.8,196.4z"/>
		</g>
	</g>
	<g>
		<g>
			<path class="st0" d="M69.8,227.8c-2.7,0-4.8,2.2-4.8,4.8c0,2.7,2.2,4.8,4.8,4.8c2.7,0,4.8-2.2,4.8-4.8
				C74.6,230,72.4,227.8,69.8,227.8z"/>
		</g>
	</g>
	<g>
		<g>
			<path class="st0" d="M69.8,259.2c-2.7,0-4.8,2.2-4.8,4.8c0,2.7,2.2,4.8,4.8,4.8c2.7,0,4.8-2.2,4.8-4.8
				C74.6,261.4,72.4,259.2,69.8,259.2z"/>
		</g>
	</g>
	<g>
		<g>
			<path class="st0" d="M69.8,290.6c-2.7,0-4.8,2.2-4.8,4.8c0,2.7,2.2,4.8,4.8,4.8c2.7,0,4.8-2.2,4.8-4.8
				C74.6,292.8,72.4,290.6,69.8,290.6z"/>
		</g>
	</g>
	<g>
		<g>
			<path class="st0" d="M69.8,322c-2.7,0-4.8,2.2-4.8,4.8c0,2.7,2.2,4.8,4.8,4.8c2.7,0,4.8-2.2,4.8-4.8
				C74.6,324.2,72.4,322,69.8,322z"/>
		</g>
	</g>
	<g>
		<g>
			<path class="st0" d="M70.9,353.6c1,2.4,2,4.8,3,7.1c0.4-0.7,0.7-1.5,0.7-2.4C74.6,356,73,354.1,70.9,353.6z"/>
		</g>
	</g>
</g>
</svg>
