<?xml version="1.0" encoding="utf-8"?>
<!-- Generator: Adobe Illustrator 23.0.1, SVG Export Plug-In . SVG Version: 6.00 Build 0)  -->
<svg version="1.1" id="圖層_1" xmlns="http://www.w3.org/2000/svg" xmlns:xlink="http://www.w3.org/1999/xlink" x="0px" y="0px"
	 viewBox="0 0 200 200" style="enable-background:new 0 0 200 200;" xml:space="preserve">
<style type="text/css">
	.st0{clip-path:url(#SVGID_2_);}
	.st1{clip-path:url(#SVGID_4_);fill:#2D4773;}
	.st2{clip-path:url(#SVGID_4_);fill:#C43826;}
	.st3{clip-path:url(#SVGID_6_);}
	.st4{clip-path:url(#SVGID_8_);fill:#C43826;}
	.st5{clip-path:url(#SVGID_8_);fill:#2D4773;}
	.st6{clip-path:url(#SVGID_8_);fill:#FFFFFF;}
	.st7{clip-path:url(#SVGID_10_);}
	.st8{clip-path:url(#SVGID_12_);fill:#2D4773;}
	.st9{clip-path:url(#SVGID_14_);fill:#C43826;}
	.st10{clip-path:url(#SVGID_16_);fill:#2D4773;}
</style>
<g>
	<g>
		<defs>
			<rect id="SVGID_5_" x="13" y="13" width="173.9" height="173.9"/>
		</defs>
		<clipPath id="SVGID_2_">
			<use xlink:href="#SVGID_5_"  style="overflow:visible;"/>
		</clipPath>
		<g class="st0">
			<defs>
				<rect id="SVGID_7_" x="13" y="13" width="173.9" height="173.9"/>
			</defs>
			<clipPath id="SVGID_4_">
				<use xlink:href="#SVGID_7_"  style="overflow:visible;"/>
			</clipPath>
			<path class="st2" d="M67.2,164.2c-9.9,0-19.8-2.7-28.6-8.2l-18,4.8c-1.2,0.3-2.6,0-3.5-0.9c-0.9-0.9-1.3-2.2-0.9-3.5l4.8-18
				c-7.3-11.8-9.7-25.7-6.9-39.3C17.1,85,25.4,72.8,37.4,64.8c24.9-16.4,58.6-9.5,75,15.5c8,12.1,10.7,26.5,7.8,40.7
				c-2.9,14.2-11.2,26.4-23.3,34.3C87.9,161.3,77.6,164.2,67.2,164.2 M39.3,148.6c0.7,0,1.4,0.2,2,0.6c15.7,10.4,36,10.5,51.8,0.1
				c10.5-6.9,17.6-17.5,20.2-29.7c2.5-12.3,0.1-24.8-6.8-35.3C92.2,62.6,63,56.6,41.4,70.9c-10.5,6.9-17.6,17.5-20.2,29.7
				c-2.5,12.3-0.1,24.8,6.8,35.3c0.6,0.9,0.7,1.9,0.5,2.9l-3.6,13.5l13.5-3.6C38.6,148.6,38.9,148.6,39.3,148.6"/>
			<path class="st1" d="M97.4,122.8c0-21.4,17.4-38.8,38.8-38.8c21.4,0,38.8,17.4,38.8,38.8c0,7.6-2.2,15.1-6.5,21.4l4,15l-15-4
				c-17.9,11.8-41.9,6.8-53.7-11.1C99.6,137.7,97.4,130.3,97.4,122.8"/>
			<path class="st2" d="M58.7,111l12.4,3.5c2.4,0.7,3.8,3.2,3.1,5.6c-0.6,1.9-2.3,3.3-4.3,3.3h-8.1c-1.8,0-3.5-0.6-5-1.6
				c-0.7-0.5-1.6-0.3-2.2,0.3l-2.5,2.5c-0.7,0.7-0.7,1.8,0,2.5c0.1,0.1,0.1,0.1,0.2,0.2c2.7,2.1,6,3.2,9.4,3.2h0.3v5.3
				c0,1,0.8,1.8,1.8,1.8h3.5c1,0,1.8-0.8,1.8-1.8v-5.3h0.3c5,0.1,9.6-3,11.4-7.7c2.1-6.1-1.1-12.7-7.2-14.7
				c-0.2-0.1-0.4-0.1-0.5-0.2l-13-3.7c-2.4-0.7-3.8-3.2-3.1-5.6c0.6-1.9,2.3-3.3,4.3-3.3h8.1c1.8,0,3.5,0.6,5,1.6
				c0.7,0.5,1.6,0.3,2.2-0.3l2.5-2.5c0.7-0.7,0.7-1.8,0-2.5c-0.1-0.1-0.1-0.1-0.2-0.2c-2.7-2.1-6-3.2-9.4-3.2h-0.3v-5.3
				c0-1-0.8-1.8-1.8-1.8h-3.5c-1,0-1.8,0.8-1.8,1.8v5.3h-0.8c-6.4,0-11.5,5.2-11.5,11.6c0,0.4,0,0.7,0.1,1.1
				C50.4,105.7,54,109.7,58.7,111"/>
			<path style="clip-path:url(#SVGID_4_);fill:#FFFFFF;" d="M121.4,121.4c2,0,3.6,1.6,3.6,3.6c0,2-1.6,3.6-3.6,3.6s-3.6-1.6-3.6-3.6
				C117.8,123,119.4,121.4,121.4,121.4"/>
			<path style="clip-path:url(#SVGID_4_);fill:#FFFFFF;" d="M149.8,121.4c2,0,3.6,1.6,3.6,3.6c0,2-1.6,3.6-3.6,3.6
				c-2,0-3.6-1.6-3.6-3.6C146.2,123,147.8,121.4,149.8,121.4"/>
			<path style="clip-path:url(#SVGID_4_);fill:#FFFFFF;" d="M135.6,121.4c2,0,3.6,1.6,3.6,3.6c0,2-1.6,3.6-3.6,3.6S132,127,132,125
				C132,123,133.6,121.4,135.6,121.4"/>
			<path class="st1" d="M165,87.1c-0.5,0-1-0.1-1.4-0.4c-1.4-0.8-1.9-2.6-1.1-3.9l8.6-15c0.8-1.4,2.6-1.9,3.9-1.1
				c1.4,0.8,1.9,2.6,1.1,3.9l-8.6,15C167,86.6,166,87.1,165,87.1"/>
			<path class="st1" d="M177.2,93.5c-0.7,0-1.5-0.3-2-0.8c-1.1-1.1-1.1-2.9,0-4.1l6.8-6.8c1.1-1.1,2.9-1.1,4.1,0
				c1.1,1.1,1.1,2.9,0,4.1l-6.8,6.8C178.7,93.2,178,93.5,177.2,93.5"/>
			<path class="st1" d="M153.4,79.8c-0.2,0-0.5,0-0.7-0.1c-1.5-0.4-2.4-2-2-3.5l2.5-9.3c0.4-1.5,2-2.4,3.5-2c1.5,0.4,2.5,2,2,3.5
				l-2.5,9.3C155.8,78.9,154.7,79.8,153.4,79.8"/>
		</g>
	</g>
</g>
</svg>
