<?xml version="1.0" encoding="utf-8"?>
<!-- Generator: Adobe Illustrator 23.0.1, SVG Export Plug-In . SVG Version: 6.00 Build 0)  -->
<svg version="1.1" id="圖層_1" xmlns="http://www.w3.org/2000/svg" xmlns:xlink="http://www.w3.org/1999/xlink" x="0px" y="0px"
	 viewBox="0 0 200 200" style="enable-background:new 0 0 200 200;" xml:space="preserve">
<style type="text/css">
	.st0{clip-path:url(#SVGID_2_);}
	.st1{clip-path:url(#SVGID_4_);fill:#2D4773;}
	.st2{clip-path:url(#SVGID_4_);fill:#C43826;}
	.st3{clip-path:url(#SVGID_6_);}
	.st4{clip-path:url(#SVGID_8_);fill:#C43826;}
	.st5{clip-path:url(#SVGID_8_);fill:#2D4773;}
	.st6{clip-path:url(#SVGID_8_);fill:#FFFFFF;}
	.st7{clip-path:url(#SVGID_10_);}
	.st8{clip-path:url(#SVGID_12_);fill:#2D4773;}
	.st9{clip-path:url(#SVGID_14_);fill:#C43826;}
	.st10{clip-path:url(#SVGID_16_);fill:#2D4773;}
</style>
<g>
	<g>
		<defs>
			<rect id="SVGID_9_" x="11" y="11" width="178.1" height="178.1"/>
		</defs>
		<clipPath id="SVGID_2_">
			<use xlink:href="#SVGID_9_"  style="overflow:visible;"/>
		</clipPath>
		<g class="st0">
			<defs>
				<rect id="SVGID_11_" x="11" y="11" width="178.1" height="178.1"/>
			</defs>
			<clipPath id="SVGID_4_">
				<use xlink:href="#SVGID_11_"  style="overflow:visible;"/>
			</clipPath>
			<path class="st1" d="M35.5,75.8c-1,0-1.9-0.5-2.5-1.3L22.7,59.3c-0.9-1.4-0.6-3.3,0.8-4.2c1.4-0.9,3.3-0.6,4.2,0.8L38,71
				c0.9,1.4,0.6,3.3-0.8,4.2C36.7,75.6,36.1,75.8,35.5,75.8"/>
			<path class="st1" d="M47.2,67.1c-1.3,0-2.5-0.8-2.9-2.1L41,55.3c-0.5-1.6,0.3-3.3,1.9-3.9c1.6-0.5,3.3,0.3,3.9,1.9l3.3,9.7
				c0.5,1.6-0.3,3.3-1.9,3.9C47.9,67,47.6,67.1,47.2,67.1"/>
			<path class="st1" d="M23.1,83.4c-0.7,0-1.4-0.2-2-0.7l-7.7-6.7c-1.3-1.1-1.4-3-0.3-4.3c1.1-1.3,3-1.4,4.3-0.3l7.7,6.7
				c1.3,1.1,1.4,3,0.3,4.3C24.8,83.1,23.9,83.4,23.1,83.4"/>
		</g>
		<g class="st0">
			<defs>
				
					<rect id="SVGID_13_" x="30.7" y="65.4" transform="matrix(0.259 -0.9659 0.9659 0.259 -38.8854 169.9843)" width="121.3" height="89.9"/>
			</defs>
			<clipPath id="SVGID_6_">
				<use xlink:href="#SVGID_13_"  style="overflow:visible;"/>
			</clipPath>
			<path style="clip-path:url(#SVGID_6_);fill:#C43826;" d="M137.4,66c3.2,0.9,5.1,4.2,4.3,7.4l-25.2,94.1c-0.9,3.2-4.2,5.1-7.4,4.3
				l-63.8-17.1c-3.2-0.9-5.1-4.2-4.3-7.4l25.2-94.1c0.9-3.2,4.2-5.1,7.4-4.3L137.4,66z M138.9,60.3L75.2,43.2
				c-6.4-1.7-12.9,2.1-14.6,8.4l-25.2,94.1c-1.7,6.4,2.1,12.9,8.4,14.6l63.8,17.1c6.4,1.7,12.9-2.1,14.6-8.4l25.2-94.1
				C149.1,68.5,145.3,62,138.9,60.3"/>
			<path style="clip-path:url(#SVGID_6_);fill:#C43826;" d="M131,94.3L65.7,76.8l5.1-19l65.3,17.5L131,94.3z M68.1,75.4l61.5,16.5
				l4.1-15.2L72.2,60.2L68.1,75.4z"/>
			<path style="clip-path:url(#SVGID_6_);fill:#C43826;" d="M76.7,95.2c-0.9,3.5-4.6,5.6-8.1,4.7c-3.5-0.9-5.6-4.6-4.7-8.1
				c0.9-3.5,4.6-5.6,8.1-4.7C75.5,88,77.6,91.7,76.7,95.2z"/>
			<path style="clip-path:url(#SVGID_6_);fill:#C43826;" d="M92.6,99.5c-0.9,3.5-4.6,5.6-8.1,4.7c-3.5-0.9-5.6-4.6-4.7-8.1
				c0.9-3.5,4.6-5.6,8.1-4.7C91.4,92.3,93.5,95.9,92.6,99.5"/>
			<path style="clip-path:url(#SVGID_6_);fill:#C43826;" d="M108.5,103.7c-0.9,3.5-4.6,5.6-8.1,4.7c-3.5-0.9-5.6-4.6-4.7-8.1
				c0.9-3.5,4.6-5.6,8.1-4.7C107.4,96.6,109.5,100.2,108.5,103.7"/>
			<path style="clip-path:url(#SVGID_6_);fill:#C43826;" d="M124.4,108c-0.9,3.5-4.6,5.6-8.1,4.7c-3.5-0.9-5.6-4.6-4.7-8.1
				c0.9-3.5,4.6-5.6,8.1-4.7C123.3,100.8,125.4,104.5,124.4,108z"/>
			<path style="clip-path:url(#SVGID_6_);fill:#C43826;" d="M72.2,112c-0.9,3.5-4.6,5.6-8.1,4.7c-3.5-0.9-5.6-4.6-4.7-8.1
				c0.9-3.5,4.6-5.6,8.1-4.7C71,104.8,73.1,108.5,72.2,112"/>
			<path style="clip-path:url(#SVGID_6_);fill:#C43826;" d="M88.1,116.3c-0.9,3.5-4.6,5.6-8.1,4.7c-3.5-0.9-5.6-4.6-4.7-8.1
				c0.9-3.5,4.6-5.6,8.1-4.7C86.9,109.1,89,112.7,88.1,116.3"/>
			<path style="clip-path:url(#SVGID_6_);fill:#C43826;" d="M104,120.5c-0.9,3.5-4.6,5.6-8.1,4.7c-3.5-0.9-5.6-4.6-4.7-8.1
				c0.9-3.5,4.6-5.6,8.1-4.7C102.9,113.4,104.9,117,104,120.5"/>
			<path style="clip-path:url(#SVGID_6_);fill:#C43826;" d="M67.6,128.8c-0.9,3.5-4.6,5.6-8.1,4.7c-3.5-0.9-5.6-4.6-4.7-8.1
				c0.9-3.5,4.6-5.6,8.1-4.7c0,0,0,0,0,0C66.5,121.6,68.6,125.3,67.6,128.8"/>
			<path style="clip-path:url(#SVGID_6_);fill:#C43826;" d="M83.6,133.1c-0.9,3.5-4.6,5.6-8.1,4.7c-3.5-0.9-5.6-4.6-4.7-8.1
				c0.9-3.5,4.6-5.6,8.1-4.7c0,0,0,0,0,0C82.4,125.9,84.5,129.5,83.6,133.1"/>
			<path style="clip-path:url(#SVGID_6_);fill:#C43826;" d="M99.5,137.3c-0.9,3.5-4.6,5.6-8.1,4.7c-3.5-0.9-5.6-4.6-4.7-8.1
				c0.9-3.5,4.6-5.6,8.1-4.7c0,0,0,0,0,0C98.3,130.2,100.4,133.8,99.5,137.3"/>
			<path style="clip-path:url(#SVGID_6_);fill:#C43826;" d="M63.1,145.6c-0.9,3.5-4.6,5.6-8.1,4.7c-3.5-0.9-5.6-4.6-4.7-8.1
				c0.9-3.5,4.6-5.6,8.1-4.7C62,138.4,64.1,142.1,63.1,145.6"/>
			<path style="clip-path:url(#SVGID_6_);fill:#C43826;" d="M79.1,149.9c-0.9,3.5-4.6,5.6-8.1,4.7c-3.5-0.9-5.6-4.6-4.7-8.1
				c0.9-3.5,4.6-5.6,8.1-4.7C77.9,142.7,80,146.3,79.1,149.9"/>
			<path style="clip-path:url(#SVGID_6_);fill:#C43826;" d="M115.2,116.7c-3.5-0.9-7.2,1.2-8.1,4.7l-4.5,16.8
				c-0.9,3.5,1.2,7.2,4.7,8.1c3.5,0.9,7.2-1.2,8.1-4.7l4.5-16.8C120.9,121.3,118.8,117.6,115.2,116.7z"/>
			<path style="clip-path:url(#SVGID_6_);fill:#C43826;" d="M106.2,150.3L90.3,146c-3.5-1-7.2,1.1-8.1,4.7c-1,3.5,1.1,7.2,4.7,8.1
				c0,0,0,0,0,0l15.9,4.3c3.5,0.9,7.2-1.2,8.1-4.7C111.9,154.9,109.8,151.2,106.2,150.3"/>
		</g>
		<g class="st0">
			<defs>
				<rect id="SVGID_15_" x="11" y="11" width="178.1" height="178.1"/>
			</defs>
			<clipPath id="SVGID_8_">
				<use xlink:href="#SVGID_15_"  style="overflow:visible;"/>
			</clipPath>
			<path class="st5" d="M131.5,155.8v6.3c0,5.2,12.6,9.4,28.1,9.4c15.5,0,28.1-4.2,28.1-9.4v-6.3c-6.1,4.3-17.1,6.3-28.1,6.3
				C148.6,162,137.5,160,131.5,155.8 M131.5,140.4v7.6c0,5.2,12.6,9.4,28.1,9.4c15.5,0,28.1-4.2,28.1-9.4v-7.6
				c-6.1,5-17.1,7.6-28.1,7.6C148.6,148,137.5,145.4,131.5,140.4L131.5,140.4z M159.6,119.8c-15.5,0-28.1,5.2-28.1,11.7
				c0,6.5,12.6,11.7,28.1,11.7c15.5,0,28.1-5.2,28.1-11.7C187.7,125.1,175.1,119.8,159.6,119.8"/>
		</g>
	</g>
</g>
</svg>
