<?xml version="1.0" encoding="utf-8"?>
<!-- Generator: Adobe Illustrator 23.0.1, SVG Export Plug-In . SVG Version: 6.00 Build 0)  -->
<svg version="1.1" id="圖層_1" xmlns="http://www.w3.org/2000/svg" xmlns:xlink="http://www.w3.org/1999/xlink" x="0px" y="0px"
	 viewBox="0 0 200 200" style="enable-background:new 0 0 200 200;" xml:space="preserve">
<style type="text/css">
	.st0{clip-path:url(#SVGID_2_);}
	.st1{clip-path:url(#SVGID_4_);fill:#2D4773;}
	.st2{clip-path:url(#SVGID_4_);fill:#C43826;}
	.st3{clip-path:url(#SVGID_6_);}
	.st4{clip-path:url(#SVGID_8_);fill:#C43826;}
	.st5{clip-path:url(#SVGID_8_);fill:#2D4773;}
	.st6{clip-path:url(#SVGID_8_);fill:#FFFFFF;}
	.st7{clip-path:url(#SVGID_10_);}
	.st8{clip-path:url(#SVGID_12_);fill:#2D4773;}
	.st9{clip-path:url(#SVGID_14_);fill:#C43826;}
	.st10{clip-path:url(#SVGID_16_);fill:#2D4773;}
</style>
<g>
	<g>
		<defs>
			<rect id="SVGID_1_" x="8.3" y="8.3" width="183.3" height="183.3"/>
		</defs>
		<clipPath id="SVGID_2_">
			<use xlink:href="#SVGID_1_"  style="overflow:visible;"/>
		</clipPath>
		<g class="st0">
			<defs>
				<rect id="SVGID_3_" x="8.3" y="8.3" width="183.3" height="183.3"/>
			</defs>
			<clipPath id="SVGID_4_">
				<use xlink:href="#SVGID_3_"  style="overflow:visible;"/>
			</clipPath>
			<path class="st1" d="M112.8,44.9c-1.9,0-3.5-1.6-3.5-3.5V20.5c0-1.9,1.6-3.5,3.5-3.5c1.9,0,3.5,1.6,3.5,3.5v20.8
				C116.3,43.3,114.7,44.9,112.8,44.9"/>
			<path class="st1" d="M129.4,44.1c-0.3,0-0.6,0-0.9-0.1c-1.9-0.5-3-2.4-2.5-4.3l3-11.3c0.5-1.9,2.4-3,4.3-2.5
				c1.9,0.5,3,2.4,2.5,4.3l-3,11.3C132.3,43.1,130.9,44.1,129.4,44.1"/>
			<path class="st1" d="M96.2,44.1c-1.5,0-2.9-1-3.4-2.6l-3-11.3c-0.5-1.9,0.6-3.8,2.5-4.3c1.8-0.5,3.8,0.6,4.3,2.5l3,11.3
				c0.5,1.9-0.6,3.8-2.5,4.3C96.8,44.1,96.5,44.1,96.2,44.1"/>
			<path class="st1" d="M63,99.8H44.8c-3,0-5.4,2.4-5.4,5.4v54.4c0,3,2.4,5.4,5.4,5.4H63c3,0,5.4-2.4,5.4-5.4v0v-54.4
				C68.4,102.3,66,99.8,63,99.8L63,99.8z M53.9,156.1c-3,0-5.4-2.4-5.4-5.4s2.4-5.4,5.4-5.4c3,0,5.4,2.4,5.4,5.4
				S56.9,156.1,53.9,156.1"/>
			<polygon class="st2" points="146.7,116.7 146.7,116.7 146.7,116.7 			"/>
			<path class="st2" d="M156.8,118.8c2.6-3.1,3.9-7.1,3.8-11.2c-0.7-9.4-8.6-16.5-18-16.2h-17.4c3.1-4.6,4.9-10,5.1-15.6
				c0-13-5.8-20.8-20.6-20.8c-7.4,0-10.2,8.5-11.6,15c-0.3,3.6-1.8,7-4.1,9.8c-5.7,5.2-15,17.8-20.4,20.7v7.1
				c9.2-0.3,17.7-15.2,26-22.7c7.6-6.8,5-18.2,10.1-22.7c12.6,0,12.6,7.9,12.6,13.6c0,9.4-7.6,13.6-7.6,22.7h27.8
				c5.2-0.1,9.6,3.9,10.1,9.1c0.5,4.1-2,7.9-5.9,9.1c4,2.6,4,13.3-1.4,15.8c2.8,4.8,1.2,11-3.6,13.8c0,0-0.1,0-0.1,0.1
				c2.1,11.7-4.7,15.8-14.2,15.8h-10.1c-17.9,0-33.1-8.9-43.7-9.1v7.1c8.2,0.2,24.9,9.1,43.7,9.1h10.2c14.7,0,22.9-8,22.4-20
				c3.8-4,5.5-9.5,4.5-15C157.4,129.7,158.3,124,156.8,118.8"/>
		</g>
	</g>
</g>
</svg>
