<?xml version="1.0" encoding="utf-8"?>
<!-- Generator: Adobe Illustrator 23.0.1, SVG Export Plug-In . SVG Version: 6.00 Build 0)  -->
<svg version="1.1" id="圖層_1" xmlns="http://www.w3.org/2000/svg" xmlns:xlink="http://www.w3.org/1999/xlink" x="0px" y="0px"
	 viewBox="0 0 200 200" style="enable-background:new 0 0 200 200;" xml:space="preserve">
<style type="text/css">
	.st0{clip-path:url(#SVGID_2_);fill:#E6EBF5;}
	.st1{clip-path:url(#SVGID_2_);fill:#CCD3DB;}
	.st2{clip-path:url(#SVGID_2_);fill:#FFFFFF;}
	.st3{clip-path:url(#SVGID_2_);}
	.st4{clip-path:url(#SVGID_4_);fill:#FFD47D;}
	.st5{clip-path:url(#SVGID_6_);fill:#EAE6CE;}
	.st6{clip-path:url(#SVGID_6_);fill:#F1F3E2;}
	.st7{clip-path:url(#SVGID_6_);fill:#E5B15D;}
	.st8{clip-path:url(#SVGID_6_);fill:#D6963D;}
	.st9{clip-path:url(#SVGID_6_);fill:#F3CA6E;}
	.st10{clip-path:url(#SVGID_6_);fill:#F9DC8F;}
	.st11{clip-path:url(#SVGID_6_);fill:#728801;}
	.st12{clip-path:url(#SVGID_6_);fill:#A2AD22;}
	.st13{clip-path:url(#SVGID_6_);fill:#C5CE3D;}
	.st14{clip-path:url(#SVGID_6_);fill:#C6A67D;}
	.st15{clip-path:url(#SVGID_6_);fill:#DCC496;}
	.st16{clip-path:url(#SVGID_6_);fill:#E6EBF5;}
	.st17{clip-path:url(#SVGID_6_);fill:#FFFFFF;}
	.st18{clip-path:url(#SVGID_6_);fill:#9FADC3;}
	.st19{clip-path:url(#SVGID_8_);}
	.st20{clip-path:url(#SVGID_10_);fill:#FFCAB3;}
	.st21{clip-path:url(#SVGID_12_);}
	.st22{clip-path:url(#SVGID_14_);fill:#E6EBF5;}
	.st23{clip-path:url(#SVGID_14_);fill:#FFD47D;}
	.st24{clip-path:url(#SVGID_14_);fill:#FFFFFF;}
	.st25{clip-path:url(#SVGID_14_);fill:#A1ADC1;}
	.st26{clip-path:url(#SVGID_16_);fill:#FFFFFF;}
	.st27{clip-path:url(#SVGID_18_);fill:#FFD47D;}
	.st28{clip-path:url(#SVGID_18_);fill:#FFCB6E;}
	.st29{clip-path:url(#SVGID_18_);fill:#2F4566;}
	.st30{clip-path:url(#SVGID_18_);fill:#FDDC8D;}
	.st31{clip-path:url(#SVGID_20_);}
	.st32{clip-path:url(#SVGID_22_);fill:#FFD47D;}
	.st33{clip-path:url(#SVGID_22_);}
	.st34{clip-path:url(#SVGID_24_);fill:#9FADC3;}
	.st35{clip-path:url(#SVGID_24_);fill:#FFCB6E;}
	.st36{clip-path:url(#SVGID_24_);fill:#FFD47D;}
	.st37{opacity:0.149;clip-path:url(#SVGID_26_);enable-background:new    ;}
	.st38{clip-path:url(#SVGID_28_);fill:#E69A10;}
	.st39{clip-path:url(#SVGID_30_);fill:#FFFFFF;}
	.st40{clip-path:url(#SVGID_32_);}
	.st41{clip-path:url(#SVGID_34_);fill:#FDE9E0;}
	.st42{clip-path:url(#SVGID_34_);fill:#595757;}
	.st43{clip-path:url(#SVGID_34_);fill:#717071;}
	.st44{clip-path:url(#SVGID_34_);fill:#EFCCC2;}
	.st45{clip-path:url(#SVGID_34_);fill:#B4B4B5;}
	.st46{clip-path:url(#SVGID_34_);fill:#FFFFFF;}
	.st47{clip-path:url(#SVGID_34_);fill:#23325B;}
	.st48{clip-path:url(#SVGID_34_);fill:#2D4773;}
	.st49{clip-path:url(#SVGID_34_);fill:#D8D8D8;}
	.st50{clip-path:url(#SVGID_34_);fill:#ED556E;}
	.st51{clip-path:url(#SVGID_36_);}
	.st52{clip-path:url(#SVGID_38_);fill:#FDE9E0;}
	.st53{clip-path:url(#SVGID_38_);fill:#595757;}
	.st54{clip-path:url(#SVGID_38_);fill:#717071;}
	.st55{clip-path:url(#SVGID_38_);fill:#EFCCC2;}
	.st56{clip-path:url(#SVGID_38_);fill:#E1B58E;}
	.st57{clip-path:url(#SVGID_38_);fill:#FFFFFF;}
	.st58{clip-path:url(#SVGID_38_);fill:#D8D8D8;}
	.st59{clip-path:url(#SVGID_38_);fill:#2D4773;}
	.st60{clip-path:url(#SVGID_38_);fill:#D39E76;}
	.st61{clip-path:url(#SVGID_40_);}
	.st62{clip-path:url(#SVGID_42_);fill:#FDE9E0;}
	.st63{clip-path:url(#SVGID_42_);fill:#595757;}
	.st64{clip-path:url(#SVGID_42_);fill:#EFCCC2;}
	.st65{clip-path:url(#SVGID_42_);fill:#717071;}
	.st66{clip-path:url(#SVGID_42_);fill:#FFFFFF;}
	.st67{clip-path:url(#SVGID_42_);fill:#3E3A39;}
	.st68{clip-path:url(#SVGID_42_);fill:#D8D8D8;}
	.st69{clip-path:url(#SVGID_42_);fill:#2D4773;}
	.st70{clip-path:url(#SVGID_44_);}
	.st71{clip-path:url(#SVGID_46_);fill:#E1B58E;}
	.st72{clip-path:url(#SVGID_46_);fill:#D39E76;}
	.st73{clip-path:url(#SVGID_46_);fill:#595757;}
	.st74{clip-path:url(#SVGID_46_);fill:#FDE9E0;}
	.st75{clip-path:url(#SVGID_46_);fill:#EFCCC2;}
	.st76{clip-path:url(#SVGID_46_);fill:#717071;}
	.st77{clip-path:url(#SVGID_46_);fill:#B4B4B5;}
	.st78{clip-path:url(#SVGID_46_);fill:#FFFFFF;}
	.st79{clip-path:url(#SVGID_46_);fill:#D8D8D8;}
</style>
<g>
	<g>
		<defs>
			<rect id="SVGID_1_" x="9.9" y="10.6" width="180.3" height="178.9"/>
		</defs>
		<clipPath id="SVGID_2_">
			<use xlink:href="#SVGID_1_"  style="overflow:visible;"/>
		</clipPath>
		<polygon class="st0" points="77.9,131 122,119.3 129.9,122.5 85.8,134.2 		"/>
		<polygon class="st1" points="121.9,118.4 121.9,94.9 164.9,113.2 130.7,122.2 		"/>
		<path class="st2" d="M121.9,94.9l43,18.3l-34.2,8.9l-8.7-3.7L121.9,94.9z M121.1,93.7v1.2l0,23.5v0.5l0.5,0.2l8.7,3.7l0.2,0.1
			l0.3-0.1l34.2-8.9l2.2-0.6l-2.1-0.9l-43-18.3L121.1,93.7z"/>
		<polygon class="st1" points="120.9,118.5 120.9,95 41.9,116.2 76,130.5 		"/>
		<path class="st2" d="M120.9,95l0,23.5l-45,12l-34.1-14.3L120.9,95z M121.7,94l-1,0.3l-79,21.1l-2.2,0.6l2.1,0.9l34.1,14.3l0.2,0.1
			l0.3-0.1l45-12l0.6-0.2l0-0.6l0-23.5V94z"/>
		<polygon class="st0" points="11.3,81.6 91.7,59.9 121.1,94 40.6,115.6 		"/>
		<path class="st2" d="M11.3,81.6l80.4-21.7l29.4,34l-80.4,21.7L11.3,81.6z M91.5,59.2L11.1,80.9l-1.2,0.3l0.8,0.9l29.4,34l0.3,0.4
			l0.5-0.1l80.4-21.7l1.2-0.3l-0.8-0.9l-29.4-34L92,59.1L91.5,59.2z"/>
		<polygon class="st1" points="10.7,68.5 10.7,80.9 91.2,59.2 91.2,46.9 		"/>
		<path class="st2" d="M10.7,68.5l80.4-21.7l0,12.3L10.7,80.9L10.7,68.5z M91,46.1L10.5,67.8L10,67.9v0.6l0,12.3v1l1-0.3l80.5-21.7
			l0.6-0.2l0-0.6l0-12.3v-1L91,46.1z"/>
		<g class="st3">
			<defs>
				<rect id="SVGID_3_" x="122.7" y="40" width="36.2" height="49.6"/>
			</defs>
			<clipPath id="SVGID_4_">
				<use xlink:href="#SVGID_3_"  style="overflow:visible;"/>
			</clipPath>
			<path class="st4" d="M140.8,47.2c-0.9,0-1.5-0.7-1.5-1.6l0.1-4c0-0.9,0.8-1.5,1.6-1.5c0.8,0,1.5,0.7,1.5,1.6l-0.1,4
				C142.4,46.5,141.7,47.2,140.8,47.2z"/>
			<path class="st4" d="M154.3,53.2c-0.9,0-1.5-0.7-1.5-1.6c0-0.4,0.2-0.8,0.5-1.1l3-2.8c0.6-0.6,1.6-0.6,2.2,0
				c0.6,0.6,0.6,1.6,0,2.2c0,0,0,0,0,0l-3,2.8C155.1,53.1,154.7,53.2,154.3,53.2"/>
			<path class="st4" d="M127,52.3c-0.4,0-0.8-0.2-1.1-0.5l-2.8-2.9c-0.6-0.6-0.6-1.6,0.1-2.2c0.6-0.6,1.6-0.6,2.2,0.1l2.8,2.9
				c0.6,0.6,0.6,1.6-0.1,2.2C127.8,52.2,127.4,52.3,127,52.3"/>
			<path class="st4" d="M145.9,83.5l-0.1,2.6c-0.1,2-1.8,3.5-3.8,3.5l-5.2-0.2c-1.7-0.1-3.6-1.4-3.5-4.3l0.1-2L145.9,83.5z"/>
			<path class="st4" d="M149.8,53.9c-6.1-5.2-15.3-4.6-20.5,1.4c-5.3,6-4.6,15.1,1.4,20.4c0.1,0.1,0.3,0.2,0.4,0.4
				c1.2,1,2,2.4,2.2,4v0c0,0,0.1,0,0.1,0l12.5,0.4c0,0,0.1,0,0.1,0v0c0.4-1.6,1.4-3.1,2.8-4c6.5-4.7,7.9-13.8,3.1-20.2
				C151.3,55.3,150.6,54.6,149.8,53.9 M148,66.1c-0.9,0-1.5-0.7-1.5-1.6c0.1-3.1-2.4-5.8-5.5-5.9c0,0,0,0,0,0
				c-0.9,0-1.5-0.8-1.5-1.6c0-0.8,0.7-1.5,1.6-1.5c4.9,0.2,8.7,4.2,8.5,9.1C149.6,65.4,148.9,66.1,148,66.1"/>
			<path class="st4" d="M133.4,80l0.1,0C133.4,80,133.4,80,133.4,80L133.4,80z"/>
			<path class="st4" d="M146.1,80.4L146.1,80.4c0,0-0.1,0-0.1,0L146.1,80.4z"/>
		</g>
		<g class="st3">
			<defs>
				<rect id="SVGID_5_" x="9.9" y="10.6" width="180.3" height="178.9"/>
			</defs>
			<clipPath id="SVGID_6_">
				<use xlink:href="#SVGID_5_"  style="overflow:visible;"/>
			</clipPath>
			<path class="st5" d="M129.4,144.2c3.1-3,2.5-8,3.9-12.1c0.8-2.5,2.5-4.7,3.6-7.1c1.1-2.4,1.8-5.3,0.6-7.6c-1-2-3.2-3.2-4.8-4.8
				c-2.8-2.8-4.1-7-7.1-9.6c-2.2-1.9-5.3-2.8-8.2-2.3c-3,0.5-5.7,2.3-8.7,2.9c-3.3,0.7-6.8,0.6-10,1.9c-3,1.2-5.7,3.5-6.6,6.6
				c-0.7,2.6-0.1,5.5-0.8,8.2c-0.9,3.4-4.1,6.2-4,9.8c0,2.1,1.2,4,2.7,5.5c1.5,1.5,3.2,2.7,4.7,4.2c1.5,1.5,2.8,3.2,4.4,4.6
				c1.6,1.4,3.6,2.5,5.7,2.5c2-0.1,3.8-1.1,5.7-1.6C116.7,143.6,124.1,149.3,129.4,144.2"/>
			<path class="st6" d="M126.6,104.8c0.8,1,1.4,2.2,2,3.4c1.3,2.1,3,4,4.9,5.6c1.5,1.2,2.7,2,3.5,3.7c0.8,1.6,0.8,3.4,0.2,5
				c-0.7,1.9-2,3.6-2.9,5.4c-1.4,2.8-1.8,6-2.6,9.1s-2.1,6.2-4.6,8.1c-0.5,0.4-1.1,0.7-1.8,0.9c-2.6,0.6-5-1.7-7.6-2.4
				c-2.5-0.6-5.1,0.3-7.5,1c-2.4,0.8-5.2,1.5-7.5,0.4c-3.1-1.4-4.3-5.1-6.5-7.7c-2.1-2.4-5.5-4-6.3-7.2c-0.6-2.3,0.4-4.6,1.2-6.8
				c0.7-2,1.2-4.1,1.5-6.3c0.1-0.5,0.1-1.1,0.4-1.6c0.5-1.2,1.7-1.8,2.9-2.3c2.5-1.1,5.2-2.2,6.7-4.4c0.5-0.8,0.9-1.6,1.5-2.3
				c1.2-1.5,3.2-2.1,5-2.4c1.9-0.3,3.8-0.5,5.5-1.3c2.1-1,3.9-1.9,6.3-1.5C123,101.7,125.2,102.9,126.6,104.8"/>
			<path class="st7" d="M135.8,123c-4,1-8.5-0.7-10.8-4.1c-1.1-1.6-1.7-3.6-1.7-5.6c0-4.9,4.3-9.5,9.2-9.9c5-0.4,9.9,3.4,10.8,8.3
				C144.1,116.5,140.7,121.8,135.8,123"/>
			<path class="st8" d="M143.3,111.7c-0.2-0.9-0.4-1.8-0.9-2.6c0.4,1.6,0.1,3.3-1,4.5c-1.2,1.2-3,1.5-4.6,2.1
				c-2.6,1-4.8,2.9-6.1,5.3c-2.1,0.1-4.2-0.8-5.8-2.1c0,0,0,0,0,0.1c2.3,3.4,6.8,5.1,10.8,4.1C140.7,121.8,144.1,116.6,143.3,111.7"
				/>
			<path class="st9" d="M135.7,114.7c1.5-0.3,3-0.6,4.5-0.6c0.6-1.4,0.8-3,0.5-4.5c-0.4-2.2-1.8-4.3-3.8-5.3
				c-1.9-0.9-4.1-0.9-6.1-0.2c-1.9,0.8-3.5,2.3-4.5,4.1c-1,1.8-1.4,3.8-1.1,5.8c0.3,2,1.5,3.9,3.2,4.9c0.6,0.4,1.3,0.6,2,0.8
				C131.4,117.4,133,115.3,135.7,114.7"/>
			<path class="st10" d="M131.7,112.9c-1,0-1.9-0.2-2.8-0.6c-0.9-0.4-1.6-1.1-1.9-2c-0.5-1.6,0.5-3.4,1.8-4.4
				c1.2-0.9,2.7-1.4,4.1-1.4c1.5,0.1,3,0.8,3.8,2c0.8,1.2,0.9,2.9,0.2,4.2C135.8,112.4,133.6,112.9,131.7,112.9"/>
			<path class="st11" d="M141.8,116.5c1.3,1.2,1.3,3.1,0.2,4.4c-1.2,1.3-3.1,1.3-4.4,0.2c-1.3-1.2-1.3-3.1-0.2-4.4
				C138.6,115.4,140.5,115.4,141.8,116.5"/>
			<path class="st11" d="M144.1,108.5c1.1,1,1.1,2.7,0.1,3.7c-1,1.1-2.7,1.1-3.8,0.1c-1.1-1-1.1-2.7-0.1-3.7
				C141.3,107.6,143,107.6,144.1,108.5"/>
			<path class="st11" d="M151.8,111c1.3,1.2,1.3,3.1,0.2,4.4c-1.2,1.3-3.1,1.3-4.4,0.2c-1.3-1.2-1.3-3.1-0.2-4.4
				C148.5,109.9,150.5,109.9,151.8,111"/>
			<path class="st11" d="M148.1,112.6c1.8,1.7,1.9,4.5,0.2,6.3c-1.7,1.8-4.5,1.9-6.4,0.2c-1.8-1.7-1.9-4.5-0.2-6.3
				C143.5,111,146.3,110.9,148.1,112.6"/>
			<path class="st11" d="M150.9,116.5c1.4,1.3,1.5,3.4,0.2,4.7c-1.3,1.4-3.4,1.4-4.8,0.2c-1.4-1.3-1.5-3.4-0.2-4.8
				C147.4,115.3,149.5,115.2,150.9,116.5"/>
			<path class="st11" d="M148.7,121.1c0.7,0.7,0.8,1.8,0.1,2.6c-0.7,0.7-1.8,0.8-2.6,0.1c-0.7-0.7-0.8-1.8-0.1-2.6
				C146.8,120.4,148,120.4,148.7,121.1"/>
			<path class="st11" d="M154.5,119.3c1.4,1.3,1.5,3.5,0.2,4.9c-1.3,1.4-3.5,1.5-4.9,0.2s-1.5-3.5-0.2-4.9
				C150.9,118.1,153.1,118,154.5,119.3"/>
			<path class="st11" d="M159.1,112.3c0.8,0.8,0.9,2,0.1,2.9c-0.8,0.8-2,0.9-2.9,0.1c-0.8-0.8-0.9-2-0.1-2.9
				C157,111.6,158.3,111.5,159.1,112.3"/>
			<path class="st11" d="M160.7,118.4c0.8,0.8,0.9,2.1,0.1,2.9c-0.8,0.8-2.1,0.9-3,0.1c-0.8-0.8-0.9-2.1-0.1-2.9
				C158.5,117.6,159.9,117.6,160.7,118.4"/>
			<path class="st11" d="M156.5,112.7c1.6,1.4,1.7,3.9,0.2,5.4c-1.5,1.6-3.9,1.6-5.5,0.2c-1.6-1.4-1.7-3.9-0.2-5.4
				C152.5,111.3,155,111.2,156.5,112.7"/>
			<path class="st11" d="M158.5,118.3c1.4,1.3,1.5,3.5,0.2,4.8c-1.3,1.4-3.5,1.5-4.9,0.2c-1.4-1.3-1.5-3.5-0.2-4.8
				C154.9,117.1,157.1,117,158.5,118.3"/>
			<path class="st12" d="M145.7,118.9c1.3,1.2,1.4,3.3,0.2,4.6c-1.2,1.3-3.3,1.4-4.6,0.2c-1.3-1.2-1.4-3.3-0.2-4.6
				C142.3,117.8,144.4,117.7,145.7,118.9"/>
			<path class="st12" d="M154.6,115.6c1.2,1.1,1.2,2.8,0.2,4c-1.1,1.1-2.9,1.2-4,0.1c-1.2-1.1-1.2-2.8-0.1-4
				C151.7,114.6,153.5,114.5,154.6,115.6"/>
			<path class="st12" d="M155.1,122.1c1.1,1,1.1,2.6,0.1,3.7c-1,1.1-2.7,1.1-3.7,0.1c-1.1-1-1.1-2.6-0.1-3.7
				C152.4,121.2,154.1,121.1,155.1,122.1"/>
			<path class="st12" d="M147.3,109.7c0.9,0.8,0.9,2.1,0.1,3c-0.8,0.9-2.2,0.9-3,0.1c-0.9-0.8-0.9-2.1-0.1-3
				C145.1,108.9,146.4,108.9,147.3,109.7"/>
			<path class="st12" d="M141.3,111.6c1.5,1.4,1.6,3.8,0.2,5.3c-1.4,1.5-3.8,1.6-5.3,0.2c-1.5-1.4-1.6-3.8-0.2-5.3
				C137.4,110.3,139.8,110.2,141.3,111.6"/>
			<path class="st12" d="M156.8,108.8c1.2,1.1,1.3,3.1,0.2,4.3c-1.1,1.2-3.1,1.3-4.3,0.2c-1.2-1.1-1.3-3.1-0.2-4.3
				C153.6,107.7,155.6,107.7,156.8,108.8"/>
			<path class="st12" d="M163.2,119.4c1,0.9,1,2.4,0.1,3.4c-0.9,1-2.5,1-3.4,0.1c-1-0.9-1-2.4-0.1-3.4
				C160.7,118.6,162.3,118.5,163.2,119.4"/>
			<path class="st12" d="M148.3,114.5c0.9,0.9,1,2.3,0.1,3.3c-0.9,0.9-2.4,1-3.3,0.1c-0.9-0.9-1-2.3-0.1-3.3
				C145.9,113.6,147.4,113.6,148.3,114.5"/>
			<path class="st13" d="M139.9,111.9c0.8,0.7,0.8,1.9,0.1,2.7c-0.7,0.8-1.9,0.8-2.7,0.1c-0.8-0.7-0.8-1.9-0.1-2.7
				C137.9,111.2,139.1,111.2,139.9,111.9"/>
			<path class="st13" d="M144.7,119.3c0.7,0.6,0.7,1.6,0.1,2.3c-0.6,0.7-1.6,0.7-2.3,0.1c-0.7-0.6-0.7-1.6-0.1-2.3
				C143,118.7,144,118.7,144.7,119.3"/>
			<path class="st13" d="M147.7,114.7c0.5,0.5,0.6,1.3,0.1,1.8c-0.5,0.5-1.3,0.5-1.8,0.1c-0.5-0.5-0.6-1.3-0.1-1.8
				C146.4,114.2,147.2,114.2,147.7,114.7"/>
			<path class="st13" d="M146.6,109.7c0.4,0.4,0.4,0.9,0.1,1.3c-0.4,0.4-1,0.4-1.3,0.1c-0.4-0.4-0.4-0.9,0-1.3
				C145.6,109.4,146.2,109.4,146.6,109.7"/>
			<path class="st13" d="M156.3,109.1c0.6,0.6,0.7,1.6,0.1,2.2c-0.6,0.6-1.6,0.7-2.2,0.1c-0.6-0.6-0.7-1.6-0.1-2.2
				C154.7,108.5,155.7,108.5,156.3,109.1"/>
			<path class="st13" d="M153.6,116.2c0.5,0.5,0.6,1.3,0.1,1.9c-0.5,0.5-1.3,0.6-1.9,0.1c-0.5-0.5-0.6-1.3-0.1-1.9
				C152.2,115.7,153,115.7,153.6,116.2"/>
			<path class="st13" d="M154.4,122.3c0.6,0.5,0.6,1.4,0.1,2s-1.4,0.6-2,0.1c-0.6-0.5-0.6-1.4-0.1-2
				C152.9,121.9,153.8,121.8,154.4,122.3"/>
			<path class="st13" d="M162.3,119.7c0.5,0.4,0.5,1.1,0.1,1.6c-0.4,0.4-1.1,0.5-1.6,0.1c-0.5-0.4-0.5-1.1-0.1-1.6
				S161.9,119.3,162.3,119.7"/>
			<path class="st11" d="M127.7,120.6c1.3,1.2,1.3,3.1,0.2,4.4c-1.2,1.3-3.1,1.3-4.4,0.2s-1.3-3.1-0.2-4.4
				C124.4,119.5,126.4,119.5,127.7,120.6"/>
			<path class="st11" d="M129.9,112.6c1.1,1,1.1,2.7,0.1,3.7c-1,1.1-2.7,1.1-3.8,0.1c-1.1-1-1.1-2.7-0.1-3.7
				C127.2,111.7,128.9,111.6,129.9,112.6"/>
			<path class="st11" d="M137.6,115.1c1.3,1.2,1.3,3.1,0.2,4.4c-1.2,1.3-3.1,1.3-4.4,0.2c-1.3-1.2-1.3-3.1-0.2-4.4
				C134.4,114,136.4,114,137.6,115.1"/>
			<path class="st11" d="M134,116.7c1.8,1.7,1.9,4.5,0.2,6.3c-1.7,1.8-4.5,1.9-6.4,0.2c-1.8-1.7-1.9-4.5-0.2-6.3
				C129.3,115.1,132.2,115,134,116.7"/>
			<path class="st11" d="M136.8,120.6c1.4,1.3,1.5,3.4,0.2,4.7c-1.3,1.4-3.4,1.4-4.8,0.2c-1.4-1.3-1.5-3.4-0.2-4.8
				C133.2,119.4,135.4,119.3,136.8,120.6"/>
			<path class="st11" d="M134.6,125.2c0.7,0.7,0.8,1.8,0.1,2.6c-0.7,0.7-1.8,0.8-2.6,0.1c-0.7-0.7-0.8-1.8-0.1-2.6
				C132.7,124.5,133.8,124.5,134.6,125.2"/>
			<path class="st11" d="M140.3,123.4c1.4,1.3,1.5,3.5,0.2,4.9c-1.3,1.4-3.5,1.5-4.9,0.2c-1.4-1.3-1.5-3.5-0.2-4.9
				C136.7,122.2,138.9,122.1,140.3,123.4"/>
			<path class="st11" d="M144.9,116.4c0.8,0.8,0.9,2,0.1,2.9c-0.8,0.8-2,0.9-2.9,0.1c-0.8-0.8-0.9-2-0.1-2.9
				C142.8,115.7,144.1,115.6,144.9,116.4"/>
			<path class="st11" d="M146.6,122.4c0.8,0.8,0.9,2.1,0.1,2.9c-0.8,0.8-2.1,0.9-3,0.1c-0.8-0.8-0.9-2.1-0.1-2.9
				C144.4,121.7,145.7,121.7,146.6,122.4"/>
			<path class="st11" d="M142.4,116.8c1.6,1.4,1.7,3.9,0.2,5.4c-1.5,1.6-3.9,1.6-5.5,0.2c-1.6-1.4-1.7-3.9-0.2-5.4
				C138.4,115.4,140.8,115.3,142.4,116.8"/>
			<path class="st11" d="M144.3,122.4c1.4,1.3,1.5,3.5,0.2,4.8c-1.3,1.4-3.5,1.5-4.9,0.2c-1.4-1.3-1.5-3.5-0.2-4.8
				C140.7,121.2,142.9,121.1,144.3,122.4"/>
			<path class="st11" d="M149,116.9c1,1,1.1,2.6,0.1,3.6c-1,1-2.6,1.1-3.6,0.1c-1-1-1.1-2.6-0.1-3.6C146.3,116,148,115.9,149,116.9"
				/>
			<path class="st12" d="M131.5,123c1.3,1.2,1.4,3.3,0.2,4.6c-1.2,1.3-3.3,1.4-4.6,0.2c-1.3-1.2-1.4-3.3-0.2-4.6
				C128.2,121.9,130.2,121.8,131.5,123"/>
			<path class="st12" d="M140.5,119.7c1.2,1.1,1.2,2.8,0.2,4c-1.1,1.1-2.9,1.2-4,0.1c-1.2-1.1-1.2-2.8-0.1-4
				C137.5,118.7,139.3,118.6,140.5,119.7"/>
			<path class="st12" d="M141,126.2c1.1,1,1.1,2.6,0.1,3.7c-1,1.1-2.7,1.1-3.7,0.1c-1.1-1-1.1-2.6-0.1-3.7
				C138.3,125.3,139.9,125.2,141,126.2"/>
			<path class="st12" d="M133.1,113.7c0.9,0.8,0.9,2.1,0.1,3c-0.8,0.9-2.2,0.9-3,0.1c-0.9-0.8-0.9-2.1-0.1-3
				C130.9,113,132.3,112.9,133.1,113.7"/>
			<path class="st12" d="M127.2,115.7c1.5,1.4,1.6,3.8,0.2,5.3c-1.4,1.5-3.8,1.6-5.3,0.2c-1.5-1.4-1.6-3.8-0.2-5.3
				C123.3,114.4,125.6,114.3,127.2,115.7"/>
			<path class="st12" d="M142.7,112.9c1.2,1.1,1.3,3.1,0.2,4.3c-1.1,1.2-3.1,1.3-4.3,0.2c-1.2-1.1-1.3-3.1-0.2-4.3
				C139.5,111.8,141.4,111.8,142.7,112.9"/>
			<path class="st12" d="M149.1,123.5c1,0.9,1,2.4,0.1,3.4c-0.9,1-2.5,1-3.4,0.1c-1-0.9-1-2.4-0.1-3.4
				C146.6,122.6,148.1,122.6,149.1,123.5"/>
			<path class="st12" d="M134.2,118.6c0.9,0.9,1,2.3,0.1,3.3c-0.9,0.9-2.4,1-3.3,0.1c-0.9-0.9-1-2.3-0.1-3.3
				C131.7,117.7,133.2,117.7,134.2,118.6"/>
			<path class="st13" d="M125.7,116c0.8,0.7,0.8,1.9,0.1,2.7c-0.7,0.8-1.9,0.8-2.7,0.1c-0.8-0.7-0.8-1.9-0.1-2.7
				C123.7,115.3,125,115.3,125.7,116"/>
			<path class="st13" d="M130.5,123.4c0.7,0.6,0.7,1.6,0.1,2.3c-0.6,0.7-1.6,0.7-2.3,0.1c-0.7-0.6-0.7-1.6-0.1-2.3
				C128.9,122.8,129.9,122.8,130.5,123.4"/>
			<path class="st13" d="M133.6,118.7c0.5,0.5,0.6,1.3,0.1,1.8c-0.5,0.5-1.3,0.5-1.8,0.1c-0.5-0.5-0.6-1.3-0.1-1.8
				C132.2,118.3,133.1,118.3,133.6,118.7"/>
			<path class="st13" d="M132.4,113.8c0.4,0.4,0.4,0.9,0.1,1.3c-0.4,0.4-1,0.4-1.3,0.1c-0.4-0.4-0.4-0.9,0-1.3
				C131.5,113.5,132.1,113.5,132.4,113.8"/>
			<path class="st13" d="M142.2,113.2c0.6,0.6,0.7,1.6,0.1,2.2c-0.6,0.6-1.6,0.7-2.2,0.1c-0.6-0.6-0.7-1.6-0.1-2.2
				C140.5,112.6,141.5,112.6,142.2,113.2"/>
			<path class="st13" d="M139.4,120.3c0.5,0.5,0.6,1.3,0.1,1.9c-0.5,0.5-1.3,0.6-1.9,0.1c-0.5-0.5-0.6-1.3-0.1-1.9
				C138,119.8,138.9,119.8,139.4,120.3"/>
			<path class="st13" d="M140.2,126.4c0.6,0.5,0.6,1.4,0.1,2s-1.4,0.6-2,0.1c-0.6-0.5-0.6-1.4-0.1-2
				C138.8,125.9,139.7,125.9,140.2,126.4"/>
			<path class="st13" d="M148.2,123.8c0.5,0.4,0.5,1.1,0.1,1.6c-0.4,0.4-1.1,0.5-1.6,0.1c-0.5-0.4-0.5-1.1-0.1-1.6
				C147,123.4,147.7,123.4,148.2,123.8"/>
			<path class="st8" d="M110.2,120.6c0,0-8.2-0.1-19.3-4.7c-17.1-7.1-41.3-5.4-37.8,13.6c3.8,21.1,24.4,13.5,36.2,6.7
				s22.1-10.9,22.1-10.9L110.2,120.6z"/>
			<path class="st14" d="M110.2,120.6l3.3-0.6c0,0-3-7.5,2.4-6c5.4,1.5,1.5,8.4,1.5,8.4s8.4-0.5,5.4,4.6c-2.9,5.2-7.6-2.2-7.6-2.2
				l-3.8,0.4L110.2,120.6z"/>
			<path class="st15" d="M112.5,124.5c-0.3-1.2-0.7-2.4-1.2-3.5c0.9-0.2,1.8-0.3,2.7-0.5c-0.5-1.3-0.9-2.6-1.1-3.9
				c-0.1-0.5-0.2-1.1,0.1-1.6c0.4-0.8,1.4-1,2.3-0.8c1.6,0.4,2.6,2.2,2.7,3.9c0,1.7-0.7,3.3-1.3,4.9c1.1-0.1,2.4-0.2,3.4,0.1
				c1.1,0.2,2.1,0.9,2.5,1.9c0.4,1,0.2,2.1-0.6,2.9c-1.1,1.1-3,0.9-4.3,0c-1.2-0.9-2-2.4-2.5-3.8
				C114.7,124.4,113.4,124.3,112.5,124.5"/>
			<path class="st7" d="M55.8,134c-1.3-1.5-2.2-3.2-2.8-5.1c-2.8-18.4,21.1-20,37.9-13c5,2.1,9.4,3.2,12.7,3.9
				c1.6,0.7,2.9,1.9,2.7,3.5c-0.2,1.6-1.8,2.6-3.2,3.3c-5.4,2.8-11,5.4-16.6,7.9c-5,2.2-10.2,4.3-15.7,4.8
				C65.3,139.7,59.4,138.1,55.8,134"/>
			<path class="st9" d="M62.2,132.4c6.3,1.7,12.9,2,19.3,0.8c4.6-0.8,9.2-2.5,12.1-6c0.9-1.1,1.6-2.3,1.9-3.7
				c0.3-1.4,0.1-2.9-0.6-4.1c-1-1.6-2.9-2.5-4.7-3.1c-6-2-12.4-2.4-18.7-2.2c-3,0.1-6.1,0.3-8.9,1.3c-2.9,1-5.5,2.8-7,5.4
				c-1.4,2.6-1.4,6.1,0.5,8.4C57.7,130.9,59.9,131.8,62.2,132.4"/>
			<path class="st8" d="M110.2,120.6c0,0-0.3,0-0.9,0c-0.6,0-1.4-0.1-2.4-0.2c-2.1-0.2-5.1-0.7-8.6-1.6c-1.8-0.5-3.6-1.1-5.6-1.7
				c-2-0.6-4-1.4-6.2-2.2c-2.1-0.7-4.3-1.4-6.7-1.7c-2.3-0.4-4.7-0.7-7.1-0.7c-2.4,0-4.8,0.1-7.1,0.6c-2.3,0.5-4.5,1.2-6.4,2.3
				c-1.9,1.1-3.5,2.6-4.6,4.3c-1.1,1.7-1.5,3.6-1.7,5.4c-0.1,1.8,0,3.4,0.3,4.8c0.2,1.4,0.6,2.7,0.9,3.7c0.3,1,0.6,1.8,0.9,2.3
				c0.2,0.5,0.4,0.8,0.4,0.8s-0.2-0.3-0.4-0.8c-0.3-0.5-0.6-1.2-1-2.2c-0.4-1-0.7-2.2-1-3.7c-0.3-1.4-0.5-3.1-0.4-4.9
				c0.1-1.8,0.5-3.8,1.6-5.6c1.1-1.8,2.7-3.4,4.7-4.6c2-1.2,4.3-1.9,6.6-2.4c2.4-0.5,4.8-0.7,7.2-0.6c2.4,0.1,4.9,0.3,7.2,0.8
				c2.3,0.4,4.7,1,6.8,1.8c2.1,0.8,4.2,1.6,6.1,2.3c2,0.7,3.8,1.3,5.5,1.8c3.5,1,6.4,1.6,8.5,1.9c1,0.1,1.9,0.2,2.4,0.3
				C109.9,120.5,110.2,120.6,110.2,120.6"/>
			<polygon class="st16" points="41.2,140.2 41.2,116.7 84.8,135.3 84.8,158.8 			"/>
			<path class="st17" d="M41.2,116.7l43.6,18.6l0,23.5l-43.6-18.6L41.2,116.7z M40.4,115.5v1.2l0,23.5v0.5l0.5,0.2l43.6,18.6
				l1.1,0.5v-1.2l0-23.5v-0.5l-0.5-0.2L41.5,116L40.4,115.5z"/>
			<polygon class="st16" points="165.5,137.4 165.5,113.9 85.8,135.3 85.8,158.8 			"/>
			<path class="st17" d="M165.5,113.9l0,23.5l-79.7,21.4l0-23.5L165.5,113.9z M166.3,112.9l-1,0.3l-79.7,21.4l-0.6,0.2l0,0.6l0,23.5
				v1l1-0.3l79.7-21.4l0.6-0.2v-0.6l0-23.5V112.9z"/>
			<path class="st18" d="M105.1,93.8l84.2,47.2c0.6,0.4,1,1,0.7,1.4l-0.9,1.5c-0.2,0.4-1,0.4-1.6,0.1l-83.3-48.7
				c-0.6-0.4-1-1-0.7-1.4S104.5,93.4,105.1,93.8"/>
			<path class="st18" d="M103.9,96.1l82.5,50c0.6,0.4,0.9,1,0.6,1.4l-1,1.4c-0.3,0.4-1,0.4-1.6,0l-81.5-51.4c-0.6-0.4-0.9-1-0.6-1.4
				C102.5,95.8,103.2,95.8,103.9,96.1"/>
		</g>
		<g class="st3">
			<defs>
				<rect id="SVGID_7_" x="9.9" y="10.6" width="180.3" height="178.9"/>
			</defs>
			<clipPath id="SVGID_8_">
				<use xlink:href="#SVGID_7_"  style="overflow:visible;"/>
			</clipPath>
			<g class="st19">
				<defs>
					<path id="SVGID_9_" d="M190.1-144c0,49.4-40.4,89.4-90.1,89.4S9.9-94.6,9.9-144s40.4-89.4,90.1-89.4S190.1-193.4,190.1-144"/>
				</defs>
				<clipPath id="SVGID_10_">
					<use xlink:href="#SVGID_9_"  style="overflow:visible;"/>
				</clipPath>
				<path class="st20" d="M94.8-152.2c0.7,4.1,6.1,51.2,6.4,60.2c0.3,9-3.8,18.7-6,24.8c-2.2,6,0.2,99,0.6,102.7
					C96.2,39.2,61,27,61,27l-0.7-75l-6.2-49.4l23.6-16.1c0,0,1-19.6,1.1-27.1c0.1-7.5,2.5-16.4,8.5-17.1
					C94.4-158.7,94.8-152.2,94.8-152.2"/>
			</g>
		</g>
	</g>
</g>
</svg>
