<?xml version="1.0" encoding="utf-8"?>
<!-- Generator: Adobe Illustrator 23.0.1, SVG Export Plug-In . SVG Version: 6.00 Build 0)  -->
<svg version="1.1" id="圖層_1" xmlns="http://www.w3.org/2000/svg" xmlns:xlink="http://www.w3.org/1999/xlink" x="0px" y="0px"
	 viewBox="0 0 200 200" style="enable-background:new 0 0 200 200;" xml:space="preserve">
<style type="text/css">
	.st0{clip-path:url(#SVGID_2_);fill:#E6EBF5;}
	.st1{clip-path:url(#SVGID_2_);fill:#CCD3DB;}
	.st2{clip-path:url(#SVGID_2_);fill:#FFFFFF;}
	.st3{clip-path:url(#SVGID_2_);}
	.st4{clip-path:url(#SVGID_4_);fill:#FFD47D;}
	.st5{clip-path:url(#SVGID_6_);fill:#EAE6CE;}
	.st6{clip-path:url(#SVGID_6_);fill:#F1F3E2;}
	.st7{clip-path:url(#SVGID_6_);fill:#E5B15D;}
	.st8{clip-path:url(#SVGID_6_);fill:#D6963D;}
	.st9{clip-path:url(#SVGID_6_);fill:#F3CA6E;}
	.st10{clip-path:url(#SVGID_6_);fill:#F9DC8F;}
	.st11{clip-path:url(#SVGID_6_);fill:#728801;}
	.st12{clip-path:url(#SVGID_6_);fill:#A2AD22;}
	.st13{clip-path:url(#SVGID_6_);fill:#C5CE3D;}
	.st14{clip-path:url(#SVGID_6_);fill:#C6A67D;}
	.st15{clip-path:url(#SVGID_6_);fill:#DCC496;}
	.st16{clip-path:url(#SVGID_6_);fill:#E6EBF5;}
	.st17{clip-path:url(#SVGID_6_);fill:#FFFFFF;}
	.st18{clip-path:url(#SVGID_6_);fill:#9FADC3;}
	.st19{clip-path:url(#SVGID_8_);}
	.st20{clip-path:url(#SVGID_10_);fill:#FFCAB3;}
	.st21{clip-path:url(#SVGID_12_);}
	.st22{clip-path:url(#SVGID_14_);fill:#E6EBF5;}
	.st23{clip-path:url(#SVGID_14_);fill:#FFD47D;}
	.st24{clip-path:url(#SVGID_14_);fill:#FFFFFF;}
	.st25{clip-path:url(#SVGID_14_);fill:#A1ADC1;}
	.st26{clip-path:url(#SVGID_16_);fill:#FFFFFF;}
	.st27{clip-path:url(#SVGID_18_);fill:#FFD47D;}
	.st28{clip-path:url(#SVGID_18_);fill:#FFCB6E;}
	.st29{clip-path:url(#SVGID_18_);fill:#2F4566;}
	.st30{clip-path:url(#SVGID_18_);fill:#FDDC8D;}
	.st31{clip-path:url(#SVGID_20_);}
	.st32{clip-path:url(#SVGID_22_);fill:#FFD47D;}
	.st33{clip-path:url(#SVGID_22_);}
	.st34{clip-path:url(#SVGID_24_);fill:#9FADC3;}
	.st35{clip-path:url(#SVGID_24_);fill:#FFCB6E;}
	.st36{clip-path:url(#SVGID_24_);fill:#FFD47D;}
	.st37{opacity:0.149;clip-path:url(#SVGID_26_);enable-background:new    ;}
	.st38{clip-path:url(#SVGID_28_);fill:#E69A10;}
	.st39{clip-path:url(#SVGID_30_);fill:#FFFFFF;}
	.st40{clip-path:url(#SVGID_32_);}
	.st41{clip-path:url(#SVGID_34_);fill:#FDE9E0;}
	.st42{clip-path:url(#SVGID_34_);fill:#595757;}
	.st43{clip-path:url(#SVGID_34_);fill:#717071;}
	.st44{clip-path:url(#SVGID_34_);fill:#EFCCC2;}
	.st45{clip-path:url(#SVGID_34_);fill:#B4B4B5;}
	.st46{clip-path:url(#SVGID_34_);fill:#FFFFFF;}
	.st47{clip-path:url(#SVGID_34_);fill:#23325B;}
	.st48{clip-path:url(#SVGID_34_);fill:#2D4773;}
	.st49{clip-path:url(#SVGID_34_);fill:#D8D8D8;}
	.st50{clip-path:url(#SVGID_34_);fill:#ED556E;}
	.st51{clip-path:url(#SVGID_36_);}
	.st52{clip-path:url(#SVGID_38_);fill:#FDE9E0;}
	.st53{clip-path:url(#SVGID_38_);fill:#595757;}
	.st54{clip-path:url(#SVGID_38_);fill:#717071;}
	.st55{clip-path:url(#SVGID_38_);fill:#EFCCC2;}
	.st56{clip-path:url(#SVGID_38_);fill:#E1B58E;}
	.st57{clip-path:url(#SVGID_38_);fill:#FFFFFF;}
	.st58{clip-path:url(#SVGID_38_);fill:#D8D8D8;}
	.st59{clip-path:url(#SVGID_38_);fill:#2D4773;}
	.st60{clip-path:url(#SVGID_38_);fill:#D39E76;}
	.st61{clip-path:url(#SVGID_40_);}
	.st62{clip-path:url(#SVGID_42_);fill:#FDE9E0;}
	.st63{clip-path:url(#SVGID_42_);fill:#595757;}
	.st64{clip-path:url(#SVGID_42_);fill:#EFCCC2;}
	.st65{clip-path:url(#SVGID_42_);fill:#717071;}
	.st66{clip-path:url(#SVGID_42_);fill:#FFFFFF;}
	.st67{clip-path:url(#SVGID_42_);fill:#3E3A39;}
	.st68{clip-path:url(#SVGID_42_);fill:#D8D8D8;}
	.st69{clip-path:url(#SVGID_42_);fill:#2D4773;}
	.st70{clip-path:url(#SVGID_44_);}
	.st71{clip-path:url(#SVGID_46_);fill:#E1B58E;}
	.st72{clip-path:url(#SVGID_46_);fill:#D39E76;}
	.st73{clip-path:url(#SVGID_46_);fill:#595757;}
	.st74{clip-path:url(#SVGID_46_);fill:#FDE9E0;}
	.st75{clip-path:url(#SVGID_46_);fill:#EFCCC2;}
	.st76{clip-path:url(#SVGID_46_);fill:#717071;}
	.st77{clip-path:url(#SVGID_46_);fill:#B4B4B5;}
	.st78{clip-path:url(#SVGID_46_);fill:#FFFFFF;}
	.st79{clip-path:url(#SVGID_46_);fill:#D8D8D8;}
</style>
<g>
	<g>
		<defs>
			<rect id="SVGID_11_" width="200" height="200"/>
		</defs>
		<clipPath id="SVGID_2_">
			<use xlink:href="#SVGID_11_"  style="overflow:visible;"/>
		</clipPath>
		<g class="st3">
			<defs>
				<rect id="SVGID_13_" width="200" height="200"/>
			</defs>
			<clipPath id="SVGID_4_">
				<use xlink:href="#SVGID_13_"  style="overflow:visible;"/>
			</clipPath>
			<path style="clip-path:url(#SVGID_4_);fill:#E6EBF5;" d="M37,90.4h100.1V143c0,4.6-3.7,8.3-8.3,8.3H45.3c-4.6,0-8.3-3.7-8.3-8.3
				V90.4z"/>
			<path class="st4" d="M45.3,54.5h83.4c4.6,0,8.3,3.7,8.3,8.3v25H37v-25C37,58.3,40.7,54.5,45.3,54.5"/>
			<path style="clip-path:url(#SVGID_4_);fill:#FFFFFF;" d="M87.4,57c3.5,0,6.3,2.8,6.3,6.3c0,3.5-2.8,6.3-6.3,6.3
				c-3.5,0-6.3-2.8-6.3-6.3C81.2,59.8,84,57,87.4,57"/>
			<path style="clip-path:url(#SVGID_4_);fill:#FFFFFF;" d="M60.7,57.9c3.5,0,6.3,2.8,6.3,6.3c0,3.5-2.8,6.3-6.3,6.3
				c-3.5,0-6.3-2.8-6.3-6.3C54.5,60.7,57.3,57.9,60.7,57.9"/>
			<path style="clip-path:url(#SVGID_4_);fill:#FFFFFF;" d="M113.3,57c3.5,0,6.3,2.8,6.3,6.3c0,3.5-2.8,6.3-6.3,6.3
				c-3.5,0-6.3-2.8-6.3-6.3C107,59.8,109.8,57,113.3,57"/>
			<path style="clip-path:url(#SVGID_4_);fill:#A1ADC1;" d="M87.4,67.1c-2.3,0-4.2-1.9-4.2-4.2v-10c0-2.3,1.9-4.2,4.2-4.2
				c2.3,0,4.2,1.9,4.2,4.2v10C91.6,65.2,89.7,67.1,87.4,67.1"/>
			<path style="clip-path:url(#SVGID_4_);fill:#A1ADC1;" d="M60.7,67.1c-2.3,0-4.2-1.9-4.2-4.2v-10c0-2.3,1.9-4.2,4.2-4.2
				c2.3,0,4.2,1.9,4.2,4.2v10C64.8,65.2,63,67.1,60.7,67.1"/>
			<path style="clip-path:url(#SVGID_4_);fill:#A1ADC1;" d="M113.3,67.1c-2.3,0-4.2-1.9-4.2-4.2v-10c0-2.3,1.9-4.2,4.2-4.2
				c2.3,0,4.2,1.9,4.2,4.2v10C117.4,65.2,115.6,67.1,113.3,67.1"/>
		</g>
		<g class="st3">
			<defs>
				<rect id="SVGID_15_" x="45.3" y="98.7" width="83.4" height="40.1"/>
			</defs>
			<clipPath id="SVGID_6_">
				<use xlink:href="#SVGID_15_"  style="overflow:visible;"/>
			</clipPath>
			<path class="st17" d="M47,98.7h5c0.9,0,1.7,0.7,1.7,1.7v5c0,0.9-0.7,1.7-1.7,1.7h-5c-0.9,0-1.7-0.7-1.7-1.7v-5
				C45.3,99.5,46,98.7,47,98.7"/>
			<path class="st17" d="M59.5,98.7h5c0.9,0,1.7,0.7,1.7,1.7v5c0,0.9-0.7,1.7-1.7,1.7h-5c-0.9,0-1.7-0.7-1.7-1.7v-5
				C57.8,99.5,58.6,98.7,59.5,98.7"/>
			<path class="st17" d="M72,98.7h5c0.9,0,1.7,0.7,1.7,1.7v5c0,0.9-0.7,1.7-1.7,1.7h-5c-0.9,0-1.7-0.7-1.7-1.7v-5
				C70.3,99.5,71.1,98.7,72,98.7"/>
			<path class="st17" d="M84.5,98.7h5c0.9,0,1.7,0.7,1.7,1.7v5c0,0.9-0.7,1.7-1.7,1.7h-5c-0.9,0-1.7-0.7-1.7-1.7v-5
				C82.8,99.5,83.6,98.7,84.5,98.7"/>
			<path class="st17" d="M97,98.7h5c0.9,0,1.7,0.7,1.7,1.7v5c0,0.9-0.7,1.7-1.7,1.7h-5c-0.9,0-1.7-0.7-1.7-1.7v-5
				C95.4,99.5,96.1,98.7,97,98.7"/>
			<path class="st17" d="M109.5,98.7h5c0.9,0,1.7,0.7,1.7,1.7v5c0,0.9-0.7,1.7-1.7,1.7h-5c-0.9,0-1.7-0.7-1.7-1.7v-5
				C107.9,99.5,108.6,98.7,109.5,98.7"/>
			<path class="st17" d="M122.1,98.7h5c0.9,0,1.7,0.7,1.7,1.7v5c0,0.9-0.7,1.7-1.7,1.7h-5c-0.9,0-1.7-0.7-1.7-1.7v-5
				C120.4,99.5,121.1,98.7,122.1,98.7"/>
			<path class="st17" d="M47,113.8h5c0.9,0,1.7,0.7,1.7,1.7v5c0,0.9-0.7,1.7-1.7,1.7h-5c-0.9,0-1.7-0.7-1.7-1.7v-5
				C45.3,114.5,46,113.8,47,113.8"/>
			<path class="st17" d="M59.5,113.8h5c0.9,0,1.7,0.7,1.7,1.7v5c0,0.9-0.7,1.7-1.7,1.7h-5c-0.9,0-1.7-0.7-1.7-1.7v-5
				C57.8,114.5,58.6,113.8,59.5,113.8"/>
			<path class="st17" d="M72,113.8h5c0.9,0,1.7,0.7,1.7,1.7v5c0,0.9-0.7,1.7-1.7,1.7h-5c-0.9,0-1.7-0.7-1.7-1.7v-5
				C70.3,114.5,71.1,113.8,72,113.8"/>
			<path class="st17" d="M84.5,113.8h5c0.9,0,1.7,0.7,1.7,1.7v5c0,0.9-0.7,1.7-1.7,1.7h-5c-0.9,0-1.7-0.7-1.7-1.7v-5
				C82.8,114.5,83.6,113.8,84.5,113.8"/>
			<path class="st17" d="M97,113.8h5c0.9,0,1.7,0.7,1.7,1.7v5c0,0.9-0.7,1.7-1.7,1.7h-5c-0.9,0-1.7-0.7-1.7-1.7v-5
				C95.4,114.5,96.1,113.8,97,113.8"/>
			<path class="st17" d="M109.5,113.8h5c0.9,0,1.7,0.7,1.7,1.7v5c0,0.9-0.7,1.7-1.7,1.7h-5c-0.9,0-1.7-0.7-1.7-1.7v-5
				C107.9,114.5,108.6,113.8,109.5,113.8"/>
			<path class="st17" d="M122.1,113.8h5c0.9,0,1.7,0.7,1.7,1.7v5c0,0.9-0.7,1.7-1.7,1.7h-5c-0.9,0-1.7-0.7-1.7-1.7v-5
				C120.4,114.5,121.1,113.8,122.1,113.8"/>
			<path class="st17" d="M47,128.8h5c0.9,0,1.7,0.7,1.7,1.7v5c0,0.9-0.7,1.7-1.7,1.7h-5c-0.9,0-1.7-0.7-1.7-1.7v-5
				C45.3,129.5,46,128.8,47,128.8"/>
			<path class="st17" d="M59.5,128.8h5c0.9,0,1.7,0.7,1.7,1.7v5c0,0.9-0.7,1.7-1.7,1.7h-5c-0.9,0-1.7-0.7-1.7-1.7v-5
				C57.8,129.5,58.6,128.8,59.5,128.8"/>
			<path class="st17" d="M72,128.8h5c0.9,0,1.7,0.7,1.7,1.7v5c0,0.9-0.7,1.7-1.7,1.7h-5c-0.9,0-1.7-0.7-1.7-1.7v-5
				C70.3,129.5,71.1,128.8,72,128.8"/>
			<path class="st17" d="M84.5,128.8h5c0.9,0,1.7,0.7,1.7,1.7v5c0,0.9-0.7,1.7-1.7,1.7h-5c-0.9,0-1.7-0.7-1.7-1.7v-5
				C82.8,129.5,83.6,128.8,84.5,128.8"/>
			<path class="st17" d="M97,128.8h5c0.9,0,1.7,0.7,1.7,1.7v5c0,0.9-0.7,1.7-1.7,1.7h-5c-0.9,0-1.7-0.7-1.7-1.7v-5
				C95.4,129.5,96.1,128.8,97,128.8"/>
			<path class="st17" d="M109.5,128.8h5c0.9,0,1.7,0.7,1.7,1.7v5c0,0.9-0.7,1.7-1.7,1.7h-5c-0.9,0-1.7-0.7-1.7-1.7v-5
				C107.9,129.5,108.6,128.8,109.5,128.8"/>
			<path class="st17" d="M122.1,128.8h5c0.9,0,1.7,0.7,1.7,1.7v5c0,0.9-0.7,1.7-1.7,1.7h-5c-0.9,0-1.7-0.7-1.7-1.7v-5
				C120.4,129.5,121.1,128.8,122.1,128.8"/>
		</g>
		<g class="st3">
			<defs>
				<rect id="SVGID_17_" x="94.5" y="94.2" width="68.6" height="57.1"/>
			</defs>
			<clipPath id="SVGID_8_">
				<use xlink:href="#SVGID_17_"  style="overflow:visible;"/>
			</clipPath>
			<path style="clip-path:url(#SVGID_8_);fill:#FFD47D;" d="M95.7,128.4l3.7,1.7c0.8,0.4,1.4,1,1.8,1.8c1.5,3.1,3.5,5.9,6.1,8.2
				c1.1,1,2,2.4,2.4,3.9l1.8,6.1c0.2,0.7,0.9,1.2,1.6,1.2h9.7c0.7,0,1.3-0.4,1.5-1l0.8-1.7c0.2-0.5,0.7-0.7,1.2-0.7
				c0.5,0,1.1,0,1.7,0c0.6,0,1.2,0,1.8,0c0.5,0,1,0.3,1.2,0.7l0.9,1.9c0.2,0.5,0.7,0.8,1.3,0.8h10.2c0.6,0,1.1-0.4,1.2-0.9l1.6-5.3
				c0.7-2.2,1.8-4.1,3.5-5.7c4.7-4.6,7.4-10.8,7.4-17.4c0-2.9-0.5-5.8-1.6-8.5l0,0c0.4-0.1,0.8-0.3,1.2-0.5c0.3-0.2,0.6-0.4,0.9-0.7
				c0.1-0.1,0.3-0.2,0.4-0.4c0.1-0.1,0.1-0.1,0.2-0.2l0.1-0.1l0.1-0.1l0,0c0,0,0.1-0.1,0.1-0.1l0,0c0.1,0,0.1,0,0.2,0
				c0.2,0,0.5,0,0.7,0c0.2,0,0.5,0,0.7-0.1c0.1,0,0.2-0.1,0.3-0.1c0.1,0,0.2-0.1,0.3-0.1c0.4-0.2,0.8-0.5,1.1-0.8
				c0.3-0.3,0.6-0.7,0.8-1.1c0.2-0.4,0.4-0.8,0.6-1.2c-0.2,0.4-0.4,0.8-0.6,1.1c-0.2,0.4-0.5,0.7-0.8,1c-0.3,0.3-0.7,0.5-1.1,0.7
				c-0.1,0-0.2,0.1-0.3,0.1c-0.1,0-0.2,0.1-0.3,0.1c-0.4,0.1-0.8,0.1-1.2,0c0,0,0-0.1,0.1-0.1c0.1-0.2,0.2-0.5,0.3-0.7
				c0.2-0.5,0.3-1,0.3-1.5c0-0.5,0-1-0.1-1.5c-0.1-0.3-0.1-0.5-0.3-0.7c-0.1-0.1-0.1-0.2-0.2-0.3c-0.1-0.1-0.1-0.2-0.2-0.3
				c-0.1-0.1-0.2-0.2-0.3-0.3c0,0-0.1-0.1-0.1-0.1l-0.1-0.1c0,0-0.1-0.1-0.1-0.1c-0.2-0.2-0.5-0.3-0.9-0.4c-0.3,0-0.6,0-0.9,0
				c-0.3,0.1-0.5,0.2-0.8,0.4c-0.2,0.2-0.4,0.4-0.5,0.7c-0.1,0.3-0.2,0.5-0.2,0.8c0,0.3,0,0.5,0.1,0.8c0.1,0.2,0.1,0.5,0.2,0.7
				c0,0.1,0.1,0.2,0.2,0.3c0,0.1,0.1,0.1,0.1,0.2c0,0,0.1,0.1,0.1,0.1c0.1,0.2,0.2,0.4,0.4,0.6c0.1,0.2,0.3,0.4,0.4,0.5
				c0.1,0.2,0.3,0.3,0.5,0.5c0.1,0,0.1,0.1,0.2,0.1c0,0-0.1,0.1-0.1,0.1c-0.1,0.1-0.2,0.2-0.4,0.3c-0.2,0.2-0.5,0.3-0.8,0.5
				c-0.1,0.1-0.2,0.1-0.4,0.2c-0.1,0-0.2,0.1-0.4,0.1c-0.1,0-0.2,0-0.3,0c0,0,0,0-0.1,0C150.2,102.5,139.9,96,128,96
				c-12.5,0-23.2,7.1-27.2,17.1c-0.1,0.3-0.4,0.6-0.7,0.8l-3.2,1.6c-0.6,0.3-1,0.8-1.1,1.5l-1.3,9.2C94.3,127.1,94.9,128,95.7,128.4
				 M157.2,110c-0.1-0.2-0.3-0.3-0.4-0.5c-0.1-0.2-0.2-0.3-0.3-0.5c-0.1-0.2-0.2-0.4-0.3-0.6c0,0,0-0.1-0.1-0.1c0,0,0-0.1-0.1-0.1
				c0-0.1-0.1-0.2-0.1-0.3c-0.1-0.4-0.2-0.7-0.2-1.1c0-0.2,0.1-0.3,0.1-0.4c0.1-0.1,0.2-0.2,0.3-0.3c0.2-0.2,0.5-0.2,0.8-0.1
				c0.1,0,0.2,0.1,0.3,0.2l0,0l0,0.1c0,0,0.1,0.1,0.1,0.1c0.1,0.1,0.1,0.1,0.2,0.2c0.4,0.6,0.5,1.3,0.3,2.1
				c-0.1,0.4-0.2,0.7-0.3,1.1c-0.1,0.2-0.2,0.3-0.3,0.5c0,0,0,0.1-0.1,0.1c0,0,0,0,0,0C157.3,110.1,157.3,110.1,157.2,110"/>
			<path style="clip-path:url(#SVGID_8_);fill:#FFCB6E;" d="M109.7,144l1.8,6.1c0.2,0.7,0.9,1.2,1.6,1.2h9.7c0.7,0,1.3-0.4,1.5-1
				l0.8-1.7c0.2-0.5,0.7-0.7,1.2-0.7c0.6,0,1.1,0,1.7,0c0.6,0,1.2,0,1.8,0c0.5,0,1,0.3,1.2,0.7l0.9,1.9c0.2,0.5,0.7,0.8,1.3,0.8
				h10.2c0.6,0,1.1-0.4,1.2-0.9l1.6-5.3c0.7-2.2,1.8-4.1,3.5-5.7c4.7-4.6,7.4-10.8,7.4-17.4c0-2.9-0.5-5.8-1.6-8.5l0,0
				c0.4-0.1,0.8-0.3,1.2-0.5c0.3-0.2,0.6-0.4,0.9-0.7c0.1-0.1,0.3-0.2,0.4-0.4c0.1-0.1,0.1-0.1,0.2-0.2l0.1-0.1l0.1-0.1l0,0
				c0,0,0.1-0.1,0.1-0.1l0,0c0.1,0,0.1,0,0.2,0c0.2,0,0.5,0,0.7,0c0.2,0,0.5,0,0.7-0.1c0.1,0,0.2-0.1,0.3-0.1c0.1,0,0.2-0.1,0.3-0.1
				c0.4-0.2,0.8-0.5,1.1-0.8c0.3-0.3,0.6-0.7,0.8-1.1c0.2-0.4,0.4-0.8,0.6-1.2c-0.2,0.4-0.4,0.8-0.6,1.1c-0.2,0.4-0.5,0.7-0.8,1
				c-0.3,0.3-0.7,0.5-1.1,0.7c-0.1,0-0.2,0.1-0.3,0.1c-0.1,0-0.2,0.1-0.3,0.1c-0.4,0.1-0.8,0.1-1.2,0c0,0,0-0.1,0.1-0.1
				c0.1-0.2,0.2-0.5,0.3-0.7c0.2-0.5,0.3-1,0.3-1.5c0-0.5,0-1-0.1-1.5c-0.1-0.3-0.1-0.5-0.3-0.7c-0.1-0.1-0.1-0.2-0.2-0.3
				c-0.1-0.1-0.1-0.2-0.2-0.3c-0.1-0.1-0.2-0.2-0.3-0.3c0,0-0.1-0.1-0.1-0.1l-0.1-0.1c0,0-0.1-0.1-0.1-0.1c-0.2-0.2-0.5-0.3-0.9-0.4
				c-0.3,0-0.6,0-0.9,0c-0.3,0.1-0.5,0.2-0.8,0.4c-0.2,0.2-0.4,0.4-0.5,0.7c-0.1,0.3-0.2,0.5-0.2,0.8c0,0.3,0,0.5,0.1,0.8
				c0.1,0.2,0.1,0.5,0.2,0.7c0,0.1,0.1,0.2,0.1,0.3c0,0.1,0.1,0.1,0.1,0.2c0,0,0.1,0.1,0.1,0.1c0.1,0.2,0.2,0.4,0.4,0.6
				c0.1,0.2,0.3,0.4,0.4,0.5c0.1,0.2,0.3,0.3,0.5,0.5c0.1,0,0.1,0.1,0.2,0.1c-0.1,0-0.1,0.1-0.2,0.1c-0.1,0.1-0.2,0.2-0.4,0.3
				c-0.2,0.2-0.5,0.3-0.8,0.5c-0.1,0.1-0.2,0.1-0.4,0.2c-0.1,0-0.2,0.1-0.4,0.1c-0.1,0-0.2,0-0.3,0c0,0,0,0-0.1,0
				c-1.9-4-4.9-7.4-8.5-10 M157.2,110c-0.1-0.2-0.3-0.3-0.4-0.5c-0.1-0.2-0.2-0.3-0.3-0.5c-0.1-0.2-0.2-0.4-0.3-0.6
				c0,0,0-0.1-0.1-0.1c0,0,0-0.1-0.1-0.1c0-0.1-0.1-0.2-0.1-0.3c-0.1-0.4-0.2-0.7-0.2-1.1c0-0.2,0.1-0.3,0.1-0.4
				c0.1-0.1,0.2-0.2,0.3-0.3c0.2-0.2,0.5-0.2,0.8-0.1c0.1,0,0.2,0.1,0.3,0.2l0,0l0,0.1c0,0,0.1,0.1,0.1,0.1c0.1,0.1,0.1,0.1,0.2,0.2
				c0.4,0.6,0.5,1.3,0.3,2.1c-0.1,0.4-0.2,0.7-0.3,1.1c-0.1,0.2-0.2,0.3-0.3,0.5c0,0,0,0.1-0.1,0.1c0,0,0,0,0,0
				C157.3,110.1,157.3,110.1,157.2,110"/>
			<path style="clip-path:url(#SVGID_8_);fill:#2F4566;" d="M103.8,114.7c-0.2,0.9,0,1.7,0.3,1.7c0.3,0.1,0.7-0.6,0.9-1.5
				c0.1-0.9,0-1.7-0.3-1.7C104.3,113.2,103.9,113.8,103.8,114.7"/>
			<path style="clip-path:url(#SVGID_8_);fill:#FDDC8D;" d="M116.8,99.9c-0.8-0.8-5.5-5.3-14.1-5.6c-0.2,0-0.4,0.2-0.4,0.4
				c0,0.1,0,0.1,0,0.2c1,2.1,4.3,9.3,5.3,14.3c0,0.2,0.2,0.4,0.4,0.3c1.7-0.1,9-0.9,8.9-9.4C116.9,100,116.9,99.9,116.8,99.9"/>
			<path style="clip-path:url(#SVGID_8_);fill:#FFCB6E;" d="M111.4,102.9c0-0.2,0-0.4,0-0.5c-0.2-1.7-0.9-3.4-2.2-4.6
				c-1.9-1.8-4.3-3.1-6.9-3.5c0.1-0.1,0.2-0.1,0.3-0.1c8.6,0.3,13.4,4.8,14.1,5.6c0.1,0.1,0.1,0.2,0.1,0.3c0.1,8.5-7.2,9.3-8.9,9.4
				c-0.2,0-0.4-0.1-0.4-0.3c0-0.1-0.1-0.3-0.1-0.4C109.8,108,111.2,107,111.4,102.9"/>
			<path style="clip-path:url(#SVGID_8_);fill:#FFCB6E;" d="M120.9,99.8c5.2-1.6,10.7-1.6,15.9,0l0.5-1.1c-1.7-0.6-3.4-0.9-5.1-1.1
				c-4-0.5-8-0.1-11.8,1.1L120.9,99.8z"/>
		</g>
	</g>
</g>
</svg>
