<?xml version="1.0" encoding="utf-8"?>
<!-- Generator: Adobe Illustrator 23.0.1, SVG Export Plug-In . SVG Version: 6.00 Build 0)  -->
<svg version="1.1" xmlns="http://www.w3.org/2000/svg" xmlns:xlink="http://www.w3.org/1999/xlink" x="0px" y="0px"
	 viewBox="0 0 200 200" style="enable-background:new 0 0 200 200;" xml:space="preserve">
<style type="text/css">
	.st0{clip-path:url(#SVGID_2_);}
	.st1{clip-path:url(#SVGID_4_);}
	.st2{clip-path:url(#SVGID_6_);fill:#FBE7DF;}
	.st3{clip-path:url(#SVGID_6_);fill:#595857;}
	.st4{clip-path:url(#SVGID_6_);fill:#717071;}
	.st5{clip-path:url(#SVGID_6_);fill:#ECCAC0;}
	.st6{clip-path:url(#SVGID_6_);fill:#B5B4B5;}
	.st7{clip-path:url(#SVGID_6_);fill:#FFFFFF;}
	.st8{clip-path:url(#SVGID_6_);fill:#213159;}
	.st9{clip-path:url(#SVGID_6_);fill:#2B4670;}
	.st10{clip-path:url(#SVGID_6_);fill:#D8D8D8;}
	.st11{clip-path:url(#SVGID_6_);fill:#DF546A;}
	.st12{display:none;clip-path:url(#SVGID_2_);}
	.st13{display:inline;}
	.st14{clip-path:url(#SVGID_8_);}
	.st15{clip-path:url(#SVGID_10_);fill:#FBE7DF;}
	.st16{clip-path:url(#SVGID_10_);fill:#595857;}
	.st17{clip-path:url(#SVGID_10_);fill:#717071;}
	.st18{clip-path:url(#SVGID_10_);fill:#ECCAC0;}
	.st19{clip-path:url(#SVGID_10_);fill:#DCB28C;}
	.st20{clip-path:url(#SVGID_10_);fill:#FFFFFF;}
	.st21{clip-path:url(#SVGID_10_);fill:#D8D8D8;}
	.st22{clip-path:url(#SVGID_10_);fill:#2B4670;}
	.st23{clip-path:url(#SVGID_10_);fill:#CE9B74;}
	.st24{clip-path:url(#SVGID_12_);}
	.st25{clip-path:url(#SVGID_14_);fill:#FBE7DF;}
	.st26{clip-path:url(#SVGID_14_);fill:#595857;}
	.st27{clip-path:url(#SVGID_14_);fill:#ECCAC0;}
	.st28{clip-path:url(#SVGID_14_);fill:#717071;}
	.st29{clip-path:url(#SVGID_14_);fill:#FFFFFF;}
	.st30{clip-path:url(#SVGID_14_);fill:#3E3A39;}
	.st31{clip-path:url(#SVGID_14_);fill:#D8D8D8;}
	.st32{clip-path:url(#SVGID_14_);fill:#2B4670;}
	.st33{clip-path:url(#SVGID_16_);}
	.st34{clip-path:url(#SVGID_18_);fill:#DCB28C;}
	.st35{clip-path:url(#SVGID_18_);fill:#CE9B74;}
	.st36{clip-path:url(#SVGID_18_);fill:#595857;}
	.st37{clip-path:url(#SVGID_18_);fill:#FBE7DF;}
	.st38{clip-path:url(#SVGID_18_);fill:#ECCAC0;}
	.st39{clip-path:url(#SVGID_18_);fill:#717071;}
	.st40{clip-path:url(#SVGID_18_);fill:#B5B4B5;}
	.st41{clip-path:url(#SVGID_18_);fill:#FFFFFF;}
	.st42{clip-path:url(#SVGID_18_);fill:#D8D8D8;}
</style>
<g id="圖層_2">
</g>
<g id="圖層_1">
	<g>
		<defs>
			<circle id="SVGID_1_" cx="99.9" cy="100.3" r="93.2"/>
		</defs>
		<clipPath id="SVGID_2_">
			<use xlink:href="#SVGID_1_"  style="overflow:visible;"/>
		</clipPath>
		<g class="st0">
			<g>
				<defs>
					<rect id="SVGID_3_" x="12.8" y="19" width="176.2" height="176.2"/>
				</defs>
				<clipPath id="SVGID_4_">
					<use xlink:href="#SVGID_3_"  style="overflow:visible;"/>
				</clipPath>
				<g class="st1">
					<defs>
						<circle id="SVGID_5_" cx="100.9" cy="107.1" r="88.1"/>
					</defs>
					<clipPath id="SVGID_6_">
						<use xlink:href="#SVGID_5_"  style="overflow:visible;"/>
					</clipPath>
					<path class="st2" d="M60.3,77.8c-1.4,0.1-2.6,1.2-3.3,2.5c-0.6,1.3-0.7,2.8-0.7,4.2c0,2.6,0.3,5.3,1.3,7.8
						c1,2.5,2.6,4.7,4.9,6.1c0.2,0.1,0.4,0.2,0.6,0.2c0.3,0,0.5-0.2,0.7-0.3c2.2-1.9,3.4-4.8,3.5-7.7c0.1-2.9-0.6-5.8-1.5-8.5
						c-0.4-1.3-1-2.7-2-3.6c-1-0.9-2.7-1.3-3.8-0.5"/>
					<path class="st2" d="M79,133.8c0.8,3.3,2.2,8.6,4.7,11.2c0.7,0.7,3.2,2.4,4.1,2.8c1.3,0.6,6,6,7.5,5.7c6-1.3,18.8,3.3,19.2-2.8
						c0.7-9.6,3.3-24.2,6.7-29.4c1.3-2,2.6-4.2,2.9-6.6c0.1-0.8,0-1.8-0.6-2.3c-0.3-0.3-0.7-0.4-1.1-0.5c-1.7-0.4-3.4-0.4-5.1-0.3
						c-12.5,0.6-24.8,5.4-34.2,13.6c-1.3,1.1-2.5,2.3-3.4,3.8s-1.3,3.3-0.8,4.9"/>
					<path class="st2" d="M62.6,73.6c0.6,2.5,1,11.7,0,16.9c-1,5.2-1.3,17.3,1.4,24c2.7,6.7,4.2,15.8,11.2,19.3
						c5.5,2.7,13.2,5.3,23.3,1.3c8.5-3.3,20.4-12.7,23-15.9c2.7-3.2,5.6-8.6,6.2-9.8c1-2,1.6-18.8,1.9-20.7
						c3.2-17.2-10.5-41.6-17.2-43.6c-6.8-2-21.6-7.6-29.3-3.3C75.4,45.9,58.3,55.2,62.6,73.6"/>
					<path class="st3" d="M119.3,47.1c4.2,0.1,14.5,4.4,16.8,10.7c1.6,4.2,4.4,13.2,3.3,20.2c-0.5,3.3-1.7,6.3-2,7.1
						c-0.3,0.8,0.5-1.7-0.3-3.1c-0.7-1.3-2.2-3.2-4.7-2.9c-2.4,0.3-3.6,1.4-4.7,3.9c-1.1,2.6-2.3-4.1-2.5-8.3c-0.2-4.1-6.5-15-8-18
						C115.7,53.8,114.5,47,119.3,47.1"/>
					<path class="st2" d="M125.1,84.4c1.6-2.1,3.8-4.7,7.4-5.2c2.9-0.4,4.9,2.4,5.4,3.6c0.7,1.7,0.4,3.6,0,4.8
						c-1.6,5.3-3.5,10.4-4.8,13.9c-0.6,1.7-0.8,4.4-1.4,6.1c-0.3,1-0.8,1.9-1.6,2.6c-1.7,1.4-4.6,0.8-5.5-1.2
						c-0.4-0.8-0.5-1.6-0.5-2.5c-0.6-8-3.2-9.3-0.7-17"/>
					<path class="st4" d="M62.1,80.7c-0.9,1.7-3.2-5.1-4.9-9.7c-0.9-2.4-2.1-9.6-0.8-13.3c0.9-2.4,6.9-11.9,9.5-15.3
						c2.6-3.4,15.4-13.3,29-11.3s25.4,9.8,24.3,15.9c-0.5,3-1.5,3.5-3.4,3.3c-2.9-0.3-14.1-4.3-19.1-4.8C90,45,79.4,46.9,73.2,51.8
						c-5,3.9-7.7,8.4-8.6,14.5C64,70.2,63,78.9,62.1,80.7"/>
					<path class="st5" d="M82.1,106.6c-1.1,0-2.2-0.3-3.1-0.6c-0.9-0.3-1.7-0.9-2.3-1.4c-0.5-0.4-1-0.8-1.4-0.8
						c-0.7-0.1-1.2-0.5-1.6-1.2c-0.5-0.9-0.5-2.1,0-3.1c0.2-0.5,0.4-0.8,0.5-1.1c0.4-0.8,0.7-1.5,2.1-4.1c0.1-0.2,0.4-0.3,0.6-0.2
						c0.2,0.1,0.3,0.4,0.2,0.6c-1.4,2.6-1.7,3.3-2.1,4.1c-0.2,0.3-0.3,0.7-0.5,1.1c-0.4,0.8-0.3,1.7,0,2.2c0.2,0.5,0.6,0.7,1,0.8
						c0.7,0.1,1.2,0.5,1.9,1c0.6,0.4,1.2,1,2,1.2c1.4,0.5,3.4,1,4.6,0.1c0.3-0.2,0.5-0.4,0.8-0.7c0.8-0.7,1.6-1.4,2.6-1.3
						c0.4,0,0.7,0.1,1.1,0.2c0.8,0.1,1.5,0.3,2.6,0.2c1.2-0.2,2.1-1.3,2.3-2.2c0-0.2,0.3-0.4,0.5-0.4c0.2,0,0.4,0.3,0.4,0.5
						c-0.3,1.5-1.6,2.8-3.1,3c-1.2,0.2-2.1,0-2.9-0.2c-0.3-0.1-0.7-0.1-1-0.2c-0.6-0.1-1.3,0.5-1.9,1.1c-0.3,0.2-0.6,0.5-0.9,0.7
						C83.8,106.4,83,106.6,82.1,106.6"/>
					<path class="st5" d="M79.2,78c0.2,1.3,0.2,2.6,0,3.9c0,0.2,0.1,0.5,0.3,0.5c0.2,0.1,0.5-0.1,0.5-0.3c0.3-1.4,0.3-2.9,0-4.4
						c0-0.2-0.3-0.4-0.5-0.3C79.3,77.5,79.2,77.8,79.2,78"/>
					<path class="st5" d="M85.9,79c-0.2,1.1-0.3,2.2-0.2,3.4c0,0.2,0.2,0.4,0.4,0.4c0.2,0,0.5-0.2,0.4-0.4c-0.1-1,0-2.1,0.1-3.1
						c0-0.2-0.1-0.5-0.3-0.5C86.2,78.6,85.9,78.7,85.9,79"/>
					<path class="st6" d="M76.5,81.2c0-0.2-5.5-3.4-9.7-3.1c-0.4,0-0.9,0.1-1.3,0.3c-0.6,0.3-0.9,0.8-1.3,1.2
						c-0.2,0.3-0.4,0.6-0.4,0.9c0,0.4,0.5,0.7,0.9,0.7c0.4,0.1,0.8-0.1,1.2-0.2c3.6-1.1,4.3-0.1,8,0.1C73.9,81.2,76.5,82,76.5,81.2"
						/>
					<path class="st3" d="M75.4,113.5c-1-0.9,2.9-0.5,5.7-0.1c2.8,0.3,13.4,0.7,18.2-0.3c-2.1,1.7-4.7,2.7-12,3.4
						C81,117.2,77.3,115.3,75.4,113.5"/>
					<path class="st3" d="M99.8,97.3c-5.5,0-8-1.1-10.3-2.9c-2.5-2-4.7-4.2-4.6-10.3c0-1.3,1.1-2.8,3-3.9c1.5-0.9,4.1-2,8-2.1
						c8-0.1,13,1.8,13.8,5.2c0.8,3.7-0.8,9.4-2.2,11.1l-0.1,0.1C106.1,96,105.1,97.3,99.8,97.3 M85.8,84.2c-0.1,5.7,1.9,7.7,4.3,9.5
						c2.1,1.7,4.5,2.7,9.7,2.7c4.9,0,5.8-1.1,7-2.4l0.1-0.1c1.1-1.3,2.8-6.8,2-10.3c-0.7-3-5.5-4.7-12.9-4.5
						C89.2,79.1,85.8,82.4,85.8,84.2"/>
					<path class="st3" d="M70.1,97.5c-3.9,0-6.9-1.1-9-3.3c-2.7-2.8-2.8-4.7-2.9-7.4l0-0.6c-0.1-3,2.1-5.7,5.4-6.4
						c4-0.9,11.3-0.1,13.7,1.5c2.4,1.6,3.6,4,3.1,6.6c-0.3,1.5-1.9,8.8-7.2,9.5C72.2,97.4,71.1,97.5,70.1,97.5 M59.1,86.1l0,0.6
						c0.1,2.6,0.2,4.2,2.6,6.8c2.5,2.6,6.3,3.5,11.4,2.9c4.7-0.6,6.2-7.4,6.4-8.8c0.4-2.2-0.6-4.3-2.7-5.7c-2-1.3-9-2.3-13-1.3
						C60.9,81.2,59,83.5,59.1,86.1L59.1,86.1"/>
					<path class="st3" d="M109.2,83.5c0,0,16.1-1.3,17.2-1.5c1.1-0.1,1.6-1.5-1.1-1.3c-2.7,0.2-16.1,0.8-17.2,0.9
						C109,82.4,109.2,83.5,109.2,83.5"/>
					<path class="st3" d="M78.8,83.1c-2.4-0.5,5.8,1.3,6.8,0c-0.1,0.8-0.6,3.3,0.2,3.9c0.7,0.6-1.5-1.1-2.9-1
						c-1.8,0.1-2.6,0.3-2.9,1.7C79.7,89,80.4,83.5,78.8,83.1"/>
					<path class="st3" d="M93,86.1c-0.1,0-0.3-0.1-0.4-0.2c-0.1-0.2-0.1-0.5,0.1-0.6c3.2-2.4,9.2-2.3,12.4-0.6
						c0.2,0.1,0.3,0.4,0.2,0.6c-0.1,0.2-0.4,0.3-0.6,0.2c-2.9-1.5-8.5-1.6-11.4,0.5C93.2,86.1,93.1,86.1,93,86.1"/>
					<path class="st3" d="M65.6,87.4c-0.1,0-0.2,0-0.3-0.1c-0.2-0.1-0.2-0.4-0.1-0.6c1-1.4,2.6-2.4,4.4-2.8c1.5-0.4,3.2-0.4,5.2,0
						c1,0.2,2.1,0.4,3,1.2c0.2,0.2,0.2,0.4,0.1,0.6s-0.4,0.2-0.6,0.1c-0.7-0.6-1.7-0.8-2.6-1c-1.8-0.3-3.4-0.3-4.8,0
						c-1.7,0.4-3,1.3-3.9,2.5C65.9,87.3,65.8,87.4,65.6,87.4"/>
					<path class="st5" d="M85.3,137.4c4.6,0.1,9.2,0.1,13.6-1.1c2.6-0.7,5-1.8,7.4-3.1c2.6-1.4,5.2-3.1,7.4-5.1
						c2.4-2.1,4.6-4.6,5.9-7.6c0.2-0.5-0.5-1-0.8-0.4c-2.3,5.3-7.3,9-12.1,11.8c-2.3,1.3-4.7,2.5-7.3,3.3c-2.1,0.7-4.3,1.1-6.5,1.2
						c-2.6,0.2-5.1,0.2-7.7,0.1C84.7,136.5,84.7,137.3,85.3,137.4"/>
					<path class="st5" d="M129.7,86.6c0.5-1,1-2.2,2-2.9c0.7-0.5,1.8-0.6,2.5,0c0.4,0.4,0.5,1.1,0.5,1.6c0,0.7,0,1.4-0.2,2
						c-0.3,1.4-0.8,2.6-1.3,3.9c-0.2,0.5,0.6,0.8,0.9,0.2c0.9-2.2,2-4.8,1.4-7.3c-0.5-2-3-2.2-4.5-1.1c-1,0.8-1.6,1.9-2.1,3
						C128.7,86.6,129.4,87.1,129.7,86.6"/>
					<path class="st5" d="M127.8,90.2c-0.1,1.3-0.2,2.5-0.2,3.8c0,1.2-0.1,2.5,0,3.7c0,0.5,0.1,1.1,0.3,1.5c0.2,0.4,0.5,0.9,1,0.9
						c1-0.1,0.9-1.8,0.8-2.5c-0.1-1.2-0.6-2.2-1.4-3.1c-0.4-0.4-1,0.2-0.6,0.6c0.7,0.8,1.1,1.7,1.2,2.8c0,0.3,0,0.5,0,0.8
						c0,0.1,0,0.3-0.1,0.4c0,0-0.1,0.4,0.1,0.1c0,0-0.3-0.7-0.3-0.7c-0.1-0.3-0.1-0.5-0.1-0.8c-0.1-1.2-0.1-2.5,0-3.7
						c0-1.3,0.1-2.6,0.2-3.8C128.8,89.7,127.9,89.7,127.8,90.2"/>
					<path class="st5" d="M73.6,103.4c-0.8,1.8-1.6,3.6-2.6,5.3c-0.9,1.5-1.8,3-3.3,3.9c-0.5,0.3,0,1.1,0.4,0.8
						c1.6-1,2.7-2.5,3.6-4.1c1-1.8,2-3.7,2.8-5.6C74.7,103.1,73.8,102.9,73.6,103.4"/>
					<path class="st5" d="M89,97.6c2.7,2,5.4,3.9,7.8,6.2c1.2,1.1,2.2,2.3,3.2,3.5c0.9,1.1,1.8,2.2,2.8,3.1c1.1,1.1,2.4,1.9,3.9,2.3
						c0.6,0.1,0.8-0.7,0.2-0.9c-2.7-0.7-4.5-3-6.2-5.1c-2-2.5-4.3-4.7-6.8-6.7c-1.5-1.2-2.9-2.3-4.4-3.4C89,96.5,88.6,97.2,89,97.6"
						/>
					<path class="st5" d="M74.1,111.9c0,0.1,0.1,0.1,0.1,0.2c0,0,0,0,0,0c0,0,0,0.1,0,0.1c0.1,0.2,0.1,0.3,0.2,0.5
						c0.1,0.4,0.2,0.8,0.3,1.2c0.1,0.7,0.2,1.5,0.2,2.2c0,0.6,0.9,0.6,0.9,0c0-0.8-0.1-1.6-0.2-2.4c-0.1-0.8-0.3-1.6-0.7-2.3
						C74.5,110.9,73.8,111.4,74.1,111.9"/>
					<path class="st5" d="M99.5,110.2c-0.3,1.5-0.5,3-0.9,4.5c-0.3,1.1-0.6,2.1-1.1,3.1c-0.3,0.5,0.5,1,0.8,0.4
						c1.3-2.4,1.6-5.2,2.1-7.8C100.5,109.9,99.6,109.7,99.5,110.2"/>
					<path class="st5" d="M105.9,125c-0.9,1.8-1.9,3.7-3.3,5.3c-0.7,0.8-1.5,1.5-2.4,2.2c-1,0.7-1.9,1.4-2.9,2.2
						c-0.5,0.3,0,1.1,0.4,0.8c1-0.7,1.9-1.5,2.9-2.2c0.9-0.7,1.8-1.4,2.5-2.3c1.4-1.6,2.4-3.6,3.4-5.5
						C106.9,124.9,106.2,124.5,105.9,125"/>
					<path class="st5" d="M74.4,119.5c-0.8,1.9-1.5,3.9-1.3,6c0.2,2.1,1.1,4,2,5.8c0.3,0.5,1,0.1,0.8-0.4c-0.8-1.7-1.7-3.4-1.9-5.3
						c-0.2-1.9,0.5-3.8,1.2-5.5C75.4,119.4,74.6,118.9,74.4,119.5"/>
					<path class="st7" d="M78.1,113.3c1.4,0.2,3.6,0.4,5,0.5c2.2,0.2,4.4,0.2,5.4,0.2c1.3,0,4.6-0.2,4.9-0.1
						c0.3,0.1-0.5,1.1-1.1,1.3c-2.1,0.5-6.4,1.1-9.1,0.8c-0.8-0.1-3-0.3-4-0.9C78.1,114.4,77.6,113.3,78.1,113.3"/>
					<path class="st6" d="M89.3,77.9c0-0.2,0.3-0.3,0.5-0.4c6.6-2.3,12.2-1.9,15.5-1.2c0.4,0.1,0.9,0.1,1.3,0.3
						c0.6,0.3,0.9,0.8,1.3,1.2c0.2,0.3,0.4,0.6,0.4,0.9c0,0.4-0.5,0.7-0.9,0.7c-0.4,0.1-0.8-0.1-1.2-0.2c-3.6-1.1-10.6-1.2-14.4-0.9
						C91.9,78.4,89.2,78.8,89.3,77.9"/>
					<path class="st3" d="M70.4,84.1c-0.4,0.5,0.1,1.6,0.8,2c0.8,0.4,2,0.6,2.8,0.4c1-0.2,1.7-1.3,1.3-1.9
						C75.2,84.3,70.6,83.9,70.4,84.1"/>
					<path class="st3" d="M97.5,84.2c-0.4,0.5,0.2,1.6,0.9,1.9c0.8,0.4,2,0.5,2.9,0.3c1-0.3,1.6-1.4,1.2-2
						C102.2,84.2,97.6,84,97.5,84.2"/>
					<path class="st8" d="M50.5,155.3c9.7,0.3,15.1,4.6,19,13.1s0.8,93.2-2.5,144.9l-21.7,1.8c-9.5-19.9-11.8-111.7-11.6-131.8
						C33.7,161.8,41.7,155,50.5,155.3"/>
					<path class="st7" d="M122,149.9l-8.7,186.4c0,0-72.5,1.2-70.4-15.2C44.9,304.7,69,155.6,69,155.6L122,149.9z"/>
					<path class="st9" d="M147.8,255.6c-4.3,12.9,3.8,56.3,6.7,71.1c0.6,3.1,1.1,4.9,1.1,4.9c-10,16.3-46.8,16.1-46.8,16.1
						c-7.1-31.3-10.7-81-10.7-81L126.3,143l33.9,20.2c0,0-1.1,32.6-4.4,52.9C153.1,232.3,150.2,248.7,147.8,255.6"/>
					<path class="st9" d="M44.5,156.6c0,0-3.3,2.9-3.3,3c-1.7,1.7-4.1,106-4.5,116.9c-0.3,10.8-5.3,39.7-3.7,47.8
						c3,14.7,16.6,19.6,16.6,18.5c0-0.4,5-53.4,7.7-81.1c5.8-59.3,20.3-118.3,20.3-118.3C61.8,145,44.5,156.6,44.5,156.6"/>
					<path class="st10" d="M125.6,144.8c0.1-1.8-9.9-6.2-9.9-6.2s-9.6,13.4-25.5,13.6c0,0,4.5,8.8,9.9,11.1
						C100,163.2,125.1,155.4,125.6,144.8"/>
					<path class="st10" d="M90.2,151.8c0,0-8.4-4-8.5-9.4c0,0-4.1,1-7.6,2.1c0,0-2.2,8.1,0.4,13.5C74.6,158,86.7,156.2,90.2,151.8"
						/>
					<path class="st11" d="M67,283.1c0.4,4.4,2.4,8.4,5.6,11.4l5.1,4.7c1.3,1.2,3.3,1,4.3-0.3l6.3-8c1.7-2.1,2.5-4.8,2.2-7.5
						c-0.6-6-1.7-17.6-2.6-28.8c-0.7-9.1-1.3-17.9-1.3-23.2c-0.1-17.1,3.3-71.7,3.3-71.7l-4.1,0.2c0,0-5.8,21.9-11.1,50.7
						C73.3,217.6,65.2,263.4,67,283.1"/>
					<path class="st11" d="M97.1,151.6l-14.7-3.5c0,0-2.1,3.9-2,6.3c0.1,2.4,4.1,9.4,5.9,9.9C88.2,164.9,100.6,156.5,97.1,151.6"/>
					<path class="st7" d="M122.7,141.9c0.1-1.8-5.6-5.4-5.6-5.4s-11,12.9-26.9,13.1c0,0,3.6,4.4,9.9,13.7
						C100,163.2,122.2,152.4,122.7,141.9"/>
					<path class="st7" d="M90.2,149.6c0,0-2.8-0.5-8.5-7.1c0,0-4.3,2.3-7.6,2.1c0,0-2.2,5.9,0.4,11.2
						C74.6,155.8,83.8,151.9,90.2,149.6"/>
					<path class="st8" d="M154.6,326.6c-10.4-10.8-28.4-32.1-27.7-49.6c0.8-24.5,16.3-102.7,16.3-102.7c-2.6,16.1,7.1,74.4,4.7,81.2
						C143.5,268.5,151.7,311.9,154.6,326.6"/>
					<path class="st8" d="M117.1,136.4c0,0-22.6,94.6-19,130.3c0,0,35.7-94.3,35.7-96.5s-14.2,4.4-13.8,2c0,0,2.7-1.6,10.3-4.1
						c0,0-4.8-17.2-4.1-25.1C119.3,138.5,117.1,136.4,117.1,136.4"/>
					<path class="st8" d="M81.7,142.4c0.4-0.4-22.5,90.6-24.4,120.2c0,0,0.2-73.9,0-89.1c0,0,10.8,3.8,11.5,2.9
						c1-1.4-10.1-4.1-10.1-4.1s11.6-21.4,13.4-27.7C77.5,143.3,81.7,142.4,81.7,142.4"/>
					<path class="st9" d="M140.6,186c0,0-5.1-25.7,14.7-23.9c19.8,1.8,19.5,34.3,21.7,57.9c1.5,15.9,2.5,24.7-0.1,40.4
						c-0.4,2.4-1.6,7.2-4.8,12.8c-14.8,26.5-29.5,54.7-29.5,54.7l-20.4-8.3l22.8-58.3L140.6,186z"/>
				</g>
			</g>
		</g>
		<g class="st12">
			<g class="st13">
				<defs>
					<rect id="SVGID_7_" x="12" y="19.8" width="176.2" height="176.2"/>
				</defs>
				<clipPath id="SVGID_8_">
					<use xlink:href="#SVGID_7_"  style="overflow:visible;"/>
				</clipPath>
				<g class="st14">
					<defs>
						<circle id="SVGID_9_" cx="100.1" cy="107.9" r="88.1"/>
					</defs>
					<clipPath id="SVGID_10_">
						<use xlink:href="#SVGID_9_"  style="overflow:visible;"/>
					</clipPath>
					<path class="st15" d="M72.8,49.8c-6.6,9.6-6.5,18.8-5.2,28.4c1.3,9.6,6.7,29.8,8,34.1c1.3,4.2,2.9,14,7.7,17.8
						s8.9,6.2,13.4,5.4c4.5-0.7,12.3-6.2,15-9.2c2.7-3,7.7-7.7,9.1-11.3c1.4-3.6,3.6-12.8,4.4-19.3c0.8-6.4,4.1-29,1.8-35.8
						c-2.3-6.8-5.7-22.3-21.5-23.2C89.7,35.8,78.7,41.1,72.8,49.8"/>
					<path class="st15" d="M83.4,126.4c1.1,5.8,7.8,17.4,7.5,21.4c-0.6,9.2,33.3,1.2,31.5-1.6c-7.8-12.9-2.6-31.8-2.3-36.1
						C120.5,105.6,80.7,112.8,83.4,126.4"/>
					<path class="st15" d="M124.8,78.8c1.9-3,2-2.6,4.4-3.9c2.7-1.6,6.3,0.5,6.8,4.2s1.1,10.7-1.2,14c-2.2,3.3-4.9,8.1-6.1,9.2
						c-1.2,1-4,1.5-4.8-1.3C123,98,121.5,84,124.8,78.8"/>
					<path class="st15" d="M68.2,79.3c-2.1-2.7-3.9,2.5-2.7,7.2c1.2,4.7,2.6,12.6,4.1,14.8c1.5,2.2,2.4,3.5,4.6,3.7
						C76.3,105.1,73.4,86.2,68.2,79.3"/>
					<path class="st16" d="M68.2,78.9c-1.1-2.9-3.4-15.1,0-24.7c2.7-7.5,4.9-12.6,11.9-16.6c6.9-4,18.7-6.2,22.8-5.9
						c2.9,0.2,8,1.4,9.6,2.6c4.3,3.3,1.3,5.9-0.1,6.7c-3.7,2.1-8.7,0.5-15.3,0.1c-12.1-0.8-21,6-23.8,10.4c-3.1,5-6,11.8-5.2,19.3
						C68.6,76.6,69.2,81.6,68.2,78.9"/>
					<path class="st17" d="M121.6,41.4c1.7,1.4,6.2,7,7.3,12.3c1.7,8.3,0.6,20,0.2,22.1c-0.5,2.1-1.2,6.8-4.8,7.4
						c-2.4,0.4-4.8-3.8-4.3-7.9c0.5-4.2-0.3-19.1-2.1-23.4c-1.7-4-6.9-7.8-6.8-9.8C111.1,39.2,113.7,34.6,121.6,41.4"/>
					<path class="st18" d="M91.3,119.3c-0.6,0-1.2-0.3-2.5-0.9c-0.3-0.2-1.3-0.1-2.2,0c-1.4,0.1-3.1,0.3-4.6,0
						c-0.2-0.1-0.4-0.3-0.3-0.5c0-0.2,0.3-0.4,0.5-0.3c1.4,0.3,3.1,0.1,4.4,0c1.3-0.1,2.2-0.2,2.8,0.1c1.8,1,2.1,0.9,2.6,0.7
						c0.3-0.1,0.5-0.3,0.8-0.5c0.4-0.3,1-0.8,1.8-1c0.5-0.2,1.7-0.2,3.5-0.2c2.3,0,5.5,0,6.4-0.6c0.2-0.1,0.5-0.1,0.6,0.1
						s0.1,0.5-0.1,0.6c-1.1,0.7-4.2,0.7-6.9,0.7c-1.5,0-2.8,0-3.3,0.1c-0.7,0.2-1.1,0.5-1.6,0.9c-0.3,0.3-0.7,0.5-1.1,0.6
						C91.8,119.2,91.6,119.3,91.3,119.3"/>
					<path class="st18" d="M104.2,113.2c-0.1,2.5,0.4,5.1,1.5,7.4c0.2,0.5,1,0.1,0.8-0.4c-1-2.2-1.4-4.5-1.4-6.9
						C105.1,112.6,104.2,112.6,104.2,113.2"/>
					<path class="st18" d="M80.9,115.8c0.6,1.6,0.8,3.3,0.5,4.9c-0.1,0.6,0.7,0.8,0.9,0.2c0.4-1.8,0.2-3.7-0.5-5.4
						c-0.1-0.2-0.3-0.4-0.5-0.3C81,115.3,80.8,115.6,80.9,115.8"/>
					<path class="st18" d="M89.5,122.6c2.6,0.7,5.4,0.3,7.7-1c0.5-0.3,0-1.1-0.4-0.8c-2.1,1.2-4.7,1.6-7.1,0.9
						C89.2,121.6,88.9,122.4,89.5,122.6"/>
					<path class="st18" d="M87.5,89.5c-0.8,4-1.6,7.9-2.4,11.9c-0.2,1-0.4,2-0.6,3c-0.2,0.9-0.5,1.9-0.2,2.8
						c0.2,0.8,0.8,1.4,1.4,1.9c0.7,0.7,1.4,1.3,2.2,1.9c0.7,0.6,1.5,1.3,2.5,1.3c0.8,0,1.5-0.6,1.5-1.4c0-0.6-0.9-0.6-0.9,0
						c0,0.7-1.1,0.5-1.4,0.2c-0.7-0.4-1.3-1-1.9-1.5c-0.6-0.5-1.2-1-1.8-1.6c-0.6-0.6-0.9-1.2-0.7-2c0.1-0.9,0.3-1.7,0.5-2.6
						c0.2-0.8,0.3-1.7,0.5-2.5l1-5.2l1.2-5.9C88.5,89.2,87.6,88.9,87.5,89.5"/>
					<path class="st18" d="M92.8,108.4c0.1-0.3,0.3-0.7,0.6-0.9c0.1-0.1,0.1-0.1,0.2-0.2c0.1-0.1,0.2-0.1,0.3-0.2
						c0.2-0.1,0.3-0.1,0.5-0.2c0.2-0.1,0.3-0.1,0.6-0.1c0,0,0.1,0,0.1,0c0.1,0,0.1,0,0,0c0,0,0.1,0,0.1,0c0,0,0,0,0,0
						c0,0,0,0-0.1-0.1c0,0,0-0.1,0-0.1c0,0,0,0,0,0c0,0-0.1,0.1-0.1,0.1c0,0-0.1,0.1-0.1,0.1c0,0-0.1,0.1-0.1,0.1
						c-0.1,0-0.1,0.1-0.2,0.1c-0.2,0.1-0.4,0.2-0.6,0.2c-0.2,0-0.4,0.3-0.3,0.5c0.1,0.3,0.3,0.3,0.5,0.3c0.5-0.1,1-0.3,1.3-0.7
						c0.2-0.2,0.4-0.5,0.4-0.8c0-0.3-0.3-0.6-0.6-0.7c-0.4-0.1-1,0-1.4,0.1c-0.5,0.1-0.9,0.4-1.2,0.7c-0.4,0.4-0.7,0.8-0.9,1.3
						c-0.1,0.2,0.1,0.5,0.3,0.5C92.5,108.8,92.7,108.6,92.8,108.4"/>
					<path class="st18" d="M131.2,78.6c0.1-0.3,0.3-0.4,0.6-0.4c0.4,0,0.6,0.2,0.8,0.5c0.5,0.8,0.6,1.8,0.7,2.7
						c0.3,2.1,0.1,4.2-0.5,6.3c-0.2,0.6,0.7,0.8,0.9,0.2c0.7-2.5,0.8-5.2,0.3-7.8c-0.2-1-0.5-2.2-1.6-2.7c-0.8-0.3-1.9,0-2.1,0.9
						C130.2,78.9,131.1,79.2,131.2,78.6"/>
					<path class="st18" d="M129.2,86.5c1.6,1.5,1.9,4,1.4,6c-0.1,0.5-0.3,1.1-0.5,1.6c-0.1,0.2-0.7,1.1-0.9,0.5
						c-0.1-0.5,0.3-1.1,0.5-1.5c0.3-0.5,0.8-0.9,1.3-1.1c0.5-0.3,0.1-1-0.4-0.8c-1.1,0.5-1.9,1.5-2.2,2.6c-0.1,0.5-0.2,1.2,0.2,1.6
						c0.4,0.4,1,0.4,1.4,0.1c0.9-0.6,1.2-2,1.4-3c0.2-1.1,0.3-2.3,0.1-3.4c-0.2-1.2-0.8-2.4-1.7-3.2
						C129.4,85.5,128.8,86.1,129.2,86.5"/>
					<path class="st17" d="M92.6,84.7c4.3-1.8,8.4-3.7,12.9-2.7c0.6,0.1,1.3,0.2,1.6-0.3c0.2-0.5-0.2-1-0.7-1.3
						c-1.5-0.9-3.3-1.1-5.1-0.9c-1.7,0.3-3.1,0.5-4.7,1.2c-1.7,0.8-3.4,1.6-4.6,3.1C91.7,84.4,92.1,85,92.6,84.7"/>
					<path class="st17" d="M71.5,83c1.5-2.1,4.3-2.4,6.9-2.4c2.4,0,6.2,1.5,6.8,2.1c0.5,0.4,0.2,0.9-0.1,0.8
						c-1.4-0.2-2.2-0.4-3.1-0.5c-3.1-0.4-6.4-0.1-9.3,1c-0.3,0.1-0.6,0.2-0.9,0.1C71.5,84.1,71.1,83.5,71.5,83"/>
					<path class="st16" d="M102.1,98.6c-1.4,0-2.7-0.2-3.9-0.5c-2.5-0.7-4.4-3.5-5.4-5.9c-1.1-2.8-1.3-5.5-0.3-7.2
						c1.2-2.3,6.1-3.2,9.9-3.3c3.7-0.1,8,0.5,9.3,2.5c1.9,3-0.1,9.3-2.4,11.9C107.7,97.8,104.9,98.6,102.1,98.6 M93.3,85.4
						c-0.8,1.4-0.6,3.9,0.4,6.4c1.1,2.7,3,4.9,4.8,5.4c3.3,1,8.2,0.5,10.1-1.7c2-2.3,3.9-8.3,2.3-10.9c-0.9-1.4-4.3-2.2-8.5-2.1
						C97.9,82.6,94.1,83.8,93.3,85.4"/>
					<path class="st16" d="M77.1,100.4c-1.4,0-2.7-0.2-3.9-0.5c-2.5-0.7-4.4-3.5-5.4-5.9c-1.1-2.8-1.3-5.5-0.3-7.2
						c1.2-2.3,6.1-3.2,9.9-3.3c3.7-0.1,8,0.5,9.3,2.5c1.9,3-0.1,9.3-2.4,11.9C82.7,99.6,79.9,100.4,77.1,100.4 M78.3,84.3
						c-0.3,0-0.6,0-0.9,0c-4.5,0.1-8.3,1.3-9.1,2.9c-0.8,1.4-0.6,3.9,0.4,6.4c1.1,2.7,3,4.9,4.8,5.4c3.3,1,8.2,0.5,10.1-1.7
						c2-2.3,3.9-8.3,2.3-10.9C85.1,85.1,82.1,84.3,78.3,84.3"/>
					<path class="st16" d="M111,84c1.9-1.2,15.4-8.1,16.6-8.6c0.7-0.3,1.4,0.3,0.3,0.9c-1.2,0.7-4.3,2.2-6.1,3.2
						c-3.9,2.2-8.9,5.3-10,6.1C111.4,85,111,84,111,84"/>
					
						<rect x="86.9" y="87.3" transform="matrix(0.9975 -7.132385e-02 7.132385e-02 0.9975 -6.0275 6.6226)" class="st16" width="5.6" height="0.9"/>
					<path class="st18" d="M115.6,119.3c-2.1,2.3-4.3,4.5-6.6,6.7c-1.1,1.1-2.3,2.2-3.4,3.2c-1.1,1-2.2,2-3.4,2.9
						c-0.7,0.5-1.2,0.7-2.1,0.9c-0.9,0.2-1.8,0.4-2.7,0.5c-1,0.1-2,0.3-2.9,0.3c-0.7,0.1-1.5,0.1-2.3,0c-1.2-0.2-2.3-0.7-3.4-1.3
						c-1-0.6-2-1.2-2.9-2c-0.4-0.4-1,0.2-0.6,0.6c0.7,0.7,1.6,1.3,2.5,1.9c1,0.6,2.1,1.1,3.3,1.5c1.7,0.5,3.6,0.3,5.4,0
						c1-0.1,2-0.3,3.1-0.5c0.7-0.1,1.4-0.3,2-0.6c1.3-0.6,2.4-1.5,3.4-2.4c1.2-1.1,2.4-2.2,3.5-3.2c2.6-2.5,5.2-5.1,7.7-7.7
						C116.7,119.5,116,118.9,115.6,119.3"/>
					<path class="st18" d="M96.7,100.6c3.1,3.8,6.3,7.8,10.8,10c0.5,0.3,1-0.5,0.4-0.8c-4.4-2.2-7.6-6.1-10.7-9.9
						C96.9,99.5,96.3,100.1,96.7,100.6"/>
					<path class="st16" d="M74,88.4c0.9-1.2,2.2-2.1,3.7-2.4c1.1-0.2,2.2-0.1,3.2,0.3c0.9,0.3,1.6,1,1.9,2c0.1,0.6,1,0.3,0.9-0.2
						c-0.5-2-2.4-2.8-4.3-3c-1.7-0.2-3.4,0.4-4.7,1.5c-0.5,0.4-1,0.9-1.4,1.5C72.9,88.4,73.6,88.8,74,88.4"/>
					<path class="st16" d="M97.2,87.9c0.5-1.8,2.3-3.1,4.1-3.2c2.1-0.1,4,1.1,5.2,2.7c0.4,0.4,1-0.2,0.6-0.6
						c-1.4-1.8-3.7-3.2-6.1-2.9c-2.2,0.2-4.2,1.7-4.8,3.8C96.2,88.2,97,88.4,97.2,87.9"/>
					<path class="st16" d="M80,85.7c0.9,0.4,1,1.9,0.4,2.7c-0.6,0.8-2,0.7-2.6-0.1c-0.6-0.8-0.6-1.8,0.2-2.4
						C78.6,85.4,79.4,85.4,80,85.7"/>
					<path class="st16" d="M103.5,84.4c0.9,0.4,1,1.9,0.4,2.7c-0.6,0.8-2,0.7-2.6-0.1c-0.6-0.8-0.6-1.8,0.2-2.4
						C102.1,84.1,103,84.1,103.5,84.4"/>
					<path class="st18" d="M96.6,90.1c0.8,2.7,3.5,4.8,6.3,4.6c0.6,0,0.6-0.9,0-0.9c-2.5,0.1-4.8-1.6-5.5-4
						C97.3,89.3,96.4,89.5,96.6,90.1"/>
					<path class="st18" d="M82.8,90.1c-0.6,1.1-1.2,2.1-2.3,2.7c-1.1,0.6-2.2,1-3.5,1.1c-0.6,0-0.6,0.9,0,0.9
						c1.4-0.1,2.7-0.5,3.9-1.2c1.2-0.7,2-1.9,2.6-3.1C83.8,90.1,83.1,89.6,82.8,90.1"/>
					<path class="st19" d="M152.3,156.1c-9.7,0.1-15.2,4.3-19.2,12.7c-4.1,8.4-2.8,93.2-0.6,145l21.6,2.3
						c9.9-19.7,14.1-111.4,14.5-131.6C168.9,163,161,156,152.3,156.1"/>
					<path class="st20" d="M80.9,149.2l4.7,186.5c0,0,72.4,2.7,70.7-13.7c-1.7-16.4-22.6-165.9-22.6-165.9L80.9,149.2z"/>
					<path class="st19" d="M52.8,254.3c4,13-5,56.3-8.2,70.9c-0.7,3.1-1.2,4.9-1.2,4.9c9.7,16.5,46.4,17.1,46.4,17.1
						c7.7-31.1,12.5-80.8,12.5-80.8L76.7,142.2l-34.3,19.5c0,0,0.4,32.6,3.2,53C48,230.9,50.6,247.4,52.8,254.3"/>
					<path class="st19" d="M125.4,143.6c0,0,13.2,59.2,17.8,118.7c2.1,27.7,5.9,80.8,5.9,81.2c0,1.1,13.7-3.5,17-18.1
						c1.8-8.1-2.5-37-2.6-47.9c-0.1-10.9-0.3-115.2-2-116.9c0,0-3.2-3-3.2-3S141.2,145.6,125.4,143.6"/>
					<path class="st21" d="M77.4,144c-0.1-1.8,10-6,10-6s9.4,13.6,25.2,14.1c0,0-4.7,8.7-10.1,10.9C102.6,163,77.7,154.6,77.4,144"
						/>
					<path class="st21" d="M112.7,151.8c0,0,8.5-3.8,8.7-9.2c0,0,4.1,1.1,7.6,2.3c0,0,2,8.2-0.7,13.5
						C128.1,158.4,116.1,156.3,112.7,151.8"/>
					<path class="st22" d="M133,283.5c-0.5,4.3-2.6,8.4-5.8,11.2l-5.2,4.5c-1.3,1.1-3.3,0.9-4.3-0.4l-6.1-8.1
						c-1.6-2.2-2.4-4.9-2-7.6c0.7-6,2.1-17.6,3.2-28.7c0.9-9,1.7-17.8,1.8-23.2c0.5-17.1-1.7-71.7-1.7-71.7l4.1,0.3
						c0,0,5.3,22,10.1,50.9C128.1,217.9,135.2,263.9,133,283.5"/>
					<path class="st22" d="M105.7,151.5l14.8-3.2c0,0,2,3.9,1.9,6.3c-0.1,2.4-4.3,9.3-6.2,9.8C114.4,164.9,102.1,156.2,105.7,151.5"
						/>
					<path class="st20" d="M80.4,141.2c-0.1-1.8,5.7-5.3,5.7-5.3s10.8,13.1,26.6,13.7c0,0-3.7,4.3-10.2,13.5
						C102.6,163,80.7,151.7,80.4,141.2"/>
					<path class="st20" d="M112.7,149.5c0,0,2.8-0.4,8.6-7c0,0,4.3,2.4,7.6,2.3c0,0,2.1,5.9-0.7,11.2
						C128.2,156.1,119,152,112.7,149.5"/>
					<path class="st23" d="M44.5,325.2c10.6-10.6,29-31.5,28.8-49C73,251.8,59.3,173.2,59.3,173.2c2.3,16.2-8.7,74.2-6.5,81.1
						C56.8,267.3,47.8,310.6,44.5,325.2"/>
					<path class="st23" d="M86.1,135.8c0,0,20.6,95.1,16.2,130.6c0,0-33.7-95-33.7-97.3c0-2.2,14.1,4.7,13.8,2.3
						c0,0-2.6-1.7-10.3-4.3c0,0,5.1-17.1,4.6-25C83.8,137.9,86.1,135.8,86.1,135.8"/>
					<path class="st23" d="M121.3,142.6c-0.4-0.4,20.5,91.1,21.8,120.7c0,0,1.4-73.9,1.9-89.1c0,0-10.9,3.6-11.6,2.6
						c-1-1.4,10.2-3.9,10.2-3.9s-11.1-21.6-12.8-28C125.5,143.6,121.3,142.6,121.3,142.6"/>
					<path class="st19" d="M63.9,185c0,0,3.3-25.6-16.6-24.3c-19.9,1.3-23.2,33.8-25.9,57.4c-1.8,15.9-3,24.7-0.8,40.4
						c0.3,2.4,2.1,7.2,5.1,13c14.2,26.8,30.7,55.3,30.7,55.3l20.6-7.9l-21.5-58.7L63.9,185z"/>
				</g>
			</g>
		</g>
		<g class="st12">
			<g class="st13">
				<defs>
					<rect id="SVGID_11_" x="12.2" y="19.3" width="176.2" height="176.2"/>
				</defs>
				<clipPath id="SVGID_12_">
					<use xlink:href="#SVGID_11_"  style="overflow:visible;"/>
				</clipPath>
				<g class="st24">
					<defs>
						<circle id="SVGID_13_" cx="100.3" cy="107.4" r="88.1"/>
					</defs>
					<clipPath id="SVGID_14_">
						<use xlink:href="#SVGID_13_"  style="overflow:visible;"/>
					</clipPath>
					<path class="st25" d="M84.8,125.5c4.7,6.6,8.6,9.2,11.3,41.2c0.4,4.2,25.1,0.4,24.3-6.6c-1.7-14.8,2.5-31.9,8.5-43.7
						c4.8-9.5-1.4-11.2-1.4-11.2L84.8,125.5z"/>
					<path class="st25" d="M65.2,50.2c-4.8,13.4-1.7,29.5-1.4,32.6c0.2,3.1,6.5,27.8,8.2,31.2s3.8,10.2,13.9,14.9
						c10.1,4.7,12.2,4.2,16.6,3.9c4.4-0.4,15.4-5.1,18.5-7.7c3.1-2.6,9.1-10.6,10.2-14.7c2-7.2,0.9-12.1,0.9-19.6
						c0-7.5,0.1-31-2.6-36.6c-2.7-5.6-14.7-17-29.7-18.5C84.8,34,68.8,40.3,65.2,50.2"/>
					<path class="st26" d="M66.6,85.8c-0.8,3.4-0.5,1.3-2.1-2.8c-2.7-6.8-3.4-18.3-3.2-22.9c0.3-7.9,6.1-17,11.8-21.9
						c5.7-4.9,14.6-6.8,19-6.9c6.5-0.2,11.2-0.4,18.8,2.7c5.6,2.3,12.3,6.9,15.3,10c2.2,2.3,7.5,8.6,9.4,16.6
						c1.2,5.1-0.2,10.4-0.6,12.9c-0.4,2.2-3.2,10.3-4.9,8c-1.7-2.3-5.8-6.7-6-10.2c-0.2-3.5,2.5-10.2,1.2-15
						c-1.3-4.8-4.4-10.2-9.9-13.6c-2.9-1.8-9.1-5-18.7-4.5c-9.1,0.6-16.1,2.5-22.2,7.6c-4.9,4.1-8.8,9.3-9.7,13.3
						c-0.9,4-0.9,8.2-0.5,11.2C64.7,73.5,67.4,82.4,66.6,85.8"/>
					<path class="st27" d="M99.4,75.5c-2.9,4.3-3.4,9.7-2.8,14.7c0.2,1.6,0.5,3.1,0.8,4.7c0.1,0.6,1,0.3,0.9-0.2
						c-1-5-1.6-10.3,0.1-15.1c0.4-1.3,1-2.5,1.8-3.6C100.5,75.4,99.7,75,99.4,75.5"/>
					<path class="st27" d="M86.1,100.2c0.3,1.4,1.8,2.4,3.2,2.1c0.4-0.1,0.8-0.3,1.1-0.4c0.4-0.1,0.8-0.1,1.2,0
						c0.8,0.2,1.5,0.7,2.2,0.9c0.7,0.2,1.5,0.2,2.3-0.1c0.3-0.1,0.6-0.3,0.9-0.5c0.3-0.3,0.5-0.6,0.9-0.9c0.6-0.5,1.6-0.5,2.4-0.4
						c0.9,0,1.8,0,2.5-0.5c1.5-1,1.7-3.2,0.4-4.4c-0.4-0.4-1,0.2-0.6,0.6c1,0.9,0.8,2.6-0.5,3.2c-0.7,0.3-1.6,0.2-2.3,0.1
						c-0.7,0-1.4,0.1-2,0.4c-0.6,0.4-0.9,1-1.6,1.4c-0.6,0.3-1.3,0.4-1.9,0.2c-1.3-0.4-2.5-1.4-3.9-1c-0.7,0.2-1.3,0.6-2.1,0.4
						c-0.6-0.2-1.1-0.7-1.3-1.4C86.8,99.4,85.9,99.6,86.1,100.2"/>
					<path class="st27" d="M81.5,110.4c-0.1,0,0.1,0.1,0.1,0.1c0.1,0.1,0.1,0.1,0.2,0.2c0.1,0.1,0.1,0.1,0.2,0.3
						c0.2,0.3,0.3,0.6,0.4,1.1c0.3,1.4,0.2,2.8,0.2,4.2c0,0.6,0.9,0.6,0.9,0c0.1-1.5,0.2-3.1-0.2-4.5c-0.2-0.8-0.6-1.6-1.3-2.1
						c-0.2-0.1-0.5,0-0.6,0.2C81.2,110,81.3,110.2,81.5,110.4"/>
					<path class="st26" d="M86.3,83.6c-1-2.4-3.9-2.7-6.1-2.2c-2.1,0.4-4.2,1.4-5.7,3c-0.9,0.8-1.5,1.8-2,3
						c-0.1,0.4,0.4,0.5,0.6,0.2c0.7-1.8,2.2-3.3,3.9-4.2c0.9-0.5,1.8-0.9,2.7-1.1c1.1-0.3,2.4-0.5,3.5-0.3c1.1,0.2,2.2,0.9,2.6,2
						C86,84.3,86.5,84,86.3,83.6"/>
					<path class="st27" d="M103.3,86.1c3.1,1.9,7.3,1.6,10.2-0.6c0.4-0.4-0.2-1-0.6-0.6c-2.6,2-6.4,2.2-9.1,0.5
						C103.3,85,102.8,85.8,103.3,86.1"/>
					<path class="st27" d="M75.3,89.5c3.2,0.8,7,1.1,9.6-1.4c0.5-0.5,0.9-1,1.3-1.5c0.3-0.5-0.4-0.9-0.8-0.4
						c-0.6,0.8-1.3,1.6-2.2,2.2c-1.2,0.7-2.6,0.9-4,0.9c-1.2,0-2.4-0.3-3.6-0.6C75,88.5,74.8,89.4,75.3,89.5"/>
					<path class="st28" d="M101.3,75c3.1-1.1,6.4-1.7,9.7-1.3c2.6,0.3,4.7,1.3,5.4,1.9c0.4,0.3,0.8,1.1,0.4,1.4
						c-0.8,0.6-3.1-1.2-4.9-1.5c-4.2-0.6-5.9-0.2-9.7,0.6c-0.3,0.1-0.6,0.2-0.9,0.1c-0.3,0-0.6-0.3-0.7-0.6
						C100.6,75.6,100.6,75.3,101.3,75"/>
					<path class="st28" d="M71.2,80.7c3-1.9,6.3-3.2,9.8-3.6c1.2-0.1,2.6-0.1,3.6,0.6c0.1,0.1,0.3,0.2,0.3,0.4
						c0,0.3-0.4,0.5-0.8,0.5c-3.9,0.2-7.8,1.2-11.3,3c-0.5,0.2-1,0.5-1.5,0.4C70.8,81.9,70.7,81,71.2,80.7"/>
					<path class="st25" d="M67.9,81.9c-1.4-1.9-4-2.6-5.5-1.6c-1.5,1-0.8,5.8,0.3,9.4c1.1,3.5,3.1,11.3,4,13.6
						c1,2.5,2.3,4.3,3.8,4.5S67.9,81.9,67.9,81.9"/>
					<path class="st25" d="M130,81.6c1.3-4,2.6-8.1,4.9-8c2.4,0.1,3.9,4,4.4,8.4c0.5,4.4-0.8,10.1-1.7,12.8
						c-0.9,2.7-2.3,5.6-3.7,5.2c-1.4-0.4-3.1-0.7-3.4-2.2C130.3,96.3,130,81.6,130,81.6"/>
					<path class="st27" d="M86.6,95.3c-0.7,1.4-1.3,2.7-2,4.1c-0.6,1.2-1.3,2.3-2.3,3.3c-0.9,0.8-1.9,1.6-2.4,2.8
						c-0.5,1.1-0.5,2.3,0.3,3.2c0.4,0.4,1-0.2,0.6-0.6c-0.7-0.8-0.3-2,0.2-2.8c0.7-1,1.7-1.7,2.5-2.5c0.9-0.9,1.4-2.1,2-3.2
						c0.6-1.2,1.2-2.5,1.8-3.7C87.6,95.3,86.9,94.8,86.6,95.3"/>
					<path class="st27" d="M82.8,111.9c0.6,0.4,1.4,0.6,2.1,0.8c0.9,0.2,1.8,0.4,2.7,0.5c0.8,0.1,1.6,0.1,2.4,0
						c1.3-0.2,2.5-0.6,3.8-0.6c1.3,0,2.6,0.1,3.9,0.1c1,0,2-0.1,2.9-0.1c2.1-0.2,4.1-0.6,6.1-1.2c2.1-0.7,4.2-1.7,5.8-3.2
						c0.4-0.4-0.2-1-0.6-0.6c-2.9,2.6-6.9,3.7-10.7,4.2c-0.9,0.1-1.9,0.2-2.9,0.2c-1.2,0-2.3,0-3.5-0.1c-1.3,0-2.5,0.1-3.7,0.4
						c-0.9,0.2-1.7,0.4-2.7,0.3c-1-0.1-1.9-0.2-2.8-0.5c-0.8-0.2-1.6-0.4-2.3-0.8C82.8,110.8,82.3,111.6,82.8,111.9"/>
					<path class="st27" d="M102.1,94.5c2.2,0.5,3.9,2,5.5,3.5c0.8,0.8,1.7,1.6,2.5,2.2c0.8,0.6,1.9,1.5,2.9,1.4
						c0.6-0.1,0.6-0.9,0-0.9c-0.6,0.1-1.1-0.3-1.5-0.6c-0.5-0.3-0.9-0.7-1.4-1c-0.9-0.7-1.6-1.5-2.5-2.2c-1.6-1.4-3.3-2.8-5.4-3.3
						C101.7,93.5,101.5,94.3,102.1,94.5"/>
					<path class="st27" d="M85.2,78.5c2.3,2.2,2.9,5.6,3.4,8.6c0.1,0.6,0.9,0.3,0.9-0.2c-0.5-3.2-1.2-6.6-3.6-9
						C85.4,77.4,84.7,78.1,85.2,78.5"/>
					<path class="st27" d="M133.5,86.1c0.6,1.9,0.7,3.9,0.2,5.9c0,0.2-0.1,0.4-0.2,0.5c-0.2,0.1-0.2-0.1-0.2-0.2
						c-0.1-0.4-0.1-0.7,0-1.1c0.1-0.7,0.5-1.4,1.2-1.9c0.5-0.3,0-1.1-0.4-0.8c-0.9,0.6-1.5,1.6-1.6,2.7c-0.1,0.5-0.1,1.1,0.1,1.6
						c0.2,0.5,0.8,0.8,1.3,0.5c0.5-0.3,0.7-0.9,0.8-1.4c0.1-0.7,0.2-1.3,0.3-2c0.1-1.4-0.1-2.7-0.5-4
						C134.2,85.4,133.3,85.6,133.5,86.1"/>
					<path class="st26" d="M77.5,86.3c2.1-0.7,4.3-1.1,6.5-1.3c0.4,0,0.4-0.6,0-0.6c-2.3,0.1-4.5,0.6-6.7,1.3
						C77,85.8,77.1,86.4,77.5,86.3"/>
					<path class="st26" d="M101.4,82.4C101.4,82.4,101.3,82.4,101.4,82.4c-0.2,0-0.3-0.2-0.3-0.3c0.3-2,3.4-3.9,5.3-4.1
						c4.4-0.6,7.9,0.6,9.6,3.2c0.1,0.1,0,0.3-0.1,0.4c-0.1,0.1-0.3,0-0.4-0.1c-1.5-2.4-4.9-3.5-9-2.9c-1.7,0.2-4.5,1.9-4.8,3.6
						C101.6,82.3,101.5,82.4,101.4,82.4"/>
					<path class="st26" d="M104.9,82.3c2.6-0.3,5.3-0.3,7.9,0c0.4,0,0.4-0.6,0-0.6c-2.6-0.2-5.3-0.2-7.9,0
						C104.6,81.8,104.6,82.4,104.9,82.3"/>
					<path class="st26" d="M106.4,78.3c0,0-0.1,3.4,1.3,3.5c1.6,0.1,1.6,0.1,2.8,0.2c1.2,0,1.9-2.3,1.8-3.2
						C112.2,77.8,106.4,78.3,106.4,78.3"/>
					<path class="st26" d="M78,82.9c-0.2,1.3,1.6,2.7,2.2,2.5c1.1-0.4,2.3-0.4,2.8-0.7c0.6-0.3,0.9-2.5,0.6-3.1
						c-0.1-0.3-1.4-0.6-3-0.2C79.1,81.8,78.1,82.3,78,82.9"/>
					<path class="st27" d="M116,119.2c-1.8,5-5.9,8.8-10.7,11c-2.6,1.2-5.5,2-8.3,2.1c-3.3,0-6.1-1.5-8.6-3.4
						c-2.8-2-5.3-4.5-7.4-7.3c-0.3-0.5-1.1,0-0.8,0.4c2,2.6,4.2,4.9,6.8,6.9c2.5,2,5.4,3.8,8.6,4.1c1.7,0.2,3.4,0,5.1-0.4
						c1.4-0.3,2.7-0.7,4-1.3c2.6-1.1,5-2.5,7-4.4c2.3-2.1,4.1-4.7,5.1-7.6C117,118.9,116.2,118.6,116,119.2"/>
					<path class="st27" d="M113.9,104.2c1.9,3.4,2.6,7.4,2.1,11.2c-0.1,0.6,0.8,0.6,0.9,0c0.5-4-0.3-8.1-2.2-11.7
						C114.4,103.3,113.6,103.7,113.9,104.2"/>
					<path class="st27" d="M67.2,87.8c0.7,4.7,1.7,9.3,3.1,13.8c0.2,0.5,1,0.3,0.9-0.2c-1.4-4.5-2.4-9.1-3.1-13.8
						C67.9,87,67.1,87.3,67.2,87.8"/>
					<path class="st27" d="M134.5,78.5c0.2-0.6,0.9-0.4,1.2-0.1c0.5,0.5,0.7,1.3,0.9,2c0.5,1.6,0.6,3.3,0.5,5
						c-0.1,0.6,0.8,0.6,0.9,0c0.2-2.2-0.1-4.4-0.9-6.4c-0.3-0.8-0.8-1.6-1.7-1.8c-0.8-0.2-1.6,0.2-1.8,1
						C133.5,78.8,134.4,79,134.5,78.5"/>
					<path class="st27" d="M123.3,119.1c2.5-4.4,4-9.4,4.2-14.5c0-0.6-0.9-0.6-0.9,0c-0.2,4.9-1.6,9.8-4,14.1
						C122.3,119.2,123.1,119.6,123.3,119.1"/>
					<path class="st27" d="M91.5,117.2c1.1,0.7,2.4,0.7,3.7,0.8c1.3,0,2.5-0.1,3.8-0.4c2.5-0.5,4.9-1.5,7.1-2.9
						c0.5-0.3,0-1.1-0.4-0.8c-2,1.4-4.2,2.3-6.6,2.8c-1.2,0.2-2.3,0.4-3.5,0.4c-1.2,0-2.5,0-3.5-0.6C91.5,116.2,91,116.9,91.5,117.2
						"/>
					<path class="st27" d="M87.4,110.8c2.2-1.6,5.1-0.6,7.6-0.7c0.7,0,1.4-0.2,2.1-0.4c0.7-0.2,1.5-0.5,2.2-0.7
						c1.4-0.3,2.9,0,4.3,0.2c1.5,0.2,3.1,0.2,4.5-0.5c0.5-0.2,0.1-1-0.4-0.8c-1.3,0.6-2.7,0.5-4,0.3c-1.4-0.2-2.8-0.4-4.2-0.2
						c-1.5,0.2-2.8,1-4.3,1.1c-1.4,0.1-2.7-0.1-4.1-0.1c-1.4,0-2.9,0.1-4.1,1C86.5,110.4,87,111.2,87.4,110.8"/>
					<path class="st29" d="M128.9,141.3l-8.7,186.4c0,0-72.5,1.2-70.4-15.2C51.9,296.1,75.9,147,75.9,147L128.9,141.3z"/>
					<path class="st26" d="M154.8,247c-4.3,12.9,3.8,56.3,6.7,71.1c0.6,3.1,1.1,4.9,1.1,4.9c-10,16.3-46.8,16.1-46.8,16.1
						c-7.1-31.3-10.7-81-10.7-81l28.2-123.7l33.9,20.2c0,0-1.1,32.6-4.4,52.9C160.1,223.7,157.1,240.1,154.8,247"/>
					<path class="st26" d="M53.7,144.7C49.8,148.6,53.7,144.7,53.7,144.7c-1.7,1.7-50.1,48.7-59.5,67.1
						c-9.5,18.7,43.6,55.9,43.6,55.9s3.4,1.4,5.8,0.8c-2.5,20.6-5.3,39.7-3.7,47.8c3,14.7,16.6,19.6,16.6,18.5
						c0-0.4,5-53.4,7.7-81.1c5.8-59.3,20.5-118.9,20.5-118.9C70,137.4,57.7,140.8,53.7,144.7 M24.9,219.9c-0.1-0.1-0.1-0.2-0.1-0.3
						c0-2.7,10.3-8.6,21.4-15.6c0.1-0.1,0.2-0.2,0.2-0.2c0,0,0,0,0,0c-0.2,5.7-0.2,11.3,0.2,16.6c0.6,9.7,0.2,17.9-0.9,29.7
						C40.4,241.8,25.9,222.9,24.9,219.9"/>
					<path class="st30" d="M46.4,203.8c0,0-0.1,0.1-0.2,0.2c-11.1,7-21.4,12.9-21.4,15.6c-1.5-4.7,13.3-19.3,18-23.3
						C47.5,192.2,46.4,203.8,46.4,203.8"/>
					<path class="st31" d="M132.5,136.2c0.1-1.8-9.9-6.2-9.9-6.2s-9.6,13.4-25.5,13.6c0,0,4.5,8.8,9.9,11.1
						C107,154.6,132,146.7,132.5,136.2"/>
					<path class="st31" d="M97.1,143.2c0,0-8.4-4-8.5-9.4c0,0-4.1,1-7.6,2.1c0,0-2.2,8.1,0.4,13.5C81.5,149.4,93.6,147.6,97.1,143.2
						"/>
					<path class="st32" d="M73.9,274.5c0.4,4.4,2.4,8.4,5.6,11.4l5.1,4.7c1.3,1.2,3.3,1,4.3-0.3l6.3-8c1.7-2.1,2.5-4.8,2.2-7.5
						c-0.6-6-1.7-17.6-2.6-28.8c-0.7-9.1-1.3-17.9-1.3-23.2c-0.1-17.1,3.3-71.7,3.3-71.7l-4.1,0.2c0,0-5.8,21.9-11.1,50.7
						C80.2,208.9,72.2,254.8,73.9,274.5"/>
					<path class="st32" d="M104.1,143l-14.7-3.5c0,0-2.1,3.9-2,6.3c0.1,2.4,4.1,9.4,5.9,9.9C95.1,156.3,107.6,147.9,104.1,143"/>
					<path class="st29" d="M129.6,133.3c0.1-1.8-5.6-5.4-5.6-5.4s-11,12.9-26.9,13.1c0,0,3.6,4.4,9.9,13.7
						C107,154.6,129.1,143.8,129.6,133.3"/>
					<path class="st29" d="M97.1,140.9c0,0-2.8-0.5-8.5-7.1c0,0-4.3,2.3-7.6,2.1c0,0-2.2,5.9,0.4,11.2
						C81.5,147.2,90.7,143.3,97.1,140.9"/>
					<path class="st28" d="M161.5,318c-10.4-10.8-28.4-32.1-27.7-49.6c0.8-24.5,16.3-102.7,16.3-102.7c-2.6,16.1,7.1,74.4,4.7,81.2
						C150.5,259.9,158.6,303.3,161.5,318"/>
					<path class="st30" d="M124,127.8c0,0-22.6,94.6-19,130.3c0,0,35.7-94.3,35.7-96.5s-14.2,4.4-13.8,2c0,0,2.7-1.6,10.3-4.1
						c0,0-4.8-17.2-4.1-25.1C126.3,129.9,124,127.8,124,127.8"/>
					<path class="st30" d="M88.6,133.8c0.4-0.4-22.5,90.6-24.4,120.2c0,0,0.2-73.9,0-89.1c0,0,10.8,3.8,11.5,2.9
						c1-1.4-10.1-4.1-10.1-4.1s11.6-21.4,13.4-27.7C84.4,134.7,88.6,133.8,88.6,133.8"/>
					<path class="st26" d="M145.1,177.6c0,0-4-25.5,15.8-24.8c19.9,0.7,24.2,33.1,27.6,56.6c2.3,15.8,3.8,24.6,2,40.3
						c-0.3,2.4-1.9,7.3-4.7,13.1C172.4,290,156.7,319,156.7,319l-20.8-7.3l19.8-59.4L145.1,177.6z"/>
				</g>
			</g>
		</g>
		<g class="st12">
			<g class="st13">
				<defs>
					<rect id="SVGID_15_" x="11.4" y="19.2" width="176.2" height="176.2"/>
				</defs>
				<clipPath id="SVGID_16_">
					<use xlink:href="#SVGID_15_"  style="overflow:visible;"/>
				</clipPath>
				<g class="st33">
					<defs>
						<circle id="SVGID_17_" cx="99.5" cy="107.2" r="88.1"/>
					</defs>
					<clipPath id="SVGID_18_">
						<use xlink:href="#SVGID_17_"  style="overflow:visible;"/>
					</clipPath>
					<path class="st34" d="M113.4,134.8c0,0,23.3-2.9,33.2,6.9c12.2,12.1,30.8,72.7,29.9,80.6c-0.3,3-8.2,10.4-12.3,6.1
						C143.7,206.9,120.6,150.9,113.4,134.8"/>
					<path class="st34" d="M148.9,322.4c-1.7,22.7-106.3,24.5-107.2-1.3c-0.2-6.3,0.6-18.5,0.3-26.7c-1.8-48.8-2.4-36.7-3.7-61.7
						c-0.4-8-6.3-48.2-4-67.6c0.3-2.9,0.8-5.4,1.4-7.4c4.4-14.6,33-21.6,43.2-21.9l34.5-1c0,0,28.5,35.7,32.9,46.7
						c4.4,11,2.5,47.2,2.5,65.7C148.9,301.6,150.1,305.2,148.9,322.4"/>
					<path class="st35" d="M60.7,243c-3.2-19.4-21.4-36.6-25.7-63.2c-3.6-22.4-0.6-14.7,8.4-20.2c-0.5,0.3,25.8,6.1,29.7,13.4
						c16.6,31.2,23.5,41,34.4,61.7C118.2,255.2,61.6,249.1,60.7,243"/>
					<path class="st35" d="M142,220.2c0,0,2.9-33.5-1.7-52.1l17.6,47L142,220.2z"/>
					<path class="st36" d="M127.3,279.2c-0.4,4.4-2.4,8.4-5.6,11.4l-5.1,4.7c-1.3,1.2-3.3,1-4.3-0.3l-6.3-8
						c-1.7-2.1-2.5-4.8-2.2-7.5c0.6-6,1.7-17.6,2.6-28.8c0.7-9.1,1.3-17.9,1.3-23.2c0.1-17.1-3.3-71.7-3.3-71.7l4.1,0.2
						c0,0,5.8,21.9,11.1,50.7C121.1,213.7,129.1,259.6,127.3,279.2"/>
					<path class="st37" d="M145.3,208.4l-17.7,11.8l-6.6-9.7l22.1-10.7c3.6-3.3,13.5-9.8,16.3-5.8c2.9,4-0.8,9.4-2.1,11.2
						C156,206.9,152.8,207.5,145.3,208.4L145.3,208.4z"/>
					<path class="st35" d="M64.4,159.2c0,0-20.4-9.6-26.1,2.3c-10.4,21.8,17.9,82.7,25.8,93.9c3.3,4.6,21.7,3.8,22.9-17.5
						C87.8,226.9,71.5,177,64.4,159.2"/>
					<path class="st34" d="M62.4,141c0,0-22.9,2.4-27.8,14.6c-9.1,22.3,22.1,84.6,30,92.1c3.4,3.2,23.2,2.6,23.2-18.8
						C87.8,217.8,70.5,158.3,62.4,141"/>
					<path class="st37" d="M75.5,104.1c1.4,13.1,2.6,19.3,2.6,25.7c0,4.7,17,17.4,23.6,17c6.5-0.3,11.9-9.4,15.1-16.2
						c3.2-6.8,7.1-30.4,7.1-30.4L75.5,104.1z"/>
					<path class="st37" d="M72.1,64.8c-0.1,4.9,0.3,25.7,1.2,31.7c0.8,6,5,19.9,7,23c2,3.2,11.2,14.2,13.7,15.2c2.5,1,13,1.7,15,1.3
						c2-0.3,3.8-1.2,6-4.5c2.2-3.3,8-12.5,9.5-16.4c1.5-3.8,6.2-14.7,6.8-18.5c0.7-3.8,1.2-10.4,2.2-17.7c1-7.3,1.7-20.7-13.4-29.4
						c-15-8.7-30.7-7.6-37.4-3.3C76.4,50.3,72.2,53.8,72.1,64.8"/>
					<path class="st37" d="M74.8,86.8c-2.7-4-9.5-7.5-12-4.5c-2.5,3-0.3,9.7,2.2,12.4c2.5,2.7,5.7,7.9,6.5,9.9
						c0.8,2,3.6,5.8,5.4,3.4C78.3,106,74.8,86.8,74.8,86.8"/>
					<path class="st38" d="M116.3,105.9c1,3.2,1.5,6.5,1.5,9.8c0,0.6,0.9,0.6,0.9,0c0-3.4-0.5-6.8-1.6-10.1
						C117,105.2,116.1,105.4,116.3,105.9"/>
					<path class="st38" d="M83.9,107.8c0.9,5.2,2,10.4,3.5,15.6c0.4,1.4,0.8,2.9,1.3,4.3c0.2,0.5,1,0.3,0.9-0.2
						c-1.6-5.1-2.9-10.2-3.9-15.4c-0.3-1.5-0.6-2.9-0.8-4.4C84.6,107,83.8,107.3,83.9,107.8"/>
					<path class="st38" d="M76.4,112.5c0.2,3.8,2.6,6.9,4.9,9.7c1.4,1.7,2.8,3.4,4.2,5c1.3,1.5,2.5,3.1,4,4.6
						c1.3,1.3,2.7,2.5,4.4,3.2c1.8,0.8,3.8,1,5.8,1.1c3.4,0.2,6.9,0.2,10.2-0.6c1.6-0.4,2.9-1,3.9-2.3c1.1-1.4,1.8-3.1,2.8-4.7
						c0.3-0.5-0.5-0.9-0.8-0.4c-0.8,1.4-1.5,2.8-2.4,4.2c-0.7,1.1-1.7,1.8-2.9,2.2c-1.5,0.5-3.1,0.7-4.7,0.8
						c-1.6,0.1-3.2,0.2-4.8,0.1c-1.8-0.1-3.7-0.2-5.5-0.7c-1.8-0.5-3.3-1.5-4.7-2.8c-1.3-1.2-2.5-2.6-3.6-4l-4.1-4.8
						c-2.5-3-5.7-6.4-5.9-10.5C77.3,111.9,76.4,111.9,76.4,112.5"/>
					<path class="st39" d="M85.6,40.7c2.7-3.8,9.2-6.7,15-7.7c5.4-0.9,11.4-4,18.4,0c7,4,18,14.5,20.4,20.9c2.3,6.3,4.3,16,2.7,19.7
						c-1.7,3.7-5,12-6.8,13c-1.8,1-3.3,1.2-4.2,0c-0.8-1.2,1-13.2-1.8-16.4c-2.8-3.2-16.2-15.4-26.2-18.2s-14.1-0.3-16.1-2.3
						C84.9,47.8,84.2,42.8,85.6,40.7"/>
					<path class="st36" d="M73.4,43.1c5.3-3.7,10.4-4.4,13.5-1.3c2.1,2.1,1.2,6.5-2.7,9c-2.5,1.7-6.9,5.5-7.8,12
						c-0.9,6.5-2.2,20.5-1.7,24c0.5,3.5-0.6,5.7-1.3,4.2c-0.7-1.5-5.4-9.3-7.9-9.6c-2.5-0.3-2.1-2.5-2.4-6.5
						C62.7,70.8,61.9,51,73.4,43.1"/>
					<path class="st40" d="M110.9,84.5c0.9,0,10.6-1.3,15.6,0.3c0.3,0.1,0.8,0.2,1,0c0.3-0.3,0.1-0.8-0.1-1.2
						c-0.9-1.2-2.3-1.9-3.8-2.1c-1.5-0.3-2.9,0-4.4,0.1c-0.7,0.1-7.7,1.4-8.5,2.1C110.3,84.1,110.1,84.5,110.9,84.5"/>
					<path class="st40" d="M90.9,80.8c3.1,0.5,6.2,1.3,9,2.6c0.3,0.1,0.5,0.6,0.3,0.9c-0.1,0.3-0.6,0.1-0.9,0.1
						c-6.4-1.5-11.1-1.7-16.6-0.7c-1,0.2-1.3-0.3-1.3-0.8C81.5,82.1,86,80.2,90.9,80.8"/>
					<path class="st36" d="M107.7,90c0,0-2-0.6-4.7-0.6v-0.9c2.8,0,4.9,0.6,5,0.6L107.7,90z"/>
					<path class="st36" d="M79.1,87.9c-0.1,0-0.1,0-0.3,0l0,0c0,0,0,0-0.1,0c-0.5-0.1-1.4-0.5-3.6-1.5c-2-0.8-5-2.1-7.9-3.5
						c-0.2-0.1-0.3-0.4-0.2-0.6c0.1-0.2,0.4-0.3,0.6-0.2c5.2,2.4,10.7,4.6,11.5,4.9c0,0,0,0,0.1,0c0.1,0.1,0.3,0.2,0.3,0.4
						c0,0.2-0.1,0.3-0.2,0.4C79.2,87.9,79.2,87.9,79.1,87.9"/>
					<path class="st38" d="M113.3,103.2c0.5,0.8,0.7,1.8,0.2,2.7c-0.4,0.7-1,0.7-1.8,0.7c-0.8,0-1.5-0.5-2.3-0.4
						c-0.6,0.1-1,0.4-1.5,0.8c-0.6,0.5-1.2,0.7-2,0.7c-0.8,0-1.7-0.1-2.4-0.6c-0.4-0.3-0.5-0.7-0.8-1.1c-0.3-0.4-0.6-0.7-1.1-0.9
						c-1-0.3-2,0.1-3,0.3c-1,0.2-2.1-0.3-2.6-1.3c-0.5-0.9-0.3-2.1,0.3-2.8c0.4-0.4-0.2-1.1-0.6-0.6c-1.4,1.6-1,4.3,1,5.3
						c0.5,0.2,1,0.4,1.5,0.4c0.6,0,1.2-0.2,1.8-0.3c0.5-0.1,1-0.2,1.5,0.1c0.5,0.2,0.6,0.9,1,1.3c0.6,0.8,1.7,1,2.6,1.1
						c1,0.1,1.9,0.1,2.7-0.4c0.3-0.2,0.6-0.4,0.9-0.6c0.2-0.1,0.4-0.3,0.5-0.3c0.4-0.1,0.8,0.1,1.2,0.2c0.5,0.2,0.9,0.2,1.4,0.2
						c1,0,1.8-0.3,2.3-1.2c0.6-1.1,0.5-2.5-0.2-3.5C113.8,102.2,113,102.7,113.3,103.2"/>
					<path class="st38" d="M94.5,98.3c-1.4,1.4-2.5,3.2-3.6,4.8c-1.2,1.9-2.3,3.9-3.3,6c-0.5,0.9-0.9,1.9-1.3,2.9
						c-0.1,0.2,0.1,0.5,0.3,0.5c0.3,0.1,0.5-0.1,0.5-0.3c0.8-1.8,1.7-3.6,2.6-5.3c1.1-1.9,2.2-3.8,3.5-5.7c0.6-0.8,1.2-1.6,1.9-2.4
						C95.5,98.5,94.9,97.9,94.5,98.3"/>
					<path class="st36" d="M84.1,88.2c3.4-2.9,8.5-2.8,11.9,0.1c0.4,0.4,1.1-0.3,0.6-0.6c-1.8-1.6-4.1-2.5-6.5-2.5
						c-2.4,0-4.8,0.9-6.7,2.4C83.1,88,83.7,88.6,84.1,88.2"/>
					<path class="st36" d="M112.4,89.7c0.6-0.7,1.6-1.1,2.5-1.4c1.2-0.3,2.5-0.5,3.7-0.4c1.1,0.1,2.4,0.2,3.4,0.8
						c0.6,0.3,1,0.7,1.5,1.1c0.4,0.4,1.1-0.3,0.6-0.6c-0.4-0.4-0.8-0.7-1.3-1c-0.7-0.4-1.5-0.7-2.3-0.9c-2.1-0.4-4.4-0.4-6.5,0.3
						c-0.9,0.3-1.7,0.7-2.3,1.4C111.4,89.5,112.1,90.2,112.4,89.7"/>
					<path class="st36" d="M91.5,101.9c-2.8,0-6.2-0.7-7.9-1.7c-2.6-1.5-4.6-5.1-4.9-8.7c-0.3-3.4-0.3-7.5,2.4-9.3
						c3.6-2.4,13.3-2.1,17.3-0.6c4.3,1.6,5,4.4,5.1,6.6c0.1,2.6-2.4,7.4-3.4,9c-1.2,1.9-2.8,3.9-6.2,4.5
						C93.1,101.8,92.3,101.9,91.5,101.9 M81.6,82.9c-2.3,1.6-2.3,5.4-2,8.5c0.3,3.7,2.5,6.8,4.5,8c2,1.2,6.8,1.9,9.6,1.4
						c3-0.6,4.5-2.4,5.6-4.1c1.2-1.7,3.4-6.3,3.3-8.4c-0.1-2.1-0.7-4.4-4.5-5.8C94.3,81,84.9,80.7,81.6,82.9"/>
					<path class="st36" d="M120.9,103.5c-2.6,0-5.6-0.5-7.6-1.2c-3.5-1.3-6-6.7-6-10.8c0-4.5,1.2-7.4,3.8-8.8c3-1.8,11.9-1.6,17.4,1
						c2.8,1.3,4.5,5.9,3.4,9.2c-1.7,5.2-3.8,8.3-6.7,9.9C124.3,103.3,122.7,103.5,120.9,103.5 M117.6,82.4c-2.6,0-4.8,0.4-6,1.1
						c-2.2,1.3-3.3,3.9-3.3,8.1c0,3.8,2.2,8.8,5.4,9.9c3.4,1.2,9.4,1.5,11.3,0.5c1.7-0.9,4.2-2.8,6.3-9.4c0.9-2.9-0.6-7-3-8.1
						C125.2,83,121,82.4,117.6,82.4"/>
					<path class="st36" d="M89.8,85.6c0.7-0.1,1.1,0.2,1.6,0.6c0.8,0.8,0.6,2.5-0.3,3.1c-0.3,0.2-0.6,0.3-1,0.4
						c-1.1,0.2-1.8,0.1-2.6-0.6c-0.8-0.8-0.7-2.5,0.3-3C87.8,86.1,88.3,85.8,89.8,85.6"/>
					<path class="st36" d="M119.2,87.6c0.7,0.6,0.8,2.1,0.1,2.9c-0.7,0.8-2,0.9-2.9,0.5c-0.6-0.3-1-0.9-1.1-1.5
						c-0.1-0.6,0.2-1.6,0.8-1.8"/>
					<path class="st36" d="M89.9,113.3c0,0.2,0.1,0.3,0.2,0.4c3.5,1.7,7.4,4,10.8,4.2c3.4,0.2,6.7-0.4,10-1.1c1-0.2,2.6-0.9,3.1-1.4
						c0.1-0.1,0.3-0.3,0-0.4c-1-0.4-6.7-0.8-10.1-1.3c-1.3-0.2-2.6-0.4-3.9-0.5c-2.6-0.2-7-0.6-9.6-0.2
						C90.5,113,89.9,113.1,89.9,113.3"/>
					<path class="st41" d="M94,113.5c2-0.4,11.9,1,15.7,1.4c0.5,0,0.3,0.4,0.3,0.4c-0.9,0.8-3.2,1.2-4,1.4c-2.8,0.6-5.8,0.5-8.6-0.7
						c-0.9-0.4-3.6-1.5-3.6-2.2C93.7,113.4,93.8,113.5,94,113.5"/>
					<path class="st38" d="M97.7,121.1c3.2,1.6,7,1.9,10.4,0.6c0.5-0.2,0.3-1.1-0.2-0.9c-3.1,1.2-6.7,1-9.7-0.5
						C97.7,120.1,97.2,120.8,97.7,121.1"/>
					<path class="st38" d="M65.4,87c0.6-0.4,1.4,0,1.8,0.4c0.5,0.5,0.8,1.2,1,1.9c0.4,1.6,0.4,3.2,0.6,4.9c0.2,1.7,0.6,3.3,1.4,4.8
						c0.3,0.6,0.9,1.3,1.7,1c0.8-0.2,0.7-1.2,0.6-1.9c-0.1-0.7-0.5-1.4-1.3-1.5c-0.6-0.1-1.4,0.2-1.5,0.9c0,0.2,0.1,0.5,0.3,0.5
						c0.2,0.1,0.5-0.1,0.5-0.3c0.1-0.4,0.6-0.4,0.9-0.1c0.2,0.2,0.5,1.5,0.2,1.5c-0.2,0-0.4-0.4-0.5-0.6c-0.2-0.3-0.4-0.7-0.5-1
						c-0.3-0.7-0.5-1.4-0.6-2.1c-0.3-1.4-0.4-2.9-0.5-4.3c-0.1-1.3-0.3-2.6-1.1-3.7c-0.8-1.1-2.3-2-3.6-1
						C64.3,86.7,64.9,87.4,65.4,87"/>
					<path class="st42" d="M70.9,139.3c-0.7-1.7,7.1-6.8,7.1-6.8s11.9,14.2,28.1,12.7c0,0-6.4,12-11.9,14.3
						C94.3,159.5,78.1,156.5,70.9,139.3"/>
					<path class="st42" d="M106.2,145.1c0,0,8.7-1.8,8.7-7.4c0,0,2,1.1,6.2,0c0,0,2.1,8.5-0.6,14
						C120.5,151.8,109.7,149.6,106.2,145.1"/>
					<path class="st36" d="M97.2,147.8l14.7-3.5c0,0,2.1,3.9,2,6.3c-0.1,2.4-4.1,9.4-5.9,9.9C106.2,161.1,93.7,152.6,97.2,147.8"/>
					<path class="st41" d="M70.9,137.5c-0.1-1.8,7-7.7,7-7.7s11.9,15.2,28.2,15.4c0,0-5.5,4.7-11.9,14.3
						C94.3,159.5,71.5,148.3,70.9,137.5"/>
					<path class="st41" d="M106.2,145.2c0,0,4.7-3.3,8.5-10.5c0,0,3.4-0.3,7.1-0.3c0,0,1.4,11.8-1.3,17.4
						C120.5,151.8,112.7,147.6,106.2,145.2"/>
				</g>
			</g>
		</g>
	</g>
</g>
</svg>
