<?xml version="1.0" encoding="utf-8"?>
<!-- Generator: Adobe Illustrator 23.0.1, SVG Export Plug-In . SVG Version: 6.00 Build 0)  -->
<svg version="1.1" id="圖層_1" xmlns="http://www.w3.org/2000/svg" xmlns:xlink="http://www.w3.org/1999/xlink" x="0px" y="0px"
	 viewBox="0 0 200 200" style="enable-background:new 0 0 200 200;" xml:space="preserve">
<style type="text/css">
	.st0{clip-path:url(#SVGID_2_);fill:#E6EBF5;}
	.st1{clip-path:url(#SVGID_2_);fill:#CCD3DB;}
	.st2{clip-path:url(#SVGID_2_);fill:#FFFFFF;}
	.st3{clip-path:url(#SVGID_2_);}
	.st4{clip-path:url(#SVGID_4_);fill:#FFD47D;}
	.st5{clip-path:url(#SVGID_6_);fill:#EAE6CE;}
	.st6{clip-path:url(#SVGID_6_);fill:#F1F3E2;}
	.st7{clip-path:url(#SVGID_6_);fill:#E5B15D;}
	.st8{clip-path:url(#SVGID_6_);fill:#D6963D;}
	.st9{clip-path:url(#SVGID_6_);fill:#F3CA6E;}
	.st10{clip-path:url(#SVGID_6_);fill:#F9DC8F;}
	.st11{clip-path:url(#SVGID_6_);fill:#728801;}
	.st12{clip-path:url(#SVGID_6_);fill:#A2AD22;}
	.st13{clip-path:url(#SVGID_6_);fill:#C5CE3D;}
	.st14{clip-path:url(#SVGID_6_);fill:#C6A67D;}
	.st15{clip-path:url(#SVGID_6_);fill:#DCC496;}
	.st16{clip-path:url(#SVGID_6_);fill:#E6EBF5;}
	.st17{clip-path:url(#SVGID_6_);fill:#FFFFFF;}
	.st18{clip-path:url(#SVGID_6_);fill:#9FADC3;}
	.st19{clip-path:url(#SVGID_8_);}
	.st20{clip-path:url(#SVGID_10_);fill:#FFCAB3;}
	.st21{clip-path:url(#SVGID_12_);}
	.st22{clip-path:url(#SVGID_14_);fill:#E6EBF5;}
	.st23{clip-path:url(#SVGID_14_);fill:#FFD47D;}
	.st24{clip-path:url(#SVGID_14_);fill:#FFFFFF;}
	.st25{clip-path:url(#SVGID_14_);fill:#A1ADC1;}
	.st26{clip-path:url(#SVGID_16_);fill:#FFFFFF;}
	.st27{clip-path:url(#SVGID_18_);fill:#FFD47D;}
	.st28{clip-path:url(#SVGID_18_);fill:#FFCB6E;}
	.st29{clip-path:url(#SVGID_18_);fill:#2F4566;}
	.st30{clip-path:url(#SVGID_18_);fill:#FDDC8D;}
	.st31{clip-path:url(#SVGID_20_);}
	.st32{clip-path:url(#SVGID_22_);fill:#FFD47D;}
	.st33{clip-path:url(#SVGID_22_);}
	.st34{clip-path:url(#SVGID_24_);fill:#9FADC3;}
	.st35{clip-path:url(#SVGID_24_);fill:#FFCB6E;}
	.st36{clip-path:url(#SVGID_24_);fill:#FFD47D;}
	.st37{opacity:0.149;clip-path:url(#SVGID_26_);enable-background:new    ;}
	.st38{clip-path:url(#SVGID_28_);fill:#E69A10;}
	.st39{clip-path:url(#SVGID_30_);fill:#FFFFFF;}
	.st40{clip-path:url(#SVGID_32_);}
	.st41{clip-path:url(#SVGID_34_);fill:#FDE9E0;}
	.st42{clip-path:url(#SVGID_34_);fill:#595757;}
	.st43{clip-path:url(#SVGID_34_);fill:#717071;}
	.st44{clip-path:url(#SVGID_34_);fill:#EFCCC2;}
	.st45{clip-path:url(#SVGID_34_);fill:#B4B4B5;}
	.st46{clip-path:url(#SVGID_34_);fill:#FFFFFF;}
	.st47{clip-path:url(#SVGID_34_);fill:#23325B;}
	.st48{clip-path:url(#SVGID_34_);fill:#2D4773;}
	.st49{clip-path:url(#SVGID_34_);fill:#D8D8D8;}
	.st50{clip-path:url(#SVGID_34_);fill:#ED556E;}
	.st51{clip-path:url(#SVGID_36_);}
	.st52{clip-path:url(#SVGID_38_);fill:#FDE9E0;}
	.st53{clip-path:url(#SVGID_38_);fill:#595757;}
	.st54{clip-path:url(#SVGID_38_);fill:#717071;}
	.st55{clip-path:url(#SVGID_38_);fill:#EFCCC2;}
	.st56{clip-path:url(#SVGID_38_);fill:#E1B58E;}
	.st57{clip-path:url(#SVGID_38_);fill:#FFFFFF;}
	.st58{clip-path:url(#SVGID_38_);fill:#D8D8D8;}
	.st59{clip-path:url(#SVGID_38_);fill:#2D4773;}
	.st60{clip-path:url(#SVGID_38_);fill:#D39E76;}
	.st61{clip-path:url(#SVGID_40_);}
	.st62{clip-path:url(#SVGID_42_);fill:#FDE9E0;}
	.st63{clip-path:url(#SVGID_42_);fill:#595757;}
	.st64{clip-path:url(#SVGID_42_);fill:#EFCCC2;}
	.st65{clip-path:url(#SVGID_42_);fill:#717071;}
	.st66{clip-path:url(#SVGID_42_);fill:#FFFFFF;}
	.st67{clip-path:url(#SVGID_42_);fill:#3E3A39;}
	.st68{clip-path:url(#SVGID_42_);fill:#D8D8D8;}
	.st69{clip-path:url(#SVGID_42_);fill:#2D4773;}
	.st70{clip-path:url(#SVGID_44_);}
	.st71{clip-path:url(#SVGID_46_);fill:#E1B58E;}
	.st72{clip-path:url(#SVGID_46_);fill:#D39E76;}
	.st73{clip-path:url(#SVGID_46_);fill:#595757;}
	.st74{clip-path:url(#SVGID_46_);fill:#FDE9E0;}
	.st75{clip-path:url(#SVGID_46_);fill:#EFCCC2;}
	.st76{clip-path:url(#SVGID_46_);fill:#717071;}
	.st77{clip-path:url(#SVGID_46_);fill:#B4B4B5;}
	.st78{clip-path:url(#SVGID_46_);fill:#FFFFFF;}
	.st79{clip-path:url(#SVGID_46_);fill:#D8D8D8;}
</style>
<g>
	<g>
		<defs>
			<rect id="SVGID_19_" width="200" height="200"/>
		</defs>
		<clipPath id="SVGID_2_">
			<use xlink:href="#SVGID_19_"  style="overflow:visible;"/>
		</clipPath>
		<g class="st3">
			<defs>
				<rect id="SVGID_21_" width="200" height="200"/>
			</defs>
			<clipPath id="SVGID_4_">
				<use xlink:href="#SVGID_21_"  style="overflow:visible;"/>
			</clipPath>
			<polygon class="st4" points="130.3,60.3 132.8,65.4 137.8,67.8 132.8,70.6 130.3,75.3 127.5,70.6 122.8,67.8 127.5,65.4 			"/>
			<g style="clip-path:url(#SVGID_4_);">
				<defs>
					<rect id="SVGID_23_" width="200" height="200"/>
				</defs>
				<clipPath id="SVGID_6_">
					<use xlink:href="#SVGID_23_"  style="overflow:visible;"/>
				</clipPath>
				<path class="st18" d="M120.1,132.6v-5.8c4.6,3.8,13.1,5.8,21.5,5.8c8.4,0,16.9-2,21.5-5.8v5.8c0,4-9.6,7.2-21.5,7.2
					C129.7,139.7,120.1,136.5,120.1,132.6 M120.1,121.7v-4.8c4.6,3.3,13.1,4.8,21.5,4.8c8.4,0,16.9-1.5,21.5-4.8v4.8
					c0,4-9.6,7.2-21.5,7.2C129.7,128.9,120.1,125.7,120.1,121.7 M120.1,111v-5.8c4.6,3.8,13.1,5.8,21.5,5.8c8.4,0,16.9-2,21.5-5.8
					v5.8c0,4-9.6,7.2-21.5,7.2C129.7,118.1,120.1,114.9,120.1,111 M120.1,98.4c0-4.9,9.6-9,21.5-9c11.9,0,21.5,4,21.5,9
					c0,4.9-9.6,9-21.5,9C129.7,107.4,120.1,103.4,120.1,98.4"/>
				<path style="clip-path:url(#SVGID_6_);fill:#FFCB6E;" d="M128.5,115.6c-6.3,18.6-26.4,28.5-45,22.3c-18.6-6.3-28.5-26.4-22.3-45
					s26.4-28.5,45-22.3c0,0,0,0,0,0C124.8,76.9,134.7,97,128.5,115.6"/>
				<polygon class="st18" points="48.2,117.3 51.8,125 59.4,128.5 51.8,132.7 48.2,139.7 43.9,132.7 37,128.5 43.9,125 				"/>
				<path style="clip-path:url(#SVGID_6_);fill:#FFD47D;" d="M122.3,113.5c-5.1,15.2-21.5,23.3-36.7,18.2
					c-15.2-5.1-23.3-21.5-18.2-36.7c5.1-15.2,21.5-23.3,36.7-18.2l0,0C119.3,81.9,127.4,98.3,122.3,113.5
					C122.3,113.5,122.3,113.5,122.3,113.5"/>
			</g>
			<g style="clip-path:url(#SVGID_4_);">
				<defs>
					<path id="SVGID_25_" d="M61.2,92.9c-6.3,18.6,3.7,38.7,22.3,45c18.6,6.3,38.7-3.7,45-22.3c6.3-18.6-3.7-38.7-22.3-45
						c0,0,0,0,0,0c-3.8-1.3-7.6-1.9-11.3-1.9C80,68.8,66.2,78.1,61.2,92.9"/>
				</defs>
				<clipPath id="SVGID_8_">
					<use xlink:href="#SVGID_25_"  style="overflow:visible;"/>
				</clipPath>
				<g style="opacity:0.149;clip-path:url(#SVGID_8_);enable-background:new    ;">
					<g>
						<defs>
							<rect id="SVGID_27_" x="59.4" y="73" width="119" height="119"/>
						</defs>
						<clipPath id="SVGID_10_">
							<use xlink:href="#SVGID_27_"  style="overflow:visible;"/>
						</clipPath>
						
							<rect x="69.4" y="97.9" transform="matrix(0.7071 -0.7071 0.7071 0.7071 -58.9021 122.8602)" style="clip-path:url(#SVGID_10_);fill:#E69A10;" width="99" height="69.3"/>
					</g>
				</g>
			</g>
			<g style="clip-path:url(#SVGID_4_);">
				<defs>
					<rect id="SVGID_29_" width="200" height="200"/>
				</defs>
				<clipPath id="SVGID_12_">
					<use xlink:href="#SVGID_29_"  style="overflow:visible;"/>
				</clipPath>
				<path style="clip-path:url(#SVGID_12_);fill:#FFFFFF;" d="M91.9,90.8H97c0.1,0,0.3,0.1,0.4,0.1c0.1,0.1,0.1,0.2,0.1,0.4v28.6
					c0,0.1,0,0.3-0.1,0.4c-0.1,0.1-0.2,0.1-0.4,0.1H92c-0.1,0-0.3,0-0.4-0.1c-0.1-0.1-0.1-0.2-0.1-0.4V96.7c0-0.1,0-0.1-0.1-0.2
					s-0.1-0.1-0.2,0l-4.2,1.1l-0.2,0c-0.3,0-0.4-0.2-0.4-0.5l-0.1-3.6c0-0.3,0.1-0.5,0.4-0.6l4.4-2.1C91.4,90.8,91.6,90.8,91.9,90.8
					"/>
			</g>
		</g>
	</g>
</g>
</svg>
