<?xml version="1.0" encoding="utf-8"?>
<!-- Generator: Adobe Illustrator 23.0.1, SVG Export Plug-In . SVG Version: 6.00 Build 0)  -->
<svg version="1.1" id="圖層_1" xmlns="http://www.w3.org/2000/svg" xmlns:xlink="http://www.w3.org/1999/xlink" x="0px" y="0px"
	 viewBox="0 0 200 200" style="enable-background:new 0 0 200 200;" xml:space="preserve">
<style type="text/css">
	.st0{display:none;}
	.st1{display:inline;}
	.st2{clip-path:url(#SVGID_2_);}
	.st3{clip-path:url(#SVGID_4_);}
	.st4{clip-path:url(#SVGID_6_);enable-background:new    ;}
	.st5{clip-path:url(#SVGID_8_);fill:#1270B7;}
	.st6{clip-path:url(#SVGID_6_);fill:#FFFFFF;}
	.st7{clip-path:url(#SVGID_10_);fill:#C38777;}
	.st8{clip-path:url(#SVGID_10_);fill:#F8C6B1;}
	.st9{opacity:0.5;clip-path:url(#SVGID_10_);}
	.st10{clip-path:url(#SVGID_12_);fill:#D7B8A4;}
	.st11{clip-path:url(#SVGID_10_);fill:#F5CE48;}
	.st12{clip-path:url(#SVGID_10_);fill:#FFFFFF;}
	.st13{clip-path:url(#SVGID_10_);fill:#5CA7D1;}
	.st14{opacity:0.3;clip-path:url(#SVGID_10_);}
	.st15{clip-path:url(#SVGID_14_);fill:#F9E6DD;}
	.st16{clip-path:url(#SVGID_10_);fill:#FAD6C9;}
	.st17{opacity:0.14;clip-path:url(#SVGID_10_);}
	.st18{clip-path:url(#SVGID_16_);}
	.st19{clip-path:url(#SVGID_18_);fill:url(#SVGID_19_);}
	.st20{clip-path:url(#SVGID_21_);}
	.st21{clip-path:url(#SVGID_23_);fill:#213159;}
	.st22{clip-path:url(#SVGID_23_);fill:#FFFFFF;}
	.st23{clip-path:url(#SVGID_23_);fill:#2B4670;}
	.st24{clip-path:url(#SVGID_23_);fill:#DF546A;}
	.st25{clip-path:url(#SVGID_25_);}
	.st26{clip-path:url(#SVGID_27_);}
	.st27{clip-path:url(#SVGID_29_);enable-background:new    ;}
	.st28{clip-path:url(#SVGID_31_);fill:#1270B7;}
	.st29{clip-path:url(#SVGID_27_);fill:#5CA7D1;}
	.st30{clip-path:url(#SVGID_27_);fill:#FFFFFF;}
	.st31{clip-path:url(#SVGID_33_);fill:#1270B7;}
	.st32{clip-path:url(#SVGID_33_);fill:#F5CE48;}
	.st33{clip-path:url(#SVGID_33_);fill:#F5B538;}
	.st34{clip-path:url(#SVGID_33_);fill:#FFFFFF;}
	.st35{clip-path:url(#SVGID_33_);enable-background:new    ;}
	.st36{clip-path:url(#SVGID_35_);fill:#E74948;}
	.st37{clip-path:url(#SVGID_33_);}
	.st38{clip-path:url(#SVGID_37_);fill:#FFFFFF;}
	.st39{clip-path:url(#SVGID_33_);fill:#5CA7D1;}
	.st40{clip-path:url(#SVGID_39_);}
	.st41{clip-path:url(#SVGID_41_);fill:#DCB28C;}
	.st42{clip-path:url(#SVGID_41_);fill:#FFFFFF;}
	.st43{clip-path:url(#SVGID_41_);fill:#2B4670;}
	.st44{clip-path:url(#SVGID_41_);fill:#CE9B74;}
	.st45{clip-path:url(#SVGID_43_);}
	.st46{clip-path:url(#SVGID_45_);enable-background:new    ;}
	.st47{clip-path:url(#SVGID_47_);fill:#1270B7;}
	.st48{clip-path:url(#SVGID_45_);fill:#5CA7D1;}
	.st49{clip-path:url(#SVGID_45_);fill:#FFFFFF;}
	.st50{clip-path:url(#SVGID_49_);fill:#1270B7;}
	.st51{clip-path:url(#SVGID_45_);fill:#F5CE48;}
	.st52{clip-path:url(#SVGID_45_);fill:#1270B7;}
	.st53{clip-path:url(#SVGID_45_);fill:#E6971F;}
	.st54{clip-path:url(#SVGID_45_);fill:#F5B538;}
	.st55{clip-path:url(#SVGID_51_);}
	.st56{clip-path:url(#SVGID_53_);fill:#FFFFFF;}
	.st57{clip-path:url(#SVGID_53_);fill:#595857;}
	.st58{clip-path:url(#SVGID_53_);fill:#2B4670;}
	.st59{clip-path:url(#SVGID_53_);fill:#717071;}
	.st60{clip-path:url(#SVGID_55_);}
	.st61{clip-path:url(#SVGID_57_);enable-background:new    ;}
	.st62{clip-path:url(#SVGID_59_);fill:#1270B7;}
	.st63{clip-path:url(#SVGID_57_);fill:#FFFFFF;}
	.st64{clip-path:url(#SVGID_61_);fill:#E74948;}
	.st65{clip-path:url(#SVGID_63_);fill:#1270B7;}
	.st66{clip-path:url(#SVGID_65_);fill:#1270B7;}
	.st67{clip-path:url(#SVGID_67_);fill:#1270B7;}
	.st68{clip-path:url(#SVGID_69_);fill:#5CA7D1;}
	.st69{clip-path:url(#SVGID_71_);fill:#F5CE48;}
	.st70{clip-path:url(#SVGID_71_);fill:#1270B7;}
	.st71{clip-path:url(#SVGID_71_);fill:#FFFFFF;}
	.st72{clip-path:url(#SVGID_73_);}
	.st73{clip-path:url(#SVGID_75_);fill:#DCB28C;}
	.st74{clip-path:url(#SVGID_75_);fill:#595857;}
	.st75{clip-path:url(#SVGID_77_);}
	.st76{clip-path:url(#SVGID_79_);}
	.st77{clip-path:url(#SVGID_81_);enable-background:new    ;}
	.st78{clip-path:url(#SVGID_83_);fill:#1270B7;}
	.st79{clip-path:url(#SVGID_81_);fill:#FFFFFF;}
	.st80{clip-path:url(#SVGID_81_);fill:#F5CE48;}
	.st81{clip-path:url(#SVGID_81_);fill:#1270B7;}
	.st82{clip-path:url(#SVGID_81_);}
	.st83{clip-path:url(#SVGID_85_);fill:#A6D9DF;}
	.st84{clip-path:url(#SVGID_87_);fill:#A6D9DF;}
	.st85{clip-path:url(#SVGID_89_);}
	.st86{clip-path:url(#SVGID_91_);enable-background:new    ;}
	.st87{clip-path:url(#SVGID_93_);fill:#1270B7;}
	.st88{clip-path:url(#SVGID_95_);fill:#EAA040;}
	.st89{clip-path:url(#SVGID_95_);fill:#F5CB54;}
	.st90{clip-path:url(#SVGID_95_);fill:#F8E385;}
	.st91{clip-path:url(#SVGID_95_);fill:#E6971F;}
	.st92{clip-path:url(#SVGID_95_);fill:#F5CE48;}
	.st93{clip-path:url(#SVGID_95_);fill:#F5B538;}
	.st94{clip-path:url(#SVGID_95_);fill:#FFFFFF;}
	.st95{clip-path:url(#SVGID_95_);enable-background:new    ;}
	.st96{clip-path:url(#SVGID_97_);fill:#67874D;}
	.st97{clip-path:url(#SVGID_99_);fill:#DEE0C9;}
	.st98{clip-path:url(#SVGID_101_);fill:#67874D;}
	.st99{clip-path:url(#SVGID_95_);fill:#E1DFCD;}
	.st100{clip-path:url(#SVGID_103_);fill:#67874D;}
	.st101{clip-path:url(#SVGID_105_);fill:#67874D;}
	.st102{clip-path:url(#SVGID_107_);fill:#67874D;}
	.st103{clip-path:url(#SVGID_109_);fill:#DEE0C9;}
	.st104{clip-path:url(#SVGID_111_);fill:#67874D;}
	.st105{clip-path:url(#SVGID_113_);fill:#67874D;}
	.st106{clip-path:url(#SVGID_115_);fill:#67874D;}
	.st107{clip-path:url(#SVGID_117_);fill:#67874D;}
	.st108{clip-path:url(#SVGID_119_);fill:#DEE0C9;}
	.st109{clip-path:url(#SVGID_121_);fill:#67874D;}
	.st110{clip-path:url(#SVGID_123_);fill:#67874D;}
	.st111{clip-path:url(#SVGID_125_);fill:#67874D;}
	.st112{clip-path:url(#SVGID_127_);fill:#FFFFFF;}
</style>
<g class="st0">
	<g class="st1">
		<defs>
			<rect id="SVGID_1_" x="3.9" y="4.3" width="192.4" height="192.4"/>
		</defs>
		<clipPath id="SVGID_2_">
			<use xlink:href="#SVGID_1_"  style="overflow:visible;"/>
		</clipPath>
		<g class="st2">
			<defs>
				<rect id="SVGID_3_" x="3.9" y="4.3" width="192.4" height="192.4"/>
			</defs>
			<clipPath id="SVGID_4_">
				<use xlink:href="#SVGID_3_"  style="overflow:visible;"/>
			</clipPath>
			<g class="st3">
				<defs>
					<rect id="SVGID_5_" x="3.9" y="4.3" width="192.4" height="192.4"/>
				</defs>
				<clipPath id="SVGID_6_">
					<use xlink:href="#SVGID_5_"  style="overflow:visible;"/>
				</clipPath>
				<g class="st4">
					<g>
						<defs>
							<rect id="SVGID_7_" x="3.9" y="4.3" width="192.4" height="192.4"/>
						</defs>
						<clipPath id="SVGID_8_">
							<use xlink:href="#SVGID_7_"  style="overflow:visible;"/>
						</clipPath>
						<path class="st5" d="M196.3,100.4c0,53.1-43.1,96.2-96.2,96.2S3.9,153.6,3.9,100.4S47,4.3,100.1,4.3S196.3,47.3,196.3,100.4"
							/>
					</g>
				</g>
				<path class="st6" d="M56.1,40.8c-1.7,5.3-4.7,9.5-8.5,11.8c3.8,2.4,6.8,6.6,8.5,11.8c1.7-5.3,4.7-9.5,8.5-11.8
					C60.8,50.2,57.8,46,56.1,40.8"/>
				<path class="st6" d="M172.4,120.8c-0.8,2.5-2.2,4.5-4,5.6c1.8,1.1,3.2,3.1,4,5.6c0.8-2.5,2.2-4.5,4-5.6
					C174.6,125.3,173.2,123.3,172.4,120.8"/>
			</g>
			<g class="st3">
				<defs>
					<circle id="SVGID_9_" cx="100.1" cy="100.4" r="96.2"/>
				</defs>
				<clipPath id="SVGID_10_">
					<use xlink:href="#SVGID_9_"  style="overflow:visible;"/>
				</clipPath>
				<path class="st7" d="M59.4,128.5c0,0,8.6-1.8,11.7-8.3c0,0,10.1,6.7,15.2,5c0,0,10.5,10.1,15.4,6.6c4.9-3.6-4-14.2-4-14.2
					L80.6,102l-7.8-1.8l-9.2,1.8c0,0-6.6,2.8-6.5,3.3c0.1,0.5-3.6,7.4-3.7,8.1c-0.1,0.7-1.1,7-0.8,7.9
					C53.1,122,59.4,128.5,59.4,128.5"/>
				<path class="st8" d="M77.9,133.4c0,0.4-16.6-1.9-16.6-1.9s2.3-8.8-3.7-11.8c0,0,6.3-3.5,6.4-11.4c0,0,7.9-0.9,10.9-4.8l18.6,0.7
					l-1.5-12.3L84,88.3c0,0-7-1.9-23.7,3.5c-13,4.2-11.8,1.7-16.6,15.2c-3.2,8.9-13.8,27.5-14.9,30.4c-1.1,2.9,3,8.8,6.7,15.3
					c3.7,6.4,20.6,41.5,21.8,47.3c1.2,5.7,22.1,3.1,22.1,3.1L77.9,133.4z"/>
				<path class="st8" d="M75.3,133l0,0.3c-4.1-0.4-11.9-1.5-13.7-1.7C67.4,132.3,75.3,133.3,75.3,133"/>
				<path class="st8" d="M75.3,133.2c1.5,0.2,2.6,0.2,2.5,0.1l1.5,69.6c0,0-1,0.1-2.5,0.3L75.3,133.2z"/>
				<g class="st9">
					<g>
						<defs>
							<rect id="SVGID_11_" x="51.5" y="88" width="41.9" height="43.5"/>
						</defs>
						<clipPath id="SVGID_12_">
							<use xlink:href="#SVGID_11_"  style="overflow:visible;"/>
						</clipPath>
						<path class="st10" d="M93.1,104.1l-18.3-0.7c-0.2,0.2-0.3,0.4-0.5,0.6c-2.5,2.5-7.1,3.7-9.2,4c0,0,0,0,0,0c-0.1,0-0.2,0-0.3,0
							h0c-0.1,0-0.2,0-0.2,0c0,0,0,0,0,0c-0.1,0-0.1,0-0.2,0c0,0,0,0,0,0c-0.1,0-0.1,0-0.2,0c0,0,0,0,0,0c-0.1,0-0.2,0-0.2,0
							c0,0,0,0,0,0c0,0-0.1,0-0.1,0c-0.1,7.9-6.4,11.4-6.4,11.4c6,3,3.7,11.8,3.7,11.8s0.1,0,0.4,0.1c-3.3-0.4-5.8-0.8-5.8-0.8
							s2.7-10.3-4.3-13.8c0,0,7.4-4.1,7.5-13.4c0,0,9.3-1.1,12.8-5.7l3,0.1c0.5-3.7,1.5-7.2,3.2-9.8c4.2-0.3,6.1,0.2,6.1,0.2
							l7.6,3.4c0.2,1.5,0.5,3.9,0.8,6.8l0.2,0l0.7,5.5L93.1,104.1z"/>
					</g>
				</g>
				<path class="st11" d="M166.9,103.1L93.7,126c-3.8,1.2-7.8-0.9-8.9-4.7L70.9,77c-1.2-3.8,0.9-7.8,4.7-8.9l73.2-22.9
					c3.8-1.2,7.8,0.9,8.9,4.7l13.9,44.4C172.8,97.9,170.7,101.9,166.9,103.1"/>
				<path class="st12" d="M154.7,124.6H73.4c-2.7,0-4.8-2.2-4.8-4.8V68.7c0-2.7,2.2-4.8,4.8-4.8h81.3c2.7,0,4.8,2.2,4.8,4.8v51.2
					C159.5,122.5,157.4,124.6,154.7,124.6"/>
				<path class="st13" d="M113.3,86.6H80.9c-1.2,0-2.2-1-2.2-2.2v0c0-1.2,1-2.2,2.2-2.2h32.4c1.2,0,2.2,1,2.2,2.2v0
					C115.5,85.6,114.5,86.6,113.3,86.6"/>
				<path class="st13" d="M113.3,96.5H80.9c-1.2,0-2.2-1-2.2-2.2v0c0-1.2,1-2.2,2.2-2.2h32.4c1.2,0,2.2,1,2.2,2.2v0
					C115.5,95.5,114.5,96.5,113.3,96.5"/>
				<path class="st13" d="M113.3,106.4H80.9c-1.2,0-2.2-1-2.2-2.2v0c0-1.2,1-2.2,2.2-2.2h32.4c1.2,0,2.2,1,2.2,2.2v0
					C115.5,105.5,114.5,106.4,113.3,106.4"/>
				<path class="st13" d="M151.4,113.2h-27.7c-1.6,0-2.9-1.3-2.9-2.9V80.5c0-1.6,1.3-2.9,2.9-2.9h27.7c1.6,0,2.9,1.3,2.9,2.9v29.8
					C154.3,111.9,153,113.2,151.4,113.2"/>
				<path class="st12" d="M127.7,112.4V109c0-0.9,0.3-1.8,0.8-2.6c0.8-1.1,2.2-1.8,3.6-1.8c1.6,0,2.4,0.8,5.5,0.8
					c3.1,0,3.9-0.8,5.5-0.8c1.4,0,2.8,0.6,3.6,1.8c0.5,0.8,0.8,1.7,0.8,2.6v3.4h3.3V109c0-1.6-0.5-3.1-1.3-4.4
					c-1.4-2.1-3.8-3.3-6.3-3.2c-2.3,0-2.9,0.8-5.5,0.8c-2.6,0-3.2-0.8-5.5-0.8c-2.5,0-4.9,1.2-6.3,3.2c-0.9,1.3-1.3,2.8-1.3,4.4v3.4
					H127.7z"/>
				<path class="st12" d="M137.5,99.8c4.5,0,8.2-3.7,8.2-8.2c0-4.5-3.7-8.2-8.2-8.2h0c-4.5,0-8.2,3.7-8.2,8.2
					C129.3,96.1,133,99.8,137.5,99.8 M137.5,86.6c2.7,0,4.9,2.2,4.9,4.9c0,2.7-2.2,4.9-4.9,4.9c-2.7,0-4.9-2.2-4.9-4.9
					C132.6,88.8,134.8,86.6,137.5,86.6"/>
				<path class="st8" d="M94.6,91.7c0.7,4.4,6.5,55,6.8,64.7c0.3,9.7-4,20.1-6.4,26.6c-2.4,6.5,0.2,106.5,0.6,110.5
					c0.4,4-37.1-9.1-37.1-9.1l-0.7-80.7l-6.6-53.1l25.2-17.3c0,0,1-21.1,1.2-29.2c0.1-8.1,2.7-17.6,9-18.4
					C94.2,84.7,94.6,91.7,94.6,91.7"/>
				<g class="st14">
					<g>
						<defs>
							<rect id="SVGID_13_" x="81" y="88" width="6.4" height="12.2"/>
						</defs>
						<clipPath id="SVGID_14_">
							<use xlink:href="#SVGID_13_"  style="overflow:visible;"/>
						</clipPath>
						<path class="st15" d="M87.1,100.1L87.4,88c-7.8-0.2-6.1,8-6.4,11.5L87.1,100.1z"/>
					</g>
				</g>
				<path class="st16" d="M92.1,100.7c-0.1-2.6,2.9-12.5-4.7-12.7c-7.8-0.2-6.2,8-6.4,11.5"/>
				<path class="st8" d="M94.6,102.4c-0.2,2.2-3.6,3.8-7.7,3.5c-4.1-0.3-7.3-2.3-7.2-4.5c0.2-2.2,3.6-3.8,7.7-3.5
					C91.6,98.1,94.8,100.2,94.6,102.4"/>
				<g class="st17">
					<g>
						<defs>
							<rect id="SVGID_15_" x="28.6" y="119.2" width="72.4" height="84.4"/>
						</defs>
						<clipPath id="SVGID_16_">
							<use xlink:href="#SVGID_15_"  style="overflow:visible;"/>
						</clipPath>
						<g class="st18">
							<defs>
								<path id="SVGID_17_" d="M98.4,134.4c2.1,2.9-14.4,26.4-16.1,29.8c-0.4,0.7-15.2,7.5-16.3,7.6c-5.6,0.6-11.9-7.7-13.8-9.8
									c-2.3-2.4-7.3-8.3-10.2-13c-5.9-9.6-8.1-9.6-2.8-22c1.1-2.5-1.2-8.5-1.5-7.7c-0.5,1.1-8,14.8-8.9,17.8
									c-0.8,3.1,2.4,7.9,2.1,8l1.2,2c6.3,9.9,21.8,44.3,21.8,44.3l4.6,12.1l35.2-10.5c-1.3-11.3,5.1-14.6,7.3-33.3
									C101.3,157.2,100.2,136.6,98.4,134.4"/>
							</defs>
							<clipPath id="SVGID_18_">
								<use xlink:href="#SVGID_17_"  style="overflow:visible;"/>
							</clipPath>
							
								<linearGradient id="SVGID_19_" gradientUnits="userSpaceOnUse" x1="25.974" y1="176.2501" x2="26.9358" y2="176.2501" gradientTransform="matrix(-82.4368 -138.8803 -138.8803 82.4368 26712.4492 -10712.3535)">
								<stop  offset="0" style="stop-color:#D7B8A4"/>
								<stop  offset="0.2743" style="stop-color:#D7B8A4"/>
								<stop  offset="0.4435" style="stop-color:#DDC1B0"/>
								<stop  offset="0.739" style="stop-color:#EDDBCF"/>
								<stop  offset="1" style="stop-color:#FEF7F1"/>
							</linearGradient>
							<polygon class="st19" points="47,235.8 -9.5,140.7 82.2,86.3 138.6,181.5 							"/>
						</g>
					</g>
				</g>
			</g>
			<g class="st3">
				<defs>
					<rect id="SVGID_20_" x="3.9" y="4.3" width="192.4" height="192.4"/>
				</defs>
				<clipPath id="SVGID_21_">
					<use xlink:href="#SVGID_20_"  style="overflow:visible;"/>
				</clipPath>
				<g class="st20">
					<defs>
						<path id="SVGID_22_" d="M196.3-179c0,53.1-43.1,96.2-96.2,96.2S3.9-125.9,3.9-179c0-53.1,43.1-96.2,96.2-96.2
							S196.3-232.1,196.3-179"/>
					</defs>
					<clipPath id="SVGID_23_">
						<use xlink:href="#SVGID_22_"  style="overflow:visible;"/>
					</clipPath>
					<path class="st21" d="M45.1-126.4c10.5,0.4,16.5,5,20.7,14.3C70-102.8,66.7-10.2,63,46.2l-23.7,2C29,26.5,26.5-73.8,26.6-95.7
						C26.8-119.3,35.5-126.7,45.1-126.4"/>
					<path class="st22" d="M123.1-132.3l-9.5,203.5c0,0-79.1,1.3-76.9-16.6C39,36.7,65.3-126,65.3-126L123.1-132.3z"/>
					<path class="st23" d="M151.4-16.9c-4.7,14.1,4.2,61.5,7.3,77.6c0.7,3.4,1.2,5.4,1.2,5.4c-11,17.8-51.1,17.6-51.1,17.6
						C101.1,49.5,97.1-4.8,97.1-4.8l30.8-135l37,22.1c0,0-1.1,35.6-4.8,57.8C157.2-42.3,153.9-24.4,151.4-16.9"/>
					<path class="st23" d="M38.5-125c0,0-3.6,3.2-3.6,3.2C33-120,30.4-6,30,5.8c-0.4,11.8-5.8,43.3-4,52.2
						c3.3,16,18.1,21.4,18.1,20.2c0-0.4,5.4-58.3,8.4-88.5c6.3-64.8,22.1-129.1,22.1-129.1C57.4-137.6,38.5-125,38.5-125"/>
					<path class="st24" d="M63.1,13.1c0.4,4.8,2.6,9.2,6.1,12.4l5.5,5.1c1.4,1.3,3.6,1.1,4.7-0.4l6.8-8.7c1.8-2.3,2.7-5.3,2.4-8.2
						C88.1,6.8,86.9-5.9,86-18.1c-0.8-9.9-1.4-19.5-1.4-25.4c-0.2-18.7,3.6-78.2,3.6-78.2l-4.5,0.2c0,0-6.3,23.9-12.2,55.3
						C70-58.4,61.2-8.4,63.1,13.1"/>
					<path class="st21" d="M158.7,60.7c-11.3-11.8-31-35-30.3-54.1c0.9-26.7,17.8-112.2,17.8-112.2c-2.9,17.6,7.7,81.2,5.2,88.7
						C146.7-2.8,155.6,44.6,158.7,60.7"/>
					<path class="st23" d="M143.5-92.9c0,0-5.6-28,16.1-26.1c21.6,1.9,21.3,37.4,23.7,63.2c1.6,17.4,2.7,27-0.1,44.1
						c-0.4,2.6-1.8,7.8-5.2,14C161.8,31.3,145.7,62,145.7,62L123.4,53l24.9-63.6L143.5-92.9z"/>
				</g>
			</g>
		</g>
	</g>
</g>
<g>
	<g>
		<defs>
			<rect id="SVGID_24_" x="3.9" y="4.3" width="192.4" height="192.4"/>
		</defs>
		<clipPath id="SVGID_25_">
			<use xlink:href="#SVGID_24_"  style="overflow:visible;"/>
		</clipPath>
		<g class="st25">
			<defs>
				<rect id="SVGID_26_" x="3.9" y="4.3" width="192.4" height="192.4"/>
			</defs>
			<clipPath id="SVGID_27_">
				<use xlink:href="#SVGID_26_"  style="overflow:visible;"/>
			</clipPath>
			<g class="st26">
				<defs>
					<rect id="SVGID_28_" x="3.9" y="4.3" width="192.4" height="192.4"/>
				</defs>
				<clipPath id="SVGID_29_">
					<use xlink:href="#SVGID_28_"  style="overflow:visible;"/>
				</clipPath>
				<g class="st27">
					<g>
						<defs>
							<rect id="SVGID_30_" x="3.9" y="4.3" width="192.4" height="192.4"/>
						</defs>
						<clipPath id="SVGID_31_">
							<use xlink:href="#SVGID_30_"  style="overflow:visible;"/>
						</clipPath>
						<path class="st28" d="M196.3,100.4c0,53.1-43.1,96.2-96.2,96.2S3.9,153.6,3.9,100.4S47,4.3,100.1,4.3S196.3,47.3,196.3,100.4"
							/>
					</g>
				</g>
			</g>
			<polygon class="st29" points="30.8,100.7 28.1,96.7 79.5,60.7 96.6,79.7 132.6,50.7 135.7,54.4 96.1,86.3 78.8,67.1 			"/>
			<rect x="83.1" y="66.1" class="st30" width="13.1" height="70.4"/>
			<rect x="65.3" y="81.1" class="st30" width="13.1" height="55.5"/>
			<rect x="101" y="84.2" class="st30" width="13.1" height="52.3"/>
			<rect x="47.4" y="93.8" class="st30" width="13.1" height="42.8"/>
			<g class="st26">
				<defs>
					<rect id="SVGID_32_" x="3.9" y="4.3" width="192.4" height="192.4"/>
				</defs>
				<clipPath id="SVGID_33_">
					<use xlink:href="#SVGID_32_"  style="overflow:visible;"/>
				</clipPath>
				<path class="st31" d="M147.3,85.2l-2.5,8.1l-0.2,0.6l-1.2,3.8l0,0l-3.9,0l-15.1-0.1l-1.2-3.1l-0.2-0.5l-3-8.3
					C129.1,88.7,136.5,81.7,147.3,85.2"/>
				<path class="st31" d="M140.8,84.2c2,0,4.2,0.3,6.5,1l-2.5,8.1l-0.2,0.6l-1.2,3.8l0,0l-3.9,0l-15.1-0.1l-1.2-3.1l-0.2-0.5l-3-8.3
					c1.7,0.6,3.3,0.8,4.9,0.8C130.2,86.4,135.1,84.2,140.8,84.2 M112.1,78l3.4,9.4l3,8.3l0.2,0.5l1.1,3.1l1.2,3.1l3.3,0l15.1,0.1
					l3.9,0l3.6,0l1.1-3.4l1.2-3.8l0.2-0.6l2.5-8.1l1.4-4.5l-4.5-1.5c-2.6-0.9-5.2-1.3-8-1.3c-3.5,0-6.6,0.7-9.4,1.3
					c-2.3,0.5-4.5,1-6.5,1c-1.2,0-2.3-0.2-3.4-0.5L112.1,78z"/>
				<path class="st31" d="M144.6,93.9l-1.2,3.8l-3.9,0l-15.1-0.1l-1.2-3.1C128.5,94.3,137.4,94,144.6,93.9"/>
				<path class="st31" d="M144.6,93.9l-1.2,3.8l-3.9,0l-15.1-0.1l-1.2-3.1C128.5,94.3,137.4,94,144.6,93.9 M151.2,89l-6.6,0.1
					c-8.4,0.1-18.5,0.4-21.4,0.5l-6.7,0.2l2.3,6.3l1.2,3.1l1.2,3.1l3.3,0l15.1,0.1l4,0l3.6,0l1-3.4l1.2-3.8L151.2,89z M144.6,98.8
					L144.6,98.8L144.6,98.8z"/>
				<path class="st31" d="M162.2,139.3c-0.7,2.5-2.2,4.6-4.2,6.1c-2,1.5-4.4,2.4-7,2.4l-34.2,0.5c-4.9,0.1-9.3-3.2-10.7-7.9
					c-0.8-2.7-1.3-5.5-1.4-8.3c0-0.3,0-0.5,0-0.8c0-0.3,0-0.6,0-1c0.1-10.1,4.9-19.5,12.7-25.9l8.1-6.6l18.7,0.1l10.4,9.7
					c1.5,1.4,2.8,2.9,3.8,4.6c1.3,2,2.3,4.2,3.1,6.4C164,125.2,164.2,132.4,162.2,139.3"/>
				<path class="st31" d="M125.5,97.8l18.7,0.1l10.4,9.7c1.5,1.4,2.8,2.9,3.8,4.6c1.3,2,2.3,4.2,3.1,6.4c2.3,6.6,2.6,13.8,0.6,20.6
					c-0.7,2.5-2.2,4.6-4.2,6.1c-2,1.5-4.4,2.4-7,2.4l-34.2,0.5c-0.1,0-0.1,0-0.2,0c-4.9,0-9.2-3.2-10.5-7.9
					c-0.8-2.7-1.3-5.5-1.4-8.3c0-0.3,0-0.5,0-0.8c0-0.3,0-0.6,0-0.9c0.1-10.1,4.9-19.5,12.7-25.9L125.5,97.8z M123.8,93l-1.3,1.1
					l-8.1,6.6c-9.1,7.4-14.3,18.2-14.5,29.6c0,0.4,0,0.7,0,1.1c0,0.3,0,0.6,0,0.9c0.1,3.2,0.6,6.4,1.6,9.5c2,6.7,8.2,11.4,15.2,11.4
					l0.3,0l34.2-0.5c3.6-0.1,7-1.2,9.8-3.4c2.9-2.2,4.9-5.1,5.9-8.6c2.3-7.8,2.1-16-0.7-23.6c-0.9-2.6-2.1-5-3.6-7.3
					c-1.2-2-2.8-3.8-4.7-5.6l-10.4-9.7l-1.4-1.3l-1.9,0L125.6,93L123.8,93z"/>
				<path class="st31" d="M131.8,139l-0.1-3.6c-2.6-0.1-5-0.7-6.5-1.5l1.1-4.5c1.6,0.8,3.9,1.6,6.3,1.6c2.2,0,3.6-0.9,3.6-2.4
					c0-1.4-1.3-2.3-4.1-3.2c-4.1-1.3-6.9-3.2-7-6.9c-0.1-3.3,2.3-6,6.3-6.9l-0.1-3.6l3.7-0.1l0.1,3.3c2.6,0.1,4.3,0.6,5.5,1.2
					l-1,4.3c-1-0.4-2.8-1.3-5.5-1.2c-2.5,0-3.3,1.1-3.2,2.2c0,1.3,1.4,2,4.6,3.2c4.6,1.5,6.4,3.6,6.5,7c0.1,3.4-2.3,6.3-6.7,7.1
					l0.1,3.9L131.8,139z"/>
				<path class="st31" d="M135.2,107.9l0.1,3.3c2.6,0.1,4.3,0.6,5.5,1.2l-1,4.3c-1-0.4-2.7-1.2-5.3-1.2c-0.1,0-0.1,0-0.2,0
					c-2.5,0-3.3,1.1-3.2,2.2c0,1.3,1.4,2,4.6,3.2c4.6,1.5,6.4,3.6,6.5,7c0.1,3.4-2.3,6.3-6.7,7.1l0.1,3.9l-3.7,0.1l-0.1-3.6
					c-2.6-0.1-5-0.7-6.5-1.5l1.1-4.5c1.6,0.8,3.8,1.6,6.2,1.6c0.1,0,0.1,0,0.2,0c2.2,0,3.6-0.9,3.6-2.4c0-1.4-1.3-2.3-4.1-3.2
					c-4.1-1.3-6.9-3.2-7-6.9c-0.1-3.4,2.3-6,6.3-6.9l-0.1-3.6L135.2,107.9z M139.9,103l-4.8,0.1l-3.7,0.1l-4.8,0.1l0.1,4.8l0,0.2
					c-4,2.1-6.3,5.8-6.3,10.3c0,2.4,0.7,4.4,2.1,6.2l-0.9,3.5l-1.1,4.5l-0.9,3.6l3.2,1.8c1.1,0.6,2.6,1.2,4.1,1.5l0.1,4.3l4.8-0.1
					l3.7-0.1l4.8-0.1l-0.1-4.8l0-0.4c4.1-2.1,6.7-6,6.6-10.6c-0.1-3.5-1.4-5.9-3-7.7l0.6-2.3l1-4.3l0.9-3.8l-3.6-1.7
					c-0.9-0.4-1.8-0.7-2.8-1L139.9,103z"/>
				<path class="st31" d="M147,101l-25.7,0.4c-1.3,0-2.4-1-2.4-2.3l0-0.1c0-1.3,1-2.4,2.3-2.4l25.7-0.4c1.3,0,2.4,1,2.4,2.3l0,0.1
					C149.4,99.9,148.3,100.9,147,101"/>
				<path class="st31" d="M147,96.1c1.3,0,2.3,1,2.4,2.3l0,0.1c0,1.3-1,2.4-2.3,2.4l-25.7,0.4c0,0,0,0,0,0c-1.3,0-2.3-1-2.4-2.3
					l0-0.1c0-1.3,1-2.4,2.3-2.4L147,96.1C147,96.1,147,96.1,147,96.1 M147,91.3L147,91.3l-0.1,0l-25.7,0.4c-4,0.1-7.1,3.3-7.1,7.3
					l0,0.1c0.1,3.9,3.3,7.1,7.2,7.1h0l0.1,0l25.7-0.4c1.9,0,3.7-0.8,5-2.2c1.3-1.4,2.1-3.2,2-5.1l0-0.1
					C154.1,94.5,150.9,91.3,147,91.3"/>
				<path class="st32" d="M147.3,85.2l-2.5,8.1l-0.2,0.6l-1.2,3.8l0,0l-3.9,0l-15.1-0.1l-1.2-3.1l-0.2-0.5l-3-8.3
					C129.1,88.7,136.5,81.7,147.3,85.2"/>
				<path class="st33" d="M144.6,93.9l-1.2,3.8l-3.9,0l-15.1-0.1l-1.2-3.1C128.5,94.3,137.4,94,144.6,93.9"/>
				<path class="st32" d="M162.2,139.3c-0.7,2.5-2.2,4.6-4.2,6.1c-2,1.5-4.4,2.4-7,2.4l-34.2,0.5c-4.9,0.1-9.3-3.2-10.7-7.9
					c-0.8-2.7-1.3-5.5-1.4-8.3c0-0.3,0-0.5,0-0.8c0-0.3,0-0.6,0-1c0.1-10.1,4.9-19.5,12.7-25.9l8.1-6.6l18.7,0.1l10.4,9.7
					c1.5,1.4,2.8,2.9,3.8,4.6c1.3,2,2.3,4.2,3.1,6.4C164,125.2,164.2,132.4,162.2,139.3"/>
				<path class="st34" d="M131.8,139l-0.1-3.6c-2.6-0.1-5-0.7-6.5-1.5l1.1-4.5c1.6,0.8,3.9,1.6,6.3,1.6c2.2,0,3.6-0.9,3.6-2.4
					c0-1.4-1.3-2.3-4.1-3.2c-4.1-1.3-6.9-3.2-7-6.9c-0.1-3.3,2.3-6,6.3-6.9l-0.1-3.6l3.7-0.1l0.1,3.3c2.6,0.1,4.3,0.6,5.5,1.2
					l-1,4.3c-1-0.4-2.8-1.3-5.5-1.2c-2.5,0-3.3,1.1-3.2,2.2c0,1.3,1.4,2,4.6,3.2c4.6,1.5,6.4,3.6,6.5,7c0.1,3.4-2.3,6.3-6.7,7.1
					l0.1,3.9L131.8,139z"/>
				<g class="st35">
					<g>
						<defs>
							<rect id="SVGID_34_" x="118.9" y="96.1" width="30.4" height="5.2"/>
						</defs>
						<clipPath id="SVGID_35_">
							<use xlink:href="#SVGID_34_"  style="overflow:visible;"/>
						</clipPath>
						<path class="st36" d="M147,101l-25.7,0.4c-1.3,0-2.4-1-2.4-2.3l0-0.1c0-1.3,1-2.4,2.3-2.4l25.7-0.4c1.3,0,2.4,1,2.4,2.3l0,0.1
							C149.4,99.9,148.3,100.9,147,101"/>
					</g>
				</g>
				<path class="st33" d="M162.2,139.3c-0.7,2.5-2.2,4.6-4.2,6.1c-2,1.5-4.4,2.4-7,2.4l-34.2,0.5c-4.9,0.1-9.3-3.2-10.7-7.9
					c-0.8-2.7-1.3-5.5-1.4-8.3c5.7,5.3,12.5,12.2,28.1,12.2c19.3,0,27.5-9.2,28.8-25.7C164,125.2,164.2,132.4,162.2,139.3"/>
				<g class="st37">
					<g>
						<defs>
							<rect id="SVGID_36_" x="112.2" y="103.7" width="13" height="13"/>
						</defs>
						<clipPath id="SVGID_37_">
							<use xlink:href="#SVGID_36_"  style="overflow:visible;"/>
						</clipPath>
						<path class="st38" d="M124.9,104c1.2,1.2-2.1,3.4-5.6,6.8c-3.4,3.4-5.6,6.8-6.8,5.6c-1.2-1.2,0.6-4.9,4-8.3
							C120,104.7,123.7,102.8,124.9,104"/>
					</g>
				</g>
				<polygon class="st39" points="128.8,47.3 140.9,46.7 138,58.4 				"/>
			</g>
			<g class="st26">
				<defs>
					<rect id="SVGID_38_" x="3.9" y="4.3" width="192.4" height="192.4"/>
				</defs>
				<clipPath id="SVGID_39_">
					<use xlink:href="#SVGID_38_"  style="overflow:visible;"/>
				</clipPath>
				<g class="st40">
					<defs>
						<path id="SVGID_40_" d="M196.3-179c0,53.1-43.1,96.2-96.2,96.2S3.9-125.9,3.9-179c0-53.1,43.1-96.2,96.2-96.2
							S196.3-232.1,196.3-179"/>
					</defs>
					<clipPath id="SVGID_41_">
						<use xlink:href="#SVGID_40_"  style="overflow:visible;"/>
					</clipPath>
					<path class="st41" d="M157.1-126.3c-10.5,0.1-16.6,4.7-21,13.9c-4.4,9.2-3,101.8-0.6,158.3l23.6,2.5
						c10.8-21.5,15.4-121.7,15.8-143.7C175.3-118.8,166.7-126.4,157.1-126.3"/>
					<path class="st42" d="M79.2-133.8l5.1,203.6c0,0,79.1,3,77.2-15c-1.9-18-24.7-181.2-24.7-181.2L79.2-133.8z"/>
					<path class="st41" d="M48.5-19.1c4.4,14.2-5.5,61.4-9,77.4c-0.8,3.4-1.3,5.4-1.3,5.4c10.6,18.1,50.7,18.7,50.7,18.7
						c8.4-34,13.6-88.2,13.6-88.2L74.6-141.5l-37.4,21.3c0,0,0.4,35.6,3.5,57.9C43.2-44.7,46.1-26.7,48.5-19.1"/>
					<path class="st41" d="M127.7-140c0,0,14.5,64.7,19.4,129.6c2.3,30.3,6.5,88.3,6.5,88.7c0,1.2,14.9-3.8,18.6-19.8
						c2-8.8-2.8-40.4-2.9-52.3c-0.1-11.8-0.3-125.8-2.1-127.7c0-0.1-3.5-3.3-3.5-3.3S145-137.8,127.7-140"/>
					<path class="st43" d="M136.1,12.8c-0.5,4.7-2.8,9.1-6.4,12.3l-5.6,5c-1.4,1.2-3.6,1-4.7-0.5l-6.6-8.8c-1.8-2.4-2.6-5.3-2.2-8.3
						c0.8-6.6,2.2-19.2,3.5-31.4c1-9.9,1.8-19.5,2-25.3c0.5-18.7-1.9-78.3-1.9-78.3l4.5,0.3c0,0,5.8,24,11,55.6
						C130.7-58.9,138.4-8.7,136.1,12.8"/>
					<path class="st44" d="M39.5,58.3C51.1,46.7,71.2,23.9,70.9,4.8c-0.4-26.7-15.4-112.5-15.4-112.5c2.5,17.7-9.5,81-7.1,88.6
						C52.9-4.9,43,42.3,39.5,58.3"/>
					<path class="st41" d="M60.6-94.8c0,0,3.6-28-18.1-26.5c-21.7,1.5-25.3,36.9-28.3,62.6c-2,17.3-3.3,26.9-0.9,44.1
						c0.4,2.7,2.3,7.9,5.6,14.1c15.5,29.2,33.5,60.4,33.5,60.4l22.5-8.6L51.4-12.8L60.6-94.8z"/>
				</g>
			</g>
		</g>
	</g>
</g>
<g class="st0">
	<g class="st1">
		<defs>
			<rect id="SVGID_42_" x="3.9" y="4.3" width="192.4" height="192.4"/>
		</defs>
		<clipPath id="SVGID_43_">
			<use xlink:href="#SVGID_42_"  style="overflow:visible;"/>
		</clipPath>
		<g class="st45">
			<defs>
				<rect id="SVGID_44_" x="3.9" y="4.3" width="192.4" height="192.4"/>
			</defs>
			<clipPath id="SVGID_45_">
				<use xlink:href="#SVGID_44_"  style="overflow:visible;"/>
			</clipPath>
			<g class="st46">
				<g>
					<defs>
						<rect id="SVGID_46_" x="3.9" y="4.3" width="192.4" height="192.4"/>
					</defs>
					<clipPath id="SVGID_47_">
						<use xlink:href="#SVGID_46_"  style="overflow:visible;"/>
					</clipPath>
					<path class="st47" d="M196.3,100.4c0,53.1-43.1,96.2-96.2,96.2S3.9,153.6,3.9,100.4S47,4.3,100.1,4.3S196.3,47.3,196.3,100.4"
						/>
				</g>
			</g>
			<path class="st48" d="M122.8,149.7H58.3c-3.1,0-5.5-2.5-5.5-5.5V58.6c0-3.1,2.5-5.5,5.5-5.5h64.5c3.1,0,5.5,2.5,5.5,5.5v85.6
				C128.4,147.2,125.9,149.7,122.8,149.7"/>
			<path class="st49" d="M122.8,145.8H58.3c-3.1,0-5.5-2.5-5.5-5.5V54.7c0-3.1,2.5-5.5,5.5-5.5h64.5c3.1,0,5.5,2.5,5.5,5.5v85.6
				C128.4,143.3,125.9,145.8,122.8,145.8"/>
			<g class="st46">
				<g>
					<defs>
						<rect id="SVGID_48_" x="82.1" y="55.5" width="16.9" height="2.8"/>
					</defs>
					<clipPath id="SVGID_49_">
						<use xlink:href="#SVGID_48_"  style="overflow:visible;"/>
					</clipPath>
					<path class="st50" d="M97.6,58.3H83.5c-0.8,0-1.4-0.6-1.4-1.4v0c0-0.8,0.6-1.4,1.4-1.4h14.1c0.8,0,1.4,0.6,1.4,1.4v0
						C99,57.7,98.4,58.3,97.6,58.3"/>
				</g>
			</g>
			<path class="st51" d="M115.1,78.4H66.4c-3.1,0-5.7-2.5-5.7-5.7v0c0-3.1,2.5-5.7,5.7-5.7h48.7c3.1,0,5.7,2.5,5.7,5.7v0
				C120.8,75.9,118.3,78.4,115.1,78.4"/>
			<path class="st52" d="M117.3,94.7H114c-1.9,0-3.5-1.6-3.5-3.5v0c0-1.9,1.6-3.5,3.5-3.5h3.3c1.9,0,3.5,1.6,3.5,3.5v0
				C120.8,93.1,119.2,94.7,117.3,94.7"/>
			<path class="st52" d="M100.7,94.7h-3.3c-1.9,0-3.5-1.6-3.5-3.5v0c0-1.9,1.6-3.5,3.5-3.5h3.3c1.9,0,3.5,1.6,3.5,3.5v0
				C104.3,93.1,102.7,94.7,100.7,94.7"/>
			<path class="st52" d="M84.2,94.7h-3.3c-1.9,0-3.5-1.6-3.5-3.5v0c0-1.9,1.6-3.5,3.5-3.5h3.3c1.9,0,3.5,1.6,3.5,3.5v0
				C87.7,93.1,86.1,94.7,84.2,94.7"/>
			<path class="st52" d="M67.6,94.7h-3.3c-1.9,0-3.5-1.6-3.5-3.5v0c0-1.9,1.6-3.5,3.5-3.5h3.3c1.9,0,3.5,1.6,3.5,3.5v0
				C71.1,93.1,69.5,94.7,67.6,94.7"/>
			<path class="st52" d="M117.3,107.4H114c-1.9,0-3.5-1.6-3.5-3.5v0c0-1.9,1.6-3.5,3.5-3.5h3.3c1.9,0,3.5,1.6,3.5,3.5v0
				C120.8,105.9,119.2,107.4,117.3,107.4"/>
			<path class="st52" d="M100.7,107.4h-3.3c-1.9,0-3.5-1.6-3.5-3.5v0c0-1.9,1.6-3.5,3.5-3.5h3.3c1.9,0,3.5,1.6,3.5,3.5v0
				C104.3,105.9,102.7,107.4,100.7,107.4"/>
			<path class="st52" d="M84.2,107.4h-3.3c-1.9,0-3.5-1.6-3.5-3.5v0c0-1.9,1.6-3.5,3.5-3.5h3.3c1.9,0,3.5,1.6,3.5,3.5v0
				C87.7,105.9,86.1,107.4,84.2,107.4"/>
			<path class="st52" d="M67.6,107.4h-3.3c-1.9,0-3.5-1.6-3.5-3.5v0c0-1.9,1.6-3.5,3.5-3.5h3.3c1.9,0,3.5,1.6,3.5,3.5v0
				C71.1,105.9,69.5,107.4,67.6,107.4"/>
			<path class="st52" d="M117.3,120.2H114c-1.9,0-3.5-1.6-3.5-3.5v0c0-1.9,1.6-3.5,3.5-3.5h3.3c1.9,0,3.5,1.6,3.5,3.5v0
				C120.8,118.7,119.2,120.2,117.3,120.2"/>
			<path class="st52" d="M100.7,120.2h-3.3c-1.9,0-3.5-1.6-3.5-3.5v0c0-1.9,1.6-3.5,3.5-3.5h3.3c1.9,0,3.5,1.6,3.5,3.5v0
				C104.3,118.7,102.7,120.2,100.7,120.2"/>
			<path class="st52" d="M84.2,120.2h-3.3c-1.9,0-3.5-1.6-3.5-3.5v0c0-1.9,1.6-3.5,3.5-3.5h3.3c1.9,0,3.5,1.6,3.5,3.5v0
				C87.7,118.7,86.1,120.2,84.2,120.2"/>
			<path class="st52" d="M67.6,120.2h-3.3c-1.9,0-3.5-1.6-3.5-3.5v0c0-1.9,1.6-3.5,3.5-3.5h3.3c1.9,0,3.5,1.6,3.5,3.5v0
				C71.1,118.7,69.5,120.2,67.6,120.2"/>
			<path class="st52" d="M117.3,133.5H114c-1.9,0-3.5-1.6-3.5-3.5v0c0-1.9,1.6-3.5,3.5-3.5h3.3c1.9,0,3.5,1.6,3.5,3.5v0
				C120.8,131.9,119.2,133.5,117.3,133.5"/>
			<path class="st52" d="M100.7,133.5h-3.3c-1.9,0-3.5-1.6-3.5-3.5v0c0-1.9,1.6-3.5,3.5-3.5h3.3c1.9,0,3.5,1.6,3.5,3.5v0
				C104.3,131.9,102.7,133.5,100.7,133.5"/>
			<path class="st52" d="M84.2,133.5h-3.3c-1.9,0-3.5-1.6-3.5-3.5v0c0-1.9,1.6-3.5,3.5-3.5h3.3c1.9,0,3.5,1.6,3.5,3.5v0
				C87.7,131.9,86.1,133.5,84.2,133.5"/>
			<path class="st52" d="M67.6,133.5h-3.3c-1.9,0-3.5-1.6-3.5-3.5v0c0-1.9,1.6-3.5,3.5-3.5h3.3c1.9,0,3.5,1.6,3.5,3.5v0
				C71.1,131.9,69.5,133.5,67.6,133.5"/>
			<path class="st52" d="M109.8,122.7c0-15.3,12.4-27.7,27.7-27.7c15.3,0,27.7,12.4,27.7,27.7c0,15.3-12.4,27.7-27.7,27.7
				S109.8,138,109.8,122.7"/>
			<path class="st52" d="M137.5,95c15.3,0,27.7,12.4,27.7,27.7c0,15.3-12.4,27.7-27.7,27.7c-15.3,0-27.7-12.4-27.7-27.7
				C109.8,107.4,122.2,95,137.5,95 M137.5,90.1L137.5,90.1c-8.7,0-16.9,3.4-23,9.5c-6.2,6.2-9.5,14.3-9.5,23
				c0,18,14.6,32.6,32.6,32.6c8.7,0,16.9-3.4,23-9.5c6.2-6.2,9.5-14.3,9.5-23C170.1,104.7,155.5,90.1,137.5,90.1"/>
			<path class="st52" d="M107.4,122.7c0-15.3,12.4-27.7,27.7-27.7c15.3,0,27.7,12.4,27.7,27.7c0,15.3-12.4,27.7-27.7,27.7
				S107.4,138,107.4,122.7"/>
			<path class="st52" d="M135.1,95c15.3,0,27.7,12.4,27.7,27.7c0,15.3-12.4,27.7-27.7,27.7c-15.3,0-27.7-12.4-27.7-27.7
				C107.4,107.4,119.8,95,135.1,95 M135.1,90.1L135.1,90.1c-8.7,0-16.9,3.4-23,9.5c-6.2,6.2-9.5,14.3-9.5,23
				c0,18,14.6,32.6,32.6,32.6c8.7,0,16.9-3.4,23-9.5c6.2-6.2,9.5-14.3,9.5-23C167.7,104.7,153.1,90.1,135.1,90.1"/>
			<path class="st52" d="M135.1,148.3c-6.8,0-13.1-2.6-17.9-7.4c-4.8-4.8-7.4-11.1-7.4-17.9c0-6.8,2.6-13.1,7.4-17.9
				c4.8-4.8,11.1-7.4,17.9-7.4c6.8,0,13.1,2.6,17.9,7.4c4.8,4.8,7.4,11.1,7.4,17.9s-2.6,13.1-7.4,17.9
				C148.2,145.7,141.9,148.3,135.1,148.3 M135.1,99.3c-13.1,0-23.8,10.7-23.8,23.8c0,13.1,10.7,23.8,23.8,23.8
				c13.1,0,23.8-10.7,23.8-23.8C158.9,109.9,148.2,99.3,135.1,99.3"/>
			<path class="st52" d="M135.1,97.7c6.8,0,13.1,2.6,17.9,7.4c4.8,4.8,7.4,11.1,7.4,17.9s-2.6,13.1-7.4,17.9
				c-4.8,4.8-11.1,7.4-17.9,7.4s-13.1-2.6-17.9-7.4c-4.8-4.8-7.4-11.1-7.4-17.9c0-6.8,2.6-13.1,7.4-17.9
				C122,100.4,128.4,97.7,135.1,97.7 M135.1,146.8L135.1,146.8c13.1,0,23.8-10.7,23.8-23.8c0-13.1-10.7-23.8-23.8-23.8
				c-13.1,0-23.8,10.7-23.8,23.8C111.3,136.1,122,146.8,135.1,146.8 M135.1,92.9L135.1,92.9c-8,0-15.6,3.1-21.3,8.8
				c-5.7,5.7-8.8,13.2-8.8,21.3c0,8,3.1,15.6,8.8,21.3c5.7,5.7,13.2,8.8,21.3,8.8s15.6-3.1,21.3-8.8c5.7-5.7,8.8-13.2,8.8-21.3
				c0-8-3.1-15.6-8.8-21.3C150.7,96.1,143.2,92.9,135.1,92.9 M135.1,142c-10.4,0-18.9-8.5-18.9-18.9c0-5.1,2-9.8,5.6-13.4
				c3.6-3.6,8.3-5.6,13.4-5.6v-4.8v4.8c10.4,0,18.9,8.5,18.9,18.9c0,5.1-2,9.8-5.6,13.4C144.9,140,140.2,142,135.1,142"/>
			<path class="st52" d="M134.6,141.1v-4.3c-3-0.1-6-1-7.7-1.9l1.4-5.3c1.9,1,4.6,2,7.5,2c2.6,0,4.4-1,4.4-2.8
				c0-1.7-1.5-2.8-4.8-3.9c-4.9-1.6-8.2-3.9-8.2-8.3c0-4,2.8-7.1,7.7-8.1v-4.3h4.4v4c3,0.1,5.1,0.8,6.6,1.5l-1.3,5.1
				c-1.2-0.5-3.3-1.5-6.5-1.5c-2.9,0-3.9,1.3-3.9,2.5c0,1.5,1.6,2.4,5.4,3.9c5.4,1.9,7.6,4.4,7.6,8.5c0,4-2.9,7.5-8.1,8.4v4.6H134.6
				z"/>
			<path class="st52" d="M139.3,104.1v4c3,0.1,5.1,0.8,6.6,1.5l-1.3,5.1c-1.2-0.5-3.3-1.5-6.5-1.5c-2.9,0-3.9,1.3-3.9,2.5
				c0,1.5,1.6,2.4,5.4,3.9c5.4,1.9,7.6,4.4,7.6,8.5c0,4-2.9,7.5-8.1,8.4v4.6h-4.4v-4.3c-3-0.1-6-1-7.7-1.9l1.4-5.3
				c1.9,1,4.6,2,7.5,2c2.6,0,4.4-1,4.4-2.8c0-1.7-1.5-2.8-4.8-3.9c-4.9-1.6-8.2-3.9-8.2-8.3c0-4,2.8-7.1,7.7-8.1v-4.3H139.3z
				 M144.1,99.2h-4.8h-4.4H130v4.8v0.8c-4.8,2.2-7.7,6.4-7.7,11.6c0,3.1,1,5.4,2.4,7.2l-1.2,4.6l-1.4,5.3l-0.9,3.5l3.2,1.8
				c1.5,0.8,3.3,1.5,5.3,2v0.1l0,4.8h4.8h4.4h4.8v-4.8V140c5-2.2,8.1-6.6,8.1-11.9c0-4.1-1.6-6.9-3.6-8.9l0.8-3.3l1.3-5.1l1-3.8
				l-3.6-1.7c-1.2-0.6-2.5-1-3.9-1.4V99.2z"/>
			<path class="st52" d="M132.6,141.1v-4.3c-3-0.1-6-1-7.7-1.9l1.4-5.3c1.9,1,4.6,2,7.5,2c2.6,0,4.4-1,4.4-2.8
				c0-1.7-1.5-2.8-4.8-3.9c-4.9-1.6-8.2-3.9-8.2-8.3c0-4,2.8-7.1,7.7-8.1v-4.3h4.4v4c3,0.1,5.1,0.8,6.6,1.5l-1.3,5.1
				c-1.2-0.5-3.3-1.5-6.5-1.5c-2.9,0-3.9,1.3-3.9,2.5c0,1.5,1.6,2.4,5.4,3.9c5.4,1.9,7.6,4.4,7.6,8.5c0,4-2.9,7.5-8.1,8.4v4.6H132.6
				z"/>
			<path class="st52" d="M137.2,104.1v4c3,0.1,5.1,0.8,6.6,1.5l-1.3,5.1c-1.2-0.5-3.3-1.5-6.5-1.5c-2.9,0-3.9,1.3-3.9,2.5
				c0,1.5,1.6,2.4,5.4,3.9c5.4,1.9,7.6,4.4,7.6,8.5c0,4-2.9,7.5-8.1,8.4v4.6h-4.4v-4.3c-3-0.1-6-1-7.7-1.9l1.4-5.3
				c1.9,1,4.6,2,7.5,2c2.6,0,4.4-1,4.4-2.8c0-1.7-1.5-2.8-4.8-3.9c-4.9-1.6-8.2-3.9-8.2-8.3c0-4,2.8-7.1,7.7-8.1v-4.3H137.2z
				 M142.1,99.2h-4.8h-4.4H128v4.8v0.8c-4.8,2.2-7.7,6.4-7.7,11.6c0,3.1,1,5.4,2.4,7.2l-1.2,4.6l-1.4,5.3l-0.9,3.5l3.2,1.8
				c1.5,0.8,3.3,1.5,5.3,2v0.1l0,4.8h4.8h4.4h4.8v-4.8V140c5-2.2,8.1-6.6,8.1-11.9c0-4.1-1.6-6.9-3.6-8.9l0.8-3.3l1.3-5.1l1-3.8
				l-3.6-1.7c-1.2-0.6-2.5-1-3.9-1.4V99.2z"/>
			<path class="st53" d="M109.8,122.7c0-15.3,12.4-27.7,27.7-27.7c15.3,0,27.7,12.4,27.7,27.7c0,15.3-12.4,27.7-27.7,27.7
				S109.8,138,109.8,122.7"/>
			<path class="st51" d="M107.4,122.7c0-15.3,12.4-27.7,27.7-27.7c15.3,0,27.7,12.4,27.7,27.7c0,15.3-12.4,27.7-27.7,27.7
				S107.4,138,107.4,122.7"/>
			<path class="st54" d="M135.1,148.3c-6.8,0-13.1-2.6-17.9-7.4c-4.8-4.8-7.4-11.1-7.4-17.9c0-6.8,2.6-13.1,7.4-17.9
				c4.8-4.8,11.1-7.4,17.9-7.4c6.8,0,13.1,2.6,17.9,7.4c4.8,4.8,7.4,11.1,7.4,17.9s-2.6,13.1-7.4,17.9
				C148.2,145.7,141.9,148.3,135.1,148.3 M135.1,99.3c-13.1,0-23.8,10.7-23.8,23.8c0,13.1,10.7,23.8,23.8,23.8
				c13.1,0,23.8-10.7,23.8-23.8C158.9,109.9,148.2,99.3,135.1,99.3"/>
			<path class="st54" d="M134.9,137.8v-3.5c-2.5-0.1-4.9-0.8-6.3-1.6l1.1-4.4c1.6,0.9,3.8,1.6,6.2,1.6c2.1,0,3.6-0.8,3.6-2.3
				c0-1.4-1.2-2.3-3.9-3.2c-4-1.3-6.7-3.2-6.7-6.8c0-3.3,2.3-5.8,6.3-6.6v-3.5h3.6v3.3c2.5,0.1,4.2,0.6,5.4,1.2l-1.1,4.2
				c-1-0.4-2.7-1.3-5.4-1.3c-2.4,0-3.2,1-3.2,2.1c0,1.2,1.3,2,4.5,3.2c4.4,1.6,6.2,3.6,6.2,7c0,3.3-2.3,6.1-6.6,6.9v3.8H134.9z"/>
			<path class="st49" d="M133.2,137.8v-3.5c-2.5-0.1-4.9-0.8-6.3-1.6l1.1-4.4c1.6,0.9,3.8,1.6,6.2,1.6c2.1,0,3.6-0.8,3.6-2.3
				c0-1.4-1.2-2.3-3.9-3.2c-4-1.3-6.7-3.2-6.7-6.8c0-3.3,2.3-5.8,6.3-6.6v-3.5h3.6v3.3c2.5,0.1,4.2,0.6,5.4,1.2l-1.1,4.2
				c-1-0.4-2.7-1.3-5.4-1.3c-2.4,0-3.2,1-3.2,2.1c0,1.2,1.3,2,4.5,3.2c4.4,1.6,6.2,3.6,6.2,7c0,3.3-2.3,6.1-6.6,6.9v3.8H133.2z"/>
			<path class="st49" d="M113.6,120.2c-0.1,0-0.2,0-0.3,0c-0.8-0.2-1.3-0.9-1.1-1.7c2.3-11,12.1-19,23.3-19c0.8,0,1.4,0.6,1.4,1.4
				c0,0.8-0.6,1.4-1.4,1.4c-9.9,0-18.5,7-20.5,16.7C114.9,119.7,114.3,120.2,113.6,120.2"/>
		</g>
		<g class="st45">
			<defs>
				<rect id="SVGID_50_" x="3.9" y="4.3" width="192.4" height="192.4"/>
			</defs>
			<clipPath id="SVGID_51_">
				<use xlink:href="#SVGID_50_"  style="overflow:visible;"/>
			</clipPath>
			<g class="st55">
				<defs>
					<path id="SVGID_52_" d="M196.3-179c0,53.1-43.1,96.2-96.2,96.2S3.9-125.9,3.9-179c0-53.1,43.1-96.2,96.2-96.2
						S196.3-232.1,196.3-179"/>
				</defs>
				<clipPath id="SVGID_53_">
					<use xlink:href="#SVGID_52_"  style="overflow:visible;"/>
				</clipPath>
				<path class="st56" d="M131.3-142l-9.5,203.5c0,0-79.1,1.3-76.9-16.6c2.3-17.9,28.5-180.6,28.5-180.6L131.3-142z"/>
				<path class="st57" d="M159.6-26.7c-4.7,14.1,4.2,61.5,7.3,77.6c0.7,3.4,1.2,5.4,1.2,5.4c-11,17.8-51.1,17.6-51.1,17.6
					c-7.7-34.1-11.7-88.5-11.7-88.5l30.8-135l37,22.1c0,0-1.1,35.6-4.8,57.8C165.4-52.1,162.2-34.2,159.6-26.7"/>
				<path class="st57" d="M49.3-138.3C44.9-134,49.2-138.3,49.3-138.3c-1.9,1.9-54.7,53.2-65,73.3c-10.4,20.4,47.6,61,47.6,61
					s3.7,1.5,6.3,0.9c-2.7,22.5-5.8,43.3-4,52.2c3.3,16,18.1,21.4,18.1,20.2c0-0.4,5.4-58.3,8.4-88.5C67.1-84,83.2-149.1,83.2-149.1
					C67-146.3,53.6-142.6,49.3-138.3 M17.8-56.2c-0.1-0.1-0.1-0.2-0.1-0.3c0-2.9,11.2-9.4,23.3-17.1c0.2-0.2,0.2-0.2,0.2-0.2
					c0,0,0,0,0,0c-0.2,6.2-0.2,12.4,0.2,18.1c0.7,10.6,0.3,19.6-1,32.4C34.7-32.4,18.9-52.9,17.8-56.2"/>
				<path class="st58" d="M71.3,3.4c0.4,4.8,2.6,9.2,6.1,12.4l5.5,5.1c1.4,1.3,3.6,1.1,4.7-0.4l6.8-8.7c1.8-2.3,2.7-5.3,2.4-8.2
					c-0.6-6.6-1.8-19.2-2.8-31.4c-0.8-9.9-1.4-19.5-1.4-25.4c-0.2-18.7,3.6-78.2,3.6-78.2l-4.5,0.2c0,0-6.3,23.9-12.2,55.3
					C78.2-68.2,69.4-18.1,71.3,3.4"/>
				<path class="st59" d="M166.9,50.9c-11.3-11.8-31-35-30.3-54.1c0.9-26.7,17.8-112.2,17.8-112.2c-2.9,17.6,7.7,81.2,5.2,88.7
					C154.9-12.6,163.8,34.8,166.9,50.9"/>
				<path class="st57" d="M149-102.4c0,0-4.4-27.8,17.3-27c21.7,0.8,26.4,36.1,30.1,61.8c2.5,17.3,4.1,26.8,2.2,44
					c-0.3,2.7-2,8-5.2,14.3C178.8,20.3,161.7,52,161.7,52L139,44.1l21.6-64.8L149-102.4z"/>
			</g>
		</g>
	</g>
</g>
<g class="st0">
	<g class="st1">
		<defs>
			<rect id="SVGID_54_" x="3.9" y="4.3" width="192.4" height="192.4"/>
		</defs>
		<clipPath id="SVGID_55_">
			<use xlink:href="#SVGID_54_"  style="overflow:visible;"/>
		</clipPath>
		<g class="st60">
			<defs>
				<rect id="SVGID_56_" x="3.9" y="4.3" width="192.4" height="192.4"/>
			</defs>
			<clipPath id="SVGID_57_">
				<use xlink:href="#SVGID_56_"  style="overflow:visible;"/>
			</clipPath>
			<g class="st61">
				<g>
					<defs>
						<rect id="SVGID_58_" x="3.9" y="4.3" width="192.4" height="192.4"/>
					</defs>
					<clipPath id="SVGID_59_">
						<use xlink:href="#SVGID_58_"  style="overflow:visible;"/>
					</clipPath>
					<path class="st62" d="M196.3,100.4c0,53.1-43.1,96.2-96.2,96.2S3.9,153.6,3.9,100.4S47,4.3,100.1,4.3S196.3,47.3,196.3,100.4"
						/>
				</g>
			</g>
			<path class="st63" d="M52.1,89.5h96v50.4c0,4.4-3.6,8-8,8h-80c-4.4,0-8-3.6-8-8V89.5z"/>
			<g class="st61">
				<g>
					<defs>
						<rect id="SVGID_60_" x="52.1" y="55" width="96" height="32"/>
					</defs>
					<clipPath id="SVGID_61_">
						<use xlink:href="#SVGID_60_"  style="overflow:visible;"/>
					</clipPath>
					<path class="st64" d="M60.1,55h80c4.4,0,8,3.6,8,8v24h-96V63C52.1,58.6,55.7,55,60.1,55"/>
				</g>
			</g>
			<g class="st61">
				<g>
					<defs>
						<rect id="SVGID_62_" x="94.5" y="57.4" width="12" height="12"/>
					</defs>
					<clipPath id="SVGID_63_">
						<use xlink:href="#SVGID_62_"  style="overflow:visible;"/>
					</clipPath>
					<path class="st65" d="M100.5,57.4c3.3,0,6,2.7,6,6c0,3.3-2.7,6-6,6s-6-2.7-6-6C94.5,60.1,97.2,57.4,100.5,57.4"/>
				</g>
			</g>
			<g class="st61">
				<g>
					<defs>
						<rect id="SVGID_64_" x="68.9" y="58.2" width="12" height="12"/>
					</defs>
					<clipPath id="SVGID_65_">
						<use xlink:href="#SVGID_64_"  style="overflow:visible;"/>
					</clipPath>
					<path class="st66" d="M74.9,58.2c3.3,0,6,2.7,6,6c0,3.3-2.7,6-6,6c-3.3,0-6-2.7-6-6C68.9,60.9,71.6,58.2,74.9,58.2"/>
				</g>
			</g>
			<g class="st61">
				<g>
					<defs>
						<rect id="SVGID_66_" x="119.3" y="57.4" width="12" height="12"/>
					</defs>
					<clipPath id="SVGID_67_">
						<use xlink:href="#SVGID_66_"  style="overflow:visible;"/>
					</clipPath>
					<path class="st67" d="M125.3,57.4c3.3,0,6,2.7,6,6c0,3.3-2.7,6-6,6c-3.3,0-6-2.7-6-6C119.3,60.1,122,57.4,125.3,57.4"/>
				</g>
			</g>
			<path class="st63" d="M100.5,66c-1.6,0-2.9-1.3-2.9-2.9V53c0-1.6,1.3-2.9,2.9-2.9c1.6,0,2.9,1.3,2.9,2.9v10.1
				C103.4,64.7,102.1,66,100.5,66"/>
			<path class="st63" d="M74.8,66c-1.6,0-2.9-1.3-2.9-2.9V53c0-1.6,1.3-2.9,2.9-2.9s2.9,1.3,2.9,2.9v10.1C77.7,64.7,76.4,66,74.8,66
				"/>
			<path class="st63" d="M125.3,66c-1.6,0-2.9-1.3-2.9-2.9V53c0-1.6,1.3-2.9,2.9-2.9c1.6,0,2.9,1.3,2.9,2.9v10.1
				C128.2,64.7,126.9,66,125.3,66"/>
		</g>
		<g class="st60">
			<defs>
				<rect id="SVGID_68_" x="60.1" y="97.5" width="80" height="38.4"/>
			</defs>
			<clipPath id="SVGID_69_">
				<use xlink:href="#SVGID_68_"  style="overflow:visible;"/>
			</clipPath>
			<path class="st68" d="M61.7,97.5h4.8c0.9,0,1.6,0.7,1.6,1.6v4.8c0,0.9-0.7,1.6-1.6,1.6h-4.8c-0.9,0-1.6-0.7-1.6-1.6v-4.8
				C60.1,98.2,60.8,97.5,61.7,97.5"/>
			<path class="st68" d="M73.7,97.5h4.8c0.9,0,1.6,0.7,1.6,1.6v4.8c0,0.9-0.7,1.6-1.6,1.6h-4.8c-0.9,0-1.6-0.7-1.6-1.6v-4.8
				C72.1,98.2,72.8,97.5,73.7,97.5"/>
			<path class="st68" d="M85.7,97.5h4.8c0.9,0,1.6,0.7,1.6,1.6v4.8c0,0.9-0.7,1.6-1.6,1.6h-4.8c-0.9,0-1.6-0.7-1.6-1.6v-4.8
				C84.1,98.2,84.8,97.5,85.7,97.5"/>
			<path class="st68" d="M97.7,97.5h4.8c0.9,0,1.6,0.7,1.6,1.6v4.8c0,0.9-0.7,1.6-1.6,1.6h-4.8c-0.9,0-1.6-0.7-1.6-1.6v-4.8
				C96.1,98.2,96.8,97.5,97.7,97.5"/>
			<path class="st68" d="M109.7,97.5h4.8c0.9,0,1.6,0.7,1.6,1.6v4.8c0,0.9-0.7,1.6-1.6,1.6h-4.8c-0.9,0-1.6-0.7-1.6-1.6v-4.8
				C108.1,98.2,108.8,97.5,109.7,97.5"/>
			<path class="st68" d="M121.7,97.5h4.8c0.9,0,1.6,0.7,1.6,1.6v4.8c0,0.9-0.7,1.6-1.6,1.6h-4.8c-0.9,0-1.6-0.7-1.6-1.6v-4.8
				C120.1,98.2,120.8,97.5,121.7,97.5"/>
			<path class="st68" d="M133.7,97.5h4.8c0.9,0,1.6,0.7,1.6,1.6v4.8c0,0.9-0.7,1.6-1.6,1.6h-4.8c-0.9,0-1.6-0.7-1.6-1.6v-4.8
				C132.1,98.2,132.9,97.5,133.7,97.5"/>
			<path class="st68" d="M61.7,111.9h4.8c0.9,0,1.6,0.7,1.6,1.6v4.8c0,0.9-0.7,1.6-1.6,1.6h-4.8c-0.9,0-1.6-0.7-1.6-1.6v-4.8
				C60.1,112.6,60.8,111.9,61.7,111.9"/>
			<path class="st68" d="M73.7,111.9h4.8c0.9,0,1.6,0.7,1.6,1.6v4.8c0,0.9-0.7,1.6-1.6,1.6h-4.8c-0.9,0-1.6-0.7-1.6-1.6v-4.8
				C72.1,112.6,72.8,111.9,73.7,111.9"/>
			<path class="st68" d="M85.7,111.9h4.8c0.9,0,1.6,0.7,1.6,1.6v4.8c0,0.9-0.7,1.6-1.6,1.6h-4.8c-0.9,0-1.6-0.7-1.6-1.6v-4.8
				C84.1,112.6,84.8,111.9,85.7,111.9"/>
			<path class="st68" d="M97.7,111.9h4.8c0.9,0,1.6,0.7,1.6,1.6v4.8c0,0.9-0.7,1.6-1.6,1.6h-4.8c-0.9,0-1.6-0.7-1.6-1.6v-4.8
				C96.1,112.6,96.8,111.9,97.7,111.9"/>
			<path class="st68" d="M109.7,111.9h4.8c0.9,0,1.6,0.7,1.6,1.6v4.8c0,0.9-0.7,1.6-1.6,1.6h-4.8c-0.9,0-1.6-0.7-1.6-1.6v-4.8
				C108.1,112.6,108.8,111.9,109.7,111.9"/>
			<path class="st68" d="M121.7,111.9h4.8c0.9,0,1.6,0.7,1.6,1.6v4.8c0,0.9-0.7,1.6-1.6,1.6h-4.8c-0.9,0-1.6-0.7-1.6-1.6v-4.8
				C120.1,112.6,120.8,111.9,121.7,111.9"/>
			<path class="st68" d="M133.7,111.9h4.8c0.9,0,1.6,0.7,1.6,1.6v4.8c0,0.9-0.7,1.6-1.6,1.6h-4.8c-0.9,0-1.6-0.7-1.6-1.6v-4.8
				C132.1,112.6,132.9,111.9,133.7,111.9"/>
			<path class="st68" d="M61.7,126.3h4.8c0.9,0,1.6,0.7,1.6,1.6v4.8c0,0.9-0.7,1.6-1.6,1.6h-4.8c-0.9,0-1.6-0.7-1.6-1.6v-4.8
				C60.1,127,60.8,126.3,61.7,126.3"/>
			<path class="st68" d="M73.7,126.3h4.8c0.9,0,1.6,0.7,1.6,1.6v4.8c0,0.9-0.7,1.6-1.6,1.6h-4.8c-0.9,0-1.6-0.7-1.6-1.6v-4.8
				C72.1,127,72.8,126.3,73.7,126.3"/>
			<path class="st68" d="M85.7,126.3h4.8c0.9,0,1.6,0.7,1.6,1.6v4.8c0,0.9-0.7,1.6-1.6,1.6h-4.8c-0.9,0-1.6-0.7-1.6-1.6v-4.8
				C84.1,127,84.8,126.3,85.7,126.3"/>
			<path class="st68" d="M97.7,126.3h4.8c0.9,0,1.6,0.7,1.6,1.6v4.8c0,0.9-0.7,1.6-1.6,1.6h-4.8c-0.9,0-1.6-0.7-1.6-1.6v-4.8
				C96.1,127,96.8,126.3,97.7,126.3"/>
			<path class="st68" d="M109.7,126.3h4.8c0.9,0,1.6,0.7,1.6,1.6v4.8c0,0.9-0.7,1.6-1.6,1.6h-4.8c-0.9,0-1.6-0.7-1.6-1.6v-4.8
				C108.1,127,108.8,126.3,109.7,126.3"/>
			<path class="st68" d="M121.7,126.3h4.8c0.9,0,1.6,0.7,1.6,1.6v4.8c0,0.9-0.7,1.6-1.6,1.6h-4.8c-0.9,0-1.6-0.7-1.6-1.6v-4.8
				C120.1,127,120.8,126.3,121.7,126.3"/>
			<path class="st68" d="M133.7,126.3h4.8c0.9,0,1.6,0.7,1.6,1.6v4.8c0,0.9-0.7,1.6-1.6,1.6h-4.8c-0.9,0-1.6-0.7-1.6-1.6v-4.8
				C132.1,127,132.9,126.3,133.7,126.3"/>
		</g>
		<g class="st60">
			<defs>
				<rect id="SVGID_70_" x="3.9" y="4.3" width="192.4" height="192.4"/>
			</defs>
			<clipPath id="SVGID_71_">
				<use xlink:href="#SVGID_70_"  style="overflow:visible;"/>
			</clipPath>
			<path class="st69" d="M138.1,149.1c-1.2,0-2.4-0.5-3.2-1.3l-12.2-12.4c-1.8-1.8-1.8-4.7,0-6.4l1.9-1.9c0.9-0.8,2-1.3,3.2-1.3
				c1.2,0,2.4,0.5,3.2,1.3l6.6,6.6l22.9-22.7c0.9-0.8,2-1.3,3.2-1.3c1.2,0,2.4,0.5,3.2,1.3l2.5,2.5c1.8,1.8,1.8,4.7,0,6.4l-28,27.8
				C140.4,148.7,139.3,149.1,138.1,149.1"/>
			<path class="st70" d="M163.6,109.7c1.2,0,2.4,0.5,3.2,1.3l2.5,2.5c1.8,1.8,1.8,4.7,0,6.4l-28,27.8c-0.9,0.8-2,1.3-3.2,1.3
				c-1.2,0-2.4-0.5-3.2-1.3l-12.2-12.4c-1.8-1.8-1.8-4.7,0-6.4l1.9-1.9c0.9-0.8,2-1.3,3.2-1.3c1.2,0,2.4,0.5,3.2,1.3l6.6,6.6
				l22.9-22.7C161.3,110.2,162.4,109.7,163.6,109.7 M163.6,104.9c-2.5,0-4.8,1-6.6,2.7L137.6,127l-3.2-3.2c-1.8-1.8-4.1-2.8-6.7-2.8
				c-2.5,0-4.8,1-6.6,2.7l-1.9,1.9c-1.8,1.8-2.8,4.1-2.8,6.6c0,2.5,1,4.9,2.7,6.6l12.2,12.4c1.8,1.8,4.1,2.8,6.7,2.8
				c2.5,0,4.8-1,6.6-2.7l28-27.8c3.7-3.6,3.7-9.6,0.1-13.2l-2.5-2.5C168.5,105.9,166.2,104.9,163.6,104.9"/>
			<path class="st71" d="M162.5,115.6l-21.2,21.3c-0.5,0.5-1.2,0.5-1.7,0l0,0c-0.5-0.5-0.5-1.2,0-1.7l21.2-21.3
				c0.5-0.5,1.2-0.5,1.7,0l0,0C163,114.4,163,115.1,162.5,115.6"/>
		</g>
		<g class="st60">
			<defs>
				<rect id="SVGID_72_" x="3.9" y="4.3" width="192.4" height="192.4"/>
			</defs>
			<clipPath id="SVGID_73_">
				<use xlink:href="#SVGID_72_"  style="overflow:visible;"/>
			</clipPath>
			<g class="st72">
				<defs>
					<path id="SVGID_74_" d="M196.3-179c0,53.1-43.1,96.2-96.2,96.2S3.9-125.9,3.9-179c0-53.1,43.1-96.2,96.2-96.2
						S196.3-232.1,196.3-179"/>
				</defs>
				<clipPath id="SVGID_75_">
					<use xlink:href="#SVGID_74_"  style="overflow:visible;"/>
				</clipPath>
				<path class="st73" d="M154.1,55.9C152.2,80.7,38,82.7,37,54.5c-0.2-6.9,0.7-20.2,0.3-29.2c-2-53.2-2.6-40.1-4.1-67.3
					c-0.5-8.7-6.9-52.6-4.4-73.8c0.4-3.1,0.9-5.9,1.6-8.1c4.9-16,36-23.6,47.2-24l37.7-1.1c0,0,31.1,39,35.9,51
					c4.9,12,2.8,51.5,2.8,71.7C154.1,33.1,155.4,37.1,154.1,55.9"/>
				<path class="st74" d="M130.6,8.8c-0.4,4.8-2.6,9.2-6.1,12.4l-5.5,5.1c-1.4,1.3-3.6,1.1-4.7-0.4l-6.8-8.7
					c-1.8-2.3-2.7-5.3-2.4-8.2c0.6-6.6,1.8-19.2,2.8-31.4c0.8-9.9,1.4-19.5,1.4-25.4c0.2-18.7-3.6-78.2-3.6-78.2l4.5,0.2
					c0,0,6.3,23.9,12.2,55.3C123.7-62.8,132.5-12.7,130.6,8.8"/>
			</g>
		</g>
	</g>
</g>
<g class="st0">
	<g class="st1">
		<defs>
			<rect id="SVGID_76_" x="3.9" y="4.3" width="192.4" height="192.4"/>
		</defs>
		<clipPath id="SVGID_77_">
			<use xlink:href="#SVGID_76_"  style="overflow:visible;"/>
		</clipPath>
		<g class="st75">
			<defs>
				<rect id="SVGID_78_" x="3.9" y="4.3" width="192.4" height="192.4"/>
			</defs>
			<clipPath id="SVGID_79_">
				<use xlink:href="#SVGID_78_"  style="overflow:visible;"/>
			</clipPath>
			<g class="st76">
				<defs>
					<rect id="SVGID_80_" x="3.9" y="4.3" width="192.4" height="192.4"/>
				</defs>
				<clipPath id="SVGID_81_">
					<use xlink:href="#SVGID_80_"  style="overflow:visible;"/>
				</clipPath>
				<g class="st77">
					<g>
						<defs>
							<rect id="SVGID_82_" x="3.9" y="4.3" width="192.4" height="192.4"/>
						</defs>
						<clipPath id="SVGID_83_">
							<use xlink:href="#SVGID_82_"  style="overflow:visible;"/>
						</clipPath>
						<path class="st78" d="M196.3,100.4c0,53.1-43.1,96.2-96.2,96.2S3.9,153.6,3.9,100.4S47,4.3,100.1,4.3S196.3,47.3,196.3,100.4"
							/>
					</g>
				</g>
				<path class="st79" d="M104.8,81.7V96c0,0.3-0.3,0.6-0.6,0.6c0,0,0,0,0,0h-2.3c-0.2,0-0.4-0.1-0.5-0.3l-6.5-8.8V96
					c0,0.3-0.3,0.6-0.6,0.6c0,0,0,0,0,0h-2.3c-0.4,0-0.6-0.3-0.6-0.6c0,0,0,0,0,0V81.7c0-0.4,0.3-0.6,0.6-0.6c0,0,0,0,0,0h2.3
					c0.2,0,0.4,0.1,0.5,0.3l6.5,8.8v-8.5c0-0.4,0.3-0.6,0.6-0.6c0,0,0,0,0,0h2.3C104.4,81.1,104.7,81.4,104.8,81.7
					C104.8,81.7,104.8,81.7,104.8,81.7 M88.3,81.1H86c-0.3,0-0.6,0.3-0.6,0.6c0,0,0,0,0,0V96c0,0.3,0.3,0.6,0.6,0.6c0,0,0,0,0,0h2.3
					c0.4,0,0.6-0.3,0.6-0.6c0,0,0,0,0,0V81.7C89,81.4,88.7,81.1,88.3,81.1 M82.8,93h-6.2V81.7c0-0.4-0.3-0.6-0.6-0.6c0,0,0,0,0,0
					h-2.3c-0.4,0-0.6,0.3-0.6,0.6c0,0,0,0,0,0V96c0,0.2,0.1,0.3,0.2,0.4c0.1,0.1,0.3,0.2,0.4,0.2h9.2c0.4,0,0.6-0.3,0.6-0.6
					c0,0,0,0,0,0v-2.3C83.4,93.3,83.2,93,82.8,93 M116.8,81.1h-9.2c-0.4,0-0.6,0.3-0.6,0.6V96c0,0.4,0.3,0.6,0.6,0.6h9.2
					c0.3,0,0.6-0.3,0.6-0.6c0,0,0,0,0,0v-2.3c0-0.4-0.3-0.6-0.6-0.6c0,0,0,0,0,0h-6.2v-2.4h6.2c0.3,0,0.6-0.3,0.6-0.6c0,0,0,0,0,0
					v-2.3c0-0.4-0.3-0.6-0.6-0.6c0,0,0,0,0,0h-6.2v-2.4h6.2c0.3,0,0.6-0.3,0.6-0.6c0,0,0,0,0,0v-2.3
					C117.4,81.4,117.1,81.1,116.8,81.1 M140,63.6v57.2c0,9-7.4,16.2-16.4,16.2H66.5c-9,0-16.3-7.4-16.2-16.4V63.4
					c0-9,7.4-16.2,16.4-16.2h57.2C132.7,47.2,140,54.6,140,63.6 M127.7,88.1c0-14.6-14.7-26.5-32.7-26.5c-18,0-32.7,11.9-32.7,26.5
					c0,13.1,11.6,24.1,27.3,26.2c3.8,0.8,3.4,2.2,2.5,7.4c-0.1,0.8-0.7,3.2,2.8,1.8c3.5-1.5,18.8-11.1,25.7-19
					C125.4,99.3,127.7,94,127.7,88.1"/>
				<path class="st80" d="M151.7,148.3c3.2-0.9,5.1-4.1,4.2-7.4l-11.6,3.1C145.2,147.3,148.5,149.2,151.7,148.3 M158.8,116.9
					c-1.9-7-8.3-11.4-15.4-11l-0.5-1.9c-0.4-1.6-2.1-2.6-3.7-2.1c-1.6,0.4-2.6,2.1-2.1,3.7l0.5,1.9c-6.3,3.2-9.7,10.1-7.8,17.2
					c2.5,9.3,0,13-1.3,15.3c-0.4,0.7-0.5,1.4-0.3,2.2c0.4,1.5,2,2.6,3.7,2.1l34.8-9.3c1.7-0.5,2.5-2.2,2.1-3.7
					c-0.2-0.7-0.7-1.4-1.3-1.8C165.3,128.1,161.3,126.2,158.8,116.9"/>
				<path class="st81" d="M140.1,101.8c1.3,0,2.5,0.9,2.9,2.2l0.5,1.9c0.3,0,0.6,0,0.9,0c6.7,0,12.6,4.2,14.5,11
					c2.5,9.3,6.5,11.2,8.8,12.6c0.6,0.4,1.1,1,1.3,1.8c0.4,1.5-0.4,3.2-2.1,3.7l-34.8,9.3c-0.3,0.1-0.5,0.1-0.8,0.1
					c-1.4,0-2.5-1-2.9-2.2c-0.2-0.7-0.1-1.5,0.3-2.2c1.2-2.3,3.8-6.1,1.3-15.3c-1.9-7,1.5-14,7.8-17.2l-0.5-1.9
					c-0.4-1.6,0.5-3.2,2.1-3.7C139.5,101.9,139.8,101.8,140.1,101.8 M156,141c0.9,3.2-1,6.5-4.2,7.4c-0.5,0.1-1,0.2-1.6,0.2
					c-2.7,0-5.1-1.8-5.8-4.4L156,141 M140.1,97L140.1,97c-0.7,0-1.4,0.1-2,0.3c-2,0.5-3.7,1.8-4.8,3.6c-0.8,1.3-1.1,2.8-1,4.3
					c-6.3,4.8-9.2,12.8-7.1,20.7c1.8,6.8,0.5,9.3-0.6,11.3c-0.1,0.2-0.2,0.3-0.3,0.5c-1,1.8-1.2,3.8-0.7,5.7c0.9,3.4,4,5.8,7.5,5.8
					c0.7,0,1.4-0.1,2-0.3l7.1-1.9c1.7,3.8,5.6,6.3,9.8,6.3c0.9,0,1.9-0.1,2.8-0.4c2.8-0.7,5.1-2.5,6.6-5c1.1-2,1.6-4.2,1.4-6.4
					l7.1-1.9c4.2-1.1,6.6-5.4,5.5-9.6c-0.5-1.9-1.7-3.6-3.4-4.6c-0.1-0.1-0.3-0.2-0.5-0.3c-1.9-1.2-4.4-2.7-6.2-9.5
					c-2.1-7.8-8.5-13.4-16.5-14.4C145.7,98.7,143,97,140.1,97"/>
				<path class="st80" d="M157.7,99.6c0.5-0.2,0.9-0.5,1.2-0.9l4.9-5.9c1-1.2,0.8-3-0.4-4c-1.2-1-3-0.8-4,0.3l-4.9,5.9
					c-1,1.2-0.9,3,0.4,4C155.7,99.8,156.7,100,157.7,99.6 M171.2,103.4L164,106c-1.5,0.5-2.3,2.2-1.7,3.7c0.5,1.5,2.2,2.3,3.7,1.7
					l7.2-2.6c1.5-0.5,2.3-2.2,1.7-3.7C174.3,103.6,172.7,102.9,171.2,103.4"/>
				<g class="st82">
					<g>
						<defs>
							<rect id="SVGID_84_" x="143.2" y="110.2" width="13.6" height="13.6"/>
						</defs>
						<clipPath id="SVGID_85_">
							<use xlink:href="#SVGID_84_"  style="overflow:visible;"/>
						</clipPath>
						<path class="st83" d="M156,123.3c-1.7,1.7-3.7-1.9-7.1-5.3c-3.4-3.4-7-5.3-5.3-7.1c1.7-1.7,5.9-0.4,9.4,3
							C156.4,117.4,157.8,121.6,156,123.3"/>
					</g>
				</g>
				<g class="st82">
					<g>
						<defs>
							<rect id="SVGID_86_" x="153.5" y="125.7" width="3.8" height="6.1"/>
						</defs>
						<clipPath id="SVGID_87_">
							<use xlink:href="#SVGID_86_"  style="overflow:visible;"/>
						</clipPath>
						<path class="st84" d="M157.3,128.7c0,1.7-1,3-2.3,3c-1.2,0-1.6-1.4-1.6-3c0-1.7,0.3-3,1.6-3
							C156.3,125.7,157.3,127.1,157.3,128.7"/>
					</g>
				</g>
			</g>
		</g>
	</g>
</g>
<g class="st0">
	<g class="st1">
		<defs>
			<rect id="SVGID_88_" x="3.9" y="4.3" width="192.4" height="192.4"/>
		</defs>
		<clipPath id="SVGID_89_">
			<use xlink:href="#SVGID_88_"  style="overflow:visible;"/>
		</clipPath>
		<g class="st85">
			<defs>
				<rect id="SVGID_90_" x="3.9" y="4.3" width="192.4" height="192.4"/>
			</defs>
			<clipPath id="SVGID_91_">
				<use xlink:href="#SVGID_90_"  style="overflow:visible;"/>
			</clipPath>
			<g class="st86">
				<g>
					<defs>
						<rect id="SVGID_92_" x="3.9" y="4.3" width="192.4" height="192.4"/>
					</defs>
					<clipPath id="SVGID_93_">
						<use xlink:href="#SVGID_92_"  style="overflow:visible;"/>
					</clipPath>
					<path class="st87" d="M196.3,100.4c0,53.1-43.1,96.2-96.2,96.2S3.9,153.6,3.9,100.4S47,4.3,100.1,4.3S196.3,47.3,196.3,100.4"
						/>
				</g>
			</g>
		</g>
		<g class="st85">
			<defs>
				<circle id="SVGID_94_" cx="100.1" cy="100.4" r="96.2"/>
			</defs>
			<clipPath id="SVGID_95_">
				<use xlink:href="#SVGID_94_"  style="overflow:visible;"/>
			</clipPath>
			<path class="st88" d="M89.2,155v8.5h0.1c1.2,2.3,12.3,4,25.8,4c13.5,0,24.6-1.8,25.8-4h0.1V155H89.2z"/>
			<path class="st89" d="M98.6,155.3v11.2c2.6,0.4,5.7,0.7,9,0.8v-12H98.6z"/>
			<path class="st89" d="M109.3,157.3v10.1c0.7,0,1.5,0.1,2.2,0.1v-10.2H109.3z"/>
			<path class="st90" d="M141,155c0,2.1-11.6,3.8-25.9,3.8s-25.9-1.7-25.9-3.8s11.6-3.8,25.9-3.8S141,152.9,141,155"/>
			<path class="st88" d="M134.7,155.3c0,1.6-8.8,2.9-19.6,2.9c-10.9,0-19.6-1.3-19.6-2.9c0-1.6,8.8-2.9,19.6-2.9
				C125.9,152.4,134.7,153.7,134.7,155.3"/>
			<path class="st89" d="M132.8,155.6c0,1.4-7.9,2.6-17.7,2.6c-9.8,0-17.7-1.2-17.7-2.6c0-1.4,7.9-2.6,17.7-2.6
				C124.9,153,132.8,154.1,132.8,155.6"/>
			<path class="st88" d="M84,145.1v8.5h0.1c1.2,2.3,12.3,4,25.8,4c13.5,0,24.6-1.8,25.8-4h0.1v-8.5H84z"/>
			<path class="st89" d="M93.4,145.3v11.2c2.6,0.4,5.7,0.7,9,0.8v-12H93.4z"/>
			<path class="st89" d="M104.2,147.3v10.1c0.7,0,1.5,0.1,2.2,0.1v-10.2H104.2z"/>
			<path class="st90" d="M135.9,145.1c0,2.1-11.6,3.8-25.9,3.8c-14.3,0-25.9-1.7-25.9-3.8c0-2.1,11.6-3.8,25.9-3.8
				C124.3,141.2,135.9,142.9,135.9,145.1"/>
			<path class="st88" d="M129.6,145.3c0,1.6-8.8,2.9-19.6,2.9c-10.8,0-19.6-1.3-19.6-2.9c0-1.6,8.8-2.9,19.6-2.9
				C120.8,142.4,129.6,143.7,129.6,145.3"/>
			<path class="st89" d="M127.6,145.6c0,1.4-7.9,2.6-17.7,2.6c-9.8,0-17.7-1.2-17.7-2.6c0-1.4,7.9-2.6,17.7-2.6
				C119.7,143,127.6,144.1,127.6,145.6"/>
			<path class="st88" d="M89.2,134.9v8.5h0.1c1.2,2.3,12.3,4,25.8,4c13.5,0,24.6-1.8,25.8-4h0.1v-8.5H89.2z"/>
			<path class="st89" d="M98.6,135.2v11.2c2.6,0.4,5.7,0.7,9,0.8v-12H98.6z"/>
			<path class="st89" d="M109.3,137.2v10.1c0.7,0,1.5,0.1,2.2,0.1v-10.2H109.3z"/>
			<path class="st90" d="M141,134.9c0,2.1-11.6,3.8-25.9,3.8s-25.9-1.7-25.9-3.8c0-2.1,11.6-3.8,25.9-3.8S141,132.8,141,134.9"/>
			<path class="st88" d="M134.7,135.1c0,1.6-8.8,2.9-19.6,2.9s-19.6-1.3-19.6-2.9c0-1.6,8.8-2.9,19.6-2.9S134.7,133.5,134.7,135.1"
				/>
			<path class="st89" d="M132.8,135.4c0,1.4-7.9,2.6-17.7,2.6c-9.8,0-17.7-1.2-17.7-2.6c0-1.4,7.9-2.6,17.7-2.6
				C124.9,132.8,132.8,134,132.8,135.4"/>
			<path class="st88" d="M101.7,123.6v8.5h0.1c1.2,2.3,12.3,4,25.8,4c13.5,0,24.6-1.8,25.8-4h0.1v-8.5H101.7z"/>
			<path class="st89" d="M111.2,123.8v11.2c2.6,0.4,5.7,0.7,9,0.8v-12H111.2z"/>
			<path class="st89" d="M121.9,125.9V136c0.7,0,1.5,0.1,2.2,0.1v-10.2H121.9z"/>
			<path class="st90" d="M153.6,123.6c0,2.1-11.6,3.8-25.9,3.8c-14.3,0-25.9-1.7-25.9-3.8c0-2.1,11.6-3.8,25.9-3.8
				C142,119.8,153.6,121.5,153.6,123.6"/>
			<path class="st88" d="M147.3,123.8c0,1.6-8.8,2.9-19.6,2.9c-10.9,0-19.6-1.3-19.6-2.9c0-1.6,8.8-2.9,19.6-2.9
				C138.5,120.9,147.3,122.2,147.3,123.8"/>
			<path class="st89" d="M145.4,124.1c0,1.4-7.9,2.6-17.7,2.6c-9.8,0-17.7-1.2-17.7-2.6c0-1.4,7.9-2.6,17.7-2.6
				C137.5,121.5,145.4,122.7,145.4,124.1"/>
			<path class="st91" d="M61.2,45.2c10.3-17.9,33.1-24,51-13.7c17.9,10.3,24,33.1,13.7,51c-10.3,17.9-33.1,24-51,13.7
				C57,85.9,50.8,63.1,61.2,45.2"/>
			<path class="st92" d="M58.3,43.6c10.3-17.9,33.1-24,51-13.7c17.9,10.3,24,33.1,13.7,51c-10.3,17.9-33.1,24-51,13.7
				C54.1,84.3,48,61.4,58.3,43.6"/>
			<path class="st93" d="M73.4,92.1c-7.9-4.5-13.5-11.9-15.8-20.7c-2.4-8.8-1.1-17.9,3.4-25.8c4.5-7.9,11.9-13.5,20.7-15.8
				c8.8-2.4,17.9-1.1,25.8,3.4c7.9,4.5,13.5,11.9,15.8,20.7c2.4,8.8,1.1,17.9-3.4,25.8c-4.5,7.9-11.9,13.5-20.7,15.8
				C90.5,97.8,81.3,96.6,73.4,92.1 M106.4,34.9c-15.3-8.8-34.9-3.6-43.7,11.7c-8.8,15.3-3.6,34.9,11.7,43.7
				c15.3,8.8,34.9,3.6,43.7-11.7C127,63.4,121.7,43.8,106.4,34.9"/>
			<path class="st93" d="M80.2,79.7l2.4-4.1c-2.8-1.8-5.2-4.2-6.3-6.1l4.2-4.3c1.2,2,3.3,4.4,6.1,6.1c2.5,1.4,4.7,1.5,5.7-0.3
				c1-1.6,0.2-3.5-2.4-6.4c-3.7-4.2-5.7-8.2-3.2-12.4c2.2-3.8,6.6-5.3,11.8-3.5l2.4-4.1l4.2,2.5l-2.2,3.8c2.8,1.8,4.4,3.5,5.5,5.1
				l-4.1,4.2c-0.9-1.1-2.3-3.3-5.4-5.1c-2.8-1.6-4.4-0.9-5.1,0.3c-0.8,1.4,0.2,3.2,3.1,6.7c4.1,4.8,4.8,8.4,2.6,12.3
				c-2.2,3.9-6.9,5.6-12.4,3.6l-2.6,4.4L80.2,79.7z"/>
			<path class="st94" d="M78.3,78.6l2.4-4.1c-2.8-1.8-5.2-4.2-6.3-6.1l4.2-4.3c1.2,2,3.3,4.4,6.1,6.1c2.5,1.4,4.7,1.5,5.7-0.3
				c1-1.6,0.2-3.5-2.4-6.4c-3.7-4.2-5.7-8.2-3.2-12.4c2.2-3.8,6.6-5.3,11.8-3.5l2.4-4.1l4.2,2.5l-2.2,3.8c2.8,1.8,4.4,3.5,5.5,5.1
				l-4.1,4.2c-0.9-1.1-2.3-3.3-5.4-5.1c-2.8-1.6-4.4-0.9-5.1,0.3c-0.8,1.4,0.2,3.2,3.1,6.7c4.1,4.8,4.8,8.4,2.6,12.3
				c-2.2,3.9-6.9,5.6-12.4,3.6L82.5,81L78.3,78.6z"/>
			<path class="st94" d="M61.6,58.5c-0.1,0-0.1,0-0.2,0c-0.5-0.1-0.9-0.6-0.8-1.1C63.6,43,76.4,32.6,91,32.6c0.5,0,1,0.4,1,1
				c0,0.5-0.4,1-1,1c-13.8,0-25.8,9.8-28.5,23.2C62.4,58.2,62,58.5,61.6,58.5"/>
			<path class="st91" d="M6.8,142.9c0-15.4,12.4-27.9,27.6-27.9c15.2,0,27.6,12.5,27.6,27.9c0,15.4-12.4,27.9-27.6,27.9
				S6.8,158.3,6.8,142.9"/>
			<path class="st92" d="M4.4,142.9C4.4,127.5,16.7,115,32,115c15.2,0,27.6,12.5,27.6,27.9c0,15.4-12.4,27.9-27.6,27.9
				S4.4,158.3,4.4,142.9"/>
			<path class="st93" d="M32,168.7c-6.7,0-13-2.6-17.8-7.5c-4.7-4.8-7.4-11.2-7.4-18c0-6.8,2.6-13.2,7.4-18
				c4.7-4.8,11.1-7.5,17.8-7.5s13,2.6,17.8,7.5c4.7,4.8,7.4,11.2,7.4,18c0,6.8-2.6,13.2-7.4,18C45,166.1,38.7,168.7,32,168.7
				 M32,119.3c-13,0-23.6,10.7-23.6,23.9c0,13.2,10.6,23.9,23.6,23.9c13,0,23.6-10.7,23.6-23.9C55.6,130,45,119.3,32,119.3"/>
			<path class="st93" d="M31.7,158.1v-3.6c-2.5-0.1-4.9-0.8-6.3-1.6l1.1-4.4c1.6,0.9,3.7,1.6,6.1,1.6c2.1,0,3.6-0.8,3.6-2.3
				c0-1.4-1.2-2.3-3.9-3.3c-4-1.3-6.7-3.2-6.7-6.9c0-3.3,2.3-5.9,6.3-6.7v-3.6h3.6v3.3c2.5,0.1,4.1,0.6,5.4,1.2l-1.1,4.2
				c-1-0.4-2.7-1.3-5.3-1.3c-2.4,0-3.2,1.1-3.2,2.1c0,1.2,1.3,2,4.4,3.2c4.4,1.6,6.2,3.6,6.2,7c0,3.3-2.3,6.2-6.6,6.9v3.8H31.7z"/>
			<path class="st94" d="M30.1,158.1v-3.6c-2.5-0.1-4.9-0.8-6.3-1.6l1.1-4.4c1.6,0.9,3.7,1.6,6.1,1.6c2.1,0,3.6-0.8,3.6-2.3
				c0-1.4-1.2-2.3-3.9-3.3c-4-1.3-6.7-3.2-6.7-6.9c0-3.3,2.3-5.9,6.3-6.7v-3.6h3.6v3.3c2.5,0.1,4.1,0.6,5.4,1.2l-1.1,4.2
				c-1-0.4-2.7-1.3-5.3-1.3c-2.4,0-3.2,1.1-3.2,2.1c0,1.2,1.3,2,4.4,3.2c4.4,1.6,6.2,3.6,6.2,7c0,3.3-2.3,6.2-6.6,6.9v3.8H30.1z"/>
			<g class="st95">
				<g>
					<defs>
						<rect id="SVGID_96_" x="31.7" y="127.4" width="110.8" height="66.2"/>
					</defs>
					<clipPath id="SVGID_97_">
						<use xlink:href="#SVGID_96_"  style="overflow:visible;"/>
					</clipPath>
					<path class="st96" d="M51.8,127.4c28,14.5,58.7,23.3,90.7,26c-2,13.4-4,26.8-6,40.1c-37-3.2-72.6-13.4-104.9-30.1
						C38.4,151.4,45.1,139.4,51.8,127.4"/>
				</g>
			</g>
			<g class="st95">
				<g>
					<defs>
						<rect id="SVGID_98_" x="37.5" y="132.6" width="101.7" height="58"/>
					</defs>
					<clipPath id="SVGID_99_">
						<use xlink:href="#SVGID_98_"  style="overflow:visible;"/>
					</clipPath>
					<path class="st97" d="M139.2,160.7c-1.3,8.3-2.6,16.7-3.9,25c-3.4-0.3-6.5,1.8-7.1,4.8c-30.8-3.6-60.4-12.1-87.9-25.2
						c1.4-2.7,0.1-6.1-2.8-7.6c4.1-7.5,8.3-15.1,12.4-22.6c2.7,1.4,6.1,0.2,7.5-2.5c24.1,11.5,50.2,19,77.2,22.1
						C134.1,157.7,136.1,160.4,139.2,160.7"/>
				</g>
			</g>
			<g class="st95">
				<g>
					<defs>
						<rect id="SVGID_100_" x="71.8" y="150.4" width="29.6" height="27.8"/>
					</defs>
					<clipPath id="SVGID_101_">
						<use xlink:href="#SVGID_100_"  style="overflow:visible;"/>
					</clipPath>
					<path class="st98" d="M72.8,159.7c3-7.2,11.3-10.9,18.6-8.7c7.3,2.2,11.6,9.6,9.5,17c-2.1,7.4-10.6,11.9-18.8,9.5
						C73.8,175.1,69.8,166.9,72.8,159.7"/>
				</g>
			</g>
			<path class="st99" d="M91.3,153.5c-0.3,0.8-0.5,1.6-0.8,2.4c1.1,0.3,2.1,0.8,2.9,1.3c0.7,0.4,0.9,1.3,0.5,2c0,0,0,0.1-0.1,0.1
				c-0.5,0.8-1.5,1-2.3,0.5c-0.8-0.5-1.7-0.9-2.7-1.2c-1.5-0.4-2.7-0.1-3,0.9c-0.3,1,0.3,1.8,2.1,3c2.6,1.7,4.1,3.4,3.4,5.9
				c-0.7,2.2-2.9,3.6-6,3.3c-0.3,0.8-0.5,1.6-0.8,2.4c-0.9-0.2-1.8-0.5-2.7-0.7c0.2-0.7,0.5-1.5,0.7-2.2c-1-0.3-1.8-0.7-2.4-1
				c-0.8-0.4-1-1.4-0.5-2.1c0.5-0.7,1.5-0.9,2.3-0.5c0.6,0.4,1.3,0.7,2.3,1c1.8,0.5,2.6-0.1,2.8-0.8c0.3-0.8-0.5-1.6-2.5-3
				c-2.8-1.9-3.6-3.7-2.8-6c0.8-2.2,3.1-3.7,6.2-3.3c0.3-0.9,0.6-1.7,0.8-2.6C89.6,153.1,90.4,153.3,91.3,153.5"/>
			<g class="st95">
				<g>
					<defs>
						<rect id="SVGID_102_" x="104.2" y="168.3" width="23.1" height="7.7"/>
					</defs>
					<clipPath id="SVGID_103_">
						<use xlink:href="#SVGID_102_"  style="overflow:visible;"/>
					</clipPath>
					<path class="st100" d="M105.3,168.3c7.3,1.6,14.6,2.9,22,3.8c-0.2,1.3-0.5,2.6-0.7,3.9c-7.5-1-15-2.3-22.3-3.9
						C104.5,170.8,104.9,169.5,105.3,168.3"/>
				</g>
			</g>
			<g class="st95">
				<g>
					<defs>
						<rect id="SVGID_104_" x="47.3" y="149.1" width="22.2" height="12.3"/>
					</defs>
					<clipPath id="SVGID_105_">
						<use xlink:href="#SVGID_104_"  style="overflow:visible;"/>
					</clipPath>
					<path class="st101" d="M49.1,149.1c6.6,3.2,13.4,6.1,20.3,8.6c-0.5,1.2-1,2.4-1.6,3.7c-7-2.6-13.9-5.5-20.6-8.8
						C47.9,151.4,48.5,150.2,49.1,149.1"/>
				</g>
			</g>
			<g class="st95">
				<g>
					<defs>
						<rect id="SVGID_106_" x="101.8" y="108.4" width="95.1" height="105.9"/>
					</defs>
					<clipPath id="SVGID_107_">
						<use xlink:href="#SVGID_106_"  style="overflow:visible;"/>
					</clipPath>
					<path class="st102" d="M101.8,180.6c24.8-19.5,45.7-44,61.7-72.2c11.1,7.5,22.2,15,33.4,22.5c-18.5,32.6-42.7,60.9-71.3,83.5
						C117.6,203.1,109.7,191.8,101.8,180.6"/>
				</g>
			</g>
			<g class="st95">
				<g>
					<defs>
						<rect id="SVGID_108_" x="107.9" y="114.5" width="82.8" height="92.7"/>
					</defs>
					<clipPath id="SVGID_109_">
						<use xlink:href="#SVGID_108_"  style="overflow:visible;"/>
					</clipPath>
					<path class="st103" d="M168.7,114.5c6.9,4.7,13.8,9.5,20.7,14.2c-1.7,2.9-1.2,6.7,1.3,8.5c-16.2,26.7-36.4,50.3-59.8,70
						c-1.9-2.5-5.4-2.7-8-0.7c-5-7-10-14-15-20.9c2.4-1.9,2.8-5.5,0.9-8c20.5-17.3,38.3-38,52.5-61.5
						C163.8,117.9,167.1,117.2,168.7,114.5"/>
				</g>
			</g>
			<g class="st95">
				<g>
					<defs>
						<rect id="SVGID_110_" x="135.9" y="149.4" width="27.7" height="29.8"/>
					</defs>
					<clipPath id="SVGID_111_">
						<use xlink:href="#SVGID_110_"  style="overflow:visible;"/>
					</clipPath>
					<path class="st104" d="M139.7,175c-5.1-5.8-5-14.9,0.1-20.7c5-5.8,13.5-6.6,19.3-1.5c5.8,5.1,6.2,14.8,0.5,21.3
						C153.9,180.6,144.8,180.8,139.7,175"/>
				</g>
			</g>
			<path class="st99" d="M141.9,155.5c0.6,0.6,1.2,1.1,1.8,1.7c0.8-0.9,1.6-1.6,2.5-2.1c0.7-0.4,1.5-0.3,2,0.4c0,0,0,0.1,0.1,0.1
				c0.5,0.8,0.3,1.8-0.5,2.3c-0.8,0.5-1.6,1.1-2.2,2c-1,1.2-1.3,2.4-0.5,3.2c0.7,0.7,1.8,0.5,3.5-0.7c2.6-1.6,4.8-2.4,6.7-0.6
				c1.7,1.6,2,4.2,0.4,6.9c0.6,0.6,1.2,1.1,1.8,1.7c-0.6,0.7-1.2,1.5-1.8,2.2c-0.6-0.5-1.1-1.1-1.7-1.6c-0.7,0.8-1.3,1.3-1.9,1.8
				c-0.7,0.5-1.7,0.3-2.1-0.4c-0.4-0.8-0.2-1.8,0.6-2.3c0.6-0.4,1.2-0.9,1.8-1.7c1.2-1.4,1-2.4,0.5-2.9c-0.6-0.6-1.7-0.2-3.8,1
				c-2.9,1.8-4.9,1.7-6.6,0.1c-1.7-1.7-2-4.4-0.4-7.1c-0.6-0.6-1.3-1.2-1.9-1.9C140.8,156.8,141.4,156.1,141.9,155.5"/>
			<g class="st95">
				<g>
					<defs>
						<rect id="SVGID_112_" x="161.1" y="130.3" width="15.9" height="21.1"/>
					</defs>
					<clipPath id="SVGID_113_">
						<use xlink:href="#SVGID_112_"  style="overflow:visible;"/>
					</clipPath>
					<path class="st105" d="M161.1,148.9c4.5-6,8.7-12.2,12.8-18.6c1,0.8,2.1,1.5,3.1,2.3c-4.1,6.5-8.4,12.8-12.9,18.8
						C163,150.6,162,149.7,161.1,148.9"/>
				</g>
			</g>
			<g class="st95">
				<g>
					<defs>
						<rect id="SVGID_114_" x="120.1" y="177.2" width="19" height="18.2"/>
					</defs>
					<clipPath id="SVGID_115_">
						<use xlink:href="#SVGID_114_"  style="overflow:visible;"/>
					</clipPath>
					<path class="st106" d="M120.1,192.2c5.7-4.8,11.1-9.8,16.3-15c0.9,1,1.7,2,2.6,3c-5.3,5.3-10.8,10.4-16.6,15.2
						C121.7,194.4,120.9,193.3,120.1,192.2"/>
				</g>
			</g>
			<path class="st91" d="M119.6,165.5c0-15.4,12.4-27.9,27.6-27.9c15.2,0,27.6,12.5,27.6,27.9c0,15.4-12.4,27.9-27.6,27.9
				S119.6,181,119.6,165.5"/>
			<path class="st92" d="M117.2,165.5c0-15.4,12.4-27.9,27.6-27.9c15.2,0,27.6,12.5,27.6,27.9c0,15.4-12.4,27.9-27.6,27.9
				C129.6,193.5,117.2,181,117.2,165.5"/>
			<path class="st93" d="M144.8,191.3c-6.7,0-13-2.6-17.8-7.5c-4.7-4.8-7.4-11.2-7.4-18c0-6.8,2.6-13.2,7.4-18
				c4.7-4.8,11.1-7.5,17.8-7.5c6.7,0,13,2.6,17.8,7.5c4.7,4.8,7.4,11.2,7.4,18c0,6.8-2.6,13.2-7.4,18
				C157.8,188.7,151.5,191.3,144.8,191.3 M144.8,141.9c-13,0-23.6,10.7-23.6,23.9c0,13.2,10.6,23.9,23.6,23.9
				c13,0,23.6-10.7,23.6-23.9C168.4,152.7,157.8,141.9,144.8,141.9"/>
			<path class="st93" d="M144.6,180.8v-3.6c-2.5-0.1-4.9-0.8-6.3-1.6l1.1-4.4c1.6,0.9,3.7,1.6,6.1,1.6c2.1,0,3.6-0.8,3.6-2.3
				c0-1.4-1.2-2.3-3.9-3.3c-4-1.3-6.7-3.2-6.7-6.9c0-3.3,2.3-5.9,6.3-6.7v-3.6h3.6v3.3c2.5,0.1,4.1,0.6,5.4,1.2l-1.1,4.2
				c-1-0.4-2.7-1.3-5.3-1.3c-2.4,0-3.2,1.1-3.2,2.1c0,1.2,1.3,2,4.4,3.2c4.4,1.6,6.2,3.6,6.2,7c0,3.3-2.3,6.2-6.6,6.9v3.8H144.6z"/>
			<path class="st94" d="M142.9,180.8v-3.6c-2.5-0.1-4.9-0.8-6.3-1.6l1.1-4.4c1.6,0.9,3.7,1.6,6.1,1.6c2.1,0,3.6-0.8,3.6-2.3
				c0-1.4-1.2-2.3-3.9-3.3c-4-1.3-6.7-3.2-6.7-6.9c0-3.3,2.3-5.9,6.3-6.7v-3.6h3.6v3.3c2.5,0.1,4.1,0.6,5.4,1.2L151,159
				c-1-0.4-2.7-1.3-5.3-1.3c-2.4,0-3.2,1.1-3.2,2.1c0,1.2,1.3,2,4.4,3.2c4.4,1.6,6.2,3.6,6.2,7c0,3.3-2.3,6.2-6.6,6.9v3.8H142.9z"/>
			<g class="st95">
				<g>
					<defs>
						<rect id="SVGID_116_" x="65.1" y="165.7" width="108.5" height="51.1"/>
					</defs>
					<clipPath id="SVGID_117_">
						<use xlink:href="#SVGID_116_"  style="overflow:visible;"/>
					</clipPath>
					<path class="st107" d="M78.6,165.7c30.1,9.2,61.9,12.3,93.8,9.2c0.4,13.5,0.8,27,1.2,40.6c-36.9,3.6-73.7,0-108.5-10.6
						C69.6,191.8,74.1,178.8,78.6,165.7"/>
				</g>
			</g>
			<g class="st95">
				<g>
					<defs>
						<rect id="SVGID_118_" x="69.9" y="169.8" width="101.2" height="44.8"/>
					</defs>
					<clipPath id="SVGID_119_">
						<use xlink:href="#SVGID_118_"  style="overflow:visible;"/>
					</clipPath>
					<path class="st108" d="M170.5,182.7c0.2,8.4,0.4,16.9,0.6,25.3c-3.4,0.3-6.1,2.9-6.1,6c-30.9,2.1-61.6-0.9-91-8.9
						c0.9-3-0.9-6-4.1-7c2.7-8.2,5.5-16.3,8.2-24.5c2.9,0.9,6-0.9,6.9-3.9c25.8,7,52.8,9.6,79.9,7.8
						C164.9,180.7,167.4,183,170.5,182.7"/>
				</g>
			</g>
			<g class="st95">
				<g>
					<defs>
						<rect id="SVGID_120_" x="104.6" y="181.7" width="29.5" height="28"/>
					</defs>
					<clipPath id="SVGID_121_">
						<use xlink:href="#SVGID_120_"  style="overflow:visible;"/>
					</clipPath>
					<path class="st109" d="M104.9,193.7c1.7-7.6,9.1-12.8,16.7-12c7.6,0.8,13.1,7.3,12.4,15c-0.8,7.7-8.3,13.7-16.8,12.8
						C108.7,208.7,103.2,201.3,104.9,193.7"/>
				</g>
			</g>
			<path class="st99" d="M122,184.3c-0.1,0.8-0.2,1.7-0.3,2.5c1.1,0.1,2.2,0.4,3.1,0.8c0.7,0.3,1.1,1.1,0.8,1.9c0,0,0,0.1,0,0.1
				c-0.3,0.8-1.3,1.3-2.1,0.9c-0.8-0.4-1.8-0.6-2.9-0.7c-1.5-0.1-2.7,0.4-2.8,1.4c-0.1,1,0.6,1.7,2.6,2.5c2.8,1.2,4.7,2.6,4.4,5.2
				c-0.3,2.3-2.2,4.1-5.3,4.4c-0.1,0.8-0.2,1.7-0.3,2.5c-0.9-0.1-1.9-0.1-2.8-0.2c0.1-0.8,0.2-1.5,0.3-2.3c-1-0.1-1.9-0.3-2.5-0.6
				c-0.8-0.3-1.2-1.2-0.9-2c0.4-0.8,1.3-1.2,2.2-0.9c0.6,0.2,1.4,0.5,2.4,0.5c1.8,0.2,2.5-0.5,2.6-1.3c0.1-0.9-0.8-1.5-3-2.5
				c-3.1-1.4-4.2-3-3.9-5.4c0.4-2.3,2.4-4.2,5.5-4.4c0.1-0.9,0.3-1.8,0.4-2.7C120.3,184.1,121.1,184.2,122,184.3"/>
			<g class="st95">
				<g>
					<defs>
						<rect id="SVGID_122_" x="138" y="196.1" width="22.7" height="4.3"/>
					</defs>
					<clipPath id="SVGID_123_">
						<use xlink:href="#SVGID_122_"  style="overflow:visible;"/>
					</clipPath>
					<path class="st110" d="M138.4,196.3c7.4,0.2,14.9,0.2,22.3-0.2c0,1.3,0,2.6-0.1,3.9c-7.6,0.4-15.1,0.5-22.6,0.2
						C138.1,198.9,138.3,197.6,138.4,196.3"/>
				</g>
			</g>
			<g class="st95">
				<g>
					<defs>
						<rect id="SVGID_124_" x="78.6" y="187.6" width="22.7" height="8.7"/>
					</defs>
					<clipPath id="SVGID_125_">
						<use xlink:href="#SVGID_124_"  style="overflow:visible;"/>
					</clipPath>
					<path class="st111" d="M79.8,187.6c7.1,1.9,14.3,3.5,21.5,4.8c-0.3,1.3-0.6,2.6-0.9,3.9c-7.4-1.3-14.6-2.9-21.8-4.9
						C79,190.1,79.4,188.8,79.8,187.6"/>
				</g>
			</g>
			<path class="st88" d="M18.8,189.6v8.5h0.1c1.2,2.3,12.3,4,25.8,4c13.5,0,24.6-1.8,25.8-4h0.1v-8.5H18.8z"/>
			<path class="st89" d="M28.2,189.9v11.2c2.6,0.4,5.7,0.7,9,0.8v-12H28.2z"/>
			<path class="st89" d="M38.9,191.9V202c0.7,0,1.5,0.1,2.2,0.1v-10.2H38.9z"/>
			<path class="st90" d="M70.7,189.6c0,2.1-11.6,3.8-25.9,3.8s-25.9-1.7-25.9-3.8c0-2.1,11.6-3.8,25.9-3.8S70.7,187.5,70.7,189.6"/>
			<path class="st88" d="M64.4,189.8c0,1.6-8.8,2.9-19.6,2.9c-10.9,0-19.6-1.3-19.6-2.9c0-1.6,8.8-2.9,19.6-2.9
				C55.6,186.9,64.4,188.2,64.4,189.8"/>
			<path class="st89" d="M62.4,190.1c0,1.4-7.9,2.6-17.7,2.6c-9.8,0-17.7-1.2-17.7-2.6s7.9-2.6,17.7-2.6
				C54.5,187.5,62.4,188.7,62.4,190.1"/>
			<path class="st88" d="M13.6,179.6v8.5h0.1c1.2,2.3,12.3,4,25.8,4c13.5,0,24.6-1.8,25.8-4h0.1v-8.5H13.6z"/>
			<path class="st89" d="M23.1,179.9v11.2c2.6,0.4,5.7,0.7,9,0.8v-12H23.1z"/>
			<path class="st89" d="M33.8,181.9V192c0.7,0,1.5,0.1,2.2,0.1v-10.2H33.8z"/>
			<path class="st90" d="M65.5,179.6c0,2.1-11.6,3.8-25.9,3.8c-14.3,0-25.9-1.7-25.9-3.8c0-2.1,11.6-3.8,25.9-3.8
				C53.9,175.8,65.5,177.5,65.5,179.6"/>
			<path class="st88" d="M59.2,179.8c0,1.6-8.8,2.9-19.6,2.9c-10.8,0-19.6-1.3-19.6-2.9c0-1.6,8.8-2.9,19.6-2.9
				C50.4,176.9,59.2,178.2,59.2,179.8"/>
			<path class="st89" d="M57.3,180.1c0,1.4-7.9,2.6-17.7,2.6c-9.8,0-17.7-1.2-17.7-2.6c0-1.4,7.9-2.6,17.7-2.6
				C49.3,177.5,57.3,178.7,57.3,180.1"/>
			<path class="st88" d="M18.8,169.4v8.5h0.1c1.2,2.3,12.3,4,25.8,4c13.5,0,24.6-1.8,25.8-4h0.1v-8.5H18.8z"/>
			<path class="st89" d="M28.2,169.7v11.2c2.6,0.4,5.7,0.7,9,0.8v-12H28.2z"/>
			<path class="st89" d="M38.9,171.7v10.1c0.7,0,1.5,0.1,2.2,0.1v-10.2H38.9z"/>
			<path class="st90" d="M70.7,169.4c0,2.1-11.6,3.8-25.9,3.8s-25.9-1.7-25.9-3.8s11.6-3.8,25.9-3.8S70.7,167.3,70.7,169.4"/>
			<path class="st88" d="M64.4,169.7c0,1.6-8.8,2.9-19.6,2.9s-19.6-1.3-19.6-2.9c0-1.6,8.8-2.9,19.6-2.9S64.4,168.1,64.4,169.7"/>
			<path class="st89" d="M62.4,170c0,1.4-7.9,2.6-17.7,2.6c-9.8,0-17.7-1.2-17.7-2.6c0-1.4,7.9-2.6,17.7-2.6
				C54.5,167.4,62.4,168.5,62.4,170"/>
			<path class="st88" d="M31.4,158.1v8.5h0.1c1.2,2.3,12.3,4,25.8,4c13.5,0,24.6-1.8,25.8-4h0.1v-8.5H31.4z"/>
			<path class="st89" d="M40.8,158.4v11.2c2.6,0.4,5.7,0.7,9,0.8v-12H40.8z"/>
			<path class="st89" d="M51.5,160.4v10.1c0.7,0,1.5,0.1,2.2,0.1v-10.2H51.5z"/>
			<path class="st90" d="M83.2,158.1c0,2.1-11.6,3.8-25.9,3.8s-25.9-1.7-25.9-3.8s11.6-3.8,25.9-3.8S83.2,156,83.2,158.1"/>
			<path class="st88" d="M77,158.3c0,1.6-8.8,2.9-19.6,2.9s-19.6-1.3-19.6-2.9c0-1.6,8.8-2.9,19.6-2.9S77,156.8,77,158.3"/>
			<path class="st89" d="M75,158.6c0,1.4-7.9,2.6-17.7,2.6c-9.8,0-17.7-1.2-17.7-2.6c0-1.4,7.9-2.6,17.7-2.6
				C67.1,156,75,157.2,75,158.6"/>
			<path class="st91" d="M63.8,211.6c-7.6-13.4-3.1-30.5,10.1-38.2c13.2-7.7,30.1-3.1,37.7,10.2c7.6,13.4,3.1,30.5-10.1,38.2
				C88.2,229.5,71.4,224.9,63.8,211.6"/>
			<path class="st92" d="M61.7,212.8c-7.6-13.4-3.1-30.5,10.1-38.2c13.2-7.7,30.1-3.1,37.7,10.2c7.6,13.4,3.1,30.5-10.1,38.2
				C86.2,230.7,69.3,226.2,61.7,212.8"/>
			<path class="st93" d="M98.3,221.2c-5.8,3.4-12.6,4.3-19.1,2.5c-6.5-1.8-11.9-6-15.3-11.9c-3.4-5.9-4.2-12.8-2.5-19.3
				c1.7-6.6,5.9-12.1,11.7-15.5c5.8-3.4,12.6-4.3,19.1-2.5c6.5,1.8,11.9,6,15.3,11.9c3.4,5.9,4.2,12.8,2.5,19.3
				C108.3,212.3,104.1,217.8,98.3,221.2 M73.9,178.4c-11.3,6.6-15.2,21.3-8.7,32.7c6.5,11.4,21,15.4,32.3,8.8
				c11.3-6.6,15.2-21.3,8.7-32.7C99.7,175.7,85.2,171.8,73.9,178.4"/>
			<path class="st93" d="M92.9,212.1l-1.8-3.1c-2.2,1.2-4.6,1.8-6.2,1.8l-1.2-4.4c1.8,0,4-0.5,6.1-1.7c1.8-1.1,2.7-2.5,1.9-3.8
				c-0.7-1.2-2.2-1.4-5-0.8c-4.1,0.8-7.4,0.6-9.2-2.6c-1.6-2.9-0.9-6.3,2.1-8.9l-1.8-3.1l3.1-1.8l1.6,2.9c2.2-1.2,3.9-1.5,5.3-1.6
				l1.2,4.2c-1,0.1-2.9,0.2-5.2,1.6c-2.1,1.2-2.2,2.5-1.7,3.4c0.6,1.1,2.1,1.1,5.4,0.5c4.6-0.9,7.1,0,8.8,2.9c1.6,2.9,1,6.5-2.3,9.3
				l1.9,3.3L92.9,212.1z"/>
			<path class="st94" d="M91.4,213l-1.8-3.1c-2.2,1.2-4.6,1.8-6.2,1.8l-1.2-4.4c1.8,0,4-0.5,6.1-1.7c1.8-1.1,2.7-2.5,1.9-3.8
				c-0.7-1.2-2.2-1.4-5-0.8c-4.1,0.8-7.4,0.6-9.2-2.6c-1.6-2.9-0.9-6.3,2.1-8.9l-1.8-3.1l3.1-1.8l1.6,2.9c2.2-1.2,3.9-1.5,5.3-1.6
				l1.2,4.2c-1,0.1-2.9,0.2-5.2,1.6c-2.1,1.2-2.2,2.5-1.7,3.4c0.6,1.1,2.1,1.1,5.4,0.5c4.6-0.9,7.1,0,8.8,2.9c1.6,2.9,1,6.5-2.3,9.3
				l1.9,3.3L91.4,213z"/>
		</g>
		<g class="st85">
			<defs>
				<rect id="SVGID_126_" x="3.9" y="4.3" width="192.4" height="192.4"/>
			</defs>
			<clipPath id="SVGID_127_">
				<use xlink:href="#SVGID_126_"  style="overflow:visible;"/>
			</clipPath>
			<path class="st112" d="M146.1,42.8c-1.4,4.3-3.9,7.8-6.9,9.7c3.1,1.9,5.6,5.4,6.9,9.7c1.4-4.3,3.9-7.8,6.9-9.7
				C149.9,50.6,147.5,47.1,146.1,42.8"/>
			<path class="st112" d="M46.8,86.3c-0.8,2.5-2.2,4.5-4,5.6c1.8,1.1,3.2,3.1,4,5.6c0.8-2.5,2.2-4.5,4-5.6
				C49,90.8,47.5,88.8,46.8,86.3"/>
		</g>
	</g>
</g>
</svg>
