<?xml version="1.0" encoding="utf-8"?>
<!-- Generator: Adobe Illustrator 23.0.1, SVG Export Plug-In . SVG Version: 6.00 Build 0)  -->
<svg version="1.1" id="圖層_1" xmlns="http://www.w3.org/2000/svg" xmlns:xlink="http://www.w3.org/1999/xlink" x="0px" y="0px"
	 viewBox="0 0 200 200" style="enable-background:new 0 0 200 200;" xml:space="preserve">
<style type="text/css">
	.st0{clip-path:url(#SVGID_2_);}
	.st1{clip-path:url(#SVGID_4_);}
	.st2{clip-path:url(#SVGID_6_);enable-background:new    ;}
	.st3{clip-path:url(#SVGID_8_);fill:#1270B7;}
	.st4{clip-path:url(#SVGID_6_);fill:#FFFFFF;}
	.st5{clip-path:url(#SVGID_10_);fill:#C38777;}
	.st6{clip-path:url(#SVGID_10_);fill:#F8C6B1;}
	.st7{opacity:0.5;clip-path:url(#SVGID_10_);}
	.st8{clip-path:url(#SVGID_12_);fill:#D7B8A4;}
	.st9{clip-path:url(#SVGID_10_);fill:#F5CE48;}
	.st10{clip-path:url(#SVGID_10_);fill:#FFFFFF;}
	.st11{clip-path:url(#SVGID_10_);fill:#5CA7D1;}
	.st12{opacity:0.3;clip-path:url(#SVGID_10_);}
	.st13{clip-path:url(#SVGID_14_);fill:#F9E6DD;}
	.st14{clip-path:url(#SVGID_10_);fill:#FAD6C9;}
	.st15{opacity:0.14;clip-path:url(#SVGID_10_);}
	.st16{clip-path:url(#SVGID_16_);}
	.st17{clip-path:url(#SVGID_18_);fill:url(#SVGID_19_);}
	.st18{clip-path:url(#SVGID_21_);}
	.st19{clip-path:url(#SVGID_23_);fill:#213159;}
	.st20{clip-path:url(#SVGID_23_);fill:#FFFFFF;}
	.st21{clip-path:url(#SVGID_23_);fill:#2B4670;}
	.st22{clip-path:url(#SVGID_23_);fill:#DF546A;}
	.st23{display:none;}
	.st24{display:inline;}
	.st25{clip-path:url(#SVGID_25_);}
	.st26{clip-path:url(#SVGID_27_);}
	.st27{clip-path:url(#SVGID_29_);enable-background:new    ;}
	.st28{clip-path:url(#SVGID_31_);fill:#1270B7;}
	.st29{clip-path:url(#SVGID_27_);fill:#5CA7D1;}
	.st30{clip-path:url(#SVGID_27_);fill:#FFFFFF;}
	.st31{clip-path:url(#SVGID_33_);fill:#1270B7;}
	.st32{clip-path:url(#SVGID_33_);fill:#F5CE48;}
	.st33{clip-path:url(#SVGID_33_);fill:#F5B538;}
	.st34{clip-path:url(#SVGID_33_);fill:#FFFFFF;}
	.st35{clip-path:url(#SVGID_33_);enable-background:new    ;}
	.st36{clip-path:url(#SVGID_35_);fill:#E74948;}
	.st37{clip-path:url(#SVGID_33_);}
	.st38{clip-path:url(#SVGID_37_);fill:#FFFFFF;}
	.st39{clip-path:url(#SVGID_33_);fill:#5CA7D1;}
	.st40{clip-path:url(#SVGID_39_);}
	.st41{clip-path:url(#SVGID_41_);fill:#DCB28C;}
	.st42{clip-path:url(#SVGID_41_);fill:#FFFFFF;}
	.st43{clip-path:url(#SVGID_41_);fill:#2B4670;}
	.st44{clip-path:url(#SVGID_41_);fill:#CE9B74;}
	.st45{clip-path:url(#SVGID_43_);}
	.st46{clip-path:url(#SVGID_45_);enable-background:new    ;}
	.st47{clip-path:url(#SVGID_47_);fill:#1270B7;}
	.st48{clip-path:url(#SVGID_45_);fill:#5CA7D1;}
	.st49{clip-path:url(#SVGID_45_);fill:#FFFFFF;}
	.st50{clip-path:url(#SVGID_49_);fill:#1270B7;}
	.st51{clip-path:url(#SVGID_45_);fill:#F5CE48;}
	.st52{clip-path:url(#SVGID_45_);fill:#1270B7;}
	.st53{clip-path:url(#SVGID_45_);fill:#E6971F;}
	.st54{clip-path:url(#SVGID_45_);fill:#F5B538;}
	.st55{clip-path:url(#SVGID_51_);}
	.st56{clip-path:url(#SVGID_53_);fill:#FFFFFF;}
	.st57{clip-path:url(#SVGID_53_);fill:#595857;}
	.st58{clip-path:url(#SVGID_53_);fill:#2B4670;}
	.st59{clip-path:url(#SVGID_53_);fill:#717071;}
	.st60{clip-path:url(#SVGID_55_);}
	.st61{clip-path:url(#SVGID_57_);enable-background:new    ;}
	.st62{clip-path:url(#SVGID_59_);fill:#1270B7;}
	.st63{clip-path:url(#SVGID_57_);fill:#FFFFFF;}
	.st64{clip-path:url(#SVGID_61_);fill:#E74948;}
	.st65{clip-path:url(#SVGID_63_);fill:#1270B7;}
	.st66{clip-path:url(#SVGID_65_);fill:#1270B7;}
	.st67{clip-path:url(#SVGID_67_);fill:#1270B7;}
	.st68{clip-path:url(#SVGID_69_);fill:#5CA7D1;}
	.st69{clip-path:url(#SVGID_71_);fill:#F5CE48;}
	.st70{clip-path:url(#SVGID_71_);fill:#1270B7;}
	.st71{clip-path:url(#SVGID_71_);fill:#FFFFFF;}
	.st72{clip-path:url(#SVGID_73_);}
	.st73{clip-path:url(#SVGID_75_);fill:#DCB28C;}
	.st74{clip-path:url(#SVGID_75_);fill:#595857;}
	.st75{clip-path:url(#SVGID_77_);}
	.st76{clip-path:url(#SVGID_79_);}
	.st77{clip-path:url(#SVGID_81_);enable-background:new    ;}
	.st78{clip-path:url(#SVGID_83_);fill:#1270B7;}
	.st79{clip-path:url(#SVGID_81_);fill:#FFFFFF;}
	.st80{clip-path:url(#SVGID_81_);fill:#F5CE48;}
	.st81{clip-path:url(#SVGID_81_);fill:#1270B7;}
	.st82{clip-path:url(#SVGID_81_);}
	.st83{clip-path:url(#SVGID_85_);fill:#A6D9DF;}
	.st84{clip-path:url(#SVGID_87_);fill:#A6D9DF;}
	.st85{clip-path:url(#SVGID_89_);}
	.st86{clip-path:url(#SVGID_91_);enable-background:new    ;}
	.st87{clip-path:url(#SVGID_93_);fill:#1270B7;}
	.st88{clip-path:url(#SVGID_95_);fill:#EAA040;}
	.st89{clip-path:url(#SVGID_95_);fill:#F5CB54;}
	.st90{clip-path:url(#SVGID_95_);fill:#F8E385;}
	.st91{clip-path:url(#SVGID_95_);fill:#E6971F;}
	.st92{clip-path:url(#SVGID_95_);fill:#F5CE48;}
	.st93{clip-path:url(#SVGID_95_);fill:#F5B538;}
	.st94{clip-path:url(#SVGID_95_);fill:#FFFFFF;}
	.st95{clip-path:url(#SVGID_95_);enable-background:new    ;}
	.st96{clip-path:url(#SVGID_97_);fill:#67874D;}
	.st97{clip-path:url(#SVGID_99_);fill:#DEE0C9;}
	.st98{clip-path:url(#SVGID_101_);fill:#67874D;}
	.st99{clip-path:url(#SVGID_95_);fill:#E1DFCD;}
	.st100{clip-path:url(#SVGID_103_);fill:#67874D;}
	.st101{clip-path:url(#SVGID_105_);fill:#67874D;}
	.st102{clip-path:url(#SVGID_107_);fill:#67874D;}
	.st103{clip-path:url(#SVGID_109_);fill:#DEE0C9;}
	.st104{clip-path:url(#SVGID_111_);fill:#67874D;}
	.st105{clip-path:url(#SVGID_113_);fill:#67874D;}
	.st106{clip-path:url(#SVGID_115_);fill:#67874D;}
	.st107{clip-path:url(#SVGID_117_);fill:#67874D;}
	.st108{clip-path:url(#SVGID_119_);fill:#DEE0C9;}
	.st109{clip-path:url(#SVGID_121_);fill:#67874D;}
	.st110{clip-path:url(#SVGID_123_);fill:#67874D;}
	.st111{clip-path:url(#SVGID_125_);fill:#67874D;}
	.st112{clip-path:url(#SVGID_127_);fill:#FFFFFF;}
</style>
<g>
	<g>
		<defs>
			<rect id="SVGID_1_" x="10.7" y="12.7" width="178.8" height="175.6"/>
		</defs>
		<clipPath id="SVGID_2_">
			<use xlink:href="#SVGID_1_"  style="overflow:visible;"/>
		</clipPath>
		<g class="st0">
			<defs>
				<rect id="SVGID_3_" x="10.7" y="12.7" width="178.8" height="175.6"/>
			</defs>
			<clipPath id="SVGID_4_">
				<use xlink:href="#SVGID_3_"  style="overflow:visible;"/>
			</clipPath>
			<g class="st1">
				<defs>
					<rect id="SVGID_5_" x="10.7" y="12.7" width="178.8" height="175.6"/>
				</defs>
				<clipPath id="SVGID_6_">
					<use xlink:href="#SVGID_5_"  style="overflow:visible;"/>
				</clipPath>
				<g class="st2">
					<g>
						<defs>
							<rect id="SVGID_7_" x="10.7" y="12.7" width="178.8" height="175.6"/>
						</defs>
						<clipPath id="SVGID_8_">
							<use xlink:href="#SVGID_7_"  style="overflow:visible;"/>
						</clipPath>
						<path class="st3" d="M189.5,100.4c0,48.5-40,87.8-89.4,87.8s-89.4-39.3-89.4-87.8s40-87.8,89.4-87.8S189.5,52,189.5,100.4"/>
					</g>
				</g>
				<path class="st4" d="M59.2,46c-1.6,4.8-4.4,8.6-7.9,10.8c3.5,2.1,6.3,6,7.9,10.8c1.6-4.8,4.4-8.6,7.9-10.8
					C63.6,54.6,60.8,50.8,59.2,46"/>
				<path class="st4" d="M167.3,119c-0.7,2.3-2.1,4.1-3.7,5.1c1.7,1,3,2.8,3.7,5.1c0.7-2.3,2.1-4.1,3.7-5.1
					C169.3,123.1,168,121.3,167.3,119"/>
			</g>
			<g class="st1">
				<defs>
					<ellipse id="SVGID_9_" cx="100.1" cy="100.4" rx="89.4" ry="87.8"/>
				</defs>
				<clipPath id="SVGID_10_">
					<use xlink:href="#SVGID_9_"  style="overflow:visible;"/>
				</clipPath>
				<path class="st5" d="M62.3,126.1c0,0,8-1.6,10.9-7.6c0,0,9.4,6.1,14.2,4.5c0,0,9.7,9.3,14.3,6c4.6-3.2-3.7-12.9-3.7-12.9
					l-16-14.2l-7.2-1.7l-8.6,1.6c0,0-6.1,2.6-6,3c0.1,0.4-3.3,6.7-3.4,7.4c-0.1,0.6-1.1,6.4-0.7,7.2
					C56.4,120.1,62.3,126.1,62.3,126.1"/>
				<path class="st6" d="M79.4,130.5c0,0.3-15.5-1.7-15.5-1.7s2.1-8-3.4-10.8c0,0,5.8-3.2,5.9-10.4c0,0,7.3-0.9,10.1-4.4l17.3,0.6
					l-1.4-11.2l-7.3-3.2c0,0-6.5-1.7-22,3.2c-12.1,3.8-11,1.6-15.5,13.9c-2.9,8.1-12.8,25.1-13.8,27.8c-1,2.7,2.8,8,6.2,13.9
					c3.4,5.9,19.2,37.9,20.3,43.1c1.1,5.2,20.5,2.8,20.5,2.8L79.4,130.5z"/>
				<path class="st6" d="M77.1,130.2l0,0.2c-3.8-0.4-11.1-1.3-12.7-1.6C69.7,129.5,77.1,130.4,77.1,130.2"/>
				<path class="st6" d="M77.1,130.4c1.4,0.1,2.4,0.2,2.4,0.1l1.4,63.5c0,0-0.9,0.1-2.4,0.2L77.1,130.4z"/>
				<g class="st7">
					<g>
						<defs>
							<rect id="SVGID_11_" x="54.9" y="89.1" width="39" height="39.7"/>
						</defs>
						<clipPath id="SVGID_12_">
							<use xlink:href="#SVGID_11_"  style="overflow:visible;"/>
						</clipPath>
						<path class="st8" d="M93.6,103.8l-17-0.6c-0.1,0.2-0.3,0.4-0.5,0.5c-2.3,2.3-6.6,3.3-8.6,3.7c0,0,0,0,0,0c-0.1,0-0.2,0-0.2,0
							h0c-0.1,0-0.1,0-0.2,0c0,0,0,0,0,0c-0.1,0-0.1,0-0.2,0c0,0,0,0,0,0c-0.1,0-0.1,0-0.1,0c0,0,0,0,0,0c-0.1,0-0.2,0-0.2,0
							c0,0,0,0,0,0c0,0-0.1,0-0.1,0c-0.1,7.2-5.9,10.4-5.9,10.4c5.5,2.7,3.4,10.8,3.4,10.8s0.1,0,0.4,0c-3-0.4-5.4-0.7-5.4-0.7
							s2.5-9.4-4-12.6c0,0,6.9-3.7,6.9-12.3c0,0,8.6-1,11.9-5.2l2.7,0.1c0.5-3.4,1.4-6.6,2.9-9c3.9-0.2,5.7,0.2,5.7,0.2l7.1,3.1
							c0.2,1.4,0.5,3.5,0.8,6.2l0.2,0l0.6,5.1L93.6,103.8z"/>
					</g>
				</g>
				<path class="st9" d="M162.2,102.9l-68,20.9c-3.5,1.1-7.2-0.8-8.3-4.3L72.9,79c-1.1-3.4,0.9-7.1,4.3-8.2l68-20.9
					c3.5-1.1,7.2,0.8,8.3,4.3l12.9,40.5C167.6,98.2,165.7,101.8,162.2,102.9"/>
				<path class="st10" d="M150.9,122.5H75.2c-2.5,0-4.5-2-4.5-4.4V71.5c0-2.4,2-4.4,4.5-4.4h75.6c2.5,0,4.5,2,4.5,4.4v46.7
					C155.3,120.6,153.3,122.5,150.9,122.5"/>
				<path class="st11" d="M112.4,87.8H82.2c-1.1,0-2-0.9-2-2v0c0-1.1,0.9-2,2-2h30.1c1.1,0,2,0.9,2,2v0
					C114.4,86.9,113.5,87.8,112.4,87.8"/>
				<path class="st11" d="M112.4,96.9H82.2c-1.1,0-2-0.9-2-2v0c0-1.1,0.9-2,2-2h30.1c1.1,0,2,0.9,2,2v0
					C114.4,96,113.5,96.9,112.4,96.9"/>
				<path class="st11" d="M112.4,105.9H82.2c-1.1,0-2-0.9-2-2v0c0-1.1,0.9-2,2-2h30.1c1.1,0,2,0.9,2,2v0
					C114.4,105,113.5,105.9,112.4,105.9"/>
				<path class="st11" d="M147.8,112.1H122c-1.5,0-2.7-1.2-2.7-2.6V82.3c0-1.5,1.2-2.6,2.7-2.6h25.8c1.5,0,2.7,1.2,2.7,2.6v27.2
					C150.5,110.9,149.3,112.1,147.8,112.1"/>
				<path class="st10" d="M125.7,111.4v-3.1c0-0.8,0.2-1.7,0.7-2.3c0.8-1,2-1.7,3.3-1.6c1.5,0,2.2,0.8,5.1,0.8s3.6-0.8,5.1-0.8
					c1.3,0,2.6,0.6,3.3,1.6c0.5,0.7,0.7,1.5,0.7,2.3v3.1h3.1v-3.1c0-1.4-0.4-2.8-1.2-4c-1.3-1.9-3.5-3-5.9-2.9
					c-2.1,0-2.7,0.8-5.1,0.8c-2.4,0-3-0.8-5.1-0.8c-2.3,0-4.5,1.1-5.9,2.9c-0.8,1.2-1.2,2.6-1.2,4v3.1H125.7z"/>
				<path class="st10" d="M134.9,99.8c4.2,0,7.6-3.4,7.6-7.5c0-4.1-3.4-7.5-7.6-7.5h0c-4.2,0-7.6,3.4-7.6,7.5
					C127.2,96.5,130.7,99.8,134.9,99.8 M134.9,87.8c2.5,0,4.6,2,4.6,4.5c0,2.5-2.1,4.5-4.6,4.5c-2.5,0-4.6-2-4.6-4.5
					C130.3,89.8,132.3,87.8,134.9,87.8"/>
				<path class="st6" d="M95,92.4c0.7,4,6,50.2,6.3,59.1c0.3,8.9-3.7,18.4-6,24.3c-2.2,5.9,0.2,97.2,0.6,100.8
					c0.4,3.6-34.5-8.3-34.5-8.3l-0.7-73.6l-6.1-48.5L78,130.4c0,0,1-19.2,1.1-26.6c0.1-7.4,2.5-16.1,8.4-16.8
					C94.6,86.1,95,92.4,95,92.4"/>
				<g class="st12">
					<g>
						<defs>
							<rect id="SVGID_13_" x="82.4" y="89" width="5.9" height="11.1"/>
						</defs>
						<clipPath id="SVGID_14_">
							<use xlink:href="#SVGID_13_"  style="overflow:visible;"/>
						</clipPath>
						<path class="st13" d="M88,100.2L88.3,89c-7.2-0.1-5.7,7.3-5.9,10.5L88,100.2z"/>
					</g>
				</g>
				<path class="st14" d="M92.7,100.6c-0.1-2.4,2.7-11.5-4.4-11.6c-7.3-0.2-5.7,7.3-6,10.5"/>
				<path class="st6" d="M95,102.2c-0.1,2-3.4,3.4-7.2,3.2c-3.8-0.3-6.8-2.1-6.7-4.1c0.1-2,3.4-3.4,7.2-3.2
					C92.2,98.3,95.2,100.2,95,102.2"/>
				<g class="st15">
					<g>
						<defs>
							<rect id="SVGID_15_" x="33.6" y="117.6" width="67.3" height="77"/>
						</defs>
						<clipPath id="SVGID_16_">
							<use xlink:href="#SVGID_15_"  style="overflow:visible;"/>
						</clipPath>
						<g class="st16">
							<defs>
								<path id="SVGID_17_" d="M98.5,131.5c2,2.7-13.3,24.1-14.9,27.2c-0.3,0.6-14.1,6.8-15.2,6.9c-5.2,0.6-11.1-7.1-12.8-8.9
									c-2.1-2.2-6.8-7.6-9.5-11.9c-5.5-8.7-7.5-8.8-2.6-20.1c1-2.3-1.1-7.8-1.4-7.1c-0.5,1-7.5,13.5-8.2,16.3
									c-0.8,2.8,2.3,7.2,2,7.3l1.1,1.8c5.9,9,20.3,40.4,20.3,40.4l4.2,11.1l32.7-9.6c-1.2-10.4,4.7-13.3,6.8-30.4
									C101.2,152.2,100.2,133.5,98.5,131.5"/>
							</defs>
							<clipPath id="SVGID_18_">
								<use xlink:href="#SVGID_17_"  style="overflow:visible;"/>
							</clipPath>
							
								<linearGradient id="SVGID_19_" gradientUnits="userSpaceOnUse" x1="26.0209" y1="176.22" x2="26.9097" y2="176.22" gradientTransform="matrix(-82.4368 -138.8803 -138.8803 82.4368 26712.4492 -10712.3535)">
								<stop  offset="0" style="stop-color:#D7B8A4"/>
								<stop  offset="0.2743" style="stop-color:#D7B8A4"/>
								<stop  offset="0.4435" style="stop-color:#DDC1B0"/>
								<stop  offset="0.739" style="stop-color:#EDDBCF"/>
								<stop  offset="1" style="stop-color:#FEF7F1"/>
							</linearGradient>
							<polygon class="st17" points="50.8,224 -1.7,137.2 83.4,87.5 135.9,174.4 							"/>
						</g>
					</g>
				</g>
			</g>
			<g class="st1">
				<defs>
					<rect id="SVGID_20_" x="10.7" y="12.7" width="178.8" height="175.6"/>
				</defs>
				<clipPath id="SVGID_21_">
					<use xlink:href="#SVGID_20_"  style="overflow:visible;"/>
				</clipPath>
				<g class="st18">
					<defs>
						<path id="SVGID_22_" d="M189.5-154.6c0,48.5-40,87.8-89.4,87.8s-89.4-39.3-89.4-87.8c0-48.5,40-87.8,89.4-87.8
							S189.5-203.1,189.5-154.6"/>
					</defs>
					<clipPath id="SVGID_23_">
						<use xlink:href="#SVGID_22_"  style="overflow:visible;"/>
					</clipPath>
					<path class="st19" d="M49-106.6c9.8,0.3,15.3,4.6,19.2,13.1C72.2-85,69-0.6,65.6,50.9l-22,1.8C34,32.9,31.7-58.6,31.8-78.6
						C31.9-100.1,40.1-106.9,49-106.6"/>
					<path class="st20" d="M121.5-111.9l-8.8,185.7c0,0-73.6,1.2-71.5-15.2c2.1-16.3,26.5-164.9,26.5-164.9L121.5-111.9z"/>
					<path class="st21" d="M147.8-6.7c-4.4,12.9,3.9,56.2,6.8,70.8c0.6,3.1,1.1,4.9,1.1,4.9c-10.2,16.3-47.5,16.1-47.5,16.1
						C101,54,97.3,4.4,97.3,4.4l28.6-123.2l34.4,20.2c0,0-1.1,32.5-4.4,52.8C153.2-29.9,150.2-13.5,147.8-6.7"/>
					<path class="st21" d="M42.9-105.3c0,0-3.3,2.9-3.4,3C37.8-100.7,35.3,3.3,35,14.1c-0.3,10.8-5.4,39.5-3.7,47.7
						c3.1,14.6,16.9,19.6,16.9,18.4c0-0.4,5-53.2,7.8-80.8c5.9-59.1,20.6-117.9,20.6-117.9C60.4-116.8,42.9-105.3,42.9-105.3"/>
					<path class="st22" d="M65.7,20.7c0.4,4.3,2.4,8.4,5.7,11.3l5.1,4.6c1.3,1.2,3.3,1,4.4-0.3l6.4-7.9c1.7-2.1,2.5-4.8,2.2-7.5
						C89,14.9,87.8,3.4,87-7.8c-0.7-9-1.3-17.8-1.3-23.2c-0.1-17,3.3-71.4,3.3-71.4l-4.2,0.2c0,0-5.9,21.8-11.3,50.5
						C72.1-44.6,64,1.1,65.7,20.7"/>
					<path class="st19" d="M154.6,64.1c-10.5-10.8-28.8-32-28.1-49.4C127.3-9.6,143-87.7,143-87.7c-2.7,16.1,7.2,74.1,4.8,81
						C143.4,6.2,151.7,49.5,154.6,64.1"/>
					<path class="st21" d="M140.4-76c0,0-5.2-25.6,14.9-23.8c20.1,1.7,19.8,34.1,22,57.7c1.5,15.9,2.6,24.6-0.1,40.2
						c-0.4,2.4-1.7,7.2-4.9,12.8c-15,26.4-30,54.5-30,54.5l-20.7-8.3L144.9-1L140.4-76z"/>
				</g>
			</g>
		</g>
	</g>
</g>
<g class="st23">
	<g class="st24">
		<defs>
			<rect id="SVGID_24_" x="3.9" y="4.3" width="192.4" height="192.4"/>
		</defs>
		<clipPath id="SVGID_25_">
			<use xlink:href="#SVGID_24_"  style="overflow:visible;"/>
		</clipPath>
		<g class="st25">
			<defs>
				<rect id="SVGID_26_" x="3.9" y="4.3" width="192.4" height="192.4"/>
			</defs>
			<clipPath id="SVGID_27_">
				<use xlink:href="#SVGID_26_"  style="overflow:visible;"/>
			</clipPath>
			<g class="st26">
				<defs>
					<rect id="SVGID_28_" x="3.9" y="4.3" width="192.4" height="192.4"/>
				</defs>
				<clipPath id="SVGID_29_">
					<use xlink:href="#SVGID_28_"  style="overflow:visible;"/>
				</clipPath>
				<g class="st27">
					<g>
						<defs>
							<rect id="SVGID_30_" x="3.9" y="4.3" width="192.4" height="192.4"/>
						</defs>
						<clipPath id="SVGID_31_">
							<use xlink:href="#SVGID_30_"  style="overflow:visible;"/>
						</clipPath>
						<path class="st28" d="M196.3,100.4c0,53.1-43.1,96.2-96.2,96.2S3.9,153.6,3.9,100.4S47,4.3,100.1,4.3S196.3,47.3,196.3,100.4"
							/>
					</g>
				</g>
			</g>
			<polygon class="st29" points="30.8,100.7 28.1,96.7 79.5,60.7 96.6,79.7 132.6,50.7 135.7,54.4 96.1,86.3 78.8,67.1 			"/>
			<rect x="83.1" y="66.1" class="st30" width="13.1" height="70.4"/>
			<rect x="65.3" y="81.1" class="st30" width="13.1" height="55.5"/>
			<rect x="101" y="84.2" class="st30" width="13.1" height="52.3"/>
			<rect x="47.4" y="93.8" class="st30" width="13.1" height="42.8"/>
			<g class="st26">
				<defs>
					<rect id="SVGID_32_" x="3.9" y="4.3" width="192.4" height="192.4"/>
				</defs>
				<clipPath id="SVGID_33_">
					<use xlink:href="#SVGID_32_"  style="overflow:visible;"/>
				</clipPath>
				<path class="st31" d="M147.3,85.2l-2.5,8.1l-0.2,0.6l-1.2,3.8l0,0l-3.9,0l-15.1-0.1l-1.2-3.1l-0.2-0.5l-3-8.3
					C129.1,88.7,136.5,81.7,147.3,85.2"/>
				<path class="st31" d="M140.8,84.2c2,0,4.2,0.3,6.5,1l-2.5,8.1l-0.2,0.6l-1.2,3.8l0,0l-3.9,0l-15.1-0.1l-1.2-3.1l-0.2-0.5l-3-8.3
					c1.7,0.6,3.3,0.8,4.9,0.8C130.2,86.4,135.1,84.2,140.8,84.2 M112.1,78l3.4,9.4l3,8.3l0.2,0.5l1.1,3.1l1.2,3.1l3.3,0l15.1,0.1
					l3.9,0l3.6,0l1.1-3.4l1.2-3.8l0.2-0.6l2.5-8.1l1.4-4.5l-4.5-1.5c-2.6-0.9-5.2-1.3-8-1.3c-3.5,0-6.6,0.7-9.4,1.3
					c-2.3,0.5-4.5,1-6.5,1c-1.2,0-2.3-0.2-3.4-0.5L112.1,78z"/>
				<path class="st31" d="M144.6,93.9l-1.2,3.8l-3.9,0l-15.1-0.1l-1.2-3.1C128.5,94.3,137.4,94,144.6,93.9"/>
				<path class="st31" d="M144.6,93.9l-1.2,3.8l-3.9,0l-15.1-0.1l-1.2-3.1C128.5,94.3,137.4,94,144.6,93.9 M151.2,89l-6.6,0.1
					c-8.4,0.1-18.5,0.4-21.4,0.5l-6.7,0.2l2.3,6.3l1.2,3.1l1.2,3.1l3.3,0l15.1,0.1l4,0l3.6,0l1-3.4l1.2-3.8L151.2,89z M144.6,98.8
					L144.6,98.8L144.6,98.8z"/>
				<path class="st31" d="M162.2,139.3c-0.7,2.5-2.2,4.6-4.2,6.1c-2,1.5-4.4,2.4-7,2.4l-34.2,0.5c-4.9,0.1-9.3-3.2-10.7-7.9
					c-0.8-2.7-1.3-5.5-1.4-8.3c0-0.3,0-0.5,0-0.8c0-0.3,0-0.6,0-1c0.1-10.1,4.9-19.5,12.7-25.9l8.1-6.6l18.7,0.1l10.4,9.7
					c1.5,1.4,2.8,2.9,3.8,4.6c1.3,2,2.3,4.2,3.1,6.4C164,125.2,164.2,132.4,162.2,139.3"/>
				<path class="st31" d="M125.5,97.8l18.7,0.1l10.4,9.7c1.5,1.4,2.8,2.9,3.8,4.6c1.3,2,2.3,4.2,3.1,6.4c2.3,6.6,2.6,13.8,0.6,20.6
					c-0.7,2.5-2.2,4.6-4.2,6.1c-2,1.5-4.4,2.4-7,2.4l-34.2,0.5c-0.1,0-0.1,0-0.2,0c-4.9,0-9.2-3.2-10.5-7.9
					c-0.8-2.7-1.3-5.5-1.4-8.3c0-0.3,0-0.5,0-0.8c0-0.3,0-0.6,0-0.9c0.1-10.1,4.9-19.5,12.7-25.9L125.5,97.8z M123.8,93l-1.3,1.1
					l-8.1,6.6c-9.1,7.4-14.3,18.2-14.5,29.6c0,0.4,0,0.7,0,1.1c0,0.3,0,0.6,0,0.9c0.1,3.2,0.6,6.4,1.6,9.5c2,6.7,8.2,11.4,15.2,11.4
					l0.3,0l34.2-0.5c3.6-0.1,7-1.2,9.8-3.4c2.9-2.2,4.9-5.1,5.9-8.6c2.3-7.8,2.1-16-0.7-23.6c-0.9-2.6-2.1-5-3.6-7.3
					c-1.2-2-2.8-3.8-4.7-5.6l-10.4-9.7l-1.4-1.3l-1.9,0L125.6,93L123.8,93z"/>
				<path class="st31" d="M131.8,139l-0.1-3.6c-2.6-0.1-5-0.7-6.5-1.5l1.1-4.5c1.6,0.8,3.9,1.6,6.3,1.6c2.2,0,3.6-0.9,3.6-2.4
					c0-1.4-1.3-2.3-4.1-3.2c-4.1-1.3-6.9-3.2-7-6.9c-0.1-3.3,2.3-6,6.3-6.9l-0.1-3.6l3.7-0.1l0.1,3.3c2.6,0.1,4.3,0.6,5.5,1.2
					l-1,4.3c-1-0.4-2.8-1.3-5.5-1.2c-2.5,0-3.3,1.1-3.2,2.2c0,1.3,1.4,2,4.6,3.2c4.6,1.5,6.4,3.6,6.5,7c0.1,3.4-2.3,6.3-6.7,7.1
					l0.1,3.9L131.8,139z"/>
				<path class="st31" d="M135.2,107.9l0.1,3.3c2.6,0.1,4.3,0.6,5.5,1.2l-1,4.3c-1-0.4-2.7-1.2-5.3-1.2c-0.1,0-0.1,0-0.2,0
					c-2.5,0-3.3,1.1-3.2,2.2c0,1.3,1.4,2,4.6,3.2c4.6,1.5,6.4,3.6,6.5,7c0.1,3.4-2.3,6.3-6.7,7.1l0.1,3.9l-3.7,0.1l-0.1-3.6
					c-2.6-0.1-5-0.7-6.5-1.5l1.1-4.5c1.6,0.8,3.8,1.6,6.2,1.6c0.1,0,0.1,0,0.2,0c2.2,0,3.6-0.9,3.6-2.4c0-1.4-1.3-2.3-4.1-3.2
					c-4.1-1.3-6.9-3.2-7-6.9c-0.1-3.4,2.3-6,6.3-6.9l-0.1-3.6L135.2,107.9z M139.9,103l-4.8,0.1l-3.7,0.1l-4.8,0.1l0.1,4.8l0,0.2
					c-4,2.1-6.3,5.8-6.3,10.3c0,2.4,0.7,4.4,2.1,6.2l-0.9,3.5l-1.1,4.5l-0.9,3.6l3.2,1.8c1.1,0.6,2.6,1.2,4.1,1.5l0.1,4.3l4.8-0.1
					l3.7-0.1l4.8-0.1l-0.1-4.8l0-0.4c4.1-2.1,6.7-6,6.6-10.6c-0.1-3.5-1.4-5.9-3-7.7l0.6-2.3l1-4.3l0.9-3.8l-3.6-1.7
					c-0.9-0.4-1.8-0.7-2.8-1L139.9,103z"/>
				<path class="st31" d="M147,101l-25.7,0.4c-1.3,0-2.4-1-2.4-2.3l0-0.1c0-1.3,1-2.4,2.3-2.4l25.7-0.4c1.3,0,2.4,1,2.4,2.3l0,0.1
					C149.4,99.9,148.3,100.9,147,101"/>
				<path class="st31" d="M147,96.1c1.3,0,2.3,1,2.4,2.3l0,0.1c0,1.3-1,2.4-2.3,2.4l-25.7,0.4c0,0,0,0,0,0c-1.3,0-2.3-1-2.4-2.3
					l0-0.1c0-1.3,1-2.4,2.3-2.4L147,96.1C147,96.1,147,96.1,147,96.1 M147,91.3L147,91.3l-0.1,0l-25.7,0.4c-4,0.1-7.1,3.3-7.1,7.3
					l0,0.1c0.1,3.9,3.3,7.1,7.2,7.1h0l0.1,0l25.7-0.4c1.9,0,3.7-0.8,5-2.2c1.3-1.4,2.1-3.2,2-5.1l0-0.1
					C154.1,94.5,150.9,91.3,147,91.3"/>
				<path class="st32" d="M147.3,85.2l-2.5,8.1l-0.2,0.6l-1.2,3.8l0,0l-3.9,0l-15.1-0.1l-1.2-3.1l-0.2-0.5l-3-8.3
					C129.1,88.7,136.5,81.7,147.3,85.2"/>
				<path class="st33" d="M144.6,93.9l-1.2,3.8l-3.9,0l-15.1-0.1l-1.2-3.1C128.5,94.3,137.4,94,144.6,93.9"/>
				<path class="st32" d="M162.2,139.3c-0.7,2.5-2.2,4.6-4.2,6.1c-2,1.5-4.4,2.4-7,2.4l-34.2,0.5c-4.9,0.1-9.3-3.2-10.7-7.9
					c-0.8-2.7-1.3-5.5-1.4-8.3c0-0.3,0-0.5,0-0.8c0-0.3,0-0.6,0-1c0.1-10.1,4.9-19.5,12.7-25.9l8.1-6.6l18.7,0.1l10.4,9.7
					c1.5,1.4,2.8,2.9,3.8,4.6c1.3,2,2.3,4.2,3.1,6.4C164,125.2,164.2,132.4,162.2,139.3"/>
				<path class="st34" d="M131.8,139l-0.1-3.6c-2.6-0.1-5-0.7-6.5-1.5l1.1-4.5c1.6,0.8,3.9,1.6,6.3,1.6c2.2,0,3.6-0.9,3.6-2.4
					c0-1.4-1.3-2.3-4.1-3.2c-4.1-1.3-6.9-3.2-7-6.9c-0.1-3.3,2.3-6,6.3-6.9l-0.1-3.6l3.7-0.1l0.1,3.3c2.6,0.1,4.3,0.6,5.5,1.2
					l-1,4.3c-1-0.4-2.8-1.3-5.5-1.2c-2.5,0-3.3,1.1-3.2,2.2c0,1.3,1.4,2,4.6,3.2c4.6,1.5,6.4,3.6,6.5,7c0.1,3.4-2.3,6.3-6.7,7.1
					l0.1,3.9L131.8,139z"/>
				<g class="st35">
					<g>
						<defs>
							<rect id="SVGID_34_" x="118.9" y="96.1" width="30.4" height="5.2"/>
						</defs>
						<clipPath id="SVGID_35_">
							<use xlink:href="#SVGID_34_"  style="overflow:visible;"/>
						</clipPath>
						<path class="st36" d="M147,101l-25.7,0.4c-1.3,0-2.4-1-2.4-2.3l0-0.1c0-1.3,1-2.4,2.3-2.4l25.7-0.4c1.3,0,2.4,1,2.4,2.3l0,0.1
							C149.4,99.9,148.3,100.9,147,101"/>
					</g>
				</g>
				<path class="st33" d="M162.2,139.3c-0.7,2.5-2.2,4.6-4.2,6.1c-2,1.5-4.4,2.4-7,2.4l-34.2,0.5c-4.9,0.1-9.3-3.2-10.7-7.9
					c-0.8-2.7-1.3-5.5-1.4-8.3c5.7,5.3,12.5,12.2,28.1,12.2c19.3,0,27.5-9.2,28.8-25.7C164,125.2,164.2,132.4,162.2,139.3"/>
				<g class="st37">
					<g>
						<defs>
							<rect id="SVGID_36_" x="112.2" y="103.7" width="13" height="13"/>
						</defs>
						<clipPath id="SVGID_37_">
							<use xlink:href="#SVGID_36_"  style="overflow:visible;"/>
						</clipPath>
						<path class="st38" d="M124.9,104c1.2,1.2-2.1,3.4-5.6,6.8c-3.4,3.4-5.6,6.8-6.8,5.6c-1.2-1.2,0.6-4.9,4-8.3
							C120,104.7,123.7,102.8,124.9,104"/>
					</g>
				</g>
				<polygon class="st39" points="128.8,47.3 140.9,46.7 138,58.4 				"/>
			</g>
			<g class="st26">
				<defs>
					<rect id="SVGID_38_" x="3.9" y="4.3" width="192.4" height="192.4"/>
				</defs>
				<clipPath id="SVGID_39_">
					<use xlink:href="#SVGID_38_"  style="overflow:visible;"/>
				</clipPath>
				<g class="st40">
					<defs>
						<path id="SVGID_40_" d="M196.3-179c0,53.1-43.1,96.2-96.2,96.2S3.9-125.9,3.9-179c0-53.1,43.1-96.2,96.2-96.2
							S196.3-232.1,196.3-179"/>
					</defs>
					<clipPath id="SVGID_41_">
						<use xlink:href="#SVGID_40_"  style="overflow:visible;"/>
					</clipPath>
					<path class="st41" d="M157.1-126.3c-10.5,0.1-16.6,4.7-21,13.9c-4.4,9.2-3,101.8-0.6,158.3l23.6,2.5
						c10.8-21.5,15.4-121.7,15.8-143.7C175.3-118.8,166.7-126.4,157.1-126.3"/>
					<path class="st42" d="M79.2-133.8l5.1,203.6c0,0,79.1,3,77.2-15c-1.9-18-24.7-181.2-24.7-181.2L79.2-133.8z"/>
					<path class="st41" d="M48.5-19.1c4.4,14.2-5.5,61.4-9,77.4c-0.8,3.4-1.3,5.4-1.3,5.4c10.6,18.1,50.7,18.7,50.7,18.7
						c8.4-34,13.6-88.2,13.6-88.2L74.6-141.5l-37.4,21.3c0,0,0.4,35.6,3.5,57.9C43.2-44.7,46.1-26.7,48.5-19.1"/>
					<path class="st41" d="M127.7-140c0,0,14.5,64.7,19.4,129.6c2.3,30.3,6.5,88.3,6.5,88.7c0,1.2,14.9-3.8,18.6-19.8
						c2-8.8-2.8-40.4-2.9-52.3c-0.1-11.8-0.3-125.8-2.1-127.7c0-0.1-3.5-3.3-3.5-3.3S145-137.8,127.7-140"/>
					<path class="st43" d="M136.1,12.8c-0.5,4.7-2.8,9.1-6.4,12.3l-5.6,5c-1.4,1.2-3.6,1-4.7-0.5l-6.6-8.8c-1.8-2.4-2.6-5.3-2.2-8.3
						c0.8-6.6,2.2-19.2,3.5-31.4c1-9.9,1.8-19.5,2-25.3c0.5-18.7-1.9-78.3-1.9-78.3l4.5,0.3c0,0,5.8,24,11,55.6
						C130.7-58.9,138.4-8.7,136.1,12.8"/>
					<path class="st44" d="M39.5,58.3C51.1,46.7,71.2,23.9,70.9,4.8c-0.4-26.7-15.4-112.5-15.4-112.5c2.5,17.7-9.5,81-7.1,88.6
						C52.9-4.9,43,42.3,39.5,58.3"/>
					<path class="st41" d="M60.6-94.8c0,0,3.6-28-18.1-26.5c-21.7,1.5-25.3,36.9-28.3,62.6c-2,17.3-3.3,26.9-0.9,44.1
						c0.4,2.7,2.3,7.9,5.6,14.1c15.5,29.2,33.5,60.4,33.5,60.4l22.5-8.6L51.4-12.8L60.6-94.8z"/>
				</g>
			</g>
		</g>
	</g>
</g>
<g class="st23">
	<g class="st24">
		<defs>
			<rect id="SVGID_42_" x="3.9" y="4.3" width="192.4" height="192.4"/>
		</defs>
		<clipPath id="SVGID_43_">
			<use xlink:href="#SVGID_42_"  style="overflow:visible;"/>
		</clipPath>
		<g class="st45">
			<defs>
				<rect id="SVGID_44_" x="3.9" y="4.3" width="192.4" height="192.4"/>
			</defs>
			<clipPath id="SVGID_45_">
				<use xlink:href="#SVGID_44_"  style="overflow:visible;"/>
			</clipPath>
			<g class="st46">
				<g>
					<defs>
						<rect id="SVGID_46_" x="3.9" y="4.3" width="192.4" height="192.4"/>
					</defs>
					<clipPath id="SVGID_47_">
						<use xlink:href="#SVGID_46_"  style="overflow:visible;"/>
					</clipPath>
					<path class="st47" d="M196.3,100.4c0,53.1-43.1,96.2-96.2,96.2S3.9,153.6,3.9,100.4S47,4.3,100.1,4.3S196.3,47.3,196.3,100.4"
						/>
				</g>
			</g>
			<path class="st48" d="M122.8,149.7H58.3c-3.1,0-5.5-2.5-5.5-5.5V58.6c0-3.1,2.5-5.5,5.5-5.5h64.5c3.1,0,5.5,2.5,5.5,5.5v85.6
				C128.4,147.2,125.9,149.7,122.8,149.7"/>
			<path class="st49" d="M122.8,145.8H58.3c-3.1,0-5.5-2.5-5.5-5.5V54.7c0-3.1,2.5-5.5,5.5-5.5h64.5c3.1,0,5.5,2.5,5.5,5.5v85.6
				C128.4,143.3,125.9,145.8,122.8,145.8"/>
			<g class="st46">
				<g>
					<defs>
						<rect id="SVGID_48_" x="82.1" y="55.5" width="16.9" height="2.8"/>
					</defs>
					<clipPath id="SVGID_49_">
						<use xlink:href="#SVGID_48_"  style="overflow:visible;"/>
					</clipPath>
					<path class="st50" d="M97.6,58.3H83.5c-0.8,0-1.4-0.6-1.4-1.4v0c0-0.8,0.6-1.4,1.4-1.4h14.1c0.8,0,1.4,0.6,1.4,1.4v0
						C99,57.7,98.4,58.3,97.6,58.3"/>
				</g>
			</g>
			<path class="st51" d="M115.1,78.4H66.4c-3.1,0-5.7-2.5-5.7-5.7v0c0-3.1,2.5-5.7,5.7-5.7h48.7c3.1,0,5.7,2.5,5.7,5.7v0
				C120.8,75.9,118.3,78.4,115.1,78.4"/>
			<path class="st52" d="M117.3,94.7H114c-1.9,0-3.5-1.6-3.5-3.5v0c0-1.9,1.6-3.5,3.5-3.5h3.3c1.9,0,3.5,1.6,3.5,3.5v0
				C120.8,93.1,119.2,94.7,117.3,94.7"/>
			<path class="st52" d="M100.7,94.7h-3.3c-1.9,0-3.5-1.6-3.5-3.5v0c0-1.9,1.6-3.5,3.5-3.5h3.3c1.9,0,3.5,1.6,3.5,3.5v0
				C104.3,93.1,102.7,94.7,100.7,94.7"/>
			<path class="st52" d="M84.2,94.7h-3.3c-1.9,0-3.5-1.6-3.5-3.5v0c0-1.9,1.6-3.5,3.5-3.5h3.3c1.9,0,3.5,1.6,3.5,3.5v0
				C87.7,93.1,86.1,94.7,84.2,94.7"/>
			<path class="st52" d="M67.6,94.7h-3.3c-1.9,0-3.5-1.6-3.5-3.5v0c0-1.9,1.6-3.5,3.5-3.5h3.3c1.9,0,3.5,1.6,3.5,3.5v0
				C71.1,93.1,69.5,94.7,67.6,94.7"/>
			<path class="st52" d="M117.3,107.4H114c-1.9,0-3.5-1.6-3.5-3.5v0c0-1.9,1.6-3.5,3.5-3.5h3.3c1.9,0,3.5,1.6,3.5,3.5v0
				C120.8,105.9,119.2,107.4,117.3,107.4"/>
			<path class="st52" d="M100.7,107.4h-3.3c-1.9,0-3.5-1.6-3.5-3.5v0c0-1.9,1.6-3.5,3.5-3.5h3.3c1.9,0,3.5,1.6,3.5,3.5v0
				C104.3,105.9,102.7,107.4,100.7,107.4"/>
			<path class="st52" d="M84.2,107.4h-3.3c-1.9,0-3.5-1.6-3.5-3.5v0c0-1.9,1.6-3.5,3.5-3.5h3.3c1.9,0,3.5,1.6,3.5,3.5v0
				C87.7,105.9,86.1,107.4,84.2,107.4"/>
			<path class="st52" d="M67.6,107.4h-3.3c-1.9,0-3.5-1.6-3.5-3.5v0c0-1.9,1.6-3.5,3.5-3.5h3.3c1.9,0,3.5,1.6,3.5,3.5v0
				C71.1,105.9,69.5,107.4,67.6,107.4"/>
			<path class="st52" d="M117.3,120.2H114c-1.9,0-3.5-1.6-3.5-3.5v0c0-1.9,1.6-3.5,3.5-3.5h3.3c1.9,0,3.5,1.6,3.5,3.5v0
				C120.8,118.7,119.2,120.2,117.3,120.2"/>
			<path class="st52" d="M100.7,120.2h-3.3c-1.9,0-3.5-1.6-3.5-3.5v0c0-1.9,1.6-3.5,3.5-3.5h3.3c1.9,0,3.5,1.6,3.5,3.5v0
				C104.3,118.7,102.7,120.2,100.7,120.2"/>
			<path class="st52" d="M84.2,120.2h-3.3c-1.9,0-3.5-1.6-3.5-3.5v0c0-1.9,1.6-3.5,3.5-3.5h3.3c1.9,0,3.5,1.6,3.5,3.5v0
				C87.7,118.7,86.1,120.2,84.2,120.2"/>
			<path class="st52" d="M67.6,120.2h-3.3c-1.9,0-3.5-1.6-3.5-3.5v0c0-1.9,1.6-3.5,3.5-3.5h3.3c1.9,0,3.5,1.6,3.5,3.5v0
				C71.1,118.7,69.5,120.2,67.6,120.2"/>
			<path class="st52" d="M117.3,133.5H114c-1.9,0-3.5-1.6-3.5-3.5v0c0-1.9,1.6-3.5,3.5-3.5h3.3c1.9,0,3.5,1.6,3.5,3.5v0
				C120.8,131.9,119.2,133.5,117.3,133.5"/>
			<path class="st52" d="M100.7,133.5h-3.3c-1.9,0-3.5-1.6-3.5-3.5v0c0-1.9,1.6-3.5,3.5-3.5h3.3c1.9,0,3.5,1.6,3.5,3.5v0
				C104.3,131.9,102.7,133.5,100.7,133.5"/>
			<path class="st52" d="M84.2,133.5h-3.3c-1.9,0-3.5-1.6-3.5-3.5v0c0-1.9,1.6-3.5,3.5-3.5h3.3c1.9,0,3.5,1.6,3.5,3.5v0
				C87.7,131.9,86.1,133.5,84.2,133.5"/>
			<path class="st52" d="M67.6,133.5h-3.3c-1.9,0-3.5-1.6-3.5-3.5v0c0-1.9,1.6-3.5,3.5-3.5h3.3c1.9,0,3.5,1.6,3.5,3.5v0
				C71.1,131.9,69.5,133.5,67.6,133.5"/>
			<path class="st52" d="M109.8,122.7c0-15.3,12.4-27.7,27.7-27.7c15.3,0,27.7,12.4,27.7,27.7c0,15.3-12.4,27.7-27.7,27.7
				S109.8,138,109.8,122.7"/>
			<path class="st52" d="M137.5,95c15.3,0,27.7,12.4,27.7,27.7c0,15.3-12.4,27.7-27.7,27.7c-15.3,0-27.7-12.4-27.7-27.7
				C109.8,107.4,122.2,95,137.5,95 M137.5,90.1L137.5,90.1c-8.7,0-16.9,3.4-23,9.5c-6.2,6.2-9.5,14.3-9.5,23
				c0,18,14.6,32.6,32.6,32.6c8.7,0,16.9-3.4,23-9.5c6.2-6.2,9.5-14.3,9.5-23C170.1,104.7,155.5,90.1,137.5,90.1"/>
			<path class="st52" d="M107.4,122.7c0-15.3,12.4-27.7,27.7-27.7c15.3,0,27.7,12.4,27.7,27.7c0,15.3-12.4,27.7-27.7,27.7
				S107.4,138,107.4,122.7"/>
			<path class="st52" d="M135.1,95c15.3,0,27.7,12.4,27.7,27.7c0,15.3-12.4,27.7-27.7,27.7c-15.3,0-27.7-12.4-27.7-27.7
				C107.4,107.4,119.8,95,135.1,95 M135.1,90.1L135.1,90.1c-8.7,0-16.9,3.4-23,9.5c-6.2,6.2-9.5,14.3-9.5,23
				c0,18,14.6,32.6,32.6,32.6c8.7,0,16.9-3.4,23-9.5c6.2-6.2,9.5-14.3,9.5-23C167.7,104.7,153.1,90.1,135.1,90.1"/>
			<path class="st52" d="M135.1,148.3c-6.8,0-13.1-2.6-17.9-7.4c-4.8-4.8-7.4-11.1-7.4-17.9c0-6.8,2.6-13.1,7.4-17.9
				c4.8-4.8,11.1-7.4,17.9-7.4c6.8,0,13.1,2.6,17.9,7.4c4.8,4.8,7.4,11.1,7.4,17.9s-2.6,13.1-7.4,17.9
				C148.2,145.7,141.9,148.3,135.1,148.3 M135.1,99.3c-13.1,0-23.8,10.7-23.8,23.8c0,13.1,10.7,23.8,23.8,23.8
				c13.1,0,23.8-10.7,23.8-23.8C158.9,109.9,148.2,99.3,135.1,99.3"/>
			<path class="st52" d="M135.1,97.7c6.8,0,13.1,2.6,17.9,7.4c4.8,4.8,7.4,11.1,7.4,17.9s-2.6,13.1-7.4,17.9
				c-4.8,4.8-11.1,7.4-17.9,7.4s-13.1-2.6-17.9-7.4c-4.8-4.8-7.4-11.1-7.4-17.9c0-6.8,2.6-13.1,7.4-17.9
				C122,100.4,128.4,97.7,135.1,97.7 M135.1,146.8L135.1,146.8c13.1,0,23.8-10.7,23.8-23.8c0-13.1-10.7-23.8-23.8-23.8
				c-13.1,0-23.8,10.7-23.8,23.8C111.3,136.1,122,146.8,135.1,146.8 M135.1,92.9L135.1,92.9c-8,0-15.6,3.1-21.3,8.8
				c-5.7,5.7-8.8,13.2-8.8,21.3c0,8,3.1,15.6,8.8,21.3c5.7,5.7,13.2,8.8,21.3,8.8s15.6-3.1,21.3-8.8c5.7-5.7,8.8-13.2,8.8-21.3
				c0-8-3.1-15.6-8.8-21.3C150.7,96.1,143.2,92.9,135.1,92.9 M135.1,142c-10.4,0-18.9-8.5-18.9-18.9c0-5.1,2-9.8,5.6-13.4
				c3.6-3.6,8.3-5.6,13.4-5.6v-4.8v4.8c10.4,0,18.9,8.5,18.9,18.9c0,5.1-2,9.8-5.6,13.4C144.9,140,140.2,142,135.1,142"/>
			<path class="st52" d="M134.6,141.1v-4.3c-3-0.1-6-1-7.7-1.9l1.4-5.3c1.9,1,4.6,2,7.5,2c2.6,0,4.4-1,4.4-2.8
				c0-1.7-1.5-2.8-4.8-3.9c-4.9-1.6-8.2-3.9-8.2-8.3c0-4,2.8-7.1,7.7-8.1v-4.3h4.4v4c3,0.1,5.1,0.8,6.6,1.5l-1.3,5.1
				c-1.2-0.5-3.3-1.5-6.5-1.5c-2.9,0-3.9,1.3-3.9,2.5c0,1.5,1.6,2.4,5.4,3.9c5.4,1.9,7.6,4.4,7.6,8.5c0,4-2.9,7.5-8.1,8.4v4.6H134.6
				z"/>
			<path class="st52" d="M139.3,104.1v4c3,0.1,5.1,0.8,6.6,1.5l-1.3,5.1c-1.2-0.5-3.3-1.5-6.5-1.5c-2.9,0-3.9,1.3-3.9,2.5
				c0,1.5,1.6,2.4,5.4,3.9c5.4,1.9,7.6,4.4,7.6,8.5c0,4-2.9,7.5-8.1,8.4v4.6h-4.4v-4.3c-3-0.1-6-1-7.7-1.9l1.4-5.3
				c1.9,1,4.6,2,7.5,2c2.6,0,4.4-1,4.4-2.8c0-1.7-1.5-2.8-4.8-3.9c-4.9-1.6-8.2-3.9-8.2-8.3c0-4,2.8-7.1,7.7-8.1v-4.3H139.3z
				 M144.1,99.2h-4.8h-4.4H130v4.8v0.8c-4.8,2.2-7.7,6.4-7.7,11.6c0,3.1,1,5.4,2.4,7.2l-1.2,4.6l-1.4,5.3l-0.9,3.5l3.2,1.8
				c1.5,0.8,3.3,1.5,5.3,2v0.1l0,4.8h4.8h4.4h4.8v-4.8V140c5-2.2,8.1-6.6,8.1-11.9c0-4.1-1.6-6.9-3.6-8.9l0.8-3.3l1.3-5.1l1-3.8
				l-3.6-1.7c-1.2-0.6-2.5-1-3.9-1.4V99.2z"/>
			<path class="st52" d="M132.6,141.1v-4.3c-3-0.1-6-1-7.7-1.9l1.4-5.3c1.9,1,4.6,2,7.5,2c2.6,0,4.4-1,4.4-2.8
				c0-1.7-1.5-2.8-4.8-3.9c-4.9-1.6-8.2-3.9-8.2-8.3c0-4,2.8-7.1,7.7-8.1v-4.3h4.4v4c3,0.1,5.1,0.8,6.6,1.5l-1.3,5.1
				c-1.2-0.5-3.3-1.5-6.5-1.5c-2.9,0-3.9,1.3-3.9,2.5c0,1.5,1.6,2.4,5.4,3.9c5.4,1.9,7.6,4.4,7.6,8.5c0,4-2.9,7.5-8.1,8.4v4.6H132.6
				z"/>
			<path class="st52" d="M137.2,104.1v4c3,0.1,5.1,0.8,6.6,1.5l-1.3,5.1c-1.2-0.5-3.3-1.5-6.5-1.5c-2.9,0-3.9,1.3-3.9,2.5
				c0,1.5,1.6,2.4,5.4,3.9c5.4,1.9,7.6,4.4,7.6,8.5c0,4-2.9,7.5-8.1,8.4v4.6h-4.4v-4.3c-3-0.1-6-1-7.7-1.9l1.4-5.3
				c1.9,1,4.6,2,7.5,2c2.6,0,4.4-1,4.4-2.8c0-1.7-1.5-2.8-4.8-3.9c-4.9-1.6-8.2-3.9-8.2-8.3c0-4,2.8-7.1,7.7-8.1v-4.3H137.2z
				 M142.1,99.2h-4.8h-4.4H128v4.8v0.8c-4.8,2.2-7.7,6.4-7.7,11.6c0,3.1,1,5.4,2.4,7.2l-1.2,4.6l-1.4,5.3l-0.9,3.5l3.2,1.8
				c1.5,0.8,3.3,1.5,5.3,2v0.1l0,4.8h4.8h4.4h4.8v-4.8V140c5-2.2,8.1-6.6,8.1-11.9c0-4.1-1.6-6.9-3.6-8.9l0.8-3.3l1.3-5.1l1-3.8
				l-3.6-1.7c-1.2-0.6-2.5-1-3.9-1.4V99.2z"/>
			<path class="st53" d="M109.8,122.7c0-15.3,12.4-27.7,27.7-27.7c15.3,0,27.7,12.4,27.7,27.7c0,15.3-12.4,27.7-27.7,27.7
				S109.8,138,109.8,122.7"/>
			<path class="st51" d="M107.4,122.7c0-15.3,12.4-27.7,27.7-27.7c15.3,0,27.7,12.4,27.7,27.7c0,15.3-12.4,27.7-27.7,27.7
				S107.4,138,107.4,122.7"/>
			<path class="st54" d="M135.1,148.3c-6.8,0-13.1-2.6-17.9-7.4c-4.8-4.8-7.4-11.1-7.4-17.9c0-6.8,2.6-13.1,7.4-17.9
				c4.8-4.8,11.1-7.4,17.9-7.4c6.8,0,13.1,2.6,17.9,7.4c4.8,4.8,7.4,11.1,7.4,17.9s-2.6,13.1-7.4,17.9
				C148.2,145.7,141.9,148.3,135.1,148.3 M135.1,99.3c-13.1,0-23.8,10.7-23.8,23.8c0,13.1,10.7,23.8,23.8,23.8
				c13.1,0,23.8-10.7,23.8-23.8C158.9,109.9,148.2,99.3,135.1,99.3"/>
			<path class="st54" d="M134.9,137.8v-3.5c-2.5-0.1-4.9-0.8-6.3-1.6l1.1-4.4c1.6,0.9,3.8,1.6,6.2,1.6c2.1,0,3.6-0.8,3.6-2.3
				c0-1.4-1.2-2.3-3.9-3.2c-4-1.3-6.7-3.2-6.7-6.8c0-3.3,2.3-5.8,6.3-6.6v-3.5h3.6v3.3c2.5,0.1,4.2,0.6,5.4,1.2l-1.1,4.2
				c-1-0.4-2.7-1.3-5.4-1.3c-2.4,0-3.2,1-3.2,2.1c0,1.2,1.3,2,4.5,3.2c4.4,1.6,6.2,3.6,6.2,7c0,3.3-2.3,6.1-6.6,6.9v3.8H134.9z"/>
			<path class="st49" d="M133.2,137.8v-3.5c-2.5-0.1-4.9-0.8-6.3-1.6l1.1-4.4c1.6,0.9,3.8,1.6,6.2,1.6c2.1,0,3.6-0.8,3.6-2.3
				c0-1.4-1.2-2.3-3.9-3.2c-4-1.3-6.7-3.2-6.7-6.8c0-3.3,2.3-5.8,6.3-6.6v-3.5h3.6v3.3c2.5,0.1,4.2,0.6,5.4,1.2l-1.1,4.2
				c-1-0.4-2.7-1.3-5.4-1.3c-2.4,0-3.2,1-3.2,2.1c0,1.2,1.3,2,4.5,3.2c4.4,1.6,6.2,3.6,6.2,7c0,3.3-2.3,6.1-6.6,6.9v3.8H133.2z"/>
			<path class="st49" d="M113.6,120.2c-0.1,0-0.2,0-0.3,0c-0.8-0.2-1.3-0.9-1.1-1.7c2.3-11,12.1-19,23.3-19c0.8,0,1.4,0.6,1.4,1.4
				c0,0.8-0.6,1.4-1.4,1.4c-9.9,0-18.5,7-20.5,16.7C114.9,119.7,114.3,120.2,113.6,120.2"/>
		</g>
		<g class="st45">
			<defs>
				<rect id="SVGID_50_" x="3.9" y="4.3" width="192.4" height="192.4"/>
			</defs>
			<clipPath id="SVGID_51_">
				<use xlink:href="#SVGID_50_"  style="overflow:visible;"/>
			</clipPath>
			<g class="st55">
				<defs>
					<path id="SVGID_52_" d="M196.3-179c0,53.1-43.1,96.2-96.2,96.2S3.9-125.9,3.9-179c0-53.1,43.1-96.2,96.2-96.2
						S196.3-232.1,196.3-179"/>
				</defs>
				<clipPath id="SVGID_53_">
					<use xlink:href="#SVGID_52_"  style="overflow:visible;"/>
				</clipPath>
				<path class="st56" d="M131.3-142l-9.5,203.5c0,0-79.1,1.3-76.9-16.6c2.3-17.9,28.5-180.6,28.5-180.6L131.3-142z"/>
				<path class="st57" d="M159.6-26.7c-4.7,14.1,4.2,61.5,7.3,77.6c0.7,3.4,1.2,5.4,1.2,5.4c-11,17.8-51.1,17.6-51.1,17.6
					c-7.7-34.1-11.7-88.5-11.7-88.5l30.8-135l37,22.1c0,0-1.1,35.6-4.8,57.8C165.4-52.1,162.2-34.2,159.6-26.7"/>
				<path class="st57" d="M49.3-138.3C44.9-134,49.2-138.3,49.3-138.3c-1.9,1.9-54.7,53.2-65,73.3c-10.4,20.4,47.6,61,47.6,61
					s3.7,1.5,6.3,0.9c-2.7,22.5-5.8,43.3-4,52.2c3.3,16,18.1,21.4,18.1,20.2c0-0.4,5.4-58.3,8.4-88.5C67.1-84,83.2-149.1,83.2-149.1
					C67-146.3,53.6-142.6,49.3-138.3 M17.8-56.2c-0.1-0.1-0.1-0.2-0.1-0.3c0-2.9,11.2-9.4,23.3-17.1c0.2-0.2,0.2-0.2,0.2-0.2
					c0,0,0,0,0,0c-0.2,6.2-0.2,12.4,0.2,18.1c0.7,10.6,0.3,19.6-1,32.4C34.7-32.4,18.9-52.9,17.8-56.2"/>
				<path class="st58" d="M71.3,3.4c0.4,4.8,2.6,9.2,6.1,12.4l5.5,5.1c1.4,1.3,3.6,1.1,4.7-0.4l6.8-8.7c1.8-2.3,2.7-5.3,2.4-8.2
					c-0.6-6.6-1.8-19.2-2.8-31.4c-0.8-9.9-1.4-19.5-1.4-25.4c-0.2-18.7,3.6-78.2,3.6-78.2l-4.5,0.2c0,0-6.3,23.9-12.2,55.3
					C78.2-68.2,69.4-18.1,71.3,3.4"/>
				<path class="st59" d="M166.9,50.9c-11.3-11.8-31-35-30.3-54.1c0.9-26.7,17.8-112.2,17.8-112.2c-2.9,17.6,7.7,81.2,5.2,88.7
					C154.9-12.6,163.8,34.8,166.9,50.9"/>
				<path class="st57" d="M149-102.4c0,0-4.4-27.8,17.3-27c21.7,0.8,26.4,36.1,30.1,61.8c2.5,17.3,4.1,26.8,2.2,44
					c-0.3,2.7-2,8-5.2,14.3C178.8,20.3,161.7,52,161.7,52L139,44.1l21.6-64.8L149-102.4z"/>
			</g>
		</g>
	</g>
</g>
<g class="st23">
	<g class="st24">
		<defs>
			<rect id="SVGID_54_" x="3.9" y="4.3" width="192.4" height="192.4"/>
		</defs>
		<clipPath id="SVGID_55_">
			<use xlink:href="#SVGID_54_"  style="overflow:visible;"/>
		</clipPath>
		<g class="st60">
			<defs>
				<rect id="SVGID_56_" x="3.9" y="4.3" width="192.4" height="192.4"/>
			</defs>
			<clipPath id="SVGID_57_">
				<use xlink:href="#SVGID_56_"  style="overflow:visible;"/>
			</clipPath>
			<g class="st61">
				<g>
					<defs>
						<rect id="SVGID_58_" x="3.9" y="4.3" width="192.4" height="192.4"/>
					</defs>
					<clipPath id="SVGID_59_">
						<use xlink:href="#SVGID_58_"  style="overflow:visible;"/>
					</clipPath>
					<path class="st62" d="M196.3,100.4c0,53.1-43.1,96.2-96.2,96.2S3.9,153.6,3.9,100.4S47,4.3,100.1,4.3S196.3,47.3,196.3,100.4"
						/>
				</g>
			</g>
			<path class="st63" d="M52.1,89.5h96v50.4c0,4.4-3.6,8-8,8h-80c-4.4,0-8-3.6-8-8V89.5z"/>
			<g class="st61">
				<g>
					<defs>
						<rect id="SVGID_60_" x="52.1" y="55" width="96" height="32"/>
					</defs>
					<clipPath id="SVGID_61_">
						<use xlink:href="#SVGID_60_"  style="overflow:visible;"/>
					</clipPath>
					<path class="st64" d="M60.1,55h80c4.4,0,8,3.6,8,8v24h-96V63C52.1,58.6,55.7,55,60.1,55"/>
				</g>
			</g>
			<g class="st61">
				<g>
					<defs>
						<rect id="SVGID_62_" x="94.5" y="57.4" width="12" height="12"/>
					</defs>
					<clipPath id="SVGID_63_">
						<use xlink:href="#SVGID_62_"  style="overflow:visible;"/>
					</clipPath>
					<path class="st65" d="M100.5,57.4c3.3,0,6,2.7,6,6c0,3.3-2.7,6-6,6s-6-2.7-6-6C94.5,60.1,97.2,57.4,100.5,57.4"/>
				</g>
			</g>
			<g class="st61">
				<g>
					<defs>
						<rect id="SVGID_64_" x="68.9" y="58.2" width="12" height="12"/>
					</defs>
					<clipPath id="SVGID_65_">
						<use xlink:href="#SVGID_64_"  style="overflow:visible;"/>
					</clipPath>
					<path class="st66" d="M74.9,58.2c3.3,0,6,2.7,6,6c0,3.3-2.7,6-6,6c-3.3,0-6-2.7-6-6C68.9,60.9,71.6,58.2,74.9,58.2"/>
				</g>
			</g>
			<g class="st61">
				<g>
					<defs>
						<rect id="SVGID_66_" x="119.3" y="57.4" width="12" height="12"/>
					</defs>
					<clipPath id="SVGID_67_">
						<use xlink:href="#SVGID_66_"  style="overflow:visible;"/>
					</clipPath>
					<path class="st67" d="M125.3,57.4c3.3,0,6,2.7,6,6c0,3.3-2.7,6-6,6c-3.3,0-6-2.7-6-6C119.3,60.1,122,57.4,125.3,57.4"/>
				</g>
			</g>
			<path class="st63" d="M100.5,66c-1.6,0-2.9-1.3-2.9-2.9V53c0-1.6,1.3-2.9,2.9-2.9c1.6,0,2.9,1.3,2.9,2.9v10.1
				C103.4,64.7,102.1,66,100.5,66"/>
			<path class="st63" d="M74.8,66c-1.6,0-2.9-1.3-2.9-2.9V53c0-1.6,1.3-2.9,2.9-2.9s2.9,1.3,2.9,2.9v10.1C77.7,64.7,76.4,66,74.8,66
				"/>
			<path class="st63" d="M125.3,66c-1.6,0-2.9-1.3-2.9-2.9V53c0-1.6,1.3-2.9,2.9-2.9c1.6,0,2.9,1.3,2.9,2.9v10.1
				C128.2,64.7,126.9,66,125.3,66"/>
		</g>
		<g class="st60">
			<defs>
				<rect id="SVGID_68_" x="60.1" y="97.5" width="80" height="38.4"/>
			</defs>
			<clipPath id="SVGID_69_">
				<use xlink:href="#SVGID_68_"  style="overflow:visible;"/>
			</clipPath>
			<path class="st68" d="M61.7,97.5h4.8c0.9,0,1.6,0.7,1.6,1.6v4.8c0,0.9-0.7,1.6-1.6,1.6h-4.8c-0.9,0-1.6-0.7-1.6-1.6v-4.8
				C60.1,98.2,60.8,97.5,61.7,97.5"/>
			<path class="st68" d="M73.7,97.5h4.8c0.9,0,1.6,0.7,1.6,1.6v4.8c0,0.9-0.7,1.6-1.6,1.6h-4.8c-0.9,0-1.6-0.7-1.6-1.6v-4.8
				C72.1,98.2,72.8,97.5,73.7,97.5"/>
			<path class="st68" d="M85.7,97.5h4.8c0.9,0,1.6,0.7,1.6,1.6v4.8c0,0.9-0.7,1.6-1.6,1.6h-4.8c-0.9,0-1.6-0.7-1.6-1.6v-4.8
				C84.1,98.2,84.8,97.5,85.7,97.5"/>
			<path class="st68" d="M97.7,97.5h4.8c0.9,0,1.6,0.7,1.6,1.6v4.8c0,0.9-0.7,1.6-1.6,1.6h-4.8c-0.9,0-1.6-0.7-1.6-1.6v-4.8
				C96.1,98.2,96.8,97.5,97.7,97.5"/>
			<path class="st68" d="M109.7,97.5h4.8c0.9,0,1.6,0.7,1.6,1.6v4.8c0,0.9-0.7,1.6-1.6,1.6h-4.8c-0.9,0-1.6-0.7-1.6-1.6v-4.8
				C108.1,98.2,108.8,97.5,109.7,97.5"/>
			<path class="st68" d="M121.7,97.5h4.8c0.9,0,1.6,0.7,1.6,1.6v4.8c0,0.9-0.7,1.6-1.6,1.6h-4.8c-0.9,0-1.6-0.7-1.6-1.6v-4.8
				C120.1,98.2,120.8,97.5,121.7,97.5"/>
			<path class="st68" d="M133.7,97.5h4.8c0.9,0,1.6,0.7,1.6,1.6v4.8c0,0.9-0.7,1.6-1.6,1.6h-4.8c-0.9,0-1.6-0.7-1.6-1.6v-4.8
				C132.1,98.2,132.9,97.5,133.7,97.5"/>
			<path class="st68" d="M61.7,111.9h4.8c0.9,0,1.6,0.7,1.6,1.6v4.8c0,0.9-0.7,1.6-1.6,1.6h-4.8c-0.9,0-1.6-0.7-1.6-1.6v-4.8
				C60.1,112.6,60.8,111.9,61.7,111.9"/>
			<path class="st68" d="M73.7,111.9h4.8c0.9,0,1.6,0.7,1.6,1.6v4.8c0,0.9-0.7,1.6-1.6,1.6h-4.8c-0.9,0-1.6-0.7-1.6-1.6v-4.8
				C72.1,112.6,72.8,111.9,73.7,111.9"/>
			<path class="st68" d="M85.7,111.9h4.8c0.9,0,1.6,0.7,1.6,1.6v4.8c0,0.9-0.7,1.6-1.6,1.6h-4.8c-0.9,0-1.6-0.7-1.6-1.6v-4.8
				C84.1,112.6,84.8,111.9,85.7,111.9"/>
			<path class="st68" d="M97.7,111.9h4.8c0.9,0,1.6,0.7,1.6,1.6v4.8c0,0.9-0.7,1.6-1.6,1.6h-4.8c-0.9,0-1.6-0.7-1.6-1.6v-4.8
				C96.1,112.6,96.8,111.9,97.7,111.9"/>
			<path class="st68" d="M109.7,111.9h4.8c0.9,0,1.6,0.7,1.6,1.6v4.8c0,0.9-0.7,1.6-1.6,1.6h-4.8c-0.9,0-1.6-0.7-1.6-1.6v-4.8
				C108.1,112.6,108.8,111.9,109.7,111.9"/>
			<path class="st68" d="M121.7,111.9h4.8c0.9,0,1.6,0.7,1.6,1.6v4.8c0,0.9-0.7,1.6-1.6,1.6h-4.8c-0.9,0-1.6-0.7-1.6-1.6v-4.8
				C120.1,112.6,120.8,111.9,121.7,111.9"/>
			<path class="st68" d="M133.7,111.9h4.8c0.9,0,1.6,0.7,1.6,1.6v4.8c0,0.9-0.7,1.6-1.6,1.6h-4.8c-0.9,0-1.6-0.7-1.6-1.6v-4.8
				C132.1,112.6,132.9,111.9,133.7,111.9"/>
			<path class="st68" d="M61.7,126.3h4.8c0.9,0,1.6,0.7,1.6,1.6v4.8c0,0.9-0.7,1.6-1.6,1.6h-4.8c-0.9,0-1.6-0.7-1.6-1.6v-4.8
				C60.1,127,60.8,126.3,61.7,126.3"/>
			<path class="st68" d="M73.7,126.3h4.8c0.9,0,1.6,0.7,1.6,1.6v4.8c0,0.9-0.7,1.6-1.6,1.6h-4.8c-0.9,0-1.6-0.7-1.6-1.6v-4.8
				C72.1,127,72.8,126.3,73.7,126.3"/>
			<path class="st68" d="M85.7,126.3h4.8c0.9,0,1.6,0.7,1.6,1.6v4.8c0,0.9-0.7,1.6-1.6,1.6h-4.8c-0.9,0-1.6-0.7-1.6-1.6v-4.8
				C84.1,127,84.8,126.3,85.7,126.3"/>
			<path class="st68" d="M97.7,126.3h4.8c0.9,0,1.6,0.7,1.6,1.6v4.8c0,0.9-0.7,1.6-1.6,1.6h-4.8c-0.9,0-1.6-0.7-1.6-1.6v-4.8
				C96.1,127,96.8,126.3,97.7,126.3"/>
			<path class="st68" d="M109.7,126.3h4.8c0.9,0,1.6,0.7,1.6,1.6v4.8c0,0.9-0.7,1.6-1.6,1.6h-4.8c-0.9,0-1.6-0.7-1.6-1.6v-4.8
				C108.1,127,108.8,126.3,109.7,126.3"/>
			<path class="st68" d="M121.7,126.3h4.8c0.9,0,1.6,0.7,1.6,1.6v4.8c0,0.9-0.7,1.6-1.6,1.6h-4.8c-0.9,0-1.6-0.7-1.6-1.6v-4.8
				C120.1,127,120.8,126.3,121.7,126.3"/>
			<path class="st68" d="M133.7,126.3h4.8c0.9,0,1.6,0.7,1.6,1.6v4.8c0,0.9-0.7,1.6-1.6,1.6h-4.8c-0.9,0-1.6-0.7-1.6-1.6v-4.8
				C132.1,127,132.9,126.3,133.7,126.3"/>
		</g>
		<g class="st60">
			<defs>
				<rect id="SVGID_70_" x="3.9" y="4.3" width="192.4" height="192.4"/>
			</defs>
			<clipPath id="SVGID_71_">
				<use xlink:href="#SVGID_70_"  style="overflow:visible;"/>
			</clipPath>
			<path class="st69" d="M138.1,149.1c-1.2,0-2.4-0.5-3.2-1.3l-12.2-12.4c-1.8-1.8-1.8-4.7,0-6.4l1.9-1.9c0.9-0.8,2-1.3,3.2-1.3
				c1.2,0,2.4,0.5,3.2,1.3l6.6,6.6l22.9-22.7c0.9-0.8,2-1.3,3.2-1.3c1.2,0,2.4,0.5,3.2,1.3l2.5,2.5c1.8,1.8,1.8,4.7,0,6.4l-28,27.8
				C140.4,148.7,139.3,149.1,138.1,149.1"/>
			<path class="st70" d="M163.6,109.7c1.2,0,2.4,0.5,3.2,1.3l2.5,2.5c1.8,1.8,1.8,4.7,0,6.4l-28,27.8c-0.9,0.8-2,1.3-3.2,1.3
				c-1.2,0-2.4-0.5-3.2-1.3l-12.2-12.4c-1.8-1.8-1.8-4.7,0-6.4l1.9-1.9c0.9-0.8,2-1.3,3.2-1.3c1.2,0,2.4,0.5,3.2,1.3l6.6,6.6
				l22.9-22.7C161.3,110.2,162.4,109.7,163.6,109.7 M163.6,104.9c-2.5,0-4.8,1-6.6,2.7L137.6,127l-3.2-3.2c-1.8-1.8-4.1-2.8-6.7-2.8
				c-2.5,0-4.8,1-6.6,2.7l-1.9,1.9c-1.8,1.8-2.8,4.1-2.8,6.6c0,2.5,1,4.9,2.7,6.6l12.2,12.4c1.8,1.8,4.1,2.8,6.7,2.8
				c2.5,0,4.8-1,6.6-2.7l28-27.8c3.7-3.6,3.7-9.6,0.1-13.2l-2.5-2.5C168.5,105.9,166.2,104.9,163.6,104.9"/>
			<path class="st71" d="M162.5,115.6l-21.2,21.3c-0.5,0.5-1.2,0.5-1.7,0l0,0c-0.5-0.5-0.5-1.2,0-1.7l21.2-21.3
				c0.5-0.5,1.2-0.5,1.7,0l0,0C163,114.4,163,115.1,162.5,115.6"/>
		</g>
		<g class="st60">
			<defs>
				<rect id="SVGID_72_" x="3.9" y="4.3" width="192.4" height="192.4"/>
			</defs>
			<clipPath id="SVGID_73_">
				<use xlink:href="#SVGID_72_"  style="overflow:visible;"/>
			</clipPath>
			<g class="st72">
				<defs>
					<path id="SVGID_74_" d="M196.3-179c0,53.1-43.1,96.2-96.2,96.2S3.9-125.9,3.9-179c0-53.1,43.1-96.2,96.2-96.2
						S196.3-232.1,196.3-179"/>
				</defs>
				<clipPath id="SVGID_75_">
					<use xlink:href="#SVGID_74_"  style="overflow:visible;"/>
				</clipPath>
				<path class="st73" d="M154.1,55.9C152.2,80.7,38,82.7,37,54.5c-0.2-6.9,0.7-20.2,0.3-29.2c-2-53.2-2.6-40.1-4.1-67.3
					c-0.5-8.7-6.9-52.6-4.4-73.8c0.4-3.1,0.9-5.9,1.6-8.1c4.9-16,36-23.6,47.2-24l37.7-1.1c0,0,31.1,39,35.9,51
					c4.9,12,2.8,51.5,2.8,71.7C154.1,33.1,155.4,37.1,154.1,55.9"/>
				<path class="st74" d="M130.6,8.8c-0.4,4.8-2.6,9.2-6.1,12.4l-5.5,5.1c-1.4,1.3-3.6,1.1-4.7-0.4l-6.8-8.7
					c-1.8-2.3-2.7-5.3-2.4-8.2c0.6-6.6,1.8-19.2,2.8-31.4c0.8-9.9,1.4-19.5,1.4-25.4c0.2-18.7-3.6-78.2-3.6-78.2l4.5,0.2
					c0,0,6.3,23.9,12.2,55.3C123.7-62.8,132.5-12.7,130.6,8.8"/>
			</g>
		</g>
	</g>
</g>
<g class="st23">
	<g class="st24">
		<defs>
			<rect id="SVGID_76_" x="3.9" y="4.3" width="192.4" height="192.4"/>
		</defs>
		<clipPath id="SVGID_77_">
			<use xlink:href="#SVGID_76_"  style="overflow:visible;"/>
		</clipPath>
		<g class="st75">
			<defs>
				<rect id="SVGID_78_" x="3.9" y="4.3" width="192.4" height="192.4"/>
			</defs>
			<clipPath id="SVGID_79_">
				<use xlink:href="#SVGID_78_"  style="overflow:visible;"/>
			</clipPath>
			<g class="st76">
				<defs>
					<rect id="SVGID_80_" x="3.9" y="4.3" width="192.4" height="192.4"/>
				</defs>
				<clipPath id="SVGID_81_">
					<use xlink:href="#SVGID_80_"  style="overflow:visible;"/>
				</clipPath>
				<g class="st77">
					<g>
						<defs>
							<rect id="SVGID_82_" x="3.9" y="4.3" width="192.4" height="192.4"/>
						</defs>
						<clipPath id="SVGID_83_">
							<use xlink:href="#SVGID_82_"  style="overflow:visible;"/>
						</clipPath>
						<path class="st78" d="M196.3,100.4c0,53.1-43.1,96.2-96.2,96.2S3.9,153.6,3.9,100.4S47,4.3,100.1,4.3S196.3,47.3,196.3,100.4"
							/>
					</g>
				</g>
				<path class="st79" d="M104.8,81.7V96c0,0.3-0.3,0.6-0.6,0.6c0,0,0,0,0,0h-2.3c-0.2,0-0.4-0.1-0.5-0.3l-6.5-8.8V96
					c0,0.3-0.3,0.6-0.6,0.6c0,0,0,0,0,0h-2.3c-0.4,0-0.6-0.3-0.6-0.6c0,0,0,0,0,0V81.7c0-0.4,0.3-0.6,0.6-0.6c0,0,0,0,0,0h2.3
					c0.2,0,0.4,0.1,0.5,0.3l6.5,8.8v-8.5c0-0.4,0.3-0.6,0.6-0.6c0,0,0,0,0,0h2.3C104.4,81.1,104.7,81.4,104.8,81.7
					C104.8,81.7,104.8,81.7,104.8,81.7 M88.3,81.1H86c-0.3,0-0.6,0.3-0.6,0.6c0,0,0,0,0,0V96c0,0.3,0.3,0.6,0.6,0.6c0,0,0,0,0,0h2.3
					c0.4,0,0.6-0.3,0.6-0.6c0,0,0,0,0,0V81.7C89,81.4,88.7,81.1,88.3,81.1 M82.8,93h-6.2V81.7c0-0.4-0.3-0.6-0.6-0.6c0,0,0,0,0,0
					h-2.3c-0.4,0-0.6,0.3-0.6,0.6c0,0,0,0,0,0V96c0,0.2,0.1,0.3,0.2,0.4c0.1,0.1,0.3,0.2,0.4,0.2h9.2c0.4,0,0.6-0.3,0.6-0.6
					c0,0,0,0,0,0v-2.3C83.4,93.3,83.2,93,82.8,93 M116.8,81.1h-9.2c-0.4,0-0.6,0.3-0.6,0.6V96c0,0.4,0.3,0.6,0.6,0.6h9.2
					c0.3,0,0.6-0.3,0.6-0.6c0,0,0,0,0,0v-2.3c0-0.4-0.3-0.6-0.6-0.6c0,0,0,0,0,0h-6.2v-2.4h6.2c0.3,0,0.6-0.3,0.6-0.6c0,0,0,0,0,0
					v-2.3c0-0.4-0.3-0.6-0.6-0.6c0,0,0,0,0,0h-6.2v-2.4h6.2c0.3,0,0.6-0.3,0.6-0.6c0,0,0,0,0,0v-2.3
					C117.4,81.4,117.1,81.1,116.8,81.1 M140,63.6v57.2c0,9-7.4,16.2-16.4,16.2H66.5c-9,0-16.3-7.4-16.2-16.4V63.4
					c0-9,7.4-16.2,16.4-16.2h57.2C132.7,47.2,140,54.6,140,63.6 M127.7,88.1c0-14.6-14.7-26.5-32.7-26.5c-18,0-32.7,11.9-32.7,26.5
					c0,13.1,11.6,24.1,27.3,26.2c3.8,0.8,3.4,2.2,2.5,7.4c-0.1,0.8-0.7,3.2,2.8,1.8c3.5-1.5,18.8-11.1,25.7-19
					C125.4,99.3,127.7,94,127.7,88.1"/>
				<path class="st80" d="M151.7,148.3c3.2-0.9,5.1-4.1,4.2-7.4l-11.6,3.1C145.2,147.3,148.5,149.2,151.7,148.3 M158.8,116.9
					c-1.9-7-8.3-11.4-15.4-11l-0.5-1.9c-0.4-1.6-2.1-2.6-3.7-2.1c-1.6,0.4-2.6,2.1-2.1,3.7l0.5,1.9c-6.3,3.2-9.7,10.1-7.8,17.2
					c2.5,9.3,0,13-1.3,15.3c-0.4,0.7-0.5,1.4-0.3,2.2c0.4,1.5,2,2.6,3.7,2.1l34.8-9.3c1.7-0.5,2.5-2.2,2.1-3.7
					c-0.2-0.7-0.7-1.4-1.3-1.8C165.3,128.1,161.3,126.2,158.8,116.9"/>
				<path class="st81" d="M140.1,101.8c1.3,0,2.5,0.9,2.9,2.2l0.5,1.9c0.3,0,0.6,0,0.9,0c6.7,0,12.6,4.2,14.5,11
					c2.5,9.3,6.5,11.2,8.8,12.6c0.6,0.4,1.1,1,1.3,1.8c0.4,1.5-0.4,3.2-2.1,3.7l-34.8,9.3c-0.3,0.1-0.5,0.1-0.8,0.1
					c-1.4,0-2.5-1-2.9-2.2c-0.2-0.7-0.1-1.5,0.3-2.2c1.2-2.3,3.8-6.1,1.3-15.3c-1.9-7,1.5-14,7.8-17.2l-0.5-1.9
					c-0.4-1.6,0.5-3.2,2.1-3.7C139.5,101.9,139.8,101.8,140.1,101.8 M156,141c0.9,3.2-1,6.5-4.2,7.4c-0.5,0.1-1,0.2-1.6,0.2
					c-2.7,0-5.1-1.8-5.8-4.4L156,141 M140.1,97L140.1,97c-0.7,0-1.4,0.1-2,0.3c-2,0.5-3.7,1.8-4.8,3.6c-0.8,1.3-1.1,2.8-1,4.3
					c-6.3,4.8-9.2,12.8-7.1,20.7c1.8,6.8,0.5,9.3-0.6,11.3c-0.1,0.2-0.2,0.3-0.3,0.5c-1,1.8-1.2,3.8-0.7,5.7c0.9,3.4,4,5.8,7.5,5.8
					c0.7,0,1.4-0.1,2-0.3l7.1-1.9c1.7,3.8,5.6,6.3,9.8,6.3c0.9,0,1.9-0.1,2.8-0.4c2.8-0.7,5.1-2.5,6.6-5c1.1-2,1.6-4.2,1.4-6.4
					l7.1-1.9c4.2-1.1,6.6-5.4,5.5-9.6c-0.5-1.9-1.7-3.6-3.4-4.6c-0.1-0.1-0.3-0.2-0.5-0.3c-1.9-1.2-4.4-2.7-6.2-9.5
					c-2.1-7.8-8.5-13.4-16.5-14.4C145.7,98.7,143,97,140.1,97"/>
				<path class="st80" d="M157.7,99.6c0.5-0.2,0.9-0.5,1.2-0.9l4.9-5.9c1-1.2,0.8-3-0.4-4c-1.2-1-3-0.8-4,0.3l-4.9,5.9
					c-1,1.2-0.9,3,0.4,4C155.7,99.8,156.7,100,157.7,99.6 M171.2,103.4L164,106c-1.5,0.5-2.3,2.2-1.7,3.7c0.5,1.5,2.2,2.3,3.7,1.7
					l7.2-2.6c1.5-0.5,2.3-2.2,1.7-3.7C174.3,103.6,172.7,102.9,171.2,103.4"/>
				<g class="st82">
					<g>
						<defs>
							<rect id="SVGID_84_" x="143.2" y="110.2" width="13.6" height="13.6"/>
						</defs>
						<clipPath id="SVGID_85_">
							<use xlink:href="#SVGID_84_"  style="overflow:visible;"/>
						</clipPath>
						<path class="st83" d="M156,123.3c-1.7,1.7-3.7-1.9-7.1-5.3c-3.4-3.4-7-5.3-5.3-7.1c1.7-1.7,5.9-0.4,9.4,3
							C156.4,117.4,157.8,121.6,156,123.3"/>
					</g>
				</g>
				<g class="st82">
					<g>
						<defs>
							<rect id="SVGID_86_" x="153.5" y="125.7" width="3.8" height="6.1"/>
						</defs>
						<clipPath id="SVGID_87_">
							<use xlink:href="#SVGID_86_"  style="overflow:visible;"/>
						</clipPath>
						<path class="st84" d="M157.3,128.7c0,1.7-1,3-2.3,3c-1.2,0-1.6-1.4-1.6-3c0-1.7,0.3-3,1.6-3
							C156.3,125.7,157.3,127.1,157.3,128.7"/>
					</g>
				</g>
			</g>
		</g>
	</g>
</g>
<g class="st23">
	<g class="st24">
		<defs>
			<rect id="SVGID_88_" x="10.7" y="12.7" width="178.8" height="175.6"/>
		</defs>
		<clipPath id="SVGID_89_">
			<use xlink:href="#SVGID_88_"  style="overflow:visible;"/>
		</clipPath>
		<g class="st85">
			<defs>
				<rect id="SVGID_90_" x="10.7" y="12.7" width="178.8" height="175.6"/>
			</defs>
			<clipPath id="SVGID_91_">
				<use xlink:href="#SVGID_90_"  style="overflow:visible;"/>
			</clipPath>
			<g class="st86">
				<g>
					<defs>
						<rect id="SVGID_92_" x="10.7" y="12.7" width="178.8" height="175.6"/>
					</defs>
					<clipPath id="SVGID_93_">
						<use xlink:href="#SVGID_92_"  style="overflow:visible;"/>
					</clipPath>
					<path class="st87" d="M189.5,100.4c0,48.5-40,87.8-89.4,87.8s-89.4-39.3-89.4-87.8s40-87.8,89.4-87.8S189.5,52,189.5,100.4"/>
				</g>
			</g>
		</g>
		<g class="st85">
			<defs>
				<ellipse id="SVGID_94_" cx="100.1" cy="100.4" rx="89.4" ry="87.8"/>
			</defs>
			<clipPath id="SVGID_95_">
				<use xlink:href="#SVGID_94_"  style="overflow:visible;"/>
			</clipPath>
			<path class="st88" d="M89.9,150.3v7.7H90c1.1,2.1,11.4,3.7,24,3.7c12.6,0,22.9-1.6,24-3.7h0.1v-7.7H89.9z"/>
			<path class="st89" d="M98.7,150.5v10.2c2.4,0.3,5.3,0.6,8.4,0.8v-11H98.7z"/>
			<path class="st89" d="M108.7,152.4v9.2c0.7,0,1.4,0,2.1,0.1v-9.3H108.7z"/>
			<path class="st90" d="M138.1,150.3c0,1.9-10.8,3.5-24.1,3.5s-24.1-1.6-24.1-3.5c0-1.9,10.8-3.5,24.1-3.5S138.1,148.4,138.1,150.3
				"/>
			<path class="st88" d="M132.3,150.5c0,1.5-8.2,2.6-18.3,2.6c-10.1,0-18.3-1.2-18.3-2.6c0-1.5,8.2-2.6,18.3-2.6
				C124.1,147.8,132.3,149,132.3,150.5"/>
			<path class="st89" d="M130.5,150.8c0,1.3-7.4,2.4-16.4,2.4c-9.1,0-16.4-1.1-16.4-2.4c0-1.3,7.4-2.4,16.4-2.4
				C123.1,148.4,130.5,149.4,130.5,150.8"/>
			<path class="st88" d="M85.1,141.2v7.7h0.1c1.1,2.1,11.4,3.7,24,3.7c12.6,0,22.9-1.6,24-3.7h0.1v-7.7H85.1z"/>
			<path class="st89" d="M93.9,141.4v10.2c2.4,0.3,5.3,0.6,8.4,0.8v-11H93.9z"/>
			<path class="st89" d="M103.9,143.2v9.2c0.7,0,1.4,0.1,2.1,0.1v-9.3H103.9z"/>
			<path class="st90" d="M133.4,141.2c0,1.9-10.8,3.5-24.1,3.5c-13.3,0-24.1-1.6-24.1-3.5c0-1.9,10.8-3.5,24.1-3.5
				C122.6,137.7,133.4,139.2,133.4,141.2"/>
			<path class="st88" d="M127.5,141.4c0,1.5-8.2,2.6-18.3,2.6c-10.1,0-18.3-1.2-18.3-2.6c0-1.5,8.2-2.6,18.3-2.6
				C119.3,138.7,127.5,139.9,127.5,141.4"/>
			<path class="st89" d="M125.7,141.6c0,1.3-7.4,2.4-16.4,2.4c-9.1,0-16.4-1.1-16.4-2.4c0-1.3,7.4-2.4,16.4-2.4
				C118.3,139.3,125.7,140.3,125.7,141.6"/>
			<path class="st88" d="M89.9,131.9v7.7H90c1.1,2.1,11.4,3.7,24,3.7c12.6,0,22.9-1.6,24-3.7h0.1v-7.7H89.9z"/>
			<path class="st89" d="M98.7,132.1v10.2c2.4,0.3,5.3,0.6,8.4,0.8v-11H98.7z"/>
			<path class="st89" d="M108.7,134v9.2c0.7,0,1.4,0,2.1,0.1V134H108.7z"/>
			<path class="st90" d="M138.1,131.9c0,1.9-10.8,3.5-24.1,3.5s-24.1-1.6-24.1-3.5c0-1.9,10.8-3.5,24.1-3.5S138.1,130,138.1,131.9"
				/>
			<path class="st88" d="M132.3,132.1c0,1.5-8.2,2.6-18.3,2.6s-18.3-1.2-18.3-2.6c0-1.5,8.2-2.6,18.3-2.6S132.3,130.6,132.3,132.1"
				/>
			<path class="st89" d="M130.5,132.4c0,1.3-7.4,2.4-16.4,2.4c-9.1,0-16.4-1.1-16.4-2.4c0-1.3,7.4-2.4,16.4-2.4
				C123.1,130,130.5,131.1,130.5,132.4"/>
			<path class="st88" d="M101.6,121.6v7.7h0.1c1.1,2.1,11.4,3.7,24,3.7c12.6,0,22.9-1.6,24-3.7h0.1v-7.7H101.6z"/>
			<path class="st89" d="M110.4,121.8V132c2.4,0.3,5.3,0.6,8.4,0.8v-11H110.4z"/>
			<path class="st89" d="M120.4,123.6v9.2c0.7,0,1.4,0,2.1,0.1v-9.3H120.4z"/>
			<path class="st90" d="M149.8,121.6c0,1.9-10.8,3.5-24.1,3.5c-13.3,0-24.1-1.6-24.1-3.5c0-1.9,10.8-3.5,24.1-3.5
				C139.1,118.1,149.8,119.6,149.8,121.6"/>
			<path class="st88" d="M144,121.8c0,1.5-8.2,2.6-18.3,2.6c-10.1,0-18.3-1.2-18.3-2.6c0-1.5,8.2-2.6,18.3-2.6
				C135.8,119.1,144,120.3,144,121.8"/>
			<path class="st89" d="M142.2,122c0,1.3-7.4,2.4-16.4,2.4c-9.1,0-16.4-1.1-16.4-2.4c0-1.3,7.4-2.4,16.4-2.4
				C134.8,119.7,142.2,120.7,142.2,122"/>
			<path class="st91" d="M63.9,50c9.6-16.3,30.8-21.9,47.4-12.5c16.6,9.4,22.3,30.2,12.7,46.5c-9.6,16.3-30.8,21.9-47.4,12.5
				C60,87.2,54.3,66.3,63.9,50"/>
			<path class="st92" d="M61.3,48.5c9.6-16.3,30.8-21.9,47.4-12.5c16.6,9.4,22.3,30.2,12.7,46.5c-9.6,16.3-30.8,21.9-47.4,12.5
				C57.4,85.7,51.7,64.8,61.3,48.5"/>
			<path class="st93" d="M75.3,92.8C68,88.7,62.8,82,60.6,74c-2.2-8-1.1-16.4,3.2-23.6c4.2-7.2,11-12.3,19.2-14.5
				c8.2-2.1,16.7-1,24,3.1c7.3,4.1,12.5,10.8,14.7,18.9c2.2,8,1.1,16.4-3.2,23.6c-4.2,7.2-11,12.3-19.2,14.5
				C91.2,98.1,82.6,97,75.3,92.8 M106,40.6c-14.2-8-32.4-3.3-40.6,10.7c-8.2,13.9-3.3,31.8,10.9,39.9c14.2,8,32.4,3.3,40.6-10.7
				C125.1,66.6,120.2,48.7,106,40.6"/>
			<path class="st93" d="M81.6,81.5l2.2-3.8c-2.6-1.7-4.8-3.8-5.9-5.6l3.9-3.9c1.2,1.9,3,4,5.7,5.5c2.3,1.3,4.4,1.3,5.3-0.3
				c0.9-1.5,0.2-3.2-2.2-5.9c-3.5-3.9-5.3-7.5-3-11.4c2-3.5,6.2-4.8,11-3.2l2.2-3.8l3.9,2.2l-2,3.5c2.6,1.7,4.1,3.2,5.1,4.6
				l-3.8,3.8c-0.8-1-2.1-3-5-4.6c-2.6-1.5-4.1-0.9-4.8,0.3c-0.8,1.3,0.2,2.9,2.8,6.1c3.8,4.4,4.5,7.7,2.4,11.2
				c-2.1,3.5-6.4,5.1-11.5,3.3l-2.4,4L81.6,81.5z"/>
			<path class="st94" d="M79.8,80.5l2.2-3.8c-2.6-1.7-4.8-3.8-5.9-5.6l3.9-3.9c1.2,1.9,3,4,5.7,5.5c2.3,1.3,4.4,1.3,5.3-0.3
				c0.9-1.5,0.2-3.2-2.2-5.9c-3.5-3.9-5.3-7.5-3-11.4c2-3.5,6.2-4.8,11-3.2l2.2-3.8l3.9,2.2l-2,3.5c2.6,1.7,4.1,3.2,5.1,4.6
				l-3.8,3.8c-0.8-1-2.1-3-5-4.6c-2.6-1.5-4.1-0.9-4.8,0.3c-0.8,1.3,0.2,2.9,2.8,6.1c3.8,4.4,4.5,7.7,2.4,11.2
				c-2.1,3.5-6.4,5.1-11.5,3.3l-2.4,4L79.8,80.5z"/>
			<path class="st94" d="M64.3,62.2c-0.1,0-0.1,0-0.2,0c-0.5-0.1-0.8-0.6-0.7-1C66.1,48,78,38.5,91.7,38.5c0.5,0,0.9,0.4,0.9,0.9
				c0,0.5-0.4,0.9-0.9,0.9c-12.8,0-23.9,8.9-26.5,21.2C65.1,61.9,64.7,62.2,64.3,62.2"/>
			<path class="st91" d="M13.4,139.2c0-14.1,11.5-25.5,25.6-25.5c14.2,0,25.6,11.4,25.6,25.5c0,14.1-11.5,25.5-25.6,25.5
				S13.4,153.3,13.4,139.2"/>
			<path class="st92" d="M11.1,139.2c0-14.1,11.5-25.5,25.6-25.5c14.2,0,25.6,11.4,25.6,25.5c0,14.1-11.5,25.5-25.6,25.5
				S11.1,153.3,11.1,139.2"/>
			<path class="st93" d="M36.8,162.7c-6.2,0-12.1-2.4-16.5-6.8c-4.4-4.4-6.8-10.2-6.8-16.4c0-6.2,2.4-12,6.8-16.4
				c4.4-4.4,10.3-6.8,16.5-6.8s12.1,2.4,16.5,6.8c4.4,4.4,6.8,10.2,6.8,16.4c0,6.2-2.4,12-6.8,16.4C48.9,160.3,43,162.7,36.8,162.7
				 M36.8,117.7c-12.1,0-22,9.8-22,21.9c0,12,9.9,21.9,22,21.9c12.1,0,22-9.8,22-21.9C58.8,127.5,48.9,117.7,36.8,117.7"/>
			<path class="st93" d="M36.6,153.1v-3.2c-2.3-0.1-4.5-0.7-5.8-1.5l1-4c1.4,0.8,3.5,1.5,5.7,1.5c2,0,3.3-0.8,3.3-2.1
				c0-1.3-1.1-2.1-3.6-3c-3.7-1.2-6.2-2.9-6.2-6.3c0-3,2.1-5.4,5.8-6.1v-3.3h3.4v3c2.3,0.1,3.9,0.6,5,1.1l-1,3.9
				c-0.9-0.4-2.5-1.2-5-1.2c-2.2,0-3,1-3,1.9c0,1.1,1.2,1.8,4.1,2.9c4.1,1.4,5.7,3.3,5.7,6.4c0,3-2.2,5.6-6.1,6.3v3.5H36.6z"/>
			<path class="st94" d="M35,153.1v-3.2c-2.3-0.1-4.5-0.7-5.8-1.5l1-4c1.4,0.8,3.5,1.5,5.7,1.5c2,0,3.3-0.8,3.3-2.1
				c0-1.3-1.1-2.1-3.6-3c-3.7-1.2-6.2-2.9-6.2-6.3c0-3,2.1-5.4,5.8-6.1v-3.3h3.4v3c2.3,0.1,3.9,0.6,5,1.1l-1,3.9
				c-0.9-0.4-2.5-1.2-5-1.2c-2.2,0-3,1-3,1.9c0,1.1,1.2,1.8,4.1,2.9c4.1,1.4,5.7,3.3,5.7,6.4c0,3-2.2,5.6-6.1,6.3v3.5H35z"/>
			<g class="st95">
				<g>
					<defs>
						<rect id="SVGID_96_" x="36.5" y="125" width="103" height="60.4"/>
					</defs>
					<clipPath id="SVGID_97_">
						<use xlink:href="#SVGID_96_"  style="overflow:visible;"/>
					</clipPath>
					<path class="st96" d="M55.2,125c26,13.2,54.6,21.3,84.3,23.7c-1.8,12.2-3.7,24.4-5.5,36.6c-34.4-2.9-67.4-12.2-97.5-27.5
						C42.7,147,49,136,55.2,125"/>
				</g>
			</g>
			<g class="st95">
				<g>
					<defs>
						<rect id="SVGID_98_" x="41.9" y="129.8" width="94.5" height="52.9"/>
					</defs>
					<clipPath id="SVGID_99_">
						<use xlink:href="#SVGID_98_"  style="overflow:visible;"/>
					</clipPath>
					<path class="st97" d="M136.5,155.5c-1.2,7.6-2.4,15.2-3.6,22.9c-3.1-0.3-6,1.6-6.6,4.4c-28.6-3.3-56.2-11-81.7-23
						c1.3-2.5,0.1-5.6-2.6-7c3.8-6.9,7.7-13.8,11.5-20.6c2.5,1.3,5.7,0.2,7-2.3c22.4,10.5,46.7,17.4,71.8,20.2
						C131.7,152.7,133.6,155.2,136.5,155.5"/>
				</g>
			</g>
			<g class="st95">
				<g>
					<defs>
						<rect id="SVGID_100_" x="73.8" y="146" width="27.5" height="25.4"/>
					</defs>
					<clipPath id="SVGID_101_">
						<use xlink:href="#SVGID_100_"  style="overflow:visible;"/>
					</clipPath>
					<path class="st98" d="M74.7,154.5c2.8-6.6,10.5-9.9,17.2-8c6.8,2,10.8,8.7,8.8,15.6c-2,6.8-9.9,10.9-17.5,8.7
						C75.7,168.6,71.9,161.1,74.7,154.5"/>
				</g>
			</g>
			<path class="st99" d="M91.9,148.9c-0.2,0.7-0.5,1.5-0.7,2.2c1,0.3,2,0.8,2.7,1.2c0.6,0.4,0.8,1.2,0.4,1.8c0,0,0,0.1,0,0.1
				c-0.4,0.7-1.4,0.9-2.1,0.5c-0.7-0.5-1.6-0.9-2.5-1.1c-1.4-0.4-2.5-0.1-2.8,0.8c-0.3,0.9,0.3,1.6,1.9,2.7c2.4,1.5,3.9,3.1,3.2,5.4
				c-0.6,2-2.7,3.3-5.6,3c-0.2,0.7-0.5,1.5-0.7,2.2c-0.8-0.2-1.7-0.4-2.5-0.7c0.2-0.7,0.4-1.4,0.7-2c-0.9-0.3-1.6-0.6-2.2-0.9
				c-0.7-0.4-0.9-1.3-0.5-1.9c0.5-0.7,1.4-0.9,2.1-0.4c0.5,0.3,1.2,0.7,2.1,0.9c1.6,0.4,2.4-0.1,2.6-0.7c0.2-0.8-0.5-1.5-2.4-2.8
				c-2.6-1.8-3.4-3.4-2.6-5.5c0.7-2,2.9-3.3,5.8-3c0.3-0.8,0.5-1.6,0.8-2.4C90.3,148.5,91.1,148.7,91.9,148.9"/>
			<g class="st95">
				<g>
					<defs>
						<rect id="SVGID_102_" x="103.9" y="162.3" width="21.4" height="7"/>
					</defs>
					<clipPath id="SVGID_103_">
						<use xlink:href="#SVGID_102_"  style="overflow:visible;"/>
					</clipPath>
					<path class="st100" d="M104.9,162.3c6.7,1.4,13.6,2.6,20.4,3.5c-0.2,1.2-0.5,2.3-0.7,3.5c-7-0.9-13.9-2.1-20.7-3.6
						C104.2,164.7,104.6,163.5,104.9,162.3"/>
				</g>
			</g>
			<g class="st95">
				<g>
					<defs>
						<rect id="SVGID_104_" x="51" y="144.8" width="20.6" height="11.2"/>
					</defs>
					<clipPath id="SVGID_105_">
						<use xlink:href="#SVGID_104_"  style="overflow:visible;"/>
					</clipPath>
					<path class="st101" d="M52.7,144.8c6.2,2.9,12.5,5.5,18.9,7.9c-0.5,1.1-1,2.2-1.4,3.3c-6.5-2.4-12.9-5.1-19.2-8
						C51.6,147,52.1,145.9,52.7,144.8"/>
				</g>
			</g>
			<g class="st95">
				<g>
					<defs>
						<rect id="SVGID_106_" x="101.7" y="107.7" width="88.4" height="96.7"/>
					</defs>
					<clipPath id="SVGID_107_">
						<use xlink:href="#SVGID_106_"  style="overflow:visible;"/>
					</clipPath>
					<path class="st102" d="M101.7,173.6c23-17.8,42.5-40.2,57.4-65.9c10.3,6.8,20.7,13.7,31,20.5c-17.2,29.7-39.7,55.6-66.3,76.2
						C116.4,194.1,109.1,183.9,101.7,173.6"/>
				</g>
			</g>
			<g class="st95">
				<g>
					<defs>
						<rect id="SVGID_108_" x="107.4" y="113.3" width="77" height="84.6"/>
					</defs>
					<clipPath id="SVGID_109_">
						<use xlink:href="#SVGID_108_"  style="overflow:visible;"/>
					</clipPath>
					<path class="st103" d="M163.9,113.3c6.4,4.3,12.8,8.6,19.3,13c-1.6,2.7-1.1,6.1,1.2,7.8c-15.1,24.4-33.8,45.9-55.6,63.9
						c-1.7-2.3-5-2.5-7.4-0.6c-4.6-6.4-9.3-12.7-13.9-19.1c2.2-1.7,2.6-5,0.9-7.3c19.1-15.8,35.6-34.7,48.8-56.1
						C159.3,116.4,162.4,115.8,163.9,113.3"/>
				</g>
			</g>
			<g class="st95">
				<g>
					<defs>
						<rect id="SVGID_110_" x="133.3" y="145.1" width="25.7" height="27.2"/>
					</defs>
					<clipPath id="SVGID_111_">
						<use xlink:href="#SVGID_110_"  style="overflow:visible;"/>
					</clipPath>
					<path class="st104" d="M136.9,168.5c-4.8-5.3-4.6-13.6,0-18.9c4.7-5.3,12.5-6,17.9-1.4c5.4,4.6,5.7,13.5,0.5,19.4
						C150.1,173.6,141.6,173.8,136.9,168.5"/>
				</g>
			</g>
			<path class="st99" d="M139,150.7c0.6,0.5,1.1,1,1.7,1.6c0.7-0.8,1.5-1.5,2.3-1.9c0.6-0.4,1.4-0.2,1.9,0.4c0,0,0,0.1,0.1,0.1
				c0.5,0.7,0.3,1.7-0.4,2.1c-0.7,0.5-1.4,1-2.1,1.8c-0.9,1.1-1.2,2.2-0.5,2.9c0.7,0.6,1.6,0.4,3.3-0.6c2.4-1.5,4.5-2.2,6.2-0.6
				c1.6,1.4,1.8,3.8,0.4,6.3c0.6,0.5,1.1,1,1.7,1.6c-0.6,0.7-1.1,1.3-1.7,2c-0.5-0.5-1-1-1.6-1.5c-0.7,0.7-1.3,1.2-1.8,1.6
				c-0.7,0.5-1.5,0.3-1.9-0.4c-0.4-0.7-0.2-1.7,0.5-2.1c0.5-0.3,1.1-0.8,1.7-1.5c1.1-1.3,0.9-2.2,0.4-2.6c-0.6-0.5-1.5-0.2-3.5,0.9
				c-2.7,1.6-4.5,1.6-6.1,0.1c-1.6-1.5-1.8-4-0.3-6.5c-0.6-0.6-1.2-1.1-1.8-1.7C137.9,151.9,138.5,151.3,139,150.7"/>
			<g class="st95">
				<g>
					<defs>
						<rect id="SVGID_112_" x="156.8" y="127.7" width="14.8" height="19.3"/>
					</defs>
					<clipPath id="SVGID_113_">
						<use xlink:href="#SVGID_112_"  style="overflow:visible;"/>
					</clipPath>
					<path class="st105" d="M156.8,144.7c4.2-5.5,8.1-11.1,11.9-16.9c1,0.7,1.9,1.4,2.9,2.1c-3.8,5.9-7.8,11.6-12,17.2
						C158.6,146.2,157.7,145.4,156.8,144.7"/>
				</g>
			</g>
			<g class="st95">
				<g>
					<defs>
						<rect id="SVGID_114_" x="118.7" y="170.5" width="17.6" height="16.6"/>
					</defs>
					<clipPath id="SVGID_115_">
						<use xlink:href="#SVGID_114_"  style="overflow:visible;"/>
					</clipPath>
					<path class="st106" d="M118.7,184.2c5.3-4.3,10.3-8.9,15.2-13.7c0.8,0.9,1.6,1.8,2.4,2.7c-4.9,4.8-10.1,9.5-15.4,13.9
						C120.2,186.2,119.4,185.2,118.7,184.2"/>
				</g>
			</g>
			<path class="st91" d="M118.2,159.9c0-14.1,11.5-25.5,25.6-25.5c14.2,0,25.6,11.4,25.6,25.5c0,14.1-11.5,25.5-25.6,25.5
				C129.7,185.4,118.2,173.9,118.2,159.9"/>
			<path class="st92" d="M116,159.9c0-14.1,11.5-25.5,25.6-25.5c14.2,0,25.6,11.4,25.6,25.5c0,14.1-11.5,25.5-25.6,25.5
				S116,173.9,116,159.9"/>
			<path class="st93" d="M141.6,183.4c-6.2,0-12.1-2.4-16.5-6.8c-4.4-4.4-6.8-10.2-6.8-16.4c0-6.2,2.4-12,6.8-16.4
				c4.4-4.4,10.3-6.8,16.5-6.8c6.2,0,12.1,2.4,16.5,6.8c4.4,4.4,6.8,10.2,6.8,16.4c0,6.2-2.4,12-6.8,16.4
				C153.8,181,147.9,183.4,141.6,183.4 M141.6,138.3c-12.1,0-22,9.8-22,21.9c0,12,9.9,21.9,22,21.9c12.1,0,22-9.8,22-21.9
				C163.6,148.1,153.8,138.3,141.6,138.3"/>
			<path class="st93" d="M141.4,173.8v-3.2c-2.3-0.1-4.5-0.7-5.8-1.5l1-4c1.4,0.8,3.5,1.5,5.7,1.5c2,0,3.3-0.8,3.3-2.1
				c0-1.3-1.1-2.1-3.6-3c-3.7-1.2-6.2-2.9-6.2-6.3c0-3,2.1-5.4,5.8-6.1v-3.3h3.4v3c2.3,0.1,3.9,0.6,5,1.1l-1,3.9
				c-0.9-0.4-2.5-1.2-5-1.2c-2.2,0-3,1-3,1.9c0,1.1,1.2,1.8,4.1,2.9c4.1,1.4,5.7,3.3,5.7,6.4c0,3-2.2,5.6-6.1,6.3v3.5H141.4z"/>
			<path class="st94" d="M139.9,173.8v-3.2c-2.3-0.1-4.5-0.7-5.8-1.5l1-4c1.4,0.8,3.5,1.5,5.7,1.5c2,0,3.3-0.8,3.3-2.1
				c0-1.3-1.1-2.1-3.6-3c-3.7-1.2-6.2-2.9-6.2-6.3c0-3,2.1-5.4,5.8-6.1v-3.3h3.4v3c2.3,0.1,3.9,0.6,5,1.1l-1,3.9
				c-0.9-0.4-2.5-1.2-5-1.2c-2.2,0-3,1-3,1.9c0,1.1,1.2,1.8,4.1,2.9c4.1,1.4,5.7,3.3,5.7,6.4c0,3-2.2,5.6-6.1,6.3v3.5H139.9z"/>
			<g class="st95">
				<g>
					<defs>
						<rect id="SVGID_116_" x="67.6" y="160" width="100.8" height="46.6"/>
					</defs>
					<clipPath id="SVGID_117_">
						<use xlink:href="#SVGID_116_"  style="overflow:visible;"/>
					</clipPath>
					<path class="st107" d="M80.1,160c27.9,8.4,57.5,11.2,87.2,8.4c0.4,12.3,0.8,24.7,1.1,37c-34.3,3.3-68.5,0-100.8-9.7
						C71.8,183.8,75.9,171.9,80.1,160"/>
				</g>
			</g>
			<g class="st95">
				<g>
					<defs>
						<rect id="SVGID_118_" x="72" y="163.8" width="94" height="40.9"/>
					</defs>
					<clipPath id="SVGID_119_">
						<use xlink:href="#SVGID_118_"  style="overflow:visible;"/>
					</clipPath>
					<path class="st108" d="M165.5,175.5c0.2,7.7,0.4,15.4,0.5,23.1c-3.1,0.3-5.7,2.7-5.7,5.5c-28.7,1.9-57.3-0.8-84.6-8.1
						c0.8-2.7-0.9-5.5-3.8-6.4c2.5-7.5,5.1-14.9,7.6-22.4c2.7,0.8,5.6-0.8,6.5-3.5c24,6.4,49,8.8,74.3,7.1
						C160.3,173.7,162.6,175.8,165.5,175.5"/>
				</g>
			</g>
			<g class="st95">
				<g>
					<defs>
						<rect id="SVGID_120_" x="104.3" y="174.6" width="27.4" height="25.5"/>
					</defs>
					<clipPath id="SVGID_121_">
						<use xlink:href="#SVGID_120_"  style="overflow:visible;"/>
					</clipPath>
					<path class="st109" d="M104.6,185.6c1.6-7,8.5-11.6,15.5-10.9c7,0.7,12.2,6.7,11.5,13.7c-0.7,7-7.7,12.5-15.7,11.7
						C108.1,199.2,103,192.5,104.6,185.6"/>
				</g>
			</g>
			<path class="st99" d="M120.5,177c-0.1,0.8-0.2,1.5-0.3,2.3c1.1,0.1,2.1,0.4,2.9,0.7c0.7,0.3,1,1,0.8,1.7c0,0,0,0.1,0,0.1
				c-0.3,0.8-1.2,1.2-2,0.9c-0.8-0.3-1.7-0.6-2.7-0.6c-1.4-0.1-2.5,0.3-2.6,1.3c-0.1,0.9,0.6,1.6,2.4,2.3c2.6,1.1,4.4,2.4,4.1,4.7
				c-0.2,2.1-2.1,3.7-4.9,4c-0.1,0.8-0.2,1.5-0.3,2.3c-0.9-0.1-1.7-0.1-2.6-0.2c0.1-0.7,0.2-1.4,0.3-2.1c-1-0.1-1.7-0.3-2.4-0.5
				c-0.8-0.3-1.1-1.1-0.8-1.8c0.3-0.7,1.2-1.1,2-0.8c0.6,0.2,1.3,0.4,2.2,0.5c1.7,0.1,2.3-0.5,2.4-1.2c0.1-0.8-0.7-1.4-2.8-2.3
				c-2.9-1.3-3.9-2.7-3.6-4.9c0.3-2.1,2.2-3.8,5.1-4c0.1-0.8,0.2-1.6,0.4-2.5C118.9,176.8,119.7,176.9,120.5,177"/>
			<g class="st95">
				<g>
					<defs>
						<rect id="SVGID_122_" x="135.3" y="187.7" width="21.1" height="3.9"/>
					</defs>
					<clipPath id="SVGID_123_">
						<use xlink:href="#SVGID_122_"  style="overflow:visible;"/>
					</clipPath>
					<path class="st110" d="M135.7,187.9c6.9,0.2,13.8,0.2,20.7-0.2c0,1.2,0,2.4,0,3.6c-7,0.4-14.1,0.4-21,0.2
						C135.5,190.3,135.6,189.1,135.7,187.9"/>
				</g>
			</g>
			<g class="st95">
				<g>
					<defs>
						<rect id="SVGID_124_" x="80.1" y="180" width="21.1" height="7.9"/>
					</defs>
					<clipPath id="SVGID_125_">
						<use xlink:href="#SVGID_124_"  style="overflow:visible;"/>
					</clipPath>
					<path class="st111" d="M81.2,180c6.6,1.7,13.3,3.2,20,4.4c-0.3,1.2-0.5,2.4-0.8,3.5c-6.8-1.2-13.6-2.7-20.3-4.5
						C80.5,182.3,80.8,181.1,81.2,180"/>
				</g>
			</g>
			<path class="st88" d="M24.5,181.8v7.7h0.1c1.1,2.1,11.4,3.7,24,3.7c12.6,0,22.9-1.6,24-3.7h0.1v-7.7H24.5z"/>
			<path class="st89" d="M33.3,182.1v10.2c2.4,0.3,5.3,0.6,8.4,0.8v-11H33.3z"/>
			<path class="st89" d="M43.3,183.9v9.2c0.7,0,1.4,0,2.1,0.1v-9.3H43.3z"/>
			<path class="st90" d="M72.7,181.8c0,1.9-10.8,3.5-24.1,3.5s-24.1-1.6-24.1-3.5s10.8-3.5,24.1-3.5S72.7,179.9,72.7,181.8"/>
			<path class="st88" d="M66.9,182c0,1.5-8.2,2.6-18.3,2.6c-10.1,0-18.3-1.2-18.3-2.6c0-1.5,8.2-2.6,18.3-2.6
				C58.7,179.4,66.9,180.6,66.9,182"/>
			<path class="st89" d="M65.1,182.3c0,1.3-7.4,2.4-16.4,2.4c-9.1,0-16.4-1.1-16.4-2.4c0-1.3,7.4-2.4,16.4-2.4
				C57.7,179.9,65.1,181,65.1,182.3"/>
			<path class="st88" d="M19.7,172.7v7.7h0.1c1.1,2.1,11.4,3.7,24,3.7c12.6,0,22.9-1.6,24-3.7H68v-7.7H19.7z"/>
			<path class="st89" d="M28.5,172.9v10.2c2.4,0.3,5.3,0.6,8.4,0.8v-11H28.5z"/>
			<path class="st89" d="M38.5,174.8v9.2c0.7,0,1.4,0.1,2.1,0.1v-9.3H38.5z"/>
			<path class="st90" d="M68,172.7c0,1.9-10.8,3.5-24.1,3.5c-13.3,0-24.1-1.6-24.1-3.5c0-1.9,10.8-3.5,24.1-3.5
				C57.2,169.2,68,170.8,68,172.7"/>
			<path class="st88" d="M62.1,172.9c0,1.5-8.2,2.6-18.3,2.6c-10.1,0-18.3-1.2-18.3-2.6c0-1.5,8.2-2.6,18.3-2.6
				C53.9,170.3,62.1,171.4,62.1,172.9"/>
			<path class="st89" d="M60.3,173.2c0,1.3-7.4,2.4-16.4,2.4c-9.1,0-16.4-1.1-16.4-2.4c0-1.3,7.4-2.4,16.4-2.4
				C52.9,170.8,60.3,171.8,60.3,173.2"/>
			<path class="st88" d="M24.5,163.4v7.7h0.1c1.1,2.1,11.4,3.7,24,3.7c12.6,0,22.9-1.6,24-3.7h0.1v-7.7H24.5z"/>
			<path class="st89" d="M33.3,163.7v10.2c2.4,0.3,5.3,0.6,8.4,0.8v-11H33.3z"/>
			<path class="st89" d="M43.3,165.5v9.2c0.7,0,1.4,0,2.1,0.1v-9.3H43.3z"/>
			<path class="st90" d="M72.7,163.4c0,1.9-10.8,3.5-24.1,3.5s-24.1-1.6-24.1-3.5c0-1.9,10.8-3.5,24.1-3.5S72.7,161.5,72.7,163.4"/>
			<path class="st88" d="M66.9,163.6c0,1.5-8.2,2.6-18.3,2.6s-18.3-1.2-18.3-2.6c0-1.5,8.2-2.6,18.3-2.6S66.9,162.2,66.9,163.6"/>
			<path class="st89" d="M65.1,163.9c0,1.3-7.4,2.4-16.4,2.4c-9.1,0-16.4-1.1-16.4-2.4c0-1.3,7.4-2.4,16.4-2.4
				C57.7,161.5,65.1,162.6,65.1,163.9"/>
			<path class="st88" d="M36.2,153.1v7.7h0.1c1.1,2.1,11.4,3.7,24,3.7c12.6,0,22.9-1.6,24-3.7h0.1v-7.7H36.2z"/>
			<path class="st89" d="M45,153.3v10.2c2.4,0.3,5.3,0.6,8.4,0.8v-11H45z"/>
			<path class="st89" d="M55,155.2v9.2c0.7,0,1.4,0,2.1,0.1v-9.3H55z"/>
			<path class="st90" d="M84.4,153.1c0,1.9-10.8,3.5-24.1,3.5s-24.1-1.6-24.1-3.5s10.8-3.5,24.1-3.5S84.4,151.2,84.4,153.1"/>
			<path class="st88" d="M78.6,153.3c0,1.5-8.2,2.6-18.3,2.6s-18.3-1.2-18.3-2.6c0-1.5,8.2-2.6,18.3-2.6S78.6,151.8,78.6,153.3"/>
			<path class="st89" d="M76.8,153.6c0,1.3-7.4,2.4-16.4,2.4c-9.1,0-16.4-1.1-16.4-2.4c0-1.3,7.4-2.4,16.4-2.4
				C69.4,151.2,76.8,152.2,76.8,153.6"/>
			<path class="st91" d="M66.3,201.9c-7.1-12.2-2.9-27.8,9.4-34.8c12.3-7,27.9-2.9,35,9.3c7.1,12.2,2.9,27.8-9.4,34.8
				C89.1,218.3,73.4,214.1,66.3,201.9"/>
			<path class="st92" d="M64.4,203c-7.1-12.2-2.9-27.8,9.4-34.8c12.3-7,27.9-2.9,35,9.3c7.1,12.2,2.9,27.8-9.4,34.8
				C87.1,219.4,71.5,215.2,64.4,203"/>
			<path class="st93" d="M98.4,210.6c-5.4,3.1-11.7,3.9-17.7,2.3c-6-1.6-11.1-5.5-14.2-10.8s-3.9-11.6-2.3-17.6
				c1.6-6,5.5-11,10.9-14.1c5.4-3.1,11.7-3.9,17.7-2.3c6,1.6,11.1,5.5,14.2,10.8c3.1,5.4,3.9,11.6,2.3,17.6
				C107.7,202.5,103.8,207.5,98.4,210.6 M75.8,171.6c-10.5,6-14.1,19.4-8,29.8c6.1,10.4,19.5,14,30,8c10.5-6,14.1-19.4,8-29.8
				C99.7,169.1,86.2,165.5,75.8,171.6"/>
			<path class="st93" d="M93.4,202.4l-1.6-2.8c-2,1.1-4.3,1.6-5.8,1.6l-1.1-4c1.6,0,3.8-0.4,5.7-1.5c1.7-1,2.5-2.3,1.8-3.5
				c-0.7-1.1-2-1.3-4.7-0.8c-3.8,0.8-6.8,0.5-8.5-2.3c-1.5-2.6-0.9-5.7,2-8.2l-1.6-2.8l2.9-1.7l1.5,2.6c2-1.1,3.6-1.4,4.9-1.5
				l1.1,3.8c-1,0.1-2.7,0.2-4.9,1.5c-1.9,1.1-2.1,2.3-1.6,3.1c0.6,1,2,1,5.1,0.5c4.3-0.8,6.6,0,8.2,2.7c1.5,2.6,1,6-2.1,8.5l1.8,3
				L93.4,202.4z"/>
			<path class="st94" d="M92,203.1l-1.6-2.8c-2,1.1-4.3,1.6-5.8,1.6l-1.1-4c1.6,0,3.8-0.4,5.7-1.5c1.7-1,2.5-2.3,1.8-3.5
				c-0.7-1.1-2-1.3-4.7-0.8c-3.8,0.8-6.8,0.5-8.5-2.3c-1.5-2.6-0.9-5.7,2-8.2l-1.6-2.8l2.9-1.7l1.5,2.6c2-1.1,3.6-1.4,4.9-1.5
				l1.1,3.8c-1,0.1-2.7,0.2-4.9,1.5c-1.9,1.1-2.1,2.3-1.6,3.1c0.6,1,2,1,5.1,0.5c4.3-0.8,6.6,0,8.2,2.7c1.5,2.6,1,6-2.1,8.5l1.8,3
				L92,203.1z"/>
		</g>
		<g class="st85">
			<defs>
				<rect id="SVGID_126_" x="10.7" y="12.7" width="178.8" height="175.6"/>
			</defs>
			<clipPath id="SVGID_127_">
				<use xlink:href="#SVGID_126_"  style="overflow:visible;"/>
			</clipPath>
			<path class="st112" d="M142.9,47.8c-1.3,3.9-3.6,7.1-6.4,8.9c2.9,1.8,5.2,4.9,6.4,8.9c1.3-3.9,3.6-7.1,6.4-8.9
				C146.4,54.9,144.1,51.8,142.9,47.8"/>
			<path class="st112" d="M50.5,87.5c-0.7,2.3-2.1,4.1-3.7,5.1c1.7,1,3,2.8,3.7,5.1c0.7-2.3,2.1-4.1,3.7-5.1
				C52.6,91.6,51.3,89.8,50.5,87.5"/>
		</g>
	</g>
</g>
</svg>
