<?xml version="1.0" encoding="utf-8"?>
<!-- Generator: Adobe Illustrator 26.0.1, SVG Export Plug-In . SVG Version: 6.00 Build 0)  -->
<svg version="1.1" id="圖層_1" xmlns="http://www.w3.org/2000/svg" xmlns:xlink="http://www.w3.org/1999/xlink" x="0px" y="0px"
	 viewBox="0 0 512 512" style="enable-background:new 0 0 512 512;" xml:space="preserve">
<style type="text/css">
	.st0{display:none;}
	.st1{display:inline;}
	.st2{fill:#003F98;}
	.st3{display:inline;fill:#003F98;}
	.st4{display:inline;fill:#003F98;stroke:#003F98;stroke-width:13.0429;stroke-miterlimit:10;}
	.st5{fill:none;}
	.st6{fill:none;stroke:#FFFFFF;stroke-width:30.7724;stroke-linecap:round;stroke-linejoin:round;stroke-miterlimit:13.3333;}
</style>
<g id="_x30_3" class="st0">
	<g id="Factory" class="st1">
		<g>
			<path class="st2" d="M131.7,117.4c-8.7,0-15.7-7-15.7-15.7c0-26,21.2-47.2,47.2-47.2h125.9c8.7,0,15.7,7,15.7,15.7
				s-7,15.7-15.7,15.7H163.2c-8.7,0-15.7,7.1-15.7,15.7C147.5,110.3,140.4,117.4,131.7,117.4z"/>
		</g>
		<g>
			<path class="st2" d="M383.5,85.9H352c-8.7,0-15.7-7-15.7-15.7s7-15.7,15.7-15.7h31.5c8.7,0,15.7,7,15.7,15.7
				S392.2,85.9,383.5,85.9z"/>
		</g>
		<g>
			<path class="st2" d="M439.9,190.2c-10-5.7-21.8-5.5-31.7,0.4l-106.5,65.5v-36.6c0-11.7-6.4-22.3-16.7-27.8
				c-10.3-5.5-22.7-4.8-32.4,1.7c-0.1,0-64.6,45.3-64.6,45.3l-9.1-82.1c-0.9-8-7.6-14-15.6-14h-62.9c-8,0-14.8,6-15.6,14L53.2,439.8
				c-0.5,4.4,0.9,8.9,3.9,12.2c3,3.3,7.2,5.2,11.7,5.2h125.9c4.5,0,8.7-1.9,11.7-5.2c3-3.3,4.4-7.8,3.9-12.2l-18.4-165.5l78.3-54.9
				v64.8c0,5.7,3.1,11,8.1,13.7c5,2.8,11.1,2.7,15.9-0.3l130.2-80v208.2H258c-8.7,0-15.7,7-15.7,15.7s7,15.7,15.7,15.7h182.2
				c8.7,0,15.7-7,15.7-15.7v-224C455.9,206.1,449.9,195.8,439.9,190.2z M86.4,425.8l28-251.8h34.8l28,251.8H86.4z"/>
			<path class="st2" d="M380.4,362.9c8.7,0,15.7-7,15.7-15.7s-7-15.7-15.7-15.7h-31.5c-8.7,0-15.7,7-15.7,15.7s7,15.7,15.7,15.7
				H380.4z"/>
			<path class="st2" d="M254.5,362.9H286c8.7,0,15.7-7,15.7-15.7s-7-15.7-15.7-15.7h-31.5c-8.7,0-15.7,7-15.7,15.7
				S245.8,362.9,254.5,362.9z"/>
		</g>
	</g>
</g>
<g id="_x30_4" class="st0">
	<path class="st3" d="M254.2,24.7c-6,0-11.4,3.7-13.6,9.3c-14.7,36.5-50.1,84.6-82.4,132.9s-62.4,96.8-62.4,143.4
		c0,87.2,71.1,158.3,158.5,158.3S413,397.5,413,310.3c0-46.6-30.1-95.1-62.4-143.4S282.8,70.5,268.1,34
		C265.8,28.3,260.3,24.6,254.2,24.7z M254.4,67.3c19.2,37.3,45,76.2,71.5,116c31.6,47.4,57.5,94.4,57.5,127
		c0,71.2-57.6,128.7-129,128.7s-128.9-57.5-128.9-128.7c0-32.7,25.7-79.7,57.4-127C209.3,143.5,235.2,104.6,254.4,67.3L254.4,67.3z
		 M254.3,375.2c-8.2,0-14.8,6.6-14.8,14.7c0,8.2,6.6,14.8,15.1,14.9c61.3,0,110.3-49.6,110.3-110.4c0.1-8.2-6.5-14.9-14.8-14.8
		s-14.9,6.7-14.8,14.8C335.4,339.2,299.3,375.2,254.3,375.2L254.3,375.2z"/>
</g>
<g id="_x30_2" class="st0">
	<g class="st1">
		<path class="st2" d="M273.9,205.5v-89.4c0-10.5-8.5-19-19-19s-19,8.5-19,19v89.4c0,10.5,8.5,19,19,19S273.9,215.9,273.9,205.5z"/>
		<path class="st2" d="M189.8,162.6c8.6-6,10.7-17.8,4.7-26.4s-17.8-10.7-26.4-4.7c-40.6,28.5-64.9,75-64.9,124.4
			c0,83.7,68.1,151.8,151.8,151.8s151.8-68.1,151.8-151.8c0-49.4-24.2-95.9-64.8-124.4c-8.6-6-20.4-3.9-26.4,4.6
			c-6,8.6-3.9,20.4,4.6,26.4c30.5,21.4,48.7,56.2,48.7,93.3c0,62.8-51.1,113.8-113.8,113.8s-113.8-51.1-113.8-113.8
			C141.1,218.8,159.3,184,189.8,162.6L189.8,162.6z"/>
		<path class="st2" d="M426.7,84.1C380.8,38.3,319.8,13,254.9,13S129,38.3,83.1,84.1C37.3,130,12,191,12,255.9
			s25.3,125.9,71.1,171.8c45.9,45.9,106.9,71.1,171.8,71.1c44.5,0,88.1-12.2,126-35.2c9-5.4,11.8-17.1,6.4-26.1s-17.1-11.8-26.1-6.4
			c-31.9,19.4-68.7,29.7-106.3,29.7c-113,0-205-91.9-205-205s91.9-205,205-205s205,91.9,205,205c0,41.5-12.3,81.4-35.6,115.5
			c-5.9,8.7-3.7,20.5,5,26.4s20.5,3.7,26.4-5c27.6-40.4,42.2-87.8,42.2-136.9C497.8,191,472.5,130,426.7,84.1L426.7,84.1z"/>
	</g>
</g>
<g class="st0">
	<path class="st3" d="M474.3,129.7l-96-96c-3-3-7.1-4.7-11.4-4.6H175c-26.5,0-48,21.5-48,48v96c0,8.8,7.2,16,16,16s16-7.2,16-16V77
		c0-8.8,7.2-16,16-16h176v48c0,26.5,21.5,48,48,48h48v272c0,8.8-7.2,16-16,16H303c-8.8,0-16,7.2-16,16s7.2,16,16,16h128
		c26.5,0,48-21.5,48-48V141C479,136.8,477.3,132.7,474.3,129.7z M383,109V83.6l41.4,41.4H399C390.2,125,383,117.8,383,109z"/>
	<path class="st3" d="M159,221c-70.7,0-128,57.3-128,128s57.3,128,128,128s128-57.3,128-128S229.7,221,159,221z M159,445
		c-53,0-96-43-96-96s43-96,96-96s96,43,96,96S212,445,159,445z"/>
	<path class="st3" d="M179.6,305.7l-64,64c-6.3,6.2-6.3,16.4-0.1,22.6l0.1,0.1c6.2,6.3,16.4,6.3,22.6,0.1l0.1-0.1l64-64
		c6.3-6.3,6.3-16.4,0-22.7S185.9,299.4,179.6,305.7z"/>
	<circle class="st3" cx="127" cy="317" r="16"/>
	<circle class="st3" cx="191" cy="381" r="16"/>
	<path class="st3" d="M303,125h-96c-8.8,0-16,7.2-16,16s7.2,16,16,16h96c8.8,0,16-7.2,16-16S311.8,125,303,125z"/>
	<path class="st3" d="M399,205h-96c-8.8,0-16,7.2-16,16s7.2,16,16,16h96c8.8,0,16-7.2,16-16S407.8,205,399,205z"/>
	<path class="st3" d="M399,285h-64c-8.8,0-16,7.2-16,16s7.2,16,16,16h64c8.8,0,16-7.2,16-16S407.8,285,399,285z"/>
	<path class="st3" d="M399,365h-64c-8.8,0-16,7.2-16,16s7.2,16,16,16h64c8.8,0,16-7.2,16-16S407.8,365,399,365z"/>
</g>
<g class="st0">
	<path class="st3" d="M140.3,307.5l18.5,6.4c35.8,12.3,36.9,63.1,1,76.6c0,9.7-7.2,15.8-15.1,15.8c-7.8,0-15.1-6-15.1-15.8
		c-15.4-5.8-26.5-20.7-26.5-38.1c0-8.3,6.8-15.1,15.1-15.1s15.1,6.8,15.1,15.1c0,5.8,4.7,10.5,10.5,10.5h1.8
		c11.8,0,14.5-16.5,3.4-20.3l-18.5-6.4c-35.8-12.3-36.9-63.1-1-76.6c0-9.7,7.2-15.8,15.1-15.8c7.8,0,15.1,6,15.1,15.8
		c15.4,5.8,26.5,20.7,26.5,38.1c0,8.3-6.8,15.1-15.1,15.1S156,306,156,297.7c0-5.8-4.7-10.5-10.5-10.5h-1.8
		C131.9,287.1,129.3,303.7,140.3,307.5z M269.3,325c0,68.8-55.9,124.7-124.7,124.7S19.9,393.7,19.9,325s55.9-124.7,124.7-124.7
		S269.3,256.2,269.3,325z M239.1,325c0-52.1-42.4-94.5-94.5-94.5S50.2,272.9,50.2,325s42.4,94.5,94.5,94.5S239.1,377,239.1,325z
		 M473.4,419.4H463V170c0-8.3-6.8-15.1-15.1-15.1s-15.1,6.8-15.1,15.1v249.4h-76.5V230.5c0-8.3-6.8-15.1-15.1-15.1
		s-15.1,6.8-15.1,15.1v188.9h-64.2c-8.3,0-15.1,6.8-15.1,15.1c0,8.3,6.8,15.1,15.1,15.1h211.6c8.3,0,15.1-6.8,15.1-15.1
		C488.5,426.2,481.7,419.4,473.4,419.4z M252.6,217.6l54-54l23.8,23.8c5.9,5.9,15.5,5.9,21.4,0l80.9-80.9v7
		c0,8.3,6.8,15.1,15.1,15.1s15.1-6.8,15.1-15.1c0-48,0.1-43.9-0.2-45.6c-0.7-5.2-4.1-9.7-9.2-11.8c-3.7-1.5-2.6-1.1-49.2-1.1
		c-8.3,0-15.1,6.8-15.1,15.1S396.1,85,404.4,85h7l-70.3,70.3l-23.8-23.8c-5.9-5.9-15.5-5.9-21.4,0l-64.7,64.7
		c-5.9,5.9-5.9,15.5,0,21.4C237.2,223.5,246.7,223.5,252.6,217.6L252.6,217.6z"/>
</g>
<g class="st0">
	<path class="st4" d="M245.5,28.5c-8.8,0-15.9,7.1-15.9,15.9l0,0v190.9c0,26.4,21.4,47.7,47.7,47.7l0,0H468
		c8.8,0,15.9-7.1,15.9-15.9V267C483.8,135.3,377.1,28.7,245.5,28.5L245.5,28.5z M277.3,251.1c-8.8,0.1-15.9-7-16-15.7v-0.1V60.9
		c101.6,8,182.2,88.6,190.2,190.2H277.3z"/>
	<path class="st4" d="M430.5,315.7c-8.3-2.9-17.3,1.4-20.3,9.6v0.1c-25.5,73.6-96.9,121.1-174.6,116.3
		c-89.5-5.6-160.5-77.4-165-166.9c-3.7-76.9,43.7-147.1,116.4-172.5c8.3-2.9,12.7-12,9.7-20.3c-2.9-8.3-12-12.7-20.3-9.7
		C90.6,102.1,34.6,184.8,38.7,275.6c5.1,105.9,88.9,191.2,194.8,198.1h11.7c87.7,0.5,166-54.9,194.8-137.7
		C442.9,327.8,438.7,318.7,430.5,315.7z"/>
</g>
<rect x="45.6" y="39.3" class="st5" width="436.6" height="436.6"/>
<g id="g493">
	<g id="g499" transform="translate(128.4316,477.083)">
		<path id="path501" class="st6" d="M26.7-408c7.7,33.7,37.8,58.8,73.8,58.8s66.1-25.1,73.8-58.8"/>
	</g>
	<g id="g503" transform="translate(69.5039,160.063)">
		<path id="path505" class="st6" d="M35.3,179.3l13.9-7.6C72.5,159,79.4,128.8,64,107.2c-10.1-14.3-7.1-34.1,7-44.7
			c8-6,12.6-15.3,12.6-25.3l0,0C83.6,19.8,69.5,5.7,52,5.7H-1.2"/>
	</g>
	<g id="g507" transform="translate(495.7124,233.7124)">
		<path id="path509" class="st6" d="M-27.4,42.9c0,0,11.5,94.5-39.7,145.7s-145.7,39.7-145.7,39.7s-11.5-94.5,39.7-145.7
			S-27.4,42.9-27.4,42.9z"/>
	</g>
	<g id="g511" transform="translate(278.2876,16.2876)">
		<path id="path513" class="st6" d="M4.6,445.7l102.3-102.3"/>
	</g>
	<g id="g515" transform="translate(402.6289,227.6147)">
		<path id="path517" class="st6" d="M-13.7,54.2C-6.9,35.7-3.2,15.8-3.2-5c0-94.2-76.4-170.6-170.6-170.6S-344.3-99.2-344.3-5
			s76.4,170.6,170.6,170.6c20.8,0,40.7-3.7,59.2-10.5"/>
	</g>
	<g id="g519" transform="translate(391.4492,391.1118)">
		<path id="path521" class="st6" d="M-12.1-248.8L-12.1-248.8c-36,9-67.6,30.5-89.1,60.7c-8.8,12.3-23,19.6-38.1,19.6h-13.3
			c-21.2,0-38.4,17.2-38.4,38.4l0,0c0,24.2,22.2,42.4,45.9,37.7l0,0c26.4-5.3,53.5,3.1,72.2,21.8"/>
	</g>
</g>
</svg>
