<?xml version="1.0" encoding="utf-8"?>
<!-- Generator: Adobe Illustrator 26.0.1, SVG Export Plug-In . SVG Version: 6.00 Build 0)  -->
<svg version="1.1" xmlns="http://www.w3.org/2000/svg" xmlns:xlink="http://www.w3.org/1999/xlink" x="0px" y="0px"
	 viewBox="0 0 512 512" style="enable-background:new 0 0 512 512;" xml:space="preserve">
<style type="text/css">
	.st0{display:none;}
	.st1{display:inline;fill:#003F98;}
	.st2{fill:#003F98;}
	.st3{display:inline;}
</style>
<g id="_x30_1" class="st0">
	<path class="st1" d="M423.8,79.3C378.5,34,318.3,9,254.3,9S130,34,84.8,79.3c-45.2,45.2-70.1,106.6-70.2,170.5
		c0,55.5,19.4,109.2,54.5,151.9c34.7,42.2,83.1,71.4,136.3,82.5c3.8,0.8,7.7,1.2,11.5,1.2c12.8,0,25.3-4.4,35.4-12.6
		c13.2-10.7,20.7-26.6,20.7-43.6l0-81c41.6-8.5,73.1-45.4,73.1-89.5v-48.2c0-10.3-8.4-18.7-18.7-18.7h-15.9v-47.8
		c0-10.3-8.4-18.7-18.7-18.7c-10.3,0-18.7,8.4-18.7,18.7v47.8h-37.5v-47.8c0-10.3-8.4-18.7-18.7-18.7s-18.7,8.4-18.7,18.7v47.8
		h-16.9c-10.3,0-18.7,8.4-18.7,18.7v48.2c0,43.8,31,80.4,72.1,89.3l0,81.2c0,7.7-4.3,12.4-6.9,14.5c-4.4,3.6-10.1,5-15.7,3.8
		C119.8,428.1,52.1,345,52,249.7c0,0,0,0.2,0,0c0-111.5,90.7-203.2,202.3-203.2s202.3,90.7,202.3,202.3
		c0,81.8-48.5,155.1-123.4,186.9c-9.5,4-14,15-9.9,24.6c4,9.5,15,14,24.6,9.9c42.8-18.1,79.2-48.3,105.4-87.2
		c26.8-39.8,40.9-86.2,40.9-134.3C494,184.8,469.1,124.5,423.8,79.3L423.8,79.3z M200.9,258.6v-29.5h107.7v29.5
		c0,29.7-24.2,53.9-53.9,53.9S200.9,288.3,200.9,258.6L200.9,258.6z"/>
</g>
<g id="_x30_3">
	<g id="Factory">
		<g>
			<path class="st2" d="M131.7,117.4c-8.7,0-15.7-7-15.7-15.7c0-26,21.2-47.2,47.2-47.2h125.9c8.7,0,15.7,7,15.7,15.7
				s-7,15.7-15.7,15.7H163.2c-8.7,0-15.7,7.1-15.7,15.7C147.5,110.3,140.4,117.4,131.7,117.4z"/>
		</g>
		<g>
			<path class="st2" d="M383.5,85.9H352c-8.7,0-15.7-7-15.7-15.7s7-15.7,15.7-15.7h31.5c8.7,0,15.7,7,15.7,15.7
				S392.2,85.9,383.5,85.9z"/>
		</g>
		<g>
			<path class="st2" d="M439.9,190.2c-10-5.7-21.8-5.5-31.7,0.4c0,0-106.5,65.5-106.5,65.5v-36.6c0-11.7-6.4-22.3-16.7-27.8
				c-10.3-5.5-22.7-4.8-32.4,1.7c-0.1,0-64.6,45.3-64.6,45.3l-9.1-82.1c-0.9-8-7.6-14-15.6-14h-62.9c-8,0-14.8,6-15.6,14L53.2,439.8
				c-0.5,4.4,0.9,8.9,3.9,12.2c3,3.3,7.2,5.2,11.7,5.2h125.9c4.5,0,8.7-1.9,11.7-5.2c3-3.3,4.4-7.8,3.9-12.2l-18.4-165.5l78.3-54.9
				v64.8c0,5.7,3.1,11,8.1,13.7c5,2.8,11.1,2.7,15.9-0.3l130.2-80v208.2H258c-8.7,0-15.7,7-15.7,15.7c0,8.7,7,15.7,15.7,15.7h182.2
				c8.7,0,15.7-7,15.7-15.7v-224C455.9,206.1,449.9,195.8,439.9,190.2z M86.4,425.8l28-251.8h34.8l28,251.8H86.4z"/>
			<path class="st2" d="M380.4,362.9c8.7,0,15.7-7,15.7-15.7s-7-15.7-15.7-15.7h-31.5c-8.7,0-15.7,7-15.7,15.7s7,15.7,15.7,15.7
				H380.4z"/>
			<path class="st2" d="M254.5,362.9h31.5c8.7,0,15.7-7,15.7-15.7s-7-15.7-15.7-15.7h-31.5c-8.7,0-15.7,7-15.7,15.7
				S245.8,362.9,254.5,362.9z"/>
		</g>
	</g>
</g>
<g id="_x30_4" class="st0">
	<path class="st1" d="M254.2,24.7c-6,0-11.4,3.7-13.6,9.3c-14.7,36.5-50.1,84.6-82.4,132.9c-32.3,48.3-62.4,96.8-62.4,143.4
		c0,87.2,71.1,158.3,158.5,158.3S413,397.5,413,310.3c0-46.6-30.1-95.1-62.4-143.4S282.8,70.5,268.1,34
		C265.8,28.3,260.3,24.6,254.2,24.7z M254.4,67.3c19.2,37.3,45,76.2,71.5,116c31.6,47.4,57.5,94.4,57.5,127
		c0,71.2-57.6,128.7-129,128.7s-128.9-57.5-128.9-128.7c0-32.7,25.7-79.7,57.4-127C209.3,143.5,235.2,104.6,254.4,67.3L254.4,67.3z
		 M254.3,375.2c-8.2,0-14.8,6.6-14.8,14.7c0,8.2,6.6,14.8,15.1,14.9c61.3,0,110.3-49.6,110.3-110.4c0.1-8.2-6.5-14.9-14.8-14.8
		s-14.9,6.7-14.8,14.8C335.4,339.2,299.3,375.2,254.3,375.2L254.3,375.2z"/>
</g>
<g id="_x30_2" class="st0">
	<g class="st3">
		<path class="st2" d="M273.9,205.5v-89.4c0-10.5-8.5-19-19-19c-10.5,0-19,8.5-19,19v89.4c0,10.5,8.5,19,19,19
			S273.9,215.9,273.9,205.5z"/>
		<path class="st2" d="M189.8,162.6c8.6-6,10.7-17.8,4.7-26.4c-6-8.6-17.8-10.7-26.4-4.7c-40.6,28.5-64.9,75-64.9,124.4
			c0,83.7,68.1,151.8,151.8,151.8s151.8-68.1,151.8-151.8c0-49.4-24.2-95.9-64.8-124.4c-8.6-6-20.4-3.9-26.4,4.6
			c-6,8.6-3.9,20.4,4.6,26.4c30.5,21.4,48.7,56.2,48.7,93.3c0,62.8-51.1,113.8-113.8,113.8s-113.8-51.1-113.8-113.8
			C141.1,218.8,159.3,184,189.8,162.6L189.8,162.6z"/>
		<path class="st2" d="M426.7,84.1C380.8,38.3,319.8,13,254.9,13S129,38.3,83.1,84.1C37.3,130,12,191,12,255.9
			s25.3,125.9,71.1,171.8c45.9,45.9,106.9,71.1,171.8,71.1c44.5,0,88.1-12.2,126-35.2c9-5.4,11.8-17.1,6.4-26.1
			c-5.4-9-17.1-11.8-26.1-6.4c-31.9,19.4-68.7,29.7-106.3,29.7c-113,0-205-91.9-205-205s91.9-205,205-205s205,91.9,205,205
			c0,41.5-12.3,81.4-35.6,115.5c-5.9,8.7-3.7,20.5,5,26.4c8.7,5.9,20.5,3.7,26.4-5c27.6-40.4,42.2-87.8,42.2-136.9
			C497.8,191,472.5,130,426.7,84.1L426.7,84.1z"/>
	</g>
</g>
</svg>
