<?xml version="1.0" encoding="utf-8"?>
<!-- Generator: Adobe Illustrator 26.0.1, SVG Export Plug-In . SVG Version: 6.00 Build 0)  -->
<svg version="1.1" id="圖層_1" xmlns="http://www.w3.org/2000/svg" xmlns:xlink="http://www.w3.org/1999/xlink" x="0px" y="0px"
	 viewBox="0 0 512 512" style="enable-background:new 0 0 512 512;" xml:space="preserve">
<style type="text/css">
	.st0{display:none;}
	.st1{display:inline;}
	.st2{fill:#E6240F;}
	.st3{fill:#1C264D;}
	.st4{fill:#172249;stroke:#172249;stroke-width:7.0002;stroke-miterlimit:10;}
	.st5{fill:#E6240F;stroke:#E6240F;stroke-width:7.0002;stroke-miterlimit:10;}
	.st6{display:inline;fill:#1C264D;}
	.st7{display:inline;fill:#E6240F;}
	.st8{fill:none;stroke:#1C264D;stroke-width:25.7902;stroke-linecap:round;stroke-linejoin:round;stroke-miterlimit:13.3333;}
	.st9{display:inline;fill:#1C264D;stroke:#1C264D;stroke-width:13.8924;stroke-miterlimit:10;}
	.st10{display:inline;fill:#E6240F;stroke:#E6240F;stroke-width:11.1139;stroke-miterlimit:10;}
	.st11{fill:#E6240F;stroke:#E6240F;stroke-width:2;stroke-miterlimit:10;}
</style>
<g id="圖層_2_00000067944348018833660330000002680188879021929648_" class="st0">
	<g class="st1">
		<g>
			<g>
				<path class="st2" d="M341.4,157.1H227.1c-10.1,0-18.2,8.3-18.2,18.5s8.2,18.5,18.2,18.5h114.2c10.1,0,18.2-8.3,18.2-18.5
					C359.6,165.4,351.4,157.1,341.4,157.1z"/>
			</g>
		</g>
		<g>
			<g>
				<path class="st2" d="M385.1,246.6h-158c-10.1,0-18.2,8.3-18.2,18.5c0,10.2,8.2,18.5,18.2,18.5h158c10.1,0,18.2-8.3,18.2-18.5
					C403.4,254.9,395.2,246.6,385.1,246.6z"/>
			</g>
		</g>
		<g>
			<g>
				<path class="st3" d="M467.8,41H145.1c-10.1,0-18.2,8.3-18.2,18.5v174.8H94.7c-37.9,0-68.7,31.3-68.7,69.8v103.1
					c0,38.5,30.8,69.8,68.7,69.8c3.1,0,6.1-0.2,9.1-0.6h300.8c44.9,0,81.4-37.1,81.4-82.8V59.5C486,49.3,477.8,41,467.8,41z
					 M126.9,407.2c0,15.9-11.2,29.2-26,32.1h-6.2v0.6c-17.8,0-32.2-14.7-32.2-32.7V304.1c0-18,14.5-32.7,32.2-32.7h32.2L126.9,407.2
					L126.9,407.2z M449.5,393.6c0,24.8-20.6,45.7-45,45.7h-249c4.9-9.6,7.7-20.5,7.7-32.1V78.1h286.2L449.5,393.6L449.5,393.6z"/>
			</g>
		</g>
		<g>
			<g>
				<path class="st2" d="M341.4,330.6H227.1c-10.1,0-18.2,8.3-18.2,18.5s8.2,18.5,18.2,18.5h114.2c10.1,0,18.2-8.3,18.2-18.5
					C359.6,338.9,351.4,330.6,341.4,330.6z"/>
			</g>
		</g>
	</g>
</g>
<g id="圖層_3" class="st0">
	<g class="st1">
		<path class="st4" d="M319.4,32.5c-2-2.2-4.8-3.5-7.7-3.5H138.4C106.4,29,80,55.6,80,88v332c0,32.4,26.4,59,58.4,59h235.2
			c32,0,58.4-26.6,58.4-59V156.4c0-2.8-1.3-5.5-3.1-7.6L319.4,32.5z M322.5,67.4l73.3,77.9h-47.6c-14.2,0-25.6-11.5-25.6-25.9
			L322.5,67.4L322.5,67.4z M373.6,457.3H138.4c-20.1,0-36.9-16.8-36.9-37.3V88c0-20.3,16.7-37.3,36.9-37.3h162.7v68.7
			c0,26.4,21,47.6,47.1,47.6h62.4v253C410.5,440.4,393.8,457.3,373.6,457.3z"/>
		<path class="st5" d="M344.3,382.3H167.7c-5.9,0-10.7,4.9-10.7,10.9s4.8,10.9,10.7,10.9h176.8c5.9,0,10.7-4.9,10.7-10.9
			C355.2,387.2,350.3,382.3,344.3,382.3z"/>
		<path class="st5" d="M248.2,343.2c2,2.2,4.8,3.5,7.8,3.5s5.8-1.3,7.8-3.5l62.9-68.4c4.1-4.3,3.8-11.3-0.5-15.3
			c-4.3-4.1-11.2-3.8-15.1,0.5l-44.3,48.2V189.5c0-6-4.8-10.9-10.7-10.9c-5.9,0-10.7,4.9-10.7,10.9v118.7L201.2,260
			c-4.1-4.3-10.8-4.7-15.1-0.5c-4.3,4.1-4.6,11-0.5,15.3L248.2,343.2z"/>
	</g>
</g>
<g class="st0">
	<path class="st6" d="M287.8,413.7c-4.7,0-9-2.9-10.8-7.4c-1.8-4.5-0.8-9.6,2.5-13l46.6-47.7c2.2-2.2,5.1-3.5,8.2-3.5h58.2
		c19.3,0,34.9-16,34.9-35.8V139.2c0-19.8-15.6-35.8-34.9-35.8H136.5c-19.3,0-34.9,16-34.9,35.8v167.1c0,19.8,15.6,35.8,34.9,35.8
		h11.6c6.4,0,11.6,5.3,11.6,11.9c0,6.6-5.2,11.9-11.6,11.9h-11.6c-32.1,0-58.2-26.7-58.2-59.7V139.2c0-32.9,26.1-59.6,58.2-59.7
		h256.1c32.1,0,58.2,26.7,58.2,59.7v167.1c0,32.9-26.1,59.6-58.2,59.7h-53.4L296,410.2C293.9,412.4,290.9,413.7,287.8,413.7z"/>
	<path class="st6" d="M311,175H143.9c-6.6,0-11.9-5.3-11.9-11.9c0-6.6,5.3-11.9,11.9-11.9H311c6.6,0,11.9,5.3,11.9,11.9
		C323,169.6,317.6,175,311,175z"/>
	<path class="st6" d="M358.8,175c-3.2,0-6.2-1.2-8.5-3.5c-2.2-2.2-3.5-5.3-3.5-8.5c0-3.2,1.3-6.2,3.5-8.5c0.6-0.5,1.2-1,1.8-1.4
		c0.7-0.5,1.4-0.8,2.2-1.1c0.7-0.4,1.5-0.6,2.3-0.7c3.9-0.8,7.9,0.4,10.7,3.2c2.2,2.3,3.4,5.3,3.5,8.5c0,1.6-0.3,3.1-1,4.5
		c-0.6,1.4-1.5,2.8-2.5,3.9C365,173.7,361.9,175,358.8,175z"/>
	<path class="st6" d="M382.6,234.6H143.9c-6.6,0-11.9-5.3-11.9-11.9c0-6.6,5.3-11.9,11.9-11.9h238.7c6.6,0,11.9,5.3,11.9,11.9
		C394.6,229.3,389.2,234.6,382.6,234.6z"/>
	<path class="st6" d="M381.3,294.3h-83.5c-6.6,0-11.9-5.3-11.9-11.9s5.3-11.9,11.9-11.9h83.5c6.6,0,11.9,5.3,11.9,11.9
		S387.9,294.3,381.3,294.3z"/>
	<path class="st7" d="M197.6,401.7c-34.6-1.8-61.2-31.1-59.7-65.6c-1.5-34.6,25.1-63.9,59.7-65.6c34.6,1.8,61.2,31.1,59.7,65.6
		C258.8,370.6,232.2,400,197.6,401.7z M197.6,294.3c-21.3,1.8-37.3,20.4-35.8,41.8c-1.5,21.4,14.5,40,35.8,41.8
		c21.3-1.8,37.3-20.4,35.8-41.8C234.9,314.7,219,296.1,197.6,294.3z"/>
	<path class="st7" d="M269.2,461.4c-6.6,0-11.9-5.3-11.9-11.9c0-26.3-26.8-47.7-59.7-47.7s-59.7,21.4-59.7,47.7
		c0,6.6-5.3,11.9-11.9,11.9c-6.6,0-11.9-5.3-11.9-11.9c0-39.5,37.5-71.6,83.5-71.6s83.5,32.1,83.5,71.6
		C281.2,456,275.8,461.4,269.2,461.4z"/>
</g>
<g class="st0">
	<path class="st7" d="M332.4,210.2c-22.6-1.1-40.1-19.4-39.1-41c-1-21.6,16.4-39.9,39.1-41c22.6,1.1,40.1,19.4,39.1,41
		C372.4,190.8,355,209.1,332.4,210.2z M332.4,143.2c-14,1.1-24.4,12.7-23.4,26.1c-1,13.3,9.5,25,23.4,26.1
		c14-1.1,24.4-12.7,23.4-26.1C356.8,155.9,346.3,144.3,332.4,143.2z"/>
	<path class="st7" d="M379.2,247.5c-4.3,0-7.8-3.3-7.8-7.4c0-16.4-17.5-29.8-39.1-29.8c-21.5,0-39.1,13.4-39.1,29.8
		c0,4.1-3.5,7.4-7.8,7.4s-7.8-3.3-7.8-7.4c0-24.6,24.5-44.7,54.7-44.7c30.2,0,54.7,20,54.7,44.7
		C387.1,244.1,383.6,247.5,379.2,247.5z"/>
	<g id="g504" transform="translate(408.6333,497)" class="st1">
		<path id="path506" class="st8" d="M19.7-410.5h-325.4v350.6h212.2L19.7-167.7V-410.5z"/>
	</g>
	<g id="g512" transform="translate(103.3667,223.8667)" class="st1">
		<path id="path514" class="st8" d="M56.2,91.9h99"/>
	</g>
	<g id="g516" transform="translate(103.3667,352.3999)" class="st1">
		<path id="path518" class="st8" d="M56.2-144.5h56.6"/>
	</g>
	<g id="g520" transform="translate(103.3667,159.6001)" class="st1">
		<path id="path522" class="st8" d="M56.2,210.1h99"/>
	</g>
	<g id="g524" transform="translate(103.3667,416.6665)" class="st1">
		<path id="path526" class="st8" d="M56.2-262.7h56.6"/>
	</g>
	<g id="g528" transform="translate(103.3667,288.1333)" class="st1">
		<path id="path530" class="st8" d="M56.2-26.3h56.6"/>
	</g>
	<g id="g532" transform="translate(408.6333,207.7998)" class="st1">
		<path id="path534" class="st8" d="M19.7,121.5H-93.5v107.9L19.7,121.5z"/>
	</g>
</g>
<g class="st0">
	<path class="st9" d="M382.2,352.8H133.3c-40.1,0-72.6-32.5-72.6-72.6V72.8h394v207.4C454.7,320.3,422.2,352.8,382.2,352.8z
		 M81.5,93.6v186.6c0,28.6,23.2,51.8,51.8,51.8h248.9c28.6,0,51.8-23.2,51.8-51.8V93.6H81.5z"/>
	<path class="st9" d="M472.8,93.2H42.7c-5.7,0-10.4-4.6-10.4-10.4S37,72.4,42.7,72.4h430.1c5.7,0,10.4,4.6,10.4,10.4
		S478.5,93.2,472.8,93.2z"/>
	<path class="st9" d="M249.1,459.6c-5.7,0-10.4-4.6-10.4-10.4V342.4c0-5.7,4.7-10.4,10.4-10.4c5.7,0,10.3,4.6,10.4,10.4v106.8
		C259.5,454.9,254.8,459.6,249.1,459.6L249.1,459.6z"/>
	<path class="st9" d="M313.1,460.8h-128c-5.7,0-10.4-4.6-10.4-10.4s4.6-10.4,10.4-10.4h128c5.7,0,10.4,4.6,10.4,10.4
		S318.8,460.8,313.1,460.8z"/>
	<path class="st10" d="M150.2,275c-5.7,0-10.4-4.7-10.3-10.4c0-2.7,1-5.2,2.9-7.1l65.3-67.4c7.7-8.2,20.5-8.7,28.9-1.2l58.5,61.2
		l69.8-109.9c3.1-4.8,9.5-6.2,14.3-3.1c4.8,3.1,6.2,9.5,3.1,14.3L311.5,261c-3.4,5-8.8,8.2-14.7,8.9c-5.8,0.7-11.6-1.1-16-4.9
		l-58.6-60.7l-64.6,68C155.6,274.2,152.9,275.2,150.2,275L150.2,275z"/>
</g>
<g class="st0">
	<path class="st6" d="M404.4,35.3H107.6c-44.9,0-81.3,36.4-81.3,81.2v180c0,44.9,36.4,81.2,81.3,81.2h75.1l48.5,84.3
		c5.7,9.8,15.5,14.7,25.4,14.7c10.5,0,20.9-5.5,26.3-16.3l40.8-82.7h80.7c44.9,0,81.3-36.4,81.3-81.2v-180
		C485.7,71.6,449.3,35.3,404.4,35.3L404.4,35.3z M453.2,296.5c0,26.9-21.9,48.7-48.8,48.7H303.5l-47,95.4l-54.9-95.4h-93.9
		c-26.9,0-48.8-21.9-48.8-48.7v-180c0-26.9,21.9-48.7,48.8-48.7h296.7c26.9,0,48.8,21.9,48.8,48.7L453.2,296.5L453.2,296.5z"/>
	<path class="st7" d="M166.7,187.8c-6.9,0-13.6,2.8-18.4,7.6c-4.8,4.8-7.6,11.5-7.6,18.4s2.8,13.5,7.6,18.4
		c4.9,4.8,11.5,7.6,18.4,7.6c6.8,0,13.5-2.8,18.4-7.6c4.8-4.8,7.6-11.5,7.6-18.4c0-6.8-2.8-13.5-7.6-18.4
		C180.3,190.5,173.6,187.8,166.7,187.8z"/>
	<path class="st7" d="M256,187.8c-6.9,0-13.6,2.8-18.4,7.6c-4.8,4.8-7.6,11.6-7.6,18.4c0,6.9,2.8,13.5,7.6,18.4
		c4.8,4.8,11.5,7.6,18.4,7.6c6.8,0,13.6-2.8,18.4-7.6c4.8-4.8,7.6-11.5,7.6-18.4c0-6.8-2.8-13.5-7.6-18.4
		C269.6,190.5,262.8,187.8,256,187.8z"/>
	<path class="st7" d="M345.3,187.8c-6.8,0-13.6,2.8-18.4,7.6c-4.9,4.8-7.6,11.6-7.6,18.4c0,6.9,2.8,13.5,7.6,18.4
		c4.8,4.8,11.5,7.6,18.4,7.6c6.9,0,13.6-2.8,18.4-7.6c4.8-4.8,7.6-11.5,7.6-18.4c0-6.8-2.8-13.5-7.6-18.4
		C358.8,190.5,352.1,187.8,345.3,187.8z"/>
</g>
<path class="st3" d="M414.4,484.5H161.1c-22.6,0-41-18.3-41-41l0,0v-375c0-22.6,18.3-41,41-41l0,0h116.2c10.4,0,20.4,3.9,28.2,10.8
	l135.6,121.9c9,8.1,14.2,19.6,14.2,31.7v251.6C455.2,466.1,437,484.4,414.4,484.5L414.4,484.5z M161.1,58c-5.8,0-10.5,4.7-10.5,10.5
	v375c0,5.8,4.7,10.5,10.5,10.5l0,0h253.3c5.8,0,10.5-4.7,10.5-10.5c0,0,0,0,0,0V191.1c0-3.4-1.4-6.6-4-8.8L285.4,60.4
	c-2.3-1.8-5.2-2.6-8.1-2.4L161.1,58z"/>
<path class="st3" d="M440,194.2H305.8c-18.4,0-33.4-14.9-33.4-33.4l0,0V51.3h30.5v109.5c0,1.6,1.3,2.9,2.9,2.9l0,0H440L440,194.2z"
	/>
<path class="st11" d="M203.3,377.9h147.3c10.2,0,18.4,6.8,18.4,15.2l0,0c0,8.4-8.2,15.2-18.4,15.2H203.3c-10.2,0-18.4-6.8-18.4-15.2
	l0,0C184.9,384.7,193.1,377.9,203.3,377.9z"/>
<path class="st11" d="M203.3,312.2h36.8c10.2,0,18.4,6.8,18.4,15.2l0,0c0,8.4-8.2,15.2-18.4,15.2h-36.8c-10.2,0-18.4-6.8-18.4-15.2
	l0,0C184.9,319,193.1,312.2,203.3,312.2z"/>
<path class="st3" d="M94.7,418.4c-21-0.2-37.8-17.3-37.9-38.2V131.9c0-21,17-38.1,38.1-38.1c2.6,0,5.1,0.3,7.6,0.8l32.7,5.5l-5,30.5
	l-33.1-5.9c-2.4-0.7-5-0.2-7,1.4c-1.8,1.4-2.9,3.6-2.9,5.9v248.3c0.1,4.3,3.6,7.7,7.9,7.6c0.5,0,0.9-0.1,1.4-0.1l34.4-4.6l4,30.5
	l-33.4,4.4C99.3,418.3,97,418.5,94.7,418.4L94.7,418.4z"/>
</svg>
