<?xml version="1.0" encoding="utf-8"?>
<!-- Generator: Adobe Illustrator 26.0.1, SVG Export Plug-In . SVG Version: 6.00 Build 0)  -->
<svg version="1.1" xmlns="http://www.w3.org/2000/svg" xmlns:xlink="http://www.w3.org/1999/xlink" x="0px" y="0px"
	 viewBox="0 0 512 512" style="enable-background:new 0 0 512 512;" xml:space="preserve">
<style type="text/css">
	.st0{display:none;}
	.st1{display:inline;fill:#1C264D;}
	.st2{display:inline;fill:#E6240F;}
	.st3{fill:#E6240F;}
	.st4{fill:#1C264D;}
	.st5{display:inline;}
	.st6{fill:#172249;stroke:#172249;stroke-width:7.0002;stroke-miterlimit:10;}
	.st7{fill:#E6240F;stroke:#E6240F;stroke-width:7.0002;stroke-miterlimit:10;}
</style>
<g id="Layer_1" class="st0">
	<path class="st1" d="M384,384H128c-44.2-0.1-79.9-35.8-80-80V144c0.1-44.2,35.8-79.9,80-80h256c44.2,0.1,79.9,35.8,80,80v160
		C463.9,348.2,428.2,383.9,384,384z M128,96c-26.5,0-48,21.5-48,48v160c0,26.5,21.5,48,48,48h256c26.5,0,48-21.5,48-48V144
		c0-26.5-21.5-48-48-48H128z"/>
	<path class="st1" d="M416,448H96c-8.8,0-16-7.2-16-16s7.2-16,16-16h320c8.8,0,16,7.2,16,16S424.8,448,416,448z"/>
	<path class="st2" d="M225.8,308.3c-17.6-0.1-31.9-14.4-32-32V171.7c0-17.7,14.3-32,32-32c5.6,0,11.1,1.5,16,4.3l90.5,52.3
		c15.3,8.8,20.5,28.4,11.7,43.7c-2.8,4.9-6.8,8.9-11.7,11.7L241.8,304C237,306.8,231.4,308.3,225.8,308.3L225.8,308.3z M316.4,224
		l-90.6-52.3v104.6L316.4,224z"/>
</g>
<g id="圖層_2">
	<g>
		<g>
			<g>
				<path class="st3" d="M341.4,157.1H227.1c-10.1,0-18.2,8.3-18.2,18.5c0,10.2,8.2,18.5,18.2,18.5h114.2c10.1,0,18.2-8.3,18.2-18.5
					C359.6,165.4,351.4,157.1,341.4,157.1z"/>
			</g>
		</g>
		<g>
			<g>
				<path class="st3" d="M385.1,246.6h-158c-10.1,0-18.2,8.3-18.2,18.5c0,10.2,8.2,18.5,18.2,18.5h158c10.1,0,18.2-8.3,18.2-18.5
					C403.4,254.9,395.2,246.6,385.1,246.6z"/>
			</g>
		</g>
		<g>
			<g>
				<path class="st4" d="M467.8,41H145.1c-10.1,0-18.2,8.3-18.2,18.5v174.8H94.7c-37.9,0-68.7,31.3-68.7,69.8v103.1
					c0,38.5,30.8,69.8,68.7,69.8c3.1,0,6.1-0.2,9.1-0.6h300.8c44.9,0,81.4-37.1,81.4-82.8V59.5C486,49.3,477.8,41,467.8,41z
					 M126.9,407.2c0,15.9-11.2,29.2-26,32.1h-6.2v0.6c-17.8,0-32.2-14.7-32.2-32.7V304.1c0-18,14.5-32.7,32.2-32.7h32.2L126.9,407.2
					L126.9,407.2z M449.5,393.6c0,24.8-20.6,45.7-45,45.7h-249c4.9-9.6,7.7-20.5,7.7-32.1V78.1h286.2L449.5,393.6L449.5,393.6z"/>
			</g>
		</g>
		<g>
			<g>
				<path class="st3" d="M341.4,330.6H227.1c-10.1,0-18.2,8.3-18.2,18.5c0,10.2,8.2,18.5,18.2,18.5h114.2c10.1,0,18.2-8.3,18.2-18.5
					C359.6,338.9,351.4,330.6,341.4,330.6z"/>
			</g>
		</g>
	</g>
</g>
<g id="圖層_3" class="st0">
	<g class="st5">
		<path class="st6" d="M319.4,32.5c-2-2.2-4.8-3.5-7.7-3.5H138.4C106.4,29,80,55.6,80,88v332c0,32.4,26.4,59,58.4,59h235.2
			c32,0,58.4-26.6,58.4-59V156.4c0-2.8-1.3-5.5-3.1-7.6L319.4,32.5z M322.5,67.4l73.3,77.9h-47.6c-14.2,0-25.6-11.5-25.6-25.9V67.4z
			 M373.6,457.3H138.4c-20.1,0-36.9-16.8-36.9-37.3V88c0-20.3,16.7-37.3,36.9-37.3h162.7v68.7c0,26.4,21,47.6,47.1,47.6h62.4V420
			C410.5,440.4,393.8,457.3,373.6,457.3z"/>
		<path class="st7" d="M344.3,382.3H167.7c-5.9,0-10.7,4.9-10.7,10.9c0,6,4.8,10.9,10.7,10.9h176.8c5.9,0,10.7-4.9,10.7-10.9
			C355.2,387.2,350.3,382.3,344.3,382.3z"/>
		<path class="st7" d="M248.2,343.2c2,2.2,4.8,3.5,7.8,3.5c3,0,5.8-1.3,7.8-3.5l62.9-68.4c4.1-4.3,3.8-11.3-0.5-15.3
			c-4.3-4.1-11.2-3.8-15.1,0.5l-44.3,48.2V189.5c0-6-4.8-10.9-10.7-10.9c-5.9,0-10.7,4.9-10.7,10.9v118.7l-44.2-48.2
			c-4.1-4.3-10.8-4.7-15.1-0.5c-4.3,4.1-4.6,11-0.5,15.3L248.2,343.2z"/>
	</g>
</g>
</svg>
